<svg version="1.1" xmlns="http://www.w3.org/2000/svg" style="display: block;" viewBox="0 0 2048 2048" width="1024" height="1024">
<path transform="translate(0,0)" fill="rgb(252,240,196)" d="M 0 0 L 2048 0 L 2048 2048 L 0 2048 L 0 0 z"/>
<path transform="translate(0,0)" fill="rgb(42,38,42)" d="M 1572.99 784.426 L 1574.96 784.944 C 1578.37 788.233 1583.11 809.068 1584.26 814.677 C 1583.23 817.343 1580.37 817.852 1577.84 819.05 C 1576.68 818.64 1576.62 818.799 1575.85 817.906 C 1572.37 813.854 1566.22 794.856 1567.6 789.159 C 1568.33 786.189 1570.54 785.75 1572.99 784.426 z"/>
<path transform="translate(0,0)" fill="rgb(42,38,42)" d="M 1683.15 637.344 C 1695.08 637.461 1707.34 637.012 1719.21 638.257 C 1720.6 640.988 1719.9 644.568 1719.75 647.548 C 1707.8 648.075 1695.42 647.46 1683.47 646.918 C 1682.41 645.554 1683.1 639.361 1683.15 637.344 z"/>
<path transform="translate(0,0)" fill="rgb(42,38,42)" d="M 1629.57 751.71 C 1638.01 758.487 1648.66 768.771 1654.83 777.677 C 1653.59 780.643 1650.57 782.292 1648.06 784.143 C 1638.79 777.556 1630.58 767.303 1622.68 759.102 C 1624.89 756.575 1627.27 754.165 1629.57 751.71 z"/>
<path transform="translate(0,0)" fill="rgb(42,38,42)" d="M 1387.26 504.845 C 1397.31 511.171 1407.86 523.657 1415.61 532.72 C 1414.46 535.329 1412.51 536.516 1410.35 538.291 C 1408.63 538.698 1408.91 539.001 1407.62 538.302 C 1403.5 536.078 1384.7 516.263 1383.54 512.165 C 1383.16 510.809 1386.42 506.252 1387.26 504.845 z"/>
<path transform="translate(0,0)" fill="rgb(42,38,42)" d="M 1660.87 499.786 C 1663.14 501.67 1664.58 503.009 1665.9 505.741 C 1664.56 511.331 1645.02 529.096 1639.77 534.48 C 1637.19 532.167 1634.77 529.643 1632.32 527.197 C 1641.36 517.755 1650.74 508.058 1660.87 499.786 z"/>
<path transform="translate(0,0)" fill="rgb(42,38,42)" d="M 1410.88 751.812 C 1411.92 752.616 1412.5 753.029 1413.48 754.011 C 1415.17 755.716 1416.13 757.089 1416.22 759.513 C 1408.18 768.563 1397.5 776.82 1387.83 784.087 C 1386.73 783.365 1386.05 782.968 1385.01 782.05 C 1383.08 780.335 1382.35 778.93 1382.2 776.427 C 1389.71 767.257 1401.67 759.35 1410.88 751.812 z"/>
<path transform="translate(0,0)" fill="rgb(42,38,42)" d="M 1669.69 702.169 C 1681.88 705.638 1693.8 711.741 1705.58 716.477 L 1702.18 726.928 C 1692.4 723.557 1676.77 717.569 1668.84 711.434 C 1667.7 708.227 1668.87 705.327 1669.69 702.169 z"/>
<path transform="translate(0,0)" fill="rgb(42,38,42)" d="M 1342.92 639.486 C 1350.63 639.239 1366.75 636.675 1372.91 641.283 C 1373.71 643.31 1374.36 644.413 1373.27 646.571 C 1371.84 649.378 1369.58 649.187 1366.86 649.74 C 1358.35 649.85 1342.35 653.254 1335.52 647.723 C 1334.45 644.981 1334.7 643.821 1335.29 641.054 C 1337.66 638.917 1339.79 639.56 1342.92 639.486 z"/>
<path transform="translate(0,0)" fill="rgb(42,38,42)" d="M 1704.14 561.978 C 1705.88 562.518 1707.29 564.751 1708.33 566.166 C 1708.26 566.893 1708.24 567.666 1707.93 568.351 C 1704.68 575.608 1682.62 583.048 1675.27 586.243 C 1674.42 585.494 1672.82 583.778 1672.26 582.685 C 1670.88 579.964 1671.09 579.316 1672 576.629 C 1680.11 569.064 1693.83 565.76 1704.14 561.978 z"/>
<path transform="translate(0,0)" fill="rgb(42,38,42)" d="M 1591.88 459.814 C 1595.01 460.72 1598.02 461.4 1600.72 463.319 A 3205.39 3205.39 0 0 0 1588.28 501.8 L 1577.25 499.194 A 1257.7 1257.7 0 0 0 1591.88 459.814 z"/>
<path transform="translate(0,0)" fill="rgb(42,38,42)" d="M 1441.75 463.624 C 1442.99 463.788 1444.21 463.637 1445.16 464.544 C 1448.1 467.336 1462.26 498.184 1462.21 501.295 L 1457.57 503.913 L 1454.08 503.942 C 1448.3 499.656 1438.97 475.621 1436.22 467.978 C 1437.4 465.41 1439.35 464.964 1441.75 463.624 z"/>
<path transform="translate(0,0)" fill="rgb(42,38,42)" d="M 1375.43 699.79 L 1377.9 700.241 C 1379.68 702.198 1380.42 703.41 1381.14 705.96 C 1378.98 711.326 1350.71 721.82 1343.69 724.908 C 1341.06 723.706 1339.26 718.243 1338.06 715.61 A 2994.71 2994.71 0 0 1 1375.43 699.79 z"/>
<path transform="translate(0,0)" fill="rgb(42,38,42)" d="M 1453.15 793.587 C 1456.86 794.293 1460.41 795.768 1463.95 797.043 C 1457.85 810.392 1452.15 823.468 1448.23 837.669 L 1437.36 833.041 C 1442.95 819.953 1448.66 807.108 1453.15 793.587 z"/>
<path transform="translate(0,0)" fill="rgb(42,38,42)" d="M 1511.18 443.49 C 1514.24 443.209 1516.9 443.164 1519.96 443.541 C 1523.78 450.609 1522.69 477.285 1522.76 486.28 C 1519.45 486.68 1516.45 487.174 1513.15 486.468 C 1510.19 473.428 1511.11 456.949 1511.18 443.49 z"/>
<path transform="translate(0,0)" fill="rgb(42,38,42)" d="M 1342.12 563.358 C 1351.52 566.27 1374.99 572.104 1381.73 578.493 C 1381.72 581.656 1379.88 583.882 1378.24 586.446 C 1372.98 587.364 1345.98 576.085 1340.48 573.101 C 1339.31 570.654 1341.35 566.076 1342.12 563.358 z"/>
<path transform="translate(0,0)" fill="rgb(42,38,42)" d="M 488 395.314 C 494.235 394.726 500.938 395.014 507.068 396.342 C 527.291 400.721 538.068 413.58 548.84 430.044 A 175.058 175.058 0 0 1 551.401 429.846 C 564.248 428.95 575.461 432.311 585.131 441.084 C 593.052 448.271 597.908 457.749 598.346 468.498 C 598.788 479.31 595.382 490.022 587.837 497.908 A 39.2136 39.2136 0 0 1 569.689 508.506 C 554.024 512.714 517.382 510.266 499.654 510.248 C 476.588 510.155 448.502 512.617 426.166 509.867 C 414.404 508.419 403.624 503.38 396.446 493.713 C 390.077 485.136 387.74 473.836 389.355 463.348 C 391.097 452.03 397.535 442.52 406.993 436.163 C 417.285 429.245 427.481 427.711 439.449 430.086 C 441.225 426.571 443.235 423.056 445.505 419.833 C 455.684 405.38 470.915 398.028 488 395.314 z"/>
<path transform="translate(0,0)" fill="rgb(252,240,196)" d="M 487.295 411.159 C 495.027 410.756 502.782 410.787 510.214 413.308 C 526.669 418.889 533.428 433.95 540.841 448.161 C 541.015 448.091 541.19 448.023 541.363 447.95 C 545.804 446.07 549.722 444.372 554.64 444.232 C 562.418 444.01 569.956 446.7 575.563 452.154 C 580.849 457.294 583.623 464.409 583.65 471.747 C 583.673 478.035 581.645 484.145 577.028 488.556 C 564.741 500.291 519.256 495.855 501.75 495.602 C 477.725 495.092 452.918 497.182 429.051 495.233 C 421.207 494.592 414.683 492.25 409.646 485.916 A 26.278 26.278 0 0 1 404.249 466.228 C 405.132 459.384 408.346 452.988 414.128 449.027 C 424.792 441.72 438.622 445.432 450.276 447.612 L 451.415 443.354 C 452.709 438.453 453.94 434.157 456.73 429.834 C 463.888 418.745 474.881 413.924 487.295 411.159 z"/>
<path transform="translate(0,0)" fill="rgb(42,38,42)" d="M 1406.92 237.23 C 1419.28 236.263 1431.13 236.303 1442.88 240.854 C 1458.88 247.055 1469.42 258.642 1476.32 274.01 C 1489.18 273.948 1501.18 275.218 1511.18 284.206 A 40.3192 40.3192 0 0 1 1524.42 312.652 C 1524.72 322.51 1520.81 331.677 1513.95 338.685 A 44.1465 44.1465 0 0 1 1493.11 350.464 C 1476.32 354.64 1442.35 352.216 1423.57 352.262 C 1398.66 352.089 1373.3 353.634 1348.46 352.181 C 1335.99 351.452 1324.21 346.194 1315.97 336.662 A 35.3902 35.3902 0 0 1 1307.29 310.233 C 1308.24 299.776 1314 289.995 1322.24 283.589 C 1334.26 274.24 1348.15 273.577 1362.59 275.366 C 1364.03 272.397 1365.48 269.41 1367.09 266.528 C 1376.05 250.515 1389.61 241.895 1406.92 237.23 z"/>
<path transform="translate(0,0)" fill="rgb(252,240,196)" d="M 1409.71 250.284 C 1421.01 249.021 1432.57 249.723 1442.86 255.015 C 1457.5 262.546 1463.43 275.013 1467.9 289.963 C 1472.39 288.534 1476.94 286.945 1481.7 286.84 A 29.7012 29.7012 0 0 1 1503.15 295.118 A 26.9178 26.9178 0 0 1 1511.27 314.025 C 1511.3 320.376 1508.97 326.316 1504.4 330.764 C 1500.75 334.321 1496.11 336.701 1491.17 337.891 C 1477.34 341.223 1435.88 339.011 1419.5 338.961 C 1401.78 338.974 1351.46 341.674 1336.82 335.978 C 1330.36 333.465 1324.78 328.841 1321.99 322.397 C 1319.3 316.211 1319.64 309.314 1322.4 303.223 C 1325.54 296.282 1331.67 291.043 1338.84 288.588 C 1350.73 284.514 1360.76 288.415 1371.28 293.822 C 1372.37 286.331 1374.23 279.874 1378.08 273.243 C 1385.27 260.86 1396.16 253.9 1409.71 250.284 z"/>
<path transform="translate(0,0)" fill="rgb(42,38,42)" d="M 623.839 197.408 A 94.3719 94.3719 0 0 1 649.678 200.892 C 670.253 206.734 685.13 218.419 695.475 237.108 C 710.979 236.907 726.289 238.597 737.943 250.035 A 44.3342 44.3342 0 0 1 750.914 281.522 A 47.3237 47.3237 0 0 1 736.689 315.217 A 46.0521 46.0521 0 0 1 717.375 326.168 C 698.314 331.509 653.005 328.771 631.25 328.702 C 606.507 328.376 581.76 329.008 557.019 328.756 C 540.529 328.588 523.902 326.348 511.995 313.621 C 503.479 304.518 500.028 292.082 500.79 279.8 C 501.53 267.868 506.944 257.342 515.93 249.511 C 528.778 238.315 542.932 237.183 559.053 238.029 C 562.132 233.338 565.309 228.503 568.946 224.229 C 583.103 207.597 602.396 199.299 623.839 197.408 z"/>
<path transform="translate(0,0)" fill="rgb(252,240,196)" d="M 622.536 212.358 C 633 210.699 645.86 213.473 655.229 218.038 C 671.255 225.846 680.508 239.345 686.02 255.8 C 690.461 254.537 694.817 253.447 699.416 252.938 C 708.809 251.898 718.444 253.096 725.883 259.394 C 732.011 264.583 735.541 272.177 736.004 280.151 A 31.7789 31.7789 0 0 1 727.3 304.019 C 723.169 308.283 717.949 311.116 712.19 312.48 C 695.14 316.517 648.514 313.939 628.263 313.84 C 611.12 313.679 593.963 313.851 576.818 313.891 C 565.467 313.918 553.467 314.645 542.246 312.725 C 533.316 311.196 525.62 307.295 520.5 299.592 A 30.7608 30.7608 0 0 1 516.353 275.16 A 29.9138 29.9138 0 0 1 530.389 256.826 C 542.821 249.612 555.826 252.722 568.761 256.29 C 571.931 248.429 575.254 240.646 580.518 233.922 C 591.473 219.929 605.613 214.602 622.536 212.358 z"/>
<path transform="translate(0,0)" fill="rgb(42,38,42)" d="M 1507.73 515.373 C 1540.27 509.794 1575.34 519.808 1602.18 538.029 A 126.439 126.439 0 0 1 1655.39 619.676 A 126.671 126.671 0 0 1 1634.79 714.778 C 1613 746.571 1582.17 763.834 1544.78 770.61 C 1507.95 775.196 1475.81 769.17 1445.97 746.267 A 129.401 129.401 0 0 1 1396.83 660.087 C 1392.46 626.473 1402.9 591.456 1423.66 564.804 C 1444.3 538.317 1474.24 519.61 1507.73 515.373 z"/>
<path transform="translate(0,0)" fill="rgb(252,240,196)" d="M 1517.58 526.405 C 1544.44 522.389 1575.01 532.313 1596.69 547.878 A 118.291 118.291 0 0 1 1645.01 625.836 A 114.361 114.361 0 0 1 1623.79 710.891 C 1602.36 740.084 1572.72 754.978 1537.49 760.192 C 1506.13 763.567 1475.26 755.097 1450.58 735.331 A 115.866 115.866 0 0 1 1408.05 656.415 C 1404.71 625.212 1415.18 593.424 1434.94 569.201 C 1456.36 542.935 1484.23 529.676 1517.58 526.405 z"/>
<path transform="translate(0,0)" fill="rgb(42,38,42)" d="M 1523.59 561.411 C 1523.89 561.384 1524.19 561.346 1524.49 561.329 C 1545.42 560.104 1566.03 568.202 1581.63 581.899 A 80.3037 80.3037 0 0 1 1609 637.749 C 1610.41 659.448 1604.39 679.673 1589.95 696.095 C 1573.78 714.489 1553.36 722.978 1529.25 724.487 C 1510.04 725.662 1490.61 720.383 1475.68 708.073 C 1458.81 694.163 1446.82 673.936 1444.83 651.985 C 1442.8 629.637 1449.07 607.811 1463.6 590.569 C 1479.09 572.179 1500.07 563.519 1523.59 561.411 z"/>
<path transform="translate(0,0)" fill="rgb(237,146,92)" d="M 1515.89 573.281 C 1534.37 571.263 1552.39 574.254 1567.89 584.995 C 1582.74 595.284 1593.6 611.9 1596.77 629.703 C 1600.02 647.935 1596.73 668.589 1585.83 683.806 C 1574.32 699.9 1557.41 708.471 1538.24 711.693 C 1520.38 713.561 1502.81 711.965 1487.36 702.088 A 68.3384 68.3384 0 0 1 1457.43 658.986 A 74.1464 74.1464 0 0 1 1468.38 602.956 C 1479.63 586.328 1496.5 577.031 1515.89 573.281 z"/>
<path transform="translate(0,0)" fill="rgb(42,38,42)" d="M 1024.23 91.1597 C 1049.95 119.256 1074.38 148.894 1099.51 177.554 A 9108.4 9108.4 0 0 1 1275.21 380.817 C 1308.53 420.249 1346.33 457.67 1376.77 499.385 C 1372.4 504.358 1368.13 509.641 1363.25 514.105 A 21373.9 21373.9 0 0 0 1126.02 239.161 A 5496.17 5496.17 0 0 1 1077.95 184.489 C 1064.02 168.376 1050.36 151.831 1035.47 136.587 C 1029.77 160.341 1026 184.657 1021.71 208.698 C 1019.86 219.08 1017.16 229.386 1015.53 239.784 C 1029.28 259.261 1046.8 275.493 1060.89 294.518 L 987.95 358.055 C 973.901 370.065 959.131 381.59 945.413 393.932 C 970.891 409.818 1000.52 421.616 1027.56 434.723 L 1163.52 502.163 A 2662.17 2662.17 0 0 1 1233.52 536.912 C 1244.51 542.483 1256.05 547.617 1266.58 553.97 C 1263.16 560.02 1259.72 566.017 1256.8 572.331 C 1226.79 558.548 1197.52 542.753 1168.13 527.692 A 3562.27 3562.27 0 0 0 1056.14 472.339 C 1045.66 493.73 1037.28 516.246 1028.18 538.253 L 975.463 666.256 C 997.302 686.841 1021.19 707.004 1041.12 729.384 C 1070.32 704.357 1099.59 677.662 1126.85 650.518 C 1150.51 669.759 1176.06 697.427 1198.67 719.093 C 1242.12 676.325 1287.75 635.816 1331.4 593.278 C 1332.22 599.367 1332.88 605.498 1334.34 611.474 C 1312.26 638.692 1287 662.287 1261.85 686.598 C 1246 701.921 1230.49 717.974 1214.17 732.752 C 1233.23 755.188 1256.81 774.614 1278.28 794.755 C 1313.01 827.35 1346.75 860.999 1381.21 893.893 C 1400.7 912.503 1426.85 934.871 1444.37 954.28 C 1442.53 960.531 1441.34 967.063 1437.51 972.42 L 1435.24 973.622 C 1428.09 971.379 1168.51 716.015 1131.21 682.846 C 1123.22 711.712 1115.69 740.789 1107.19 769.506 C 1129.66 789.577 1156.96 804.24 1178.12 825.874 C 1173.66 830.198 1169.29 834.435 1165.39 839.28 C 1146.44 824.983 1125.6 811.732 1107.56 796.444 C 1092.82 807.636 1058.72 832.761 1048.02 845.241 C 1033.52 862.144 1022.51 883.034 1009.26 901.03 C 989.296 909.023 969.164 916.494 949.093 924.194 C 938.342 928.318 927.727 933.279 916.637 936.414 C 912.594 930.933 907.922 925.401 904.606 919.468 C 936.036 907.885 967.018 895.119 998.293 883.123 C 1005.01 870.393 1025.37 839.862 1034.53 829.921 C 1045.92 817.566 1076.69 792.93 1091.31 782.732 L 1084.21 776.031 C 1090.36 748.995 1099.16 722.322 1107.05 695.737 C 1066.1 735.489 1023.43 773.462 982.387 813.157 L 845.451 946.277 C 831.009 960.301 817.09 974.92 802.433 988.71 C 854.252 1041.4 908.679 1091.8 961.845 1143.14 L 1002.66 1182.75 C 1012.13 1191.92 1022.5 1201.07 1030.7 1211.41 C 1061.1 1216.3 1091.43 1221.24 1121.27 1228.92 A 2032.39 2032.39 0 0 1 1160.77 1194.99 C 1167.01 1189.74 1174.02 1184.9 1179.44 1178.78 C 1183.16 1174.58 1185.64 1170 1188.07 1164.99 C 1160.96 1167.01 1121.4 1165.66 1098.77 1148.41 C 1129.07 1146.86 1148.62 1141.77 1174.25 1124.33 C 1179.87 1120.51 1186.74 1116.11 1191.17 1110.91 C 1192 1109.93 1192.49 1108.95 1192.89 1107.75 L 1192.28 1106.04 C 1179.27 1101.4 1130.02 1110.75 1116.44 1097.2 L 1115.95 1095.16 C 1116.23 1094.7 1116.4 1094.16 1116.79 1093.79 C 1118.81 1091.87 1141 1086.01 1145.48 1084.37 C 1155.07 1080.86 1193.36 1063.7 1194.46 1052.29 C 1190.99 1049.36 1186.18 1049.78 1181.9 1050.16 C 1169.32 1051.27 1129.56 1059.73 1119.54 1052.54 C 1118.68 1050.37 1118.81 1050.27 1119.46 1048 C 1121.47 1046.24 1122.78 1046.17 1125.32 1045.74 C 1147.69 1041.9 1173.44 1022.8 1186.21 1004.27 A 153.267 153.267 0 0 0 1188.61 1000.67 C 1179.22 1002.63 1140.87 1012.79 1134.58 1008.94 C 1133.77 1006.52 1133.8 1006.43 1134.61 1004 C 1140.14 998.636 1147.24 995.242 1153.41 990.665 A 189.334 189.334 0 0 0 1193.52 950.08 C 1182.54 953.079 1146.15 964.365 1137.11 960.094 C 1136.56 958.542 1136.18 958.512 1136.73 957.126 C 1137.98 954.01 1142.54 951.153 1145.2 949.118 C 1170.24 929.978 1190.14 909.862 1208.21 883.954 A 423.892 423.892 0 0 0 1227.48 853.133 C 1230.04 848.65 1232.28 843.136 1235.41 839.068 C 1236.79 837.275 1237.42 836.797 1239.48 836.121 C 1243.74 838.813 1248.54 852.178 1251.34 857.066 C 1261.69 875.149 1274.27 893.365 1288.22 908.82 A 213.412 213.412 0 0 0 1325.7 941.069 C 1332.21 945.558 1339.37 949.591 1345.56 954.485 C 1347.47 955.993 1348.42 957.339 1349.25 959.601 L 1348.58 962.091 C 1341.64 965.43 1300.77 953.641 1290.84 950.191 C 1297.44 960.508 1304.41 970.06 1313.63 978.219 C 1323.84 987.264 1343.76 996.102 1351.59 1005.19 C 1353.28 1007.16 1353.54 1008.05 1353.24 1010.57 C 1350.96 1011.92 1349.56 1012.08 1346.9 1011.84 C 1338.47 1011.07 1329.71 1007.99 1321.46 1006.01 C 1312.21 1003.78 1302.72 1002.21 1293.35 1000.61 C 1305.98 1020 1323.63 1032.89 1344.54 1042.54 C 1350.16 1045.13 1356.33 1046.7 1361.84 1049.44 C 1364.54 1050.78 1365.35 1051.73 1366.18 1054.54 C 1364.79 1056.71 1363.92 1057.25 1361.38 1057.87 C 1346.35 1061.5 1328.98 1054.06 1314.35 1051.23 A 120.341 120.341 0 0 0 1287.31 1048.89 C 1294.88 1059.87 1304.58 1068.11 1315.83 1075.2 C 1329.88 1084.06 1345.68 1088.54 1359.87 1096.59 C 1361.84 1097.71 1363.27 1098.73 1364.24 1100.84 C 1363.52 1102.78 1363.44 1102.85 1361.6 1103.66 C 1347.07 1110.01 1310.43 1103.88 1293.51 1103.95 L 1294.36 1105.2 C 1305.92 1122 1331.52 1142.4 1352.03 1146.19 C 1361.13 1147.87 1371.27 1146.88 1379.97 1149.88 L 1380.56 1151.11 C 1379.39 1154.17 1378.28 1155.55 1375.22 1156.91 C 1355.34 1165.74 1319.57 1162.23 1298.23 1159.03 C 1301.4 1165.51 1304.83 1171.96 1307.71 1178.56 C 1316.24 1181.76 1345.65 1192.25 1350.18 1200.26 C 1350.84 1201.41 1350.24 1202.34 1349.94 1203.53 C 1347.61 1205.15 1346.38 1205.22 1343.55 1204.75 C 1334.09 1203.17 1324.2 1198.51 1314.85 1195.85 A 319.674 319.674 0 0 0 1248.17 1184.08 C 1249.28 1209.59 1248.87 1235.22 1248.91 1260.75 C 1274.89 1261.29 1301.47 1259 1327.33 1256.72 A 1349.57 1349.57 0 0 0 1430.96 1244.32 C 1455.53 1240.35 1480.77 1233.98 1505.47 1231.62 A 1187.41 1187.41 0 0 1 1505.9 1169.61 L 1504.5 1169.73 C 1485.72 1171.44 1401.51 1193.05 1390.45 1188.14 L 1389.63 1186.27 C 1394.52 1179.13 1408.11 1172.76 1415.49 1167.8 C 1440.58 1150.89 1476.21 1123.22 1488.89 1095.6 C 1480.9 1096.83 1473.12 1098.24 1465.38 1100.6 C 1453.95 1104.08 1415.76 1120.96 1406.26 1118.8 L 1404.84 1116.95 C 1406.82 1111.43 1484.64 1056.36 1485.26 1037.72 L 1483.96 1036.69 C 1469.63 1039.25 1425.11 1059.15 1414.17 1052.9 C 1413.34 1052.42 1413.03 1051.93 1412.48 1051.24 L 1412.68 1048.79 C 1419.67 1044.28 1428.46 1041.87 1435.95 1038.11 C 1457.71 1027.17 1478.94 1008.2 1489.03 985.731 C 1477.8 989.212 1436.88 1005.82 1428.04 1002.65 L 1426.97 1001.29 C 1427.21 1000.33 1427.15 999.256 1427.67 998.418 C 1430.06 994.541 1437.66 990.267 1441.49 987.452 C 1460.62 973.388 1482.16 956.924 1491.62 934.433 C 1479.21 940.461 1462.79 950.073 1449.02 950.671 L 1447.3 949.843 C 1446.76 946.407 1446.51 943.119 1448.57 940.096 C 1452.1 934.921 1457.62 930.388 1462.29 926.27 C 1475.17 914.903 1483.37 904.894 1490.33 889.14 C 1477.95 891.173 1463.37 899.328 1451.17 898.229 L 1450.26 897.077 C 1450.58 895.29 1450.98 894.027 1451.95 892.466 C 1456.17 885.686 1462.41 880.652 1468.38 875.507 C 1484.64 861.501 1496.91 847.932 1504.51 827.343 C 1508.36 816.922 1504.51 806.816 1507.99 797.072 C 1510.5 795.681 1511.68 795.966 1514.5 796.025 C 1517.55 798.873 1518.44 820.235 1520.12 826.665 C 1523.11 838.062 1528.86 847.972 1535.01 857.907 C 1539.05 864.425 1543.91 870.794 1549.71 875.853 C 1554.97 880.446 1573.94 888.646 1574.51 894.478 C 1572.72 896.525 1572.04 897.33 1569.25 897.576 C 1558.7 898.506 1541.55 893.255 1530.61 891.096 C 1536.2 900.853 1542.09 909.033 1550.23 916.848 C 1555.66 922.059 1586.04 943.5 1587.65 946.358 C 1588.19 947.313 1588.39 948.421 1588.76 949.452 C 1588.23 950.74 1588.34 951.494 1586.89 952.008 C 1576.86 955.578 1542.85 940.026 1531.47 936.186 C 1542.36 959.075 1561.39 972.078 1581.49 986.456 C 1585.05 989.006 1591.17 992.352 1593.68 995.918 C 1595.2 998.091 1595.16 998.487 1594.61 1000.88 C 1590.54 1003.4 1584.59 1001.76 1580.18 1000.73 C 1563.82 996.926 1548.65 989.249 1532.53 984.661 C 1543.06 1005.53 1563.45 1026.57 1584.19 1037.5 C 1589.69 1040.4 1596.11 1042.23 1601.96 1044.38 C 1605.63 1045.72 1612.48 1047.65 1612.04 1052.38 C 1609.53 1054.64 1606.44 1054.62 1603.22 1054.49 C 1591.35 1054.01 1543.52 1039.29 1531.67 1033.7 C 1544.87 1062.89 1574.12 1085.67 1600.18 1103.01 C 1604.25 1105.72 1612.41 1108.96 1610.99 1114.41 C 1607.2 1116.58 1603.89 1115.67 1599.83 1114.55 C 1576.94 1108.29 1555.43 1100.25 1531.99 1095.57 C 1542.83 1125.1 1572.57 1147.54 1597.64 1165.02 C 1602.92 1170.31 1610.11 1172.58 1614.98 1178.12 C 1614.99 1179.41 1615.37 1180.19 1614.33 1181.14 C 1611.34 1183.89 1605.38 1183.68 1601.62 1183.47 C 1592.25 1182.96 1582.69 1180.59 1573.47 1178.87 C 1554.75 1175.38 1535.99 1171.48 1517.02 1169.53 L 1516.76 1229.2 C 1566.84 1221.66 1617.47 1214.83 1668.02 1211.45 C 1692.29 1209.82 1716.64 1210.77 1740.9 1208.98 A 4454.54 4454.54 0 0 1 1741.16 1133.86 C 1709.99 1134.32 1681.44 1142.06 1651.53 1149.75 C 1634.54 1154.11 1617.45 1159.15 1599.81 1159.39 L 1597.48 1157.65 C 1597.29 1155.31 1597.27 1154.89 1598.84 1152.96 C 1604.33 1146.15 1618.42 1140.09 1626.12 1135.49 C 1656.21 1117.48 1701.67 1090.36 1720.83 1060.58 L 1719.32 1060.66 C 1708.22 1061.28 1697.3 1064.32 1686.68 1067.47 C 1673.45 1071.38 1622.26 1092.07 1613.13 1083.37 C 1612.83 1083.09 1612.59 1082.75 1612.32 1082.44 C 1612.61 1080.37 1612.74 1079.97 1614.46 1078.56 C 1620.7 1073.44 1629.68 1069.81 1636.66 1065.55 C 1667.07 1046.94 1704 1024.8 1720.62 992.178 L 1704.08 993.092 C 1690.74 1003.27 1652.07 1033.81 1636.55 1032.45 C 1634.83 1032.3 1634.48 1031.55 1633.28 1030.47 C 1632.91 1027.79 1632.88 1027.21 1634.53 1024.85 C 1637.58 1020.48 1647.06 1016.65 1651.6 1013.57 C 1672.78 999.142 1710.06 972.332 1720.63 949.278 L 1721.19 948.088 C 1721.3 947.849 1721.4 947.608 1721.51 947.367 C 1699.26 959.823 1678.07 973.241 1652.59 977.874 C 1648.31 978.653 1643.14 979.826 1638.87 978.536 C 1637.17 978.023 1636.31 977.027 1635.22 975.734 C 1635.28 973.466 1635.68 973.262 1637.3 971.755 C 1644.99 964.638 1656.35 959.598 1665.25 953.889 C 1691.41 937.105 1714.38 913.932 1728.57 886.202 C 1706.58 898.734 1690.59 912.935 1665.3 920.014 C 1661.07 921.199 1655.82 923.012 1651.44 921.886 C 1649.62 921.418 1649.27 920.769 1647.97 919.523 C 1647.82 917.596 1647.61 917.051 1648.98 915.49 C 1652.97 910.945 1660.96 906.826 1665.98 902.964 C 1688.59 885.553 1711.13 865.128 1720.9 837.51 C 1707.51 842.009 1674.38 855.874 1662.07 851.403 L 1660.78 849.865 C 1661.34 846.965 1663.99 845.514 1666.36 843.865 C 1674.93 837.906 1684.81 833.026 1692.67 826.157 C 1726.14 796.915 1742.14 753.166 1752.91 711.33 C 1764.37 763.131 1779.19 796.266 1820.59 831.483 C 1825.58 835.727 1836.05 841.904 1833.7 849.256 C 1830.21 852.143 1827.15 853.259 1822.56 852.944 C 1810.32 852.105 1793.56 838.776 1783.29 840.882 L 1781.88 842.488 C 1783.04 856.27 1810.61 879.512 1821.1 888.413 C 1825.25 891.929 1856.47 913.609 1856.57 913.758 C 1855.87 915.973 1855.77 917.241 1853.43 918.288 C 1842.17 923.325 1809.74 906.882 1799.46 901.17 C 1792.68 897.409 1786.16 893.228 1779.58 889.153 C 1787.77 905.539 1800.16 919.921 1813.69 932.184 C 1822.58 940.253 1832.53 948.272 1842.67 954.762 C 1848.94 958.776 1855.93 961.988 1861.97 966.295 C 1863.87 967.649 1865.26 968.846 1866.13 971.064 C 1863.92 973.574 1861.49 973.759 1858.23 974.009 C 1827.57 976.362 1804.81 958 1779.21 944.971 C 1796.28 976.819 1842.04 1004.61 1872.38 1023.84 C 1874.45 1025.15 1875.57 1024.88 1875.48 1027.63 C 1873.9 1029.62 1873.22 1030.74 1870.53 1031.24 C 1858.46 1033.48 1831.76 1014.89 1822.7 1008.1 C 1817.19 1003.97 1810.28 996.995 1803.89 994.53 C 1798.2 992.337 1790.53 992.295 1784.45 991.814 L 1784.97 993.087 C 1796.53 1020.56 1847.35 1057.61 1873.11 1074.04 C 1876.16 1075.99 1882.17 1078.62 1880.94 1082.61 C 1877.09 1085.56 1873.14 1085.24 1868.52 1084.69 C 1854.55 1083.02 1840.78 1076.51 1827.33 1072.57 C 1812.42 1068.19 1797.16 1065.21 1781.93 1062.26 C 1799.85 1097.18 1866.72 1133.57 1900 1154.86 C 1906.83 1131.49 1906.9 1104.1 1908.27 1079.76 C 1914.93 961.991 1889.58 827.823 1845.24 718.583 C 1832.4 686.946 1816.7 655.779 1800.35 625.792 A 929.696 929.696 0 0 0 1659.5 435.012 C 1644.09 418.671 1628.38 401.924 1610.96 387.696 A 1381.42 1381.42 0 0 0 1570.13 428.661 C 1562.35 436.719 1554.91 445.183 1546.55 452.652 A 1200.39 1200.39 0 0 1 1535.24 439.239 C 1559.55 412.278 1584.36 384.29 1612.04 360.719 C 1770.19 503.183 1880.05 684.642 1915.75 895.641 C 1920.99 926.602 1925.71 957.962 1927.36 989.351 A 892.245 892.245 0 0 1 1853.56 1392.94 C 1838.68 1426.28 1821.4 1457.76 1802.94 1489.21 A 914.672 914.672 0 0 1 1692.03 1642.49 A 894.331 894.331 0 0 1 1062.58 1941.48 C 1013.58 1944.06 963.213 1941.34 914.502 1935.76 C 721.848 1913.72 562.659 1835.25 419.337 1705.86 A 901.399 901.399 0 0 1 121.619 1081.37 C 115.235 956.651 137.16 809.622 187.784 695.075 C 195.019 678.704 202.456 662.207 211.731 646.874 C 223.108 628.067 237.622 611.004 252.333 594.726 C 275.999 568.541 302.494 544.349 329.192 521.298 C 364.829 556.025 399.501 591.658 434.644 626.883 C 455.65 647.938 478.065 668.284 497.876 690.432 A 43270.9 43270.9 0 0 0 872.706 266.397 A 14640 14640 0 0 0 970.474 152.334 C 988.089 131.774 1005.39 110.62 1024.23 91.1597 z"/>
<path transform="translate(0,0)" fill="rgb(252,240,196)" d="M 1179.46 1029.2 C 1178.62 1032.7 1177.48 1036.35 1177.26 1039.93 C 1171.94 1040.54 1166.63 1041.38 1161.33 1042.14 L 1179.46 1029.2 z"/>
<path transform="translate(0,0)" fill="rgb(150,178,117)" d="M 517.866 1035.62 C 520.648 1035.71 523.329 1035.76 525.521 1037.63 C 528.838 1040.46 531.266 1045.58 533.644 1049.32 C 541.624 1061.87 549.635 1071.21 562.221 1079.26 C 554.583 1077.32 545.57 1076.56 538.776 1072.4 C 536.002 1070.7 534.1 1068.82 530.809 1068.73 C 530.198 1070.65 530.118 1069.89 530.453 1071.28 C 535.69 1092.95 552.18 1106.24 570.366 1117.38 C 555.693 1116.89 541.126 1113.21 526.388 1112.32 C 510.657 1113.29 495.154 1116.89 479.426 1117.31 C 482.024 1115.54 484.67 1113.84 487.265 1112.07 C 497.259 1105.24 518.33 1083.64 520.487 1072.1 L 519.52 1071.14 C 508.162 1070.6 492.604 1077.66 481.702 1081.04 C 499.254 1063.59 507.716 1059.45 517.866 1035.62 z"/>
<path transform="translate(0,0)" fill="rgb(150,178,117)" d="M 522.498 908.805 C 525.07 911.647 526.854 916.735 528.603 920.221 C 536.001 934.966 543.257 944.349 556.422 954.447 C 548.827 953.01 530.708 945.94 524.595 948.062 C 523.819 949.465 523.307 949.931 523.347 951.6 C 523.674 965.068 545.596 988.815 554.894 997.651 C 548.922 996.258 525.459 986.127 522.161 986.995 C 522 988.029 521.866 988.455 522.076 989.611 C 525.627 1009.09 543.936 1027.13 558.655 1038.7 C 546.901 1036.4 537.152 1033.83 526.407 1028.43 C 525.322 1028.11 523.846 1027.94 522.722 1027.74 C 511.941 1034.04 498.523 1036.72 486.498 1039.86 C 506.538 1027.6 515.426 1009.75 521.301 987.657 C 508.83 990.393 498.74 997.491 486.32 1000.31 C 489.823 997.359 493.246 994.193 496.46 990.938 C 502.965 984.35 519.83 963.756 518.181 953.817 C 517.703 950.935 516.982 950.648 514.754 949.079 C 507.355 948.929 497.101 953.163 489.686 954.87 C 504.906 940.559 513.409 927.514 522.498 908.805 z"/>
<path transform="translate(0,0)" fill="rgb(252,240,196)" d="M 1236.8 1184.4 C 1236.84 1184.45 1236.89 1184.49 1236.92 1184.54 C 1238.68 1187.8 1237.09 1257.11 1235.58 1265.49 C 1212.93 1259.66 1191.21 1249.91 1168.62 1243.5 C 1160.29 1240.78 1152.06 1238.27 1143.52 1236.28 C 1173.05 1205.61 1193.01 1188.42 1236.8 1184.4 z"/>
<path transform="translate(0,0)" fill="rgb(252,240,196)" d="M 1752.71 1133.6 C 1803.47 1134.67 1850.34 1156.6 1899.56 1166.79 C 1896.42 1181.96 1894.12 1197.32 1891.6 1212.61 C 1891 1215.08 1890.6 1218.35 1888.95 1220.33 C 1887.96 1221.53 1872.69 1218.91 1870.23 1218.59 C 1832.92 1213.74 1790.22 1210.14 1752.65 1209.57 L 1752.71 1133.6 z"/>
<path transform="translate(0,0)" fill="rgb(150,178,117)" d="M 296.7 839.808 C 301.419 845.163 304.493 853.619 308.196 859.896 C 317.319 875.357 329.847 886.819 343.585 898.055 C 332.072 895.205 320.081 889.051 308.477 887.474 C 305.418 887.058 303.595 888.024 301.209 889.77 L 301.045 891.841 C 305.921 897.79 308.709 905.035 312.683 911.6 C 322.866 928.424 338.536 940.125 354.711 950.754 C 340.175 946.493 324.208 940.175 309.284 937.826 C 306.852 937.444 306.569 937.167 304.528 938.686 C 304.5 939.646 304.436 939.865 304.739 940.925 C 305.716 944.335 308.579 948.526 310.374 951.618 C 321.079 970.049 334.066 981.719 351.307 993.783 C 344.068 992.08 309.036 984.282 303.905 986.922 C 303.978 987.592 303.95 988.281 304.124 988.932 C 304.937 991.971 308.448 996.453 310.201 999.331 C 324.511 1022.82 337.699 1030.11 359.051 1045.87 C 341.252 1044.84 325.554 1039.78 308.439 1035.49 L 307.227 1036.78 C 307.15 1038.47 307.212 1039.84 307.681 1041.49 C 315.186 1067.89 345.018 1085.54 367.673 1097.53 C 332.588 1090.59 303.168 1083.77 267.39 1090.76 C 252.567 1093.57 237.783 1096.29 222.84 1098.39 C 247.461 1088.03 269.832 1077.62 287.635 1056.93 C 294.531 1048.92 300.46 1040.07 307.286 1031.94 C 298.712 1033.19 290.566 1036.94 282.313 1039.49 A 191.482 191.482 0 0 1 237.24 1047.26 C 259.261 1035.45 276.665 1023.94 291.472 1003.36 C 294.237 999.517 297.784 995.153 299.584 990.768 C 300.442 988.677 300.568 988.54 299.704 986.374 C 288.979 983.229 262.715 994.231 250.952 996.869 C 256.624 991.252 262.361 985.665 267.853 979.872 C 274.567 972.791 298.738 945.915 298.53 936.802 C 294.986 935.913 258.359 948.994 249.599 951.239 C 269.556 933.602 284.665 917.113 294.175 891.795 C 292.412 891.003 288.065 888.547 286.165 889.347 C 282.869 890.734 279.985 893.468 276.566 894.864 C 268.742 898.057 257.921 898.519 249.574 899.406 C 271.298 882.179 284.492 864.501 296.7 839.808 z"/>
<path transform="translate(0,0)" fill="rgb(150,178,117)" d="M 1511.51 838.893 C 1516.13 843.636 1519.83 853.017 1523.32 858.793 C 1527.92 866.391 1533.03 873.352 1538.56 880.295 C 1533.72 879.83 1526.3 878.159 1522.39 881.829 C 1520.27 883.825 1519.68 886.66 1519.97 889.468 C 1521.59 905.05 1538.01 921.832 1549.28 931.44 C 1541.72 928.804 1531.46 923.771 1523.61 927.064 C 1521.56 929.489 1520.79 931.015 1521.09 934.259 C 1522.78 952.839 1539.98 968.031 1552.98 979.503 A 1175.02 1175.02 0 0 0 1541.37 976.679 C 1534.99 975.166 1530.32 973.167 1524.34 976.858 C 1522.86 979.251 1522.21 980.533 1522.5 983.412 C 1524.43 1002.71 1546.61 1021.69 1560.21 1033.46 C 1549.71 1030.8 1534.5 1022.36 1523.91 1026.41 C 1522.07 1028.32 1521.07 1029.05 1520.95 1031.88 C 1520.18 1050.13 1554 1081.56 1566.74 1093.12 C 1556 1089.08 1540.78 1084.56 1529.25 1084.69 C 1525.8 1084.73 1523.48 1085.3 1520.93 1087.8 C 1519.86 1090.23 1519.41 1091.85 1519.86 1094.51 C 1524.58 1121.96 1561.67 1154.43 1582.68 1169.96 C 1554.61 1162.18 1523.92 1155.4 1494.8 1158.8 A 1821.89 1821.89 0 0 0 1430.41 1172.53 C 1440.69 1164.7 1450.72 1156.94 1460.19 1148.11 C 1472.85 1136.31 1501.49 1107.7 1502.1 1089.27 C 1501.08 1086.87 1500.83 1085.73 1498.16 1084.73 C 1488.48 1081.15 1460.75 1090.66 1451.06 1094.5 C 1463.78 1082.93 1476.89 1071.25 1486.72 1057.03 C 1491.41 1050.24 1496.55 1041.16 1494.61 1032.62 C 1493.88 1029.42 1492.42 1027.52 1489.62 1025.78 C 1482.07 1024.23 1469.15 1032.03 1461.79 1034.78 C 1466.6 1031.14 1471.48 1027.51 1475.78 1023.26 C 1484.48 1014.66 1501.62 995.242 1500.8 982.317 C 1500.65 979.925 1499.72 977.812 1497.62 976.487 C 1490.31 971.878 1474.72 979.161 1467.68 981.728 C 1474.14 976.153 1480.41 970.466 1486.08 964.068 C 1492.06 957.314 1505.22 940.201 1503.3 930.812 C 1502.78 928.282 1501.42 927.032 1499.16 925.956 C 1492.83 922.951 1481.4 928.306 1475.43 930.381 C 1484.71 919.901 1501.85 901.493 1501.53 886.581 C 1501.47 883.87 1500.78 881.666 1498.61 879.874 C 1494.18 876.212 1486.88 878.046 1481.72 878.788 C 1494.93 866.674 1503.73 855.006 1511.51 838.893 z"/>
<path transform="translate(0,0)" fill="rgb(150,178,117)" d="M 1752.62 748.966 C 1756.4 755.599 1757.9 765.224 1760.78 772.574 C 1770.49 797.362 1787.84 820.724 1807.22 838.738 L 1802.59 835.961 C 1801.38 835.224 1800.21 834.447 1798.94 833.815 C 1792.1 830.413 1777.96 827.398 1770.83 829.864 C 1769.35 832.198 1768.88 833.673 1769.1 836.493 C 1770.99 860.269 1793.18 880.387 1810.21 894.478 C 1805.48 894.955 1784.02 878.534 1777.79 876.271 C 1774.92 875.231 1773.28 875.44 1770.64 876.801 C 1769.13 879.246 1768.74 881.264 1768.94 884.097 C 1770.95 913.27 1804.93 941.677 1825.87 959.033 C 1810.04 952.6 1795.3 938.046 1778.83 934.187 C 1775.67 933.446 1773.5 933.499 1770.69 935.324 C 1769.62 937.091 1769.03 938.429 1769.01 940.494 C 1768.78 956.786 1783.28 970.785 1793.79 981.624 C 1786.76 981.599 1779.4 981.162 1772.43 982.121 C 1770.83 984.343 1770.43 984.876 1770.51 987.743 C 1771.06 1007.37 1818.04 1047.73 1833.48 1061.48 A 677.496 677.496 0 0 0 1806.18 1055.35 C 1797.63 1053.64 1775.47 1048.43 1767.98 1053.42 C 1767.28 1055.25 1767.16 1056.15 1767.53 1058.13 C 1768.33 1062.57 1771.75 1067.39 1774.19 1071.15 C 1793.84 1101.47 1826.43 1122.56 1855.59 1142.85 C 1819.87 1129.18 1779.46 1121.48 1741.25 1121.8 C 1705.93 1122.33 1673.61 1131.05 1640.13 1141.3 C 1666.45 1124.59 1730.55 1083.88 1737.17 1053.15 C 1737.65 1050.91 1737.31 1050.54 1736.2 1048.68 C 1720.42 1043.25 1679.97 1057.13 1663.53 1062.55 C 1685.29 1047.79 1725.65 1016.33 1734.25 991.073 C 1735.32 987.923 1734.97 986.166 1733.56 983.241 C 1727.46 979.679 1716.56 982.516 1709.55 983.412 C 1712.18 980.535 1714.8 977.639 1717.26 974.617 C 1724.69 965.478 1736.09 949.615 1734.87 937.299 C 1733.96 935.983 1733.66 934.899 1732.05 934.388 C 1722.09 931.227 1693.58 951.6 1683.64 956.74 C 1703.74 937.29 1729.68 917.379 1738.63 889.62 C 1739.86 885.832 1740.31 882.803 1738.36 879.2 C 1736.87 877.966 1735.97 877.327 1734 876.956 C 1722.33 874.745 1703.95 890.114 1694.73 896.594 C 1709.6 877.905 1726.44 857.608 1732.97 834.182 C 1734.08 830.207 1734.19 828.024 1732.13 824.42 C 1725.18 821.676 1708.95 831.077 1701.88 833.947 C 1728.22 807.347 1741.5 784.537 1752.62 748.966 z"/>
<path transform="translate(0,0)" fill="rgb(252,240,196)" d="M 791.861 523.961 L 792.832 525.431 C 780.989 550.263 772.074 576.496 760.592 601.552 C 769.301 612.473 779.027 622.251 788.238 632.717 C 768.25 649.717 746.791 665.39 726.448 682.036 C 702.622 701.531 679.544 722.306 655.065 740.95 C 682.127 753.974 708.931 767.494 736.075 780.36 L 690.001 822.984 C 680.176 832.07 670.402 842.044 659.488 849.804 C 620.657 817.144 585.695 779.435 549.538 743.873 L 702.994 604.072 C 732.105 577.323 760.514 548.036 791.861 523.961 z"/>
<path transform="translate(0,0)" fill="rgb(150,178,117)" d="M 1170.47 943.241 A 308.276 308.276 0 0 0 1238.51 858.002 C 1260.53 892.017 1275.09 913.603 1305.6 941.96 C 1298.6 941.165 1287.15 938.554 1281.01 943.157 C 1278.93 944.718 1278.28 946.922 1278.26 949.415 C 1278.17 961.349 1300.09 981.962 1308.8 989.215 A 303.638 303.638 0 0 0 1314.94 994.183 C 1306.51 992.858 1289.63 988.822 1281.92 992.728 C 1280.26 995.088 1279.82 995.534 1280.29 998.575 C 1282.5 1012.91 1308.52 1033.31 1319.37 1041.5 C 1309.55 1040.58 1286.4 1036.58 1278.48 1042.79 C 1276.91 1044.02 1275.91 1045.28 1275.73 1047.35 C 1275.01 1055.28 1286.57 1066.41 1292.15 1071.42 A 216.224 216.224 0 0 0 1321.95 1093.57 C 1311.45 1093.76 1288.41 1091.81 1280.17 1096.07 C 1278.81 1098.42 1278.09 1099.64 1278.63 1102.42 C 1281.53 1117.16 1310.86 1137.24 1322.93 1144.13 A 196.625 196.625 0 0 0 1338.22 1152.04 C 1323.57 1152.32 1291.79 1145.8 1280.79 1148.79 C 1279.9 1151.17 1280.18 1151.35 1281.21 1153.58 C 1285.14 1162.09 1292.08 1169.28 1296.29 1177.82 C 1260.2 1171.4 1225.52 1168.48 1189.85 1179.07 C 1195.66 1170.88 1202.63 1162.43 1206.9 1153.32 C 1186.95 1153.33 1168.22 1154.14 1148.31 1151.38 C 1165.02 1142.53 1201.41 1124.9 1207.54 1105.56 C 1208.33 1103.06 1208.24 1100.58 1206.79 1098.32 C 1204.85 1095.29 1202.03 1095.01 1198.76 1094.61 C 1188.48 1093.37 1176.41 1094.86 1166.64 1091.23 L 1166.52 1089.88 C 1176.56 1080.37 1204.02 1067.37 1206.18 1052.84 C 1206.55 1050.32 1205.38 1047.85 1203.62 1046.12 C 1197.76 1040.36 1185.03 1040.11 1177.26 1039.93 C 1177.48 1036.35 1178.62 1032.7 1179.46 1029.2 C 1187.23 1021.43 1200.44 1008.11 1202.2 997.108 C 1201.4 994.378 1201.4 993.767 1198.66 992.425 C 1192.15 989.232 1175.68 993.071 1168.43 994.348 C 1179.27 984.108 1206.29 961.058 1207.12 945.123 C 1207.22 943.105 1206.66 942.442 1205.85 940.665 C 1201.67 937.546 1196.63 937.923 1191.7 938.66 C 1184.6 939.719 1177.5 941.725 1170.47 943.241 z"/>
<path transform="translate(0,0)" fill="rgb(252,240,196)" d="M 809.827 539.48 C 831.076 552.697 855.456 579.316 874.279 596.991 A 7470.3 7470.3 0 0 1 1025.37 742.906 C 1000.25 766.062 976.128 790.33 951.717 814.227 L 845.151 917.888 L 810.527 951.45 C 803.974 957.885 796.529 967.025 788.892 971.962 C 786.947 973.219 787.307 972.865 785.271 972.402 C 767.283 956.369 750.459 939.398 733.164 922.663 C 713.492 903.629 693.529 884.929 674.155 865.586 C 704.066 834.14 742.277 807.711 770.65 776.509 C 745.226 762.166 718.409 750.465 693.154 735.814 C 704.968 725.615 717.705 716.298 729.819 706.436 A 5921.47 5921.47 0 0 0 818.048 633.461 C 806.534 623.293 796.253 611.948 786.05 600.494 C 791.921 579.8 800.473 558.834 809.827 539.48 z"/>
<path transform="translate(0,0)" fill="rgb(252,240,196)" d="M 1013.4 132.747 C 1015.39 139.91 997.375 231.995 994.407 248.097 C 1006.75 262.834 1021.21 276.713 1031.93 292.632 C 1022.68 302.755 1010.44 311.699 1000.04 320.686 C 970.132 346.521 938.587 371.279 910.337 398.902 C 925.612 409.168 943.441 416.996 959.96 425.083 C 986.024 437.844 1012.17 450.404 1037.68 464.248 C 1025.76 488.459 1016.36 513.731 1005.96 538.597 A 5534.69 5534.69 0 0 0 960.052 649.218 C 941.672 633.823 924.754 616.298 907.16 599.993 C 868.891 564.528 830.805 529.099 791.843 494.382 C 777.175 506.764 763.533 521.024 749.454 534.129 C 729.686 552.529 709.338 570.286 689.63 588.74 C 655.211 620.815 619.978 652.131 585.239 683.875 C 569 698.714 551.58 712.714 536.683 728.923 C 528.565 721.522 520.942 713.471 513.168 705.707 C 526.669 686.794 543.941 670.303 559.2 652.764 L 677.183 519.525 A 17956.2 17956.2 0 0 0 1013.4 132.747 z"/>
<path transform="translate(0,0)" fill="rgb(252,240,196)" d="M 1265.06 1278.21 C 1282.52 1278.46 1300.08 1277.12 1317.49 1275.95 A 1268.66 1268.66 0 0 0 1424.28 1264.48 C 1456.12 1259.57 1487.69 1253.07 1519.5 1248.06 C 1579.98 1238.54 1642.66 1230.74 1703.87 1228.79 C 1763.84 1226.87 1825.67 1230.51 1885.1 1238.51 C 1883.18 1246.54 1881.26 1259.16 1876.05 1265.7 L 1875.39 1268.94 C 1876.25 1275.2 1869.94 1293.27 1867.94 1299.9 C 1858.65 1299.47 1848.48 1298.3 1839.34 1300.13 C 1834.8 1301.04 1831.06 1302.5 1828.36 1306.4 C 1828.58 1307.79 1828.43 1308.55 1829.47 1309.61 C 1837.11 1317.46 1853.03 1315.64 1863.02 1315.19 C 1843.29 1373.92 1813.1 1428.34 1784.8 1483.17 L 1675.92 1482.81 C 1660.39 1482.77 1644.11 1481.56 1628.68 1482.41 C 1626.52 1482.53 1623.92 1482.73 1622.09 1484 C 1619.89 1485.52 1619.23 1486.99 1618.81 1489.54 C 1618.32 1492.46 1619.17 1496.97 1621.49 1498.97 C 1624.2 1501.31 1629.48 1501.51 1632.91 1501.72 C 1650.43 1502.8 1668.55 1501.72 1686.12 1501.61 L 1772.38 1501.73 C 1743.64 1557.93 1633.83 1686.27 1580.57 1721.02 L 1521.97 1721.09 C 1509.95 1721.07 1497.3 1720.27 1485.34 1721.32 C 1481.94 1721.62 1477.51 1722.43 1474.68 1724.49 C 1472.61 1726 1471.76 1727.48 1471.63 1730.06 C 1471.5 1732.84 1472.74 1734.97 1474.53 1736.96 C 1482.9 1741.62 1544.11 1739.06 1557.96 1738.91 A 431.022 431.022 0 0 1 1523.51 1764.72 C 1505.48 1765.31 1487.2 1765.42 1469.15 1765.33 C 1459.38 1765.28 1449.2 1764.46 1439.49 1765.4 C 1436.15 1765.72 1431.81 1766.44 1429.16 1768.71 C 1427.11 1770.47 1426.34 1772.19 1426.27 1774.89 C 1426.2 1777.08 1427.15 1780.05 1428.82 1781.5 C 1435.75 1787.51 1482.13 1785.03 1493.36 1785.03 C 1478.64 1793.93 1464.66 1804.35 1449.55 1812.47 C 1435.2 1811.47 1420.89 1812.43 1406.53 1812.29 C 1397.3 1812.21 1387.7 1811 1378.53 1812.02 C 1375.77 1812.33 1372.19 1813.05 1369.99 1814.87 C 1368.04 1816.48 1366.96 1818.32 1366.96 1820.9 C 1366.96 1823.48 1367.92 1825.35 1369.83 1827 C 1378.32 1834.35 1405.18 1830.71 1415.94 1830.4 C 1369.95 1854.5 1320.31 1872.59 1270.82 1887.92 C 1316.63 1819.55 1386.35 1765.34 1451.68 1716.58 C 1482.93 1693.25 1513.48 1672.66 1540.31 1644.02 C 1556.69 1644.27 1573.08 1643.96 1589.46 1644.07 C 1600.67 1644.14 1613.31 1645.4 1624.36 1643.62 C 1627.83 1643.06 1632.56 1641.91 1635.03 1639.18 C 1636.2 1637.9 1636.91 1636.51 1636.89 1634.78 C 1636.87 1632.3 1635.98 1629.63 1634 1627.99 C 1626.92 1622.14 1568.4 1625.08 1555.2 1625.65 C 1570.47 1603.37 1586.01 1574.43 1587.53 1546.91 C 1608.72 1548.25 1630.16 1547.42 1651.39 1547.61 C 1670.1 1547.78 1689.49 1549.11 1708.14 1547.81 C 1710.98 1547.61 1714.55 1547.48 1716.91 1545.66 C 1718.96 1544.08 1720.38 1541.16 1720.57 1538.64 C 1720.73 1536.46 1719.07 1533.2 1717.49 1531.76 C 1715.63 1530.07 1713.15 1529.45 1710.72 1529.26 C 1697.14 1528.2 1682.77 1529.11 1669.12 1529.12 L 1588.32 1529.14 C 1586.92 1501.26 1576.19 1478.06 1562.07 1454.48 C 1572.52 1454.78 1625.71 1456.4 1632.04 1451.63 A 7.01833 7.01833 0 0 0 1634.84 1445.71 C 1634.68 1442.51 1632.52 1439.74 1629.88 1438.11 C 1623.35 1434.07 1559 1434.66 1548.49 1436.99 C 1538.4 1426.32 1527.39 1416.86 1516.25 1407.32 C 1520.41 1407.24 1524.87 1407.58 1528.48 1405.19 C 1531.05 1403.48 1532.11 1401.57 1532.66 1398.62 C 1532.03 1396.76 1531.96 1395.79 1530.51 1394.38 C 1523.54 1387.62 1503.39 1390.83 1494.23 1391.13 C 1477.82 1378.68 1458.91 1368.66 1440.38 1359.73 C 1450.42 1359.53 1473.88 1362.41 1482.2 1358.36 C 1484.62 1357.18 1484.56 1356.28 1485.18 1353.9 C 1484.59 1351.35 1483.99 1349.72 1482.12 1347.81 C 1480.61 1346.26 1479.02 1345.5 1476.9 1345.09 C 1466.26 1343.03 1427.95 1344.9 1415.18 1345.25 C 1392.9 1332.47 1369.68 1322.92 1345.58 1314.23 C 1353.88 1314.5 1362.62 1315.21 1370.87 1314.04 C 1375.64 1313.37 1379.24 1312.44 1382.23 1308.47 C 1382.67 1306.68 1382.97 1305.46 1382.39 1303.62 C 1380.31 1297.04 1371.38 1297.68 1365.87 1297.58 C 1351.99 1297.34 1328.53 1298.79 1316.26 1297.08 C 1301.3 1295 1279.63 1284.04 1265.06 1278.21 z"/>
<path transform="translate(0,0)" fill="rgb(42,38,42)" d="M 1672.59 1257.41 C 1685.96 1257.63 1700.98 1255.45 1714.07 1257.7 C 1717.55 1258.3 1720.54 1259.3 1722.59 1262.34 C 1722.74 1265.19 1722.55 1265.66 1721.25 1268.22 C 1718.53 1270.06 1716.4 1270.04 1713.25 1270.17 C 1703.65 1270.4 1694.03 1269.87 1684.44 1270.18 C 1679.76 1270.34 1674.66 1271.43 1670.02 1270.85 C 1666.21 1270.38 1663.88 1269.03 1661.57 1265.96 C 1661.28 1263.37 1661.1 1262.37 1662.92 1260.18 C 1665.09 1257.59 1669.49 1257.68 1672.59 1257.41 z"/>
<path transform="translate(0,0)" fill="rgb(42,38,42)" d="M 1547.61 1674.17 C 1557.57 1673.92 1583.67 1670.76 1591.2 1678.01 C 1592.21 1678.98 1592.99 1680.33 1592.99 1681.75 C 1592.99 1685.68 1590.41 1688.28 1587.82 1690.87 C 1586.65 1691.15 1585.53 1691.41 1584.33 1691.53 C 1575.06 1692.53 1550.59 1694.61 1543.7 1687.54 C 1542.7 1686.52 1542 1685.25 1541.99 1683.81 C 1541.99 1679.66 1544.68 1676.74 1547.61 1674.17 z"/>
<path transform="translate(0,0)" fill="rgb(42,38,42)" d="M 1875.39 1268.94 C 1874.85 1269.3 1874.35 1269.72 1873.76 1270.01 C 1869.78 1271.96 1806.6 1271.57 1802.56 1269.37 C 1800.13 1268.05 1800.23 1266.92 1799.88 1264.47 C 1800.77 1261.82 1801.39 1259.79 1804.07 1258.36 C 1808.29 1256.09 1867.64 1257.65 1872.48 1260.03 C 1875.22 1261.38 1875.26 1263.02 1876.05 1265.7 L 1875.39 1268.94 z"/>
<path transform="translate(0,0)" fill="rgb(42,38,42)" d="M 1618.49 1575.19 C 1629.53 1574.77 1674.18 1572.22 1681.01 1580.4 C 1681.92 1581.48 1682.46 1582.77 1682.27 1584.16 C 1681.73 1588.32 1678.77 1591.21 1675.66 1593.69 C 1664.25 1593.93 1619.82 1595.83 1613.56 1588.35 C 1612.61 1587.2 1612.26 1586 1612.41 1584.55 C 1612.83 1580.32 1615.46 1577.87 1618.49 1575.19 z"/>
<path transform="translate(0,0)" fill="rgb(42,38,42)" d="M 1697.22 1435.36 C 1712.41 1435.02 1737.2 1432.8 1751.21 1436.71 C 1755.01 1437.77 1757.58 1439.13 1759.55 1442.64 C 1760 1445.43 1759.38 1447.64 1757.88 1450.01 C 1756.21 1452.66 1753.99 1453.11 1751.17 1453.89 C 1742.48 1453.92 1733.8 1453.54 1725.11 1453.66 C 1716.83 1453.78 1708.12 1454.78 1699.92 1453.67 C 1696.48 1453.21 1692.21 1452.12 1690.29 1448.9 C 1689.05 1446.81 1689.19 1443.99 1689.95 1441.77 C 1691.22 1438.05 1693.86 1436.68 1697.22 1435.36 z"/>
<path transform="translate(0,0)" fill="rgb(42,38,42)" d="M 1749.83 1391.16 C 1762.95 1390.79 1776.11 1391.19 1789.23 1391.13 C 1797.05 1391.1 1805.75 1390.1 1813.45 1391.41 C 1816.75 1391.98 1820.59 1393.29 1822.29 1396.42 C 1823.43 1398.52 1823.56 1401.22 1822.82 1403.47 C 1821.89 1406.25 1818.71 1407.59 1816.32 1408.9 C 1801.5 1408.99 1754.61 1412.57 1743.93 1404.34 C 1743.22 1402.86 1742.54 1402.15 1742.79 1400.45 C 1743.44 1396.03 1746.49 1393.73 1749.83 1391.16 z"/>
<path transform="translate(0,0)" fill="rgb(42,38,42)" d="M 1536.37 1345.42 C 1567.65 1344.52 1599.62 1343.99 1630.89 1344.88 C 1636.13 1345.02 1639.94 1345.07 1643.73 1349.03 C 1644.52 1351.57 1644.98 1352.89 1643.93 1355.55 C 1642.77 1358.47 1640.06 1359.76 1637.45 1361.08 C 1615.66 1361.62 1593.78 1361.11 1571.98 1361.12 C 1560.36 1361.12 1547.03 1362.55 1535.69 1360.65 C 1532.4 1360.1 1530.58 1358.8 1528.75 1356 C 1528.16 1353.25 1528.09 1352.12 1529.17 1349.52 C 1531.53 1347.03 1533.08 1346.32 1536.37 1345.42 z"/>
<path transform="translate(0,0)" fill="rgb(42,38,42)" d="M 1583.45 1391.23 A 7884.49 7884.49 0 0 1 1665.07 1391.26 C 1672.58 1391.32 1686.27 1389.82 1691.82 1395.46 C 1692.58 1397.38 1692.8 1398.3 1692.5 1400.42 C 1691.91 1404.53 1689.66 1406.64 1686.4 1408.77 C 1669.69 1409.39 1652.84 1408.52 1636.11 1408.45 C 1620.68 1408.39 1604.83 1409.13 1589.45 1408.16 C 1584.4 1407.85 1581.08 1407.53 1577.59 1403.51 C 1576.61 1400.74 1576.5 1399.37 1577.05 1396.48 C 1578.72 1393.66 1580.67 1392.72 1583.45 1391.23 z"/>
<path transform="translate(0,0)" fill="rgb(42,38,42)" d="M 1564.56 1257.46 C 1579.55 1256.91 1620.03 1255.27 1633.26 1258.01 C 1636.45 1258.68 1638.87 1259.46 1640.81 1262.26 C 1640.68 1265.27 1640.51 1265.67 1638.83 1268.18 C 1636.89 1269.43 1635.5 1270.07 1633.17 1270.3 C 1623.46 1271.24 1612.89 1270.38 1603.09 1270.33 A 2541.8 2541.8 0 0 0 1554.87 1270.76 C 1541.99 1270.85 1486.6 1272.94 1479 1271.05 C 1476.33 1270.38 1476.12 1269.7 1474.87 1267.49 C 1474.75 1264.98 1475.03 1263.38 1476.7 1261.38 C 1477.81 1260.04 1479.1 1259.62 1480.75 1259.34 C 1490.68 1257.67 1501.94 1258.54 1512.04 1258.46 A 1338.27 1338.27 0 0 0 1564.56 1257.46 z"/>
<path transform="translate(0,0)" fill="rgb(42,38,42)" d="M 1426.1 1298.39 C 1443.11 1298.39 1548.43 1296.19 1557.71 1299.32 C 1560.65 1300.32 1562.54 1301.59 1563.92 1304.47 C 1564.01 1306.97 1563.65 1308.44 1562.39 1310.55 C 1560.59 1313.55 1557.98 1313.89 1554.82 1314.65 A 3854.07 3854.07 0 0 1 1467.86 1315.53 C 1455.47 1315.55 1439.69 1317.27 1427.71 1314.37 C 1423.84 1313.44 1421 1311.95 1418.93 1308.46 C 1418.41 1305.69 1418.67 1304.47 1419.69 1301.85 C 1421.79 1299.6 1423.24 1299.23 1426.1 1298.39 z"/>
<path transform="translate(0,0)" fill="rgb(42,38,42)" d="M 1694.9 1345.16 C 1719.49 1343.48 1744.86 1344.68 1769.52 1344.68 C 1791.24 1344.68 1813.88 1343.39 1835.51 1344.86 C 1838.75 1345.08 1840.27 1345.17 1842.85 1347.08 C 1844.08 1349.61 1845.03 1352.83 1844.28 1355.68 C 1843.57 1358.41 1841.89 1358.66 1839.58 1359.86 C 1823.13 1363.22 1793.4 1361.08 1775.52 1361.05 C 1750.07 1361 1723.19 1362.56 1697.92 1360.15 C 1695.46 1359.91 1693.88 1359.65 1691.75 1358.28 C 1690.35 1356.01 1689.7 1355.2 1690.15 1352.39 C 1690.67 1349.04 1692.47 1347.3 1694.9 1345.16 z"/>
<path transform="translate(0,0)" fill="rgb(42,38,42)" d="M 1615.24 1299.17 C 1652.8 1297.75 1690.76 1298.46 1728.35 1298.64 C 1746.88 1298.73 1767.02 1297.17 1785.3 1299.23 C 1788.01 1299.54 1789.53 1300.27 1791.64 1301.96 C 1792.71 1304.13 1793.15 1304.93 1792.93 1307.42 C 1792.6 1311.13 1790.51 1312.92 1787.87 1315.13 C 1786.4 1315.35 1785 1315.56 1783.52 1315.64 C 1752.09 1317.41 1719.68 1315.85 1688.13 1315.82 C 1666.11 1315.8 1640.22 1317.58 1618.81 1315.29 C 1615.89 1314.97 1614.11 1314.67 1611.84 1312.63 C 1610.72 1310.64 1610.36 1309.28 1610.61 1306.96 C 1611.02 1303.14 1612.33 1301.57 1615.24 1299.17 z"/>
<path transform="translate(0,0)" fill="rgb(252,240,196)" d="M 336.724 556.662 C 358.127 576.108 376.961 598.636 397.188 619.301 L 521.649 744.352 C 606.18 828.708 692.599 910.976 778.143 994.276 A 10839.2 10839.2 0 0 0 963.854 1173.57 C 976.49 1185.45 988.466 1197.96 1001.27 1209.68 C 974.99 1203.22 933.35 1200.59 905.595 1198.47 C 856.73 1194.74 808.054 1191.34 759.026 1190.68 C 733.074 1190.33 706.25 1192.33 680.436 1190.13 C 664.686 1188.78 648.965 1183.93 633.641 1180.14 C 599.933 1171.81 565.391 1161.91 530.938 1157.52 L 530.781 1121.36 C 560.018 1126.48 589.535 1130.6 618.905 1124.07 C 586.302 1111.12 571.86 1111.64 545.936 1084.7 C 563.048 1088.11 580.076 1091.35 597.573 1091.85 C 600.53 1091.94 602.866 1091.99 605.065 1089.89 C 603.182 1085.24 572.818 1073.48 565.973 1069.15 C 556.167 1062.95 547.436 1055.25 541.366 1045.29 L 540.651 1044.09 C 555.577 1047.73 571.866 1049.87 587.259 1049.97 C 591.075 1050 595.307 1050.25 598.134 1047.42 C 596.267 1043.95 564.749 1027.95 558.353 1023 C 549.892 1016.44 543.872 1009.12 538.077 1000.17 C 551.949 1004.72 567.985 1007.74 582.544 1008.86 C 584.987 1009.05 586.093 1009.1 588.013 1007.45 C 587.416 1005.49 586.824 1004.94 585.267 1003.63 C 575.97 995.861 566.191 991.813 555.534 981.842 C 547.711 974.521 541.785 966.187 535.812 957.366 C 548.018 960.805 566.763 965.48 579.188 964.049 L 579.892 962.659 C 578.572 958.927 553.255 935.422 548.41 929.546 C 535.82 914.276 528.482 895.895 520.621 877.941 C 504.612 926.096 495.636 937.2 455.717 968.219 C 473.541 967.045 489.185 959.895 506.652 957.396 C 501.317 972.36 486.327 989.823 472.332 997.411 C 465.966 1000.86 456.728 1003.98 451.842 1009.29 L 452.757 1010.93 C 463.496 1015.47 493.322 1005.34 505.134 1001.87 C 488.309 1037.25 444.411 1044.59 439.29 1052.53 L 440.664 1053.68 C 461.671 1055.69 482.349 1046.7 502.981 1044.5 C 503.426 1044.45 503.872 1044.41 504.318 1044.37 C 494.24 1058.89 476.249 1072.39 460.17 1079.55 C 452.594 1082.92 444.441 1084.97 437.129 1088.9 L 437.239 1090.13 C 439.296 1092.26 440.806 1092.27 443.612 1092.71 L 442.886 1091.77 L 443.286 1092.67 C 462.406 1093.91 485.415 1086.92 503.946 1082.08 C 488.557 1102.11 467.68 1112.45 443.801 1119.73 C 437.665 1121.6 429.454 1122.93 424.172 1126.38 L 425.553 1127.7 C 456.619 1133.12 489.732 1125.88 520.636 1122.16 L 520.898 1154.9 C 481.008 1147.8 440.637 1141.03 400.328 1136.88 A 1612.93 1612.93 0 0 0 300.996 1130.74 A 1746.81 1746.81 0 0 0 302.337 1096.34 C 339.737 1100.77 374.929 1111.29 413.034 1105.18 C 416.297 1104.66 419.869 1104.26 421.878 1101.46 C 418.876 1097.19 383.855 1090.48 375.757 1087.58 C 361.222 1082.36 348.793 1074.22 336.561 1064.94 A 135.013 135.013 0 0 1 319.857 1046.79 C 336.887 1053.23 373.986 1060.59 391.976 1056.95 C 394.555 1056.43 395.405 1055.86 396.907 1053.76 C 396.295 1051.68 396.154 1051 394.289 1049.66 C 388.973 1045.86 380.793 1043.28 374.73 1040.52 C 354.535 1031.32 331.171 1018.82 321.034 997.902 C 320.851 997.525 320.676 997.143 320.498 996.763 C 333.821 1000.1 378.896 1012 389.774 1006.91 L 390.235 1005.28 A 15.0932 15.0932 0 0 0 385.318 999.468 C 373.231 990.845 358.995 985.845 346.892 976.574 C 337.454 969.345 329.753 960.812 322.421 951.508 C 333.562 953.871 378.459 966.136 386.437 961.597 C 385.51 954.769 347.777 931.753 340.248 925.308 C 332.179 918.399 324.847 910.539 319.915 901.061 C 319.715 900.676 319.523 900.287 319.327 899.9 C 334.182 904.379 354.513 908.002 369.966 907.793 C 372.51 907.758 373.97 907.875 375.804 905.971 C 372.055 900.513 357.328 892.892 351.374 888.344 C 320.534 864.785 310.307 833.836 296.367 799.323 C 292.616 808.719 290.054 818.465 286.785 828.021 C 277.823 854.222 263.572 873.918 240.981 890.038 C 233.08 895.676 224.312 899.947 216.461 905.518 L 216.629 907.101 C 217.604 907.868 217.973 908.205 218.93 908.822 C 225.725 913.202 268.028 905.039 277.554 902.76 C 266.239 921.61 251.803 935.775 232.41 946.234 C 224.594 950.449 215.971 954.192 208.826 959.461 L 209.067 960.774 C 210.111 961.651 210.108 961.743 211.515 962.409 C 222.485 967.602 266.156 955.932 277.602 951.893 C 263.882 969.194 246.94 987.899 226.523 997.401 C 218.938 1000.93 210.451 1002.5 203.113 1006.58 L 202.963 1007.73 C 203.56 1008.46 203.92 1009 204.783 1009.5 C 216.787 1016.55 271.178 1000.72 284.214 995.877 C 268.711 1018.37 244.79 1034.04 218.904 1041.87 C 211.918 1043.98 202.121 1045.43 196.176 1049.61 C 196.92 1051.97 197.151 1052.26 199.307 1053.56 C 213.918 1062.39 265.161 1053.78 281.306 1049.72 C 244.942 1084.95 220.208 1085.75 174.091 1097.32 C 170.719 1098.17 166.766 1098.84 164.914 1101.96 C 165.504 1102.74 165.536 1102.9 166.492 1103.52 C 170.418 1106.04 179.466 1106.49 184.115 1106.93 C 227.312 1111.07 249.061 1103.07 289.59 1096.12 C 289.719 1107.77 289.887 1119.37 289.084 1131.01 C 262.711 1130.83 236.328 1130.79 209.997 1132.38 C 188.766 1133.66 167.584 1136.34 146.368 1137.31 C 143.062 1119.84 142.747 1100.92 141.931 1083.18 C 139.345 1026.96 141.039 972.83 148.412 916.988 A 795.824 795.824 0 0 1 199.007 721.699 C 208.776 697.146 218.875 673.768 233.291 651.511 C 247.561 629.48 265.926 609.806 284.181 591.053 C 294.854 580.088 305.675 568.275 317.849 558.948 C 316.161 591.574 316.715 624.572 316.411 657.243 C 306.762 666.114 297.983 676.198 288.804 685.566 L 234.53 740.021 C 224.262 750.456 214.576 761.441 203.856 771.421 C 208.052 776.383 212.631 780.825 217.32 785.316 C 252.816 750.854 285.985 713.733 322.555 680.442 C 342.416 695.762 406.885 731.566 417.848 746.665 C 423.411 754.327 427.084 763.873 431.233 772.372 L 451.453 813.174 C 457.51 810.786 463.429 807.762 469.343 805.026 C 458.021 778.818 444.057 753.567 431.301 728.029 C 399.072 708.26 368.722 685.253 336.02 666.182 A 6222.32 6222.32 0 0 1 336.724 556.662 z"/>
<path transform="translate(0,0)" fill="rgb(252,240,196)" d="M 724.743 1208.72 C 759.391 1208.54 796.272 1207.98 830.611 1212.71 C 837.961 1212.21 870.955 1213.84 877.104 1215.93 C 904.566 1216.75 933.744 1218.39 960.662 1223.88 C 969.257 1222.63 998.062 1223.93 1004.92 1227.93 C 1005.55 1228.07 1006.19 1228.22 1006.82 1228.36 C 1016.35 1230.43 1026.75 1230.81 1036.46 1232.19 C 1060.95 1235.65 1085.78 1239.65 1109.71 1245.92 A 1321.22 1321.22 0 0 1 1202.62 1274.12 C 1248.77 1290.46 1294.35 1309.98 1338.86 1330.34 C 1402.14 1359.27 1507.04 1407.68 1546.5 1466.81 C 1564.96 1494.45 1571.89 1525.3 1565.24 1557.85 C 1559.03 1588.29 1541.31 1614.81 1520.11 1636.93 C 1491.98 1666.27 1457.49 1688.57 1424.91 1712.56 C 1373.61 1750.34 1326.48 1790.68 1284.35 1838.6 C 1269.42 1855.57 1254.02 1874.1 1243.75 1894.32 C 1201.93 1909.28 1149.73 1913.28 1105.81 1918.23 C 1099.18 1919.19 1092.56 1919.47 1085.87 1919.78 C 1062.01 1922.02 1038.65 1922.29 1014.71 1921.86 C 1007.69 1922.19 1000.53 1921.97 993.489 1922.02 C 930.118 1921.57 865.352 1911.27 803.938 1896.03 C 786.993 1891.83 770.676 1885.26 753.637 1881.42 L 751.902 1881.04 C 745.716 1879.27 739.796 1877.16 733.804 1874.83 C 716.234 1868.83 698.954 1861.93 681.305 1856.2 C 733.324 1804.44 794.181 1760.38 855.113 1719.82 A 2372.6 2372.6 0 0 1 954.854 1657.11 L 1027.31 1614.62 C 1070.27 1589.37 1150.11 1546.29 1166.29 1497.4 A 65.5213 65.5213 0 0 0 1162.65 1447.05 C 1138.27 1399.2 1055.51 1352.45 1007.72 1329.6 C 989.309 1320.8 970.015 1313.8 951.772 1304.72 C 893.748 1275.84 835.33 1245.65 774.56 1222.89 C 758.449 1216.86 741.882 1214.38 725.743 1209.06 L 724.743 1208.72 z"/>
<path transform="translate(0,0)" fill="rgb(183,80,55)" d="M 1203.96 1310.63 C 1219.65 1314.26 1324.9 1365.11 1335.96 1373.95 C 1337.18 1376.47 1337.72 1377.24 1337.02 1380.11 C 1336.28 1383.14 1333.76 1384.8 1331.29 1386.31 C 1328.69 1385.83 1326.35 1385.23 1323.95 1384.1 C 1301.95 1373.77 1280.58 1362 1258.61 1351.57 C 1247.44 1346.26 1207.05 1330.04 1200.2 1324.36 C 1198.95 1323.33 1198.42 1322.32 1198.36 1320.74 C 1198.22 1316.47 1201.27 1313.54 1203.96 1310.63 z"/>
<path transform="translate(0,0)" fill="rgb(183,80,55)" d="M 960.662 1223.88 C 969.257 1222.63 998.062 1223.93 1004.92 1227.93 C 1011.38 1232.68 1023.61 1235.61 1031.22 1238.54 C 1048.68 1245.25 1144.83 1280.83 1152.72 1287.13 C 1154.77 1288.77 1155.4 1290.44 1155.45 1293.08 C 1155.49 1295.63 1154.17 1297.88 1152.36 1299.52 C 1150.93 1299.81 1149.95 1299.86 1148.58 1299.26 A 1573.21 1573.21 0 0 0 1062.99 1264.01 C 1028.79 1250.92 994.189 1238.66 960.662 1223.88 z"/>
<path transform="translate(0,0)" fill="rgb(183,80,55)" d="M 1161.98 1379.69 C 1171.55 1379.87 1181.96 1389.51 1188.71 1395.74 C 1210.5 1415.85 1224.8 1440.92 1225.9 1470.96 C 1227.34 1510.27 1205.34 1544.56 1179.53 1572.35 A 16.7389 16.7389 0 0 1 1173.7 1570.39 C 1171.07 1568.95 1169.95 1567.34 1168.97 1564.51 C 1169.18 1557.34 1175.82 1553.1 1180.04 1547.93 C 1197.94 1526.03 1213.46 1496 1210.62 1466.99 C 1207.72 1437.3 1190.17 1418.44 1168.4 1400.41 C 1164.15 1396.89 1158.31 1392.79 1157.74 1386.96 C 1158.51 1383.64 1159.68 1382.17 1161.98 1379.69 z"/>
<path transform="translate(0,0)" fill="rgb(183,80,55)" d="M 830.611 1212.71 C 837.961 1212.21 870.955 1213.84 877.104 1215.93 C 884.484 1221.21 903.472 1226.84 912.96 1231.11 C 927.139 1237.5 940.85 1244.88 954.989 1251.3 C 975.531 1260.63 1093.37 1309.52 1099.87 1318.83 C 1101.49 1321.15 1101.43 1321.67 1100.95 1324.25 C 1099.4 1325.96 1098.97 1326.67 1096.6 1327.12 C 1092.41 1327.9 1087.31 1325.91 1083.45 1324.38 C 1058.7 1314.59 1034.33 1303.16 1010.06 1292.21 L 894.601 1240.19 C 879.054 1233.28 841.942 1220.68 830.611 1212.71 z"/>
<path transform="translate(0,0)" fill="rgb(183,80,55)" d="M 733.804 1874.83 C 750.453 1860.59 765.646 1844.65 781.83 1829.89 C 796.968 1816.08 813.096 1803.45 829.423 1791.09 A 1945.33 1945.33 0 0 1 909.128 1734.81 C 954.662 1704.61 1001.83 1676.82 1048 1647.62 A 6199.89 6199.89 0 0 0 1107.94 1608.85 C 1114.33 1604.65 1120.46 1599.82 1126.96 1595.82 C 1129.38 1594.33 1132.47 1592.98 1135.38 1593.5 C 1137.8 1593.93 1139.98 1595.73 1141.13 1597.88 C 1142.35 1600.19 1142.11 1602.11 1141.33 1604.46 C 1131.95 1614.82 1088.19 1640.35 1074.16 1649.42 C 977.073 1712.22 873.259 1767.9 787.098 1845.96 C 775.16 1856.77 761.504 1868.04 751.902 1881.04 C 745.716 1879.27 739.796 1877.16 733.804 1874.83 z"/>
<path transform="translate(0,0)" fill="rgb(183,80,55)" d="M 993.489 1922.02 C 1008.65 1904.86 1021.83 1885.98 1036.69 1868.54 C 1061.46 1839.48 1088.26 1812.64 1115.96 1786.38 C 1146.08 1757.83 1178.21 1730.54 1210.5 1704.46 L 1276.99 1651.15 C 1314.91 1620.5 1389.25 1564.39 1386.68 1511.02 C 1386.27 1502.38 1378.53 1484.37 1382.74 1477.68 C 1385.3 1476.18 1386.58 1475.68 1389.65 1475.54 C 1393.58 1476.97 1395.3 1478.99 1397.08 1482.63 C 1406.08 1500.93 1404.19 1524.02 1397.35 1542.6 C 1375.65 1601.53 1297.37 1655.8 1249.44 1694.19 A 2778.54 2778.54 0 0 0 1158.01 1769.45 A 1029.37 1029.37 0 0 0 1061.39 1864.77 C 1044.92 1882.99 1028.46 1901.45 1014.71 1921.86 C 1007.69 1922.19 1000.53 1921.97 993.489 1922.02 z"/>
<path transform="translate(0,0)" fill="rgb(183,80,55)" d="M 1085.87 1919.78 C 1087.37 1918.74 1087.04 1919.19 1087.92 1917.89 C 1138.33 1843.33 1213.2 1782.32 1282.21 1725.42 C 1334.04 1682.68 1406.52 1632.33 1437.89 1571.86 C 1464.39 1520.79 1453.08 1471.59 1408.25 1435.68 C 1401.1 1429.95 1374.32 1414.74 1372.76 1407.9 C 1372.13 1405.11 1372.94 1403.48 1374.24 1401.11 C 1375.77 1400.06 1376.94 1399.26 1378.86 1399.07 C 1385.11 1398.45 1392.76 1404.8 1397.62 1408.2 C 1430.42 1431.16 1460.48 1460.5 1467.42 1501.69 C 1480.95 1581.92 1400.31 1648.86 1345.34 1694.53 C 1322.43 1713.57 1299.21 1732.26 1276.5 1751.55 C 1232.85 1788.62 1189.32 1825.98 1149.67 1867.36 C 1134.54 1883.15 1119.2 1899.44 1106.48 1917.28 L 1105.81 1918.23 C 1099.18 1919.19 1092.56 1919.47 1085.87 1919.78 z"/>
<path transform="translate(0,0)" fill="rgb(252,240,196)" d="M 250.369 1150.48 C 289.05 1151.01 327.553 1150.68 366.179 1153.53 C 421.873 1157.63 476.959 1166.97 531.941 1176.47 C 562.992 1181.84 593.937 1189.36 624.487 1197.02 C 669.04 1208.2 712.883 1220.4 756.233 1235.7 C 818.652 1257.73 881.163 1290.28 940.413 1319.71 C 960.623 1329.76 981.614 1338.09 1001.9 1347.96 C 1042.09 1367.52 1113.29 1407.4 1138.09 1443.14 C 1146.66 1455.48 1152.27 1469.66 1149.3 1484.88 C 1139.74 1533.86 1035.87 1586.81 994.579 1611.24 C 957.757 1633.02 920.54 1653.92 884.572 1677.12 C 806.602 1727.56 729.831 1781.04 664.186 1847.17 C 591.225 1811.22 522.618 1769.61 460.832 1716.4 C 319.054 1594.32 222.127 1449.22 172.137 1268.33 C 162.362 1232.96 151.312 1193.3 148.584 1156.64 C 182.252 1152.16 216.458 1151.56 250.369 1150.48 z"/>
<path transform="translate(0,0)" fill="rgb(42,38,42)" d="M 420.166 1318.24 C 423.377 1318.03 426.876 1317.78 430.055 1318.32 C 434.211 1319.01 438.23 1320.57 440.572 1324.22 L 440.215 1325.15 C 438.54 1326.31 436.673 1326.76 434.754 1327.39 C 429.308 1327.72 422.63 1328.44 417.578 1326.04 C 415.658 1325.13 415.686 1324.98 414.93 1322.9 C 416.468 1320.53 417.822 1319.69 420.166 1318.24 z"/>
<path transform="translate(0,0)" fill="rgb(42,38,42)" d="M 581.694 1270.25 A 395.347 395.347 0 0 1 591.037 1269.93 C 596.704 1269.82 602.733 1269.59 607.034 1273.71 C 607.084 1276.75 605.702 1277.59 603.661 1279.72 C 597.296 1280.04 589.512 1281.1 583.307 1279.38 C 580.726 1278.66 579.942 1277.94 578.648 1275.68 C 579.143 1273.18 580.032 1272.14 581.694 1270.25 z"/>
<path transform="translate(0,0)" fill="rgb(42,38,42)" d="M 579.786 1656.97 C 584.887 1656.54 590.257 1656.46 595.373 1656.69 C 599.408 1656.86 602.849 1657.16 605.673 1660.31 C 606.211 1663.52 606.044 1663.85 604.719 1666.85 C 597.688 1667.14 584.823 1668.88 579.214 1664.26 C 578.132 1660.99 578.779 1660.19 579.786 1656.97 z"/>
<path transform="translate(0,0)" fill="rgb(42,38,42)" d="M 257.891 1382.46 C 265.156 1382.43 270.414 1382.2 277.21 1385.29 C 278.579 1386.98 278.973 1386.98 279.169 1389.24 C 276.529 1391.48 274.538 1391.62 271.25 1391.96 C 265.372 1392.06 257.76 1393.03 252.261 1390.74 C 249.828 1389.72 249.034 1389.37 248.072 1386.89 C 248.419 1386.12 248.564 1385.65 249.22 1385.01 C 251.572 1382.71 254.814 1382.69 257.891 1382.46 z"/>
<path transform="translate(0,0)" fill="rgb(42,38,42)" d="M 485.723 1520.39 C 491.768 1520.3 501.998 1518.73 506.841 1522.95 C 507.903 1525.3 508.365 1525.62 507.758 1528.08 C 505.504 1530.08 504.125 1530.04 501.249 1530.29 C 495.079 1530.31 487.578 1530.99 481.582 1529.42 C 478.961 1528.73 478.037 1528.21 476.814 1525.83 L 477.871 1523.41 C 480.288 1521.15 482.604 1520.94 485.723 1520.39 z"/>
<path transform="translate(0,0)" fill="rgb(42,38,42)" d="M 574.667 1224.39 A 286.247 286.247 0 0 1 581.165 1224.23 C 587.082 1224.16 592.999 1224.73 597.402 1229.03 L 597.397 1231.08 C 595.829 1232.8 593.938 1233.86 591.977 1235.07 C 584.593 1235.19 575.764 1236.56 569.129 1232.8 C 567.78 1230.51 567.826 1230.28 568.024 1227.6 C 570.256 1225.24 571.581 1225.22 574.667 1224.39 z"/>
<path transform="translate(0,0)" fill="rgb(42,38,42)" d="M 306.325 1173.49 C 310.057 1173.33 314.336 1172.79 317.985 1173.78 C 320.566 1174.48 322.444 1176.22 323.862 1178.4 C 323.517 1180.31 323.94 1180.07 322.74 1181.09 C 319.37 1183.96 315.114 1183.43 310.963 1183.41 C 306.331 1183.46 300.502 1184.2 296.311 1182 C 294.079 1180.82 292.993 1179.99 292.274 1177.59 C 292.534 1177.29 292.768 1176.96 293.054 1176.69 C 296.625 1173.26 301.722 1173.62 306.325 1173.49 z"/>
<path transform="translate(0,0)" fill="rgb(42,38,42)" d="M 373.136 1405.33 C 379.604 1405.09 386.569 1404.37 393.001 1405.21 C 396.263 1405.64 398.084 1406.38 400.161 1408.91 C 399.912 1412.33 399.194 1413.02 397.295 1415.76 C 390.418 1415.71 381.301 1416.48 374.75 1414.49 C 372.188 1413.71 371.463 1413.02 370.318 1410.68 C 370.731 1408.16 371.455 1407.22 373.136 1405.33 z"/>
<path transform="translate(0,0)" fill="rgb(42,38,42)" d="M 544.234 1598.97 C 551.009 1598.82 558.037 1598.32 564.785 1598.85 C 567.904 1599.09 570.462 1599.56 572.571 1602.06 C 572.749 1605.36 572.143 1605.91 570.527 1608.68 C 563.913 1608.97 556.711 1609.76 550.145 1609 C 547.042 1608.64 544.631 1608.05 542.617 1605.48 C 542.276 1602.23 542.754 1601.77 544.234 1598.97 z"/>
<path transform="translate(0,0)" fill="rgb(42,38,42)" d="M 196.627 1191.21 C 203.759 1191.22 211.175 1190.92 218.258 1191.71 C 222.012 1192.13 224.313 1192.57 226.73 1195.56 C 226.561 1198.48 226.218 1198.8 224.464 1201.2 C 218.208 1201.81 211.349 1201.91 205.069 1201.53 C 201.335 1201.31 198.044 1200.96 195.493 1197.99 C 194.939 1195.05 195.513 1193.87 196.627 1191.21 z"/>
<path transform="translate(0,0)" fill="rgb(42,38,42)" d="M 307.808 1499.41 C 313.606 1499.69 319.434 1499.17 325.233 1499.48 C 329.567 1499.71 332.402 1500 335.366 1503.36 C 335.533 1506.72 335.002 1507.18 333.339 1509.98 C 326.187 1510.16 316.502 1511.41 309.673 1509.49 C 307.143 1508.77 306.51 1508.1 305.369 1505.81 C 305.745 1503.1 306.295 1501.69 307.808 1499.41 z"/>
<path transform="translate(0,0)" fill="rgb(42,38,42)" d="M 275.237 1437.15 C 282.492 1437.03 291.588 1436.03 298.573 1437.8 C 301.144 1438.46 302.004 1439.14 303.412 1441.32 C 303.191 1444.02 302.339 1444.94 300.592 1446.95 C 294.257 1447.82 286.356 1448.75 280.031 1447.92 C 276.745 1447.49 275.026 1446.67 272.999 1444.08 C 272.821 1440.94 273.678 1439.75 275.237 1437.15 z"/>
<path transform="translate(0,0)" fill="rgb(42,38,42)" d="M 894.027 1497.07 C 902.167 1496.85 911.971 1495.67 919.928 1497.21 C 922.507 1497.71 923.466 1498.23 924.97 1500.33 C 924.632 1503.12 924.006 1503.79 922.353 1506.11 C 917.01 1506.98 911.336 1507.13 905.928 1507.36 C 900.998 1507.58 896.652 1507.47 892.911 1503.98 C 892.437 1500.89 892.972 1499.95 894.027 1497.07 z"/>
<path transform="translate(0,0)" fill="rgb(42,38,42)" d="M 955.919 1566.06 C 963.314 1565.63 979.084 1564.08 985.516 1568.05 C 986.939 1568.94 986.721 1569.42 987.108 1570.88 C 986.266 1572.84 985.292 1573.85 983.762 1575.31 C 976.731 1575.74 969.253 1576.63 962.243 1576.09 C 958.675 1575.82 956.473 1575.35 954.137 1572.57 C 953.842 1569.55 954.452 1568.57 955.919 1566.06 z"/>
<path transform="translate(0,0)" fill="rgb(42,38,42)" d="M 728.243 1605.02 C 736.503 1604.81 753.854 1602.38 759.919 1608.08 C 760.793 1610.63 760.596 1611.03 759.929 1613.68 C 758.717 1614.04 757.608 1614.36 756.354 1614.53 C 748.606 1615.62 736.02 1617.43 729.363 1612.7 C 727.674 1609.59 728.038 1608.48 728.243 1605.02 z"/>
<path transform="translate(0,0)" fill="rgb(42,38,42)" d="M 716.443 1660.52 C 723.192 1660.18 730.491 1659.04 735.91 1664.08 C 737.22 1665.29 736.805 1664.86 736.83 1666.86 C 732.908 1670.6 728.016 1670.25 722.972 1670.33 C 718.195 1670.28 712.801 1670.62 708.125 1669.86 C 705.621 1669.46 704.038 1668.9 702.427 1666.9 C 702.89 1664.89 703.254 1664.3 704.809 1662.81 C 707.88 1659.88 712.482 1660.5 716.443 1660.52 z"/>
<path transform="translate(0,0)" fill="rgb(42,38,42)" d="M 699.635 1333.17 C 706.932 1332.08 716.386 1331.75 723.694 1332.6 C 726.851 1332.97 728.707 1333.47 730.715 1335.95 C 730.447 1338.92 729.613 1339.56 727.842 1341.89 C 721.612 1343.24 713.991 1343.22 707.615 1342.89 C 703.984 1342.7 700.404 1342.39 697.907 1339.5 C 697.576 1336.43 698.219 1335.83 699.635 1333.17 z"/>
<path transform="translate(0,0)" fill="rgb(42,38,42)" d="M 561.109 1719.5 C 564.865 1719.41 568.644 1719.28 572.4 1719.38 C 576.717 1719.51 582.056 1720.04 585.195 1723.29 C 585.815 1725.77 585.484 1726 584.449 1728.39 L 583.54 1727.62 L 583.648 1729.3 C 582.382 1730.21 580.786 1729.95 579.25 1730.04 C 572.466 1730.26 560.401 1732.16 554.949 1727.96 C 554.118 1725.47 554.316 1725.14 555.035 1722.58 C 557.281 1720.31 558.101 1720.27 561.109 1719.5 z"/>
<path transform="translate(0,0)" fill="rgb(42,38,42)" d="M 1037.85 1527.33 C 1045.96 1527.79 1055.79 1526.47 1063.6 1528.63 C 1066.21 1529.35 1067.03 1530.12 1068.4 1532.37 C 1067.62 1535.27 1067.19 1535.76 1065.08 1537.94 C 1057.5 1538.12 1048.84 1539.05 1041.39 1537.67 C 1038.23 1537.09 1036.87 1536.3 1035.16 1533.62 C 1035.31 1530.67 1036.18 1529.63 1037.85 1527.33 z"/>
<path transform="translate(0,0)" fill="rgb(42,38,42)" d="M 494.622 1284.18 C 502.324 1284.07 510.035 1283.65 517.738 1283.74 C 522.44 1283.8 527.505 1283.35 530.947 1286.89 C 530.793 1289.73 530.206 1290.13 528.466 1292.44 C 521.189 1292.71 513.863 1293.11 506.581 1293.06 C 501.615 1293.02 496.457 1293.22 492.801 1289.52 C 492.859 1286.93 493.265 1286.42 494.622 1284.18 z"/>
<path transform="translate(0,0)" fill="rgb(42,38,42)" d="M 418.72 1272.55 C 425.243 1272.25 436.534 1270.76 442.31 1274.03 C 443.681 1274.81 443.527 1275.48 443.954 1276.87 C 443.553 1277.88 443.369 1278.49 442.723 1279.45 C 441.014 1281.99 439.048 1282.19 436.25 1282.68 C 428.943 1282.71 415.819 1284.47 410.092 1279.83 C 409.646 1277.43 409.775 1276.55 411.577 1274.55 C 413.616 1272.29 415.969 1272.7 418.72 1272.55 z"/>
<path transform="translate(0,0)" fill="rgb(42,38,42)" d="M 703.836 1254.28 C 711.568 1254.05 723.135 1253.01 730.252 1256.23 C 732.481 1257.23 732.649 1257.69 733.547 1259.81 C 732.606 1262.52 731.496 1263.33 729.352 1265.08 C 722.527 1265.15 709.374 1266.49 703.216 1263.4 C 700.974 1262.27 700.57 1261.99 699.819 1259.66 C 700.836 1257.05 701.803 1256.09 703.836 1254.28 z"/>
<path transform="translate(0,0)" fill="rgb(42,38,42)" d="M 1082.82 1484.09 C 1089.74 1483.92 1096.88 1483.45 1103.8 1483.86 C 1108.5 1484.13 1111.59 1484.3 1114.83 1487.91 C 1115.11 1490.51 1114.87 1491.61 1113.72 1493.96 C 1105.56 1494.02 1097.09 1494.86 1088.97 1493.98 C 1085.76 1493.63 1083.21 1493.15 1081.1 1490.49 C 1080.89 1487.33 1081.26 1486.91 1082.82 1484.09 z"/>
<path transform="translate(0,0)" fill="rgb(42,38,42)" d="M 480.113 1670.32 C 488.624 1669.9 499.397 1668.63 507.675 1670.82 C 510.095 1671.46 511.217 1672.19 512.435 1674.32 C 511.234 1677.05 510.146 1677.75 507.769 1679.36 C 497.815 1680.58 484.221 1681.1 475.318 1675.99 L 474.922 1674.13 C 476.55 1672.29 477.931 1671.43 480.113 1670.32 z"/>
<path transform="translate(0,0)" fill="rgb(42,38,42)" d="M 921.982 1355.38 C 928.308 1355.28 943.379 1353.57 948.387 1357.07 C 950.654 1358.65 950.591 1359.4 950.935 1361.94 C 949.684 1364.45 949.389 1364.57 946.93 1365.98 C 939.325 1366.05 926.652 1368.03 919.758 1364.85 C 917.783 1363.94 917.805 1363.82 917.052 1361.7 C 918.563 1358.19 918.667 1357.59 921.982 1355.38 z"/>
<path transform="translate(0,0)" fill="rgb(42,38,42)" d="M 868.128 1317.12 C 875.934 1316.71 889.98 1314.82 896.738 1319.12 C 898.756 1320.4 899.067 1321.12 899.261 1323.37 C 897.521 1325.27 895.98 1326.17 893.758 1327.4 C 886.505 1327.87 875.893 1329.01 868.971 1326.99 C 866.307 1326.21 865.577 1325.59 864.35 1323.17 C 864.799 1320.34 866.241 1319.08 868.128 1317.12 z"/>
<path transform="translate(0,0)" fill="rgb(42,38,42)" d="M 764.231 1690.34 C 771.995 1690.04 782.674 1688.39 790.125 1690.49 C 792.848 1691.26 793.506 1691.89 794.814 1694.33 C 794.541 1697.16 793.254 1698.52 791.537 1700.62 C 783.323 1700.48 771.682 1702.7 764.042 1700.02 C 761.91 1699.27 761.784 1698.66 760.792 1696.77 C 761.332 1693.71 762.285 1692.62 764.231 1690.34 z"/>
<path transform="translate(0,0)" fill="rgb(42,38,42)" d="M 864.918 1396.35 C 873.531 1395.85 883.254 1395.17 891.764 1396.62 C 894.881 1397.15 896.653 1397.81 898.463 1400.41 C 897.888 1403.3 897.123 1403.83 895.188 1405.97 C 887.025 1406.08 872.931 1408.05 865.613 1405.31 C 862.882 1404.29 862.787 1403.69 861.776 1401.19 C 862.378 1398.07 862.346 1398.25 864.918 1396.35 z"/>
<path transform="translate(0,0)" fill="rgb(42,38,42)" d="M 343.003 1352.27 C 350.989 1352.43 367.621 1351.02 373.996 1355.43 C 375.67 1356.59 375.126 1355.97 375.471 1358.19 C 373.838 1360.63 372.236 1361.54 369.746 1362.9 C 362.004 1362.89 344.886 1364.58 338.859 1360.23 C 337.544 1359.28 337.924 1358.52 337.808 1357.05 C 339.645 1354.22 340.004 1353.78 343.003 1352.27 z"/>
<path transform="translate(0,0)" fill="rgb(42,38,42)" d="M 412.019 1523.4 C 420.544 1523.23 434.385 1521.59 442.056 1525.06 C 443.596 1527.32 443.428 1527.31 443.1 1530.06 C 441.188 1532.61 440.931 1532.56 437.836 1533.47 C 428.796 1533.69 417.309 1535.24 408.855 1531.84 C 406.899 1529.57 406.954 1529.59 406.91 1526.58 C 408.467 1523.99 409.071 1524.28 412.019 1523.4 z"/>
<path transform="translate(0,0)" fill="rgb(42,38,42)" d="M 785.099 1366.32 C 793.962 1365.69 804.081 1364.79 812.884 1365.94 C 816.041 1366.36 817.821 1366.93 819.774 1369.45 C 819.397 1372.73 818.763 1373.18 816.741 1375.67 C 807.445 1376.06 795.502 1377.16 786.451 1375.12 C 783.838 1374.53 782.901 1374.02 781.513 1371.77 C 782.321 1368.93 782.968 1368.43 785.099 1366.32 z"/>
<path transform="translate(0,0)" fill="rgb(42,38,42)" d="M 695.821 1732.49 C 703.477 1732.39 713.516 1731.2 720.861 1733.26 C 723.383 1733.97 724.289 1734.61 725.656 1736.8 C 725.507 1737.62 725.326 1738.91 724.952 1739.65 C 723.593 1742.32 721.885 1742.32 719.25 1743 C 711.377 1742.97 698.213 1744.63 691.165 1741.44 C 689.135 1740.53 688.98 1740.04 688.164 1738.11 C 688.345 1737.37 688.488 1736.58 688.915 1735.93 C 690.882 1732.92 692.639 1733.1 695.821 1732.49 z"/>
<path transform="translate(0,0)" fill="rgb(42,38,42)" d="M 770.017 1296.33 C 779.472 1296.05 796.867 1293.95 805.062 1298.36 C 805.407 1298.55 805.711 1298.8 806.036 1299.02 L 806.567 1298.6 L 806.582 1302.55 C 805.092 1303.48 803.62 1304.3 802.035 1305.07 C 791.491 1305.4 777.293 1307.43 767.245 1304.43 C 765.26 1302.57 765.32 1302.77 765.222 1300.06 C 766.847 1297.72 767.391 1297.52 770.017 1296.33 z"/>
<path transform="translate(0,0)" fill="rgb(42,38,42)" d="M 544.275 1329.2 C 552.358 1329.15 571.663 1327.15 577.822 1332.31 C 579.124 1333.4 578.874 1334.35 579.11 1335.92 C 577.947 1338.61 577.573 1338.78 575.1 1340.42 C 567.406 1340.47 543.952 1342.56 538.721 1337.05 C 537.653 1335.92 538.053 1336.08 538.212 1334.3 C 540.06 1331.94 541.766 1330.72 544.275 1329.2 z"/>
<path transform="translate(0,0)" fill="rgb(42,38,42)" d="M 404.966 1191.48 C 410.398 1191.52 415.153 1191.61 419.39 1195.41 C 419.586 1197.69 419.497 1198.2 417.749 1199.97 C 413.498 1204.28 398.381 1202.78 392.257 1202.8 C 387.368 1202.86 382.424 1203.26 378.483 1199.93 C 377.582 1197.3 377.833 1196.81 378.499 1194.07 C 383.85 1189.88 398.015 1191.52 404.966 1191.48 z"/>
<path transform="translate(0,0)" fill="rgb(42,38,42)" d="M 635.596 1749.36 C 645.03 1748.03 657.177 1750.45 665.068 1755.81 C 669.9 1759.08 674.071 1763.98 674.786 1769.96 C 675.254 1773.88 673.848 1777.91 671.425 1780.97 C 664.919 1789.18 654.037 1791.35 644.242 1792.75 C 633.979 1793.38 621.605 1791.76 612.84 1786.16 C 608.33 1783.28 604.539 1779.07 603.568 1773.66 C 602.764 1769.19 604.036 1764.59 606.768 1760.99 C 613.501 1752.11 625.344 1750.65 635.596 1749.36 z"/>
<path transform="translate(0,0)" fill="rgb(252,240,196)" d="M 637.715 1759.38 C 642.106 1759.52 646.735 1759.86 650.959 1761.13 C 655.535 1762.52 658.769 1765.09 661.045 1769.25 C 661.233 1771.98 661.482 1773.32 659.618 1775.64 C 655.636 1780.59 647.191 1780.54 641.434 1781.12 C 636.037 1780.64 628.686 1780.13 623.764 1777.73 C 620.338 1776.06 618.138 1774.07 616.777 1770.47 C 617 1768.72 616.855 1767.73 617.97 1766.28 C 622.362 1760.55 631.072 1760.12 637.715 1759.38 z"/>
<path transform="translate(0,0)" fill="rgb(42,38,42)" d="M 494.905 1211.31 C 504.237 1211.3 514.644 1213.09 522.578 1218.26 C 527.106 1221.2 530.935 1225.51 531.868 1230.98 C 532.628 1235.44 531.222 1239.73 528.462 1243.24 C 521.256 1252.39 509.015 1253.76 498.265 1254.88 C 488.036 1255.22 476.932 1254.41 468.324 1248.25 C 463.978 1245.14 460.658 1240.63 460.121 1235.2 C 459.678 1230.72 461.323 1226.48 464.192 1223.08 C 471.659 1214.23 484.081 1212.45 494.905 1211.31 z"/>
<path transform="translate(0,0)" fill="rgb(252,240,196)" d="M 491.246 1223.26 C 494.088 1222.97 496.889 1223.08 499.73 1223.33 C 504.937 1223.79 512.686 1225.59 515.592 1230.53 C 516.73 1232.47 516.711 1234.51 515.553 1236.42 C 512.845 1240.89 505.297 1241.99 500.724 1242.88 C 496.343 1243.08 491.829 1243.3 487.482 1242.58 C 482.412 1241.74 477.864 1239.26 474.794 1235.14 C 474.318 1232.71 473.789 1231.46 475.516 1229.3 C 478.918 1225.06 486.277 1224.2 491.246 1223.26 z"/>
<path transform="translate(0,0)" fill="rgb(42,38,42)" d="M 458.978 1358.25 C 471.154 1357.1 484.633 1357.37 495.678 1363.25 C 500.403 1365.76 504.701 1369.54 506.122 1374.89 C 507.957 1381.8 504.779 1387.06 501.374 1392.76 C 494.799 1396.41 487.979 1398.8 480.812 1400.98 C 468.016 1403.44 454.329 1402.46 443.091 1395.34 C 437.969 1392.1 432.987 1387.29 431.88 1381.07 A 13.9984 13.9984 0 0 1 434.263 1370.46 C 439.471 1363.07 450.499 1359.85 458.978 1358.25 z"/>
<path transform="translate(0,0)" fill="rgb(252,240,196)" d="M 461.72 1370.19 C 464.571 1369.94 467.431 1369.7 470.295 1369.74 C 476.359 1369.81 487.333 1371.81 491.235 1377.07 C 492.974 1379.41 492.743 1379.99 492.233 1382.65 C 488.187 1387.35 482.827 1388.25 477.086 1389.82 C 468.032 1390.72 456.836 1390.45 449.665 1383.88 C 447.554 1381.95 447.358 1380.77 447.289 1378.02 C 450.42 1372.7 456.222 1371.86 461.72 1370.19 z"/>
<path transform="translate(0,0)" fill="rgb(42,38,42)" d="M 364.753 1562.19 C 375.307 1561.59 386.495 1562.37 395.954 1567.49 C 418.214 1579.53 421.31 1608.01 427.627 1629.91 C 430.545 1615.44 431.67 1602.72 441.635 1590.81 C 449.743 1581.11 462.825 1573.83 475.513 1573.1 A 20.1643 20.1643 0 0 1 489.815 1577.89 C 490.207 1579.08 490.925 1580.14 490.434 1581.38 C 487.121 1589.71 469.099 1584.91 459.955 1590.38 C 447.712 1597.71 443.164 1612.61 439.733 1625.54 L 437.555 1641.02 C 443.445 1635.17 449.891 1628.91 457.611 1625.59 C 462.601 1623.44 470.32 1621.14 475.592 1623.5 C 478.428 1624.77 481.033 1626.45 482.17 1629.43 C 478.95 1637.03 461.098 1636.45 454.053 1640.32 C 446.213 1644.63 444.93 1656.12 437.03 1660.63 C 417.493 1661.45 411.264 1605.06 403.093 1590.92 C 387.81 1564.47 365.553 1580.23 353.309 1570.35 C 353.095 1568.72 352.766 1568.97 353.61 1567.89 C 356.523 1564.18 360.266 1562.9 364.753 1562.19 z"/>
<path transform="translate(0,0)" fill="rgb(42,38,42)" d="M 855.987 1521.48 C 858.374 1521.91 859.845 1522.61 861.687 1524.13 C 876.096 1536.02 882.194 1554.69 883.841 1572.63 C 886.581 1570.9 889.334 1569.09 892.188 1567.55 C 900.051 1563.29 913.291 1559.17 922.033 1562 C 924.621 1562.83 926.735 1564.32 927.983 1566.81 C 931.496 1573.81 928.039 1586.58 925.236 1593.64 C 917.234 1613.77 902.067 1626.48 882.022 1633.54 C 878.483 1634.79 871.73 1635.7 868.845 1637.82 C 864.638 1640.91 866.571 1644.16 859.401 1647.07 C 855.682 1644.08 853.986 1640.97 851.805 1636.84 C 839.348 1634.28 827.386 1631.37 816.834 1623.93 C 798.638 1611.09 787.664 1588.14 783.812 1566.69 C 787.29 1565.13 790.792 1564.03 794.515 1563.19 C 809.415 1559.84 820.54 1563.49 832.971 1571.44 C 832.163 1550.45 843.157 1536.72 855.987 1521.48 z"/>
<path transform="translate(0,0)" fill="rgb(252,240,196)" d="M 904.525 1574.29 L 918.578 1573.64 C 918.029 1580.8 916.53 1587.33 913.575 1593.87 C 907.282 1607.8 897.313 1615.93 883.248 1621.1 L 869.601 1625.13 C 872.983 1613.74 875.862 1601.28 881.746 1590.88 C 887.317 1581.04 894.069 1577.25 904.525 1574.29 z"/>
<path transform="translate(0,0)" fill="rgb(252,240,196)" d="M 796.08 1574.1 C 805.93 1573.05 815.308 1573.34 823.958 1578.73 C 837.773 1587.34 844.714 1608.55 848.301 1623.6 C 840.867 1622.75 834.068 1621.26 827.327 1617.89 C 808.969 1608.72 802.073 1592.39 796.08 1574.1 z"/>
<path transform="translate(0,0)" fill="rgb(252,240,196)" d="M 857.762 1537.76 C 863.443 1541.8 867.679 1548.6 870.144 1555.04 C 878.509 1576.91 867.488 1595.75 858.969 1615.46 C 852.006 1607.11 842.542 1580.68 842.547 1569.98 C 842.552 1557.64 849.222 1546.22 857.762 1537.76 z"/>
<path transform="translate(0,0)" fill="rgb(42,38,42)" d="M 1003.35 1390.54 C 1004.86 1390.89 1006 1391.72 1007.09 1392.8 A 72.2117 72.2117 0 0 1 1027.99 1442.13 C 1038.54 1435.37 1051.24 1429.81 1064.03 1429.74 C 1068 1429.72 1072.57 1430.6 1075.19 1433.88 C 1078.81 1438.43 1077.99 1445.83 1076.88 1451.08 C 1071.99 1474.29 1056.13 1494.24 1032.41 1499.78 C 1025.48 1501.4 1015.11 1501.84 1009.15 1505.83 C 1007.08 1509.65 1005.35 1512.72 1002.17 1515.72 C 998.893 1514.9 997.068 1513.95 995.263 1510.99 C 994.445 1509.65 993.336 1507.35 992.309 1506.27 C 989.488 1503.32 968.596 1498.37 961.966 1494.86 C 945.362 1486.06 935.687 1469.46 930.487 1451.99 C 928.803 1446.33 926.645 1437.88 930.348 1432.56 C 931.644 1430.7 933.953 1429.79 936.101 1429.37 C 949.687 1426.67 965.879 1433.58 976.622 1441.2 C 980.229 1419.06 987.592 1406.28 1003.35 1390.54 z"/>
<path transform="translate(0,0)" fill="rgb(252,240,196)" d="M 939.35 1439.34 C 948.619 1440.08 957.36 1441.48 965.413 1446.51 C 979.67 1455.41 985.973 1476.29 989.745 1491.97 C 975.658 1489.41 963.534 1484.97 953.627 1474 C 945.872 1465.42 938.602 1451.08 939.35 1439.34 z"/>
<path transform="translate(0,0)" fill="rgb(252,240,196)" d="M 1052.59 1443.26 C 1057.55 1442.79 1062.55 1442.84 1067.53 1442.77 C 1065.82 1451.04 1063.91 1458.84 1059.82 1466.3 C 1052.61 1479.44 1041.59 1485.57 1027.78 1489.76 C 1023.04 1490.97 1018.4 1491.05 1013.54 1491.24 C 1016.27 1482.39 1020 1473.06 1024.45 1464.92 C 1030.99 1452.98 1039.87 1447.06 1052.59 1443.26 z"/>
<path transform="translate(0,0)" fill="rgb(252,240,196)" d="M 1001.89 1407.4 C 1002.34 1407.59 1002.83 1407.7 1003.24 1407.97 C 1008.65 1411.54 1014.19 1422.67 1016.15 1428.57 C 1022.66 1448.24 1010.51 1466.47 1002.07 1483.49 L 1001.13 1483.37 C 995.28 1476.59 988.27 1453.7 987.023 1444.66 C 985.04 1430.28 993.577 1418.26 1001.89 1407.4 z"/>
<path transform="translate(0,0)" fill="rgb(42,38,42)" d="M 291.328 1201.95 C 293.943 1202.15 296.405 1202.55 298.803 1203.69 C 314.97 1211.35 321.769 1230.02 326.928 1245.77 C 335.42 1241 344.219 1235.67 354.017 1234.19 C 358.622 1233.5 364.153 1233.62 368.067 1236.41 C 370.683 1240.34 371.28 1245.93 371.86 1250.58 C 373.748 1265.68 370.217 1279.92 360.927 1291.98 C 346.617 1310.58 323.973 1320.59 301.24 1323.66 C 289.752 1325.07 277.575 1323.13 266.824 1318.99 C 248.581 1311.97 233.447 1298.43 225.679 1280.36 C 221.253 1270.06 217.23 1252.14 221.943 1241.62 C 223.219 1238.77 225.529 1236.53 228.513 1235.55 C 238.761 1232.19 255.485 1240.2 264.45 1245.13 C 268.861 1228.07 276.193 1211.94 291.328 1201.95 z"/>
<path transform="translate(0,0)" fill="rgb(252,240,196)" d="M 350.944 1247.05 L 355.074 1246.96 C 356.89 1248.06 357.355 1248.5 358.196 1250.57 C 361.115 1257.74 358.997 1270.55 355.75 1277.53 C 347.446 1295.39 328.77 1304.29 311.261 1310.44 C 308.916 1311.07 306.933 1311.48 304.488 1311.61 C 306.648 1305.2 311.661 1299.17 314.702 1293.05 C 318.501 1285.39 320.547 1276.83 324.375 1269.18 C 330.292 1257.36 338.849 1251.37 350.944 1247.05 z"/>
<path transform="translate(0,0)" fill="rgb(252,240,196)" d="M 235.548 1247.5 C 243.608 1249.09 252.987 1251.16 258.946 1257.22 C 266.344 1264.75 287.495 1302.68 287.611 1312.12 A 81.721 81.721 0 0 1 282.012 1310.91 C 265.336 1306.79 248.536 1298.08 239.72 1282.7 C 233.432 1271.73 232.331 1259.6 235.548 1247.5 z"/>
<path transform="translate(0,0)" fill="rgb(252,240,196)" d="M 294.774 1215.55 C 295.831 1215.88 295.957 1215.85 297.045 1216.54 C 304.616 1221.3 311.008 1235.8 313.189 1244.26 C 318.55 1265.05 307.816 1285.99 297.208 1303.33 C 289.997 1296.81 277.791 1263.68 277.447 1253.91 C 276.935 1239.39 284.985 1225.68 294.774 1215.55 z"/>
<path transform="translate(0,0)" fill="rgb(42,38,42)" d="M 640.258 1215.75 C 642.498 1215.98 644.438 1216.09 646.453 1217.21 C 648.142 1218.16 648.684 1220.16 649.26 1221.92 C 654.826 1238.87 656.945 1258.76 660.479 1276.33 C 665.167 1299.64 670.729 1322.77 675.436 1346.07 C 678.918 1363.31 681.624 1380.71 685.394 1397.89 C 690.942 1390.95 696.381 1383.79 702.245 1377.11 C 705.31 1373.62 709.789 1369.02 714.829 1369.14 C 722.109 1369.32 741.83 1395.89 747.94 1402.71 C 746.682 1404.7 745.414 1406.7 743.888 1408.49 C 741.883 1410.84 739.96 1412.77 736.68 1412.92 C 733.021 1413.09 729.323 1412.6 726.652 1410.02 C 726.592 1406.87 727.805 1405.55 729.346 1402.85 C 725.842 1396.18 719.137 1389.97 714.166 1384.26 C 705.252 1393.88 698.091 1404.88 688.471 1413.87 C 702.889 1417.56 717.968 1419.52 732.661 1421.89 C 772.983 1428.39 813.69 1432.65 853.711 1440.97 C 871.633 1444.69 890.238 1448.82 906.929 1456.58 L 906.431 1458.31 C 898.363 1465.02 751.268 1495.4 727.14 1501.42 C 734.515 1508.93 741.195 1516.91 747.925 1524.98 C 738.636 1536.23 725.12 1551.16 712.83 1559 C 702.514 1548.4 694.302 1535.37 685.781 1523.34 C 681.308 1547.12 677.88 1571.1 673.422 1594.9 C 667.777 1625.03 661.089 1654.83 655.019 1684.84 C 653.72 1691.26 651.867 1711.98 648.756 1716.4 C 648.275 1717.08 647.496 1717.49 646.867 1718.04 L 644.432 1717.83 C 638.61 1712.07 629.088 1661.48 626.639 1650.75 A 2634.14 2634.14 0 0 1 608.556 1568.28 C 605.331 1552.33 601.665 1536.47 600.109 1520.24 C 589.584 1532.42 581.215 1546.31 570.366 1558.17 C 557.317 1548.42 546.374 1535.46 535.277 1523.62 C 539.562 1518.69 544.378 1511.15 551.041 1509.66 C 553.464 1510.58 553.567 1510.68 555.007 1512.83 C 555.124 1516.11 552.935 1518.9 551.347 1521.64 C 557.341 1528.17 563.231 1534.67 568.727 1541.64 C 575.872 1530.65 585.972 1519.38 591.073 1507.35 C 574.765 1503.23 557.909 1500.98 541.436 1497.53 C 503.731 1489.63 466.12 1480.7 428.542 1472.19 C 411.387 1468.3 393.215 1465.68 376.376 1460.82 C 373.585 1460.02 371.291 1459.41 369.16 1457.34 C 368.346 1455 367.939 1455.05 368.756 1452.57 C 371.205 1450.78 373.406 1450.02 376.352 1449.31 C 388.956 1446.29 402.671 1445.77 415.541 1443.74 A 6686.85 6686.85 0 0 1 527.827 1426.73 C 550.376 1423.37 573.118 1421.16 595.2 1415.29 C 586.846 1403.97 577.016 1393.54 567.731 1382.97 C 563.362 1388.22 558.839 1393.36 554.395 1398.55 C 555.297 1401.41 557.088 1405.55 556.461 1408.61 C 555.914 1411.27 555.178 1411.73 553.028 1412.95 C 545.912 1412.47 541.728 1407.73 536.725 1403.18 C 544.166 1391.65 557.713 1373.46 568.691 1365.19 C 579.625 1376.1 589.176 1388.56 600.844 1398.72 C 607.523 1365.04 615.224 1331.58 621.814 1297.87 C 626.533 1273.74 629.851 1248.29 636.112 1224.56 C 637.012 1221.15 638.058 1218.54 640.258 1215.75 z"/>
<path transform="translate(0,0)" fill="rgb(252,240,196)" d="M 719.266 1502.34 C 720.821 1502.05 722.343 1502.11 723.921 1502.09 L 724.124 1502.86 L 718.454 1507.75 L 718.373 1509.28 C 721.146 1514.36 725.921 1518.32 730.012 1522.36 C 724.888 1527.97 719.266 1537.14 712.947 1541.09 C 705.851 1530.74 696.96 1519.43 692.173 1507.87 C 701.159 1505.63 710.134 1503.88 719.266 1502.34 z"/>
<path transform="translate(0,0)" fill="rgb(237,146,92)" d="M 465.403 1464.84 C 508.806 1466.68 552.767 1473.37 596.191 1471.16 C 598.635 1479.22 601.716 1485.51 606.503 1492.37 L 605.198 1494.14 C 572.567 1489.49 540.039 1482.09 507.923 1474.74 C 493.825 1471.52 479.194 1469.13 465.403 1464.84 z"/>
<path transform="translate(0,0)" fill="rgb(237,146,92)" d="M 635.28 1293.69 C 638.122 1305.36 636.579 1320.2 636.444 1332.23 L 634.845 1407.6 C 626.858 1410.96 619.365 1415.02 611.924 1419.43 L 611.136 1418.86 C 610.449 1414.04 632.012 1305.58 635.28 1293.69 z"/>
<path transform="translate(0,0)" fill="rgb(237,146,92)" d="M 689.757 1470.99 C 716.549 1470.92 743.381 1469.07 770.149 1467.96 C 784.195 1467.38 801.321 1468.53 814.851 1465.32 C 813.637 1467.23 808.263 1467.87 805.976 1468.39 C 774.367 1475.54 743.128 1482.89 711.168 1488.48 C 702.041 1490.08 691.802 1492.91 682.55 1492.75 L 678.715 1490.4 C 683.04 1484.21 686.931 1478.03 689.757 1470.99 z"/>
<path transform="translate(0,0)" fill="rgb(237,146,92)" d="M 606.503 1492.37 C 614.827 1500.07 623.121 1504.12 634.008 1506.91 A 8533.86 8533.86 0 0 1 635.022 1597.02 C 635.212 1609.22 636.059 1621.42 636.097 1633.61 C 628.529 1605.23 622.982 1575.4 617.767 1546.46 C 615.359 1533.1 613.82 1519.32 610.455 1506.17 C 609.402 1502.05 608.246 1497.25 605.198 1494.14 L 606.503 1492.37 z"/>
<path transform="translate(0,0)" fill="rgb(237,146,92)" d="M 648.515 1281.89 C 648.74 1282.16 649.045 1282.39 649.192 1282.72 C 651.68 1288.24 651.928 1298.71 653.078 1304.94 L 665.205 1367.58 C 667.957 1381.71 672.034 1395.95 674.109 1410.16 C 674.58 1413.38 674.309 1416.14 673.585 1419.29 C 665.21 1414.42 657.06 1410.79 647.717 1408.16 C 647.111 1392.99 647.524 1377.67 647.434 1362.47 C 647.274 1335.54 646.988 1308.79 648.515 1281.89 z"/>
<path transform="translate(0,0)" fill="rgb(237,146,92)" d="M 682.878 1429.65 C 703.519 1434.06 724.709 1437.28 745.589 1440.38 C 756.276 1441.97 821.195 1449.22 826.553 1452.18 L 824.25 1452.76 C 780.335 1455.32 736.379 1456.39 692.419 1457.86 C 690.265 1447.6 688.61 1438.67 682.878 1429.65 z"/>
<path transform="translate(0,0)" fill="rgb(237,146,92)" d="M 595.159 1432.42 L 599.44 1432.26 C 600.27 1434.16 597.863 1437.9 597.041 1439.97 C 594.723 1445.84 594.893 1452.63 594.658 1458.85 C 554.547 1457.46 514.202 1456.05 474.24 1452.28 L 456.637 1451.28 C 502.806 1444.58 548.866 1438.25 595.159 1432.42 z"/>
<path transform="translate(0,0)" fill="rgb(237,146,92)" d="M 647.305 1506.92 C 660.554 1504.57 669.557 1500.23 678.715 1490.4 L 682.55 1492.75 C 681.693 1493.22 681.42 1493.33 680.569 1493.98 C 677.597 1496.24 676.467 1499.34 675.363 1502.77 C 669.12 1522.19 666.903 1544.11 663.485 1564.28 C 658.906 1591.28 653.663 1618.01 650.124 1645.19 C 643.861 1599.8 648.453 1552.7 647.305 1506.92 z"/>
<path transform="translate(0,0)" fill="rgb(252,240,196)" d="M 640.052 1428.22 C 644.77 1428.18 649.251 1428.67 653.672 1430.41 C 660.992 1433.28 666.804 1438.54 669.842 1445.86 C 673.173 1453.88 672.494 1463.25 668.819 1471.03 C 664.32 1480.56 656.924 1485.18 647.335 1488.41 C 640.488 1488.71 634.512 1488.49 628.452 1484.93 C 621.334 1480.75 616.68 1473.56 614.957 1465.56 C 613.134 1457.09 614.586 1448 619.378 1440.73 C 624.553 1432.88 631.113 1429.84 640.052 1428.22 z"/>
</svg>
