<svg version="1.1" xmlns="http://www.w3.org/2000/svg" style="display: block;" viewBox="0 0 2048 2048" width="1024" height="1024">
<path transform="translate(0,0)" fill="rgb(254,254,254)" d="M 0 0 L 2048 0 L 2048 2048 L 0 2048 L 0 0 z"/>
<path transform="translate(0,0)" fill="rgb(253,253,185)" d="M 198.264 1547.63 L 200.707 1548.43 C 202.073 1553.1 200.141 1560.19 199.732 1565.12 L 192.156 1571.22 C 190.45 1563.79 182.31 1554.8 177.739 1548.65 C 184.506 1548.78 191.494 1548.01 198.264 1547.63 z"/>
<path transform="translate(0,0)" fill="rgb(2,66,96)" d="M 139.102 574.685 C 154.328 545.927 169.647 516.884 187.151 489.424 C 204.247 462.606 223.904 436.514 243.287 411.284 C 397.363 210.74 639.766 74.6355 889.938 42.1443 A 1005.41 1005.41 0 0 1 1479.92 143.224 C 1512.3 159.962 1545.43 176.725 1574.42 199.045 C 1635.16 181.163 1679.17 184.36 1735.5 213.647 C 1697.89 215.162 1657.06 216.378 1621.75 230.686 C 1642.18 242.039 1659.98 258.848 1677.79 273.904 C 1758.23 341.917 1825.06 425.448 1878.84 515.832 C 1890.68 535.716 1901.04 556.362 1912.13 576.651 C 1923.52 596.306 1931.81 618.804 1940.64 639.762 A 962.835 962.835 0 0 1 2014.7 1071.55 C 2013.11 1103.08 2011.39 1136.33 2005.46 1167.38 C 2003.49 1180.87 2001.67 1194.42 1999.44 1207.88 C 1995.01 1230.71 1991.71 1255.04 1984.71 1277.19 C 1981.94 1292.24 1977.11 1307.06 1972.7 1321.71 C 1959.81 1364.51 1944.05 1405.28 1926.08 1446.19 C 1920.15 1459.7 1912.47 1472.35 1906.97 1486.06 C 1901.94 1498.6 1894.42 1509.8 1888.54 1521.91 C 1885.24 1527.74 1882.11 1533.8 1878.53 1539.46 C 1862.96 1569.85 1794.62 1665.52 1768.85 1686.18 C 1746.17 1716.93 1716.03 1741.91 1688.26 1767.91 C 1681.6 1772.91 1675.45 1778.36 1669.26 1783.91 C 1648.82 1801.24 1626.88 1819.17 1603.96 1833.06 C 1569.78 1858.7 1530.43 1881.52 1492.13 1900.45 C 1459.39 1920.97 1415.87 1937.11 1379.32 1949.87 C 1367.07 1956.68 1353.56 1960.88 1340.35 1965.4 C 1326.97 1972.86 1307.86 1974.97 1293.1 1979.27 A 959.58 959.58 0 0 1 1210.02 1999.69 C 1188.87 2003.61 1167.35 2007.51 1145.89 2009.26 A 927.21 927.21 0 0 1 1070.04 2016.47 C 1047.5 2018.63 1024.19 2017.51 1001.58 2017.1 L 988.341 2017.01 C 961.588 2015.3 934.701 2013.28 908.147 2009.52 L 895.832 2008.02 C 883.683 2006.2 871.264 2005.28 859.269 2002.63 L 845.206 1999.73 C 835.548 1998.09 825.847 1995.68 816.252 1993.66 L 805.346 1991.26 C 791.213 1987.85 776.586 1984.99 762.763 1980.52 C 739.289 1974.96 714.783 1966.09 692.155 1957.61 C 683.624 1958.39 603.814 1924.78 591.245 1919.04 C 573.497 1910.93 554.222 1902.4 537.965 1891.57 C 525.338 1886.74 511.893 1877.98 500.939 1870.26 C 493.637 1866.47 486.81 1861.44 479.957 1856.89 C 470.987 1851.09 462.204 1845.22 453.624 1838.85 A 1680.95 1680.95 0 0 1 422.979 1817.62 C 411.466 1809.46 400.664 1800.22 390.116 1790.87 C 380.677 1783.05 370.727 1775.32 362.399 1766.3 C 357.367 1763.02 352.332 1757.3 347.84 1753.16 C 328.543 1735.4 311.083 1716.56 293.241 1697.4 C 277.546 1680.55 261.795 1663.95 247.194 1646.12 L 230.331 1624.39 C 226.642 1620.42 222.975 1616.72 220.355 1611.92 C 211.787 1598.11 201.358 1584.72 192.156 1571.22 L 199.732 1565.12 C 200.141 1560.19 202.073 1553.1 200.707 1548.43 L 198.264 1547.63 C 191.494 1548.01 184.506 1548.78 177.739 1548.65 C 174.601 1540.82 168.822 1534.88 165.756 1527.15 C 163.555 1520.45 159.549 1514.09 156.275 1507.83 C 148.575 1493.12 137.029 1472.51 132.594 1456.77 C 120.641 1447.24 88.2196 1355.91 84.4015 1337.07 C 79.1782 1324.36 74.7937 1311.1 70.4625 1298.05 C 68.4633 1285.59 64.7395 1271.28 60.5351 1259.38 C 56.1536 1245.27 54.9606 1229.72 51.3362 1215.25 C 50.412 1203.07 47.7097 1190.41 45.593 1178.36 C 44.0518 1173.09 43.5547 1167.53 42.8189 1162.09 C 39.7392 1145.57 38.3507 1128.48 36.5238 1111.78 C 35.1455 1099.53 34.931 1087.11 33.9108 1074.82 C 32.8795 1066.73 32.6393 1058.43 32.0934 1050.29 L 31.7401 1046.74 C 28.7254 1015.14 31.2752 974.824 36.0371 943.487 C 35.4401 942.288 34.949 941.428 34.8855 940.058 C 34.4722 931.13 37.4365 919.453 38.645 910.474 C 41.3903 890.076 44.5992 853.075 50.3079 834.236 C 57.225 808.058 61.5953 781.653 69.9572 755.755 C 73.3103 741.823 81.8405 724.437 83.3811 711.268 C 95.3181 677.356 105.992 642.458 122.998 610.647 C 124.425 603.675 134.602 579.807 139.102 574.685 z"/>
<path transform="translate(0,0)" fill="rgb(253,253,185)" d="M 982.706 786.595 C 983.115 786.705 983.552 786.74 983.934 786.925 C 986.142 787.993 986.367 789.367 987.149 791.491 C 986.537 794.171 986.443 794.389 984.44 796.263 C 982.403 795.06 980.66 793.859 978.868 792.314 C 979.254 789.531 980.84 788.594 982.706 786.595 z"/>
<path transform="translate(0,0)" fill="rgb(253,253,185)" d="M 640.729 1496.53 C 647.02 1499.82 653.034 1506.07 657.556 1511.48 C 654.681 1511.78 651.641 1512.36 648.803 1511.62 C 644.69 1510.55 642.494 1500.19 640.729 1496.53 z"/>
<path transform="translate(0,0)" fill="rgb(1,95,117)" d="M 243.371 1338.96 C 251.059 1338.72 258.497 1338.78 266.12 1339.94 L 266.944 1340.81 C 266.413 1342.59 265.973 1342.91 264.383 1343.85 C 259.431 1346.77 252.879 1347.22 247.544 1349.21 C 244.23 1350.45 241.013 1352.2 237.836 1353.75 C 239.503 1348.77 241.501 1343.87 243.371 1338.96 z"/>
<path transform="translate(0,0)" fill="rgb(49,177,162)" d="M 620.121 1683.63 C 625.018 1690.71 626.543 1704.25 628.283 1712.8 L 627.511 1713.84 L 622.764 1713.83 C 621.349 1713.67 619.909 1713.53 618.505 1713.28 C 616.007 1712.83 614.857 1712.95 613.291 1710.74 C 613.984 1701.66 616.972 1692.16 620.121 1683.63 z"/>
<path transform="translate(0,0)" fill="rgb(253,253,185)" d="M 255.326 855.313 L 279 854.737 C 269.915 863.117 260.5 871.369 252.45 880.775 C 253.762 872.304 254.936 863.886 255.326 855.313 z"/>
<path transform="translate(0,0)" fill="rgb(49,177,162)" d="M 218.307 1474.55 C 226.387 1473.01 234.462 1471.22 242.65 1470.36 L 245.5 1467.77 C 246.646 1469.76 245.82 1472.16 245.193 1474.35 C 244.596 1476.43 244.191 1477.45 242.182 1478.45 C 234.207 1482.44 223.806 1484.35 215.236 1486.84 L 218.307 1474.55 z"/>
<path transform="translate(0,0)" fill="rgb(253,253,185)" d="M 31.7401 1046.74 C 34.6555 1043.9 38.381 1042.19 41.8277 1040.08 C 54.2329 1032.49 56.721 1024.41 61.3346 1011.18 C 62.9255 1012.03 64.5073 1012.77 66.1111 1013.57 C 68.6451 1014.83 69.5099 1017.93 70.8205 1020.23 C 70.9621 1020.48 71.1574 1020.7 71.3259 1020.93 C 59.3484 1030.93 46.5177 1044.33 32.0934 1050.29 L 31.7401 1046.74 z"/>
<path transform="translate(0,0)" fill="rgb(49,177,162)" d="M 230.824 1407.08 C 240.935 1406.5 250.745 1404.91 260.549 1402.38 C 257.36 1406.6 254.263 1410.97 250.919 1415.07 C 242.797 1417.67 234.103 1419.55 226.343 1423.03 C 228.209 1417.71 229.735 1412.62 230.824 1407.08 z"/>
<path transform="translate(0,0)" fill="rgb(253,253,185)" d="M 901.183 712.864 C 910.319 719.651 928.902 746.867 930.543 758.297 C 930.59 758.622 930.587 758.954 930.609 759.282 C 924.374 751.576 917.946 736.31 909.756 731.258 L 909.04 731.783 C 912.779 738.729 918 748.058 923.026 754.068 C 926.887 758.686 932.279 761.918 935.336 767.137 L 934.72 768.183 C 920.572 763.883 915.119 742.763 905.329 732.825 C 904.351 731.816 904.691 732.432 904.642 730.399 C 904.595 728.473 904.758 727.556 903.853 725.756 C 903.037 724.131 903.383 724.681 901.4 724.069 C 901.043 726.253 901.239 728.272 901.359 730.469 C 900.967 729.953 900.564 729.445 900.185 728.92 C 897.119 724.684 899.172 718.979 900.046 714.21 L 901.183 712.864 z"/>
<path transform="translate(0,0)" fill="rgb(253,253,185)" d="M 226.941 1291.2 C 235.825 1295.19 242.665 1297.07 252.439 1297.16 C 244.78 1302.91 237.636 1309.67 230.375 1315.94 L 216.143 1329.96 C 219.648 1317.01 223.58 1304.2 226.941 1291.2 z"/>
<path transform="translate(0,0)" fill="rgb(252,186,69)" d="M 244.833 822.761 C 251.671 824.319 258.404 825.771 265.367 826.652 C 270.541 834.737 276.608 843.323 280.536 852.063 C 280.023 854.359 280.63 853.529 279 854.737 L 255.326 855.313 C 254.009 843.907 249.188 833.269 244.833 822.761 z"/>
<path transform="translate(0,0)" fill="rgb(253,253,185)" d="M 352.471 782.986 C 353.048 790.006 354.321 793.491 358.644 799.022 C 357.607 804.261 353.772 806.63 349.875 809.839 C 346.04 812.998 343.873 815.604 341.375 819.943 C 331.228 822.245 321.401 825.665 311.529 828.915 A 3246.09 3246.09 0 0 0 352.471 782.986 z"/>
<path transform="translate(0,0)" fill="rgb(49,177,162)" d="M 664.287 1658.68 C 668.068 1672.7 669.59 1687.72 672.147 1702.03 C 673.234 1708.12 675.513 1714.34 675.954 1720.45 C 672.705 1721.34 669.236 1720.28 665.943 1719.7 C 661.934 1719.3 657.884 1718.5 653.893 1717.91 C 654.994 1697.49 658.056 1678.2 664.287 1658.68 z"/>
<path transform="translate(0,0)" fill="rgb(191,99,97)" d="M 1532.5 912.432 C 1543.9 916.578 1554.09 927.49 1562.95 935.455 C 1546.97 939.898 1529.68 940.523 1513.31 943.169 C 1517.88 932.107 1525.36 921.946 1532.5 912.432 z"/>
<path transform="translate(0,0)" fill="rgb(253,253,185)" d="M 225.541 788.502 C 232.257 785.01 239.969 781.814 247.503 780.823 C 250.544 797.752 257.448 811.586 265.367 826.652 C 258.404 825.771 251.671 824.319 244.833 822.761 C 237.903 811.607 231.127 800.4 225.541 788.502 z"/>
<path transform="translate(0,0)" fill="rgb(49,177,162)" d="M 813.345 1829.06 C 837.807 1828.3 863.821 1832.67 888.058 1835.74 L 877.952 1839.07 C 861.765 1844.55 847.51 1849.02 830.228 1848.96 C 824.192 1842.63 818.781 1835.9 813.345 1829.06 z"/>
<path transform="translate(0,0)" fill="rgb(253,253,185)" d="M 212.886 1338.86 C 223.004 1339.46 233.238 1339.06 243.371 1338.96 C 241.501 1343.87 239.503 1348.77 237.836 1353.75 C 223.036 1364.36 210.873 1374.83 198.799 1388.43 A 1367.85 1367.85 0 0 0 212.886 1338.86 z"/>
<path transform="translate(0,0)" fill="rgb(253,253,185)" d="M 218.307 1474.55 L 215.236 1486.84 C 211.924 1489.53 207.983 1491.6 204.434 1493.99 C 191.81 1502.51 183.11 1510.84 174.941 1523.65 C 176.452 1508.41 177.014 1493.05 179.215 1477.88 C 192.315 1477.92 205.36 1476.4 218.307 1474.55 z"/>
<path transform="translate(0,0)" fill="rgb(253,253,185)" d="M 289.203 775.755 C 296.125 772.026 305.981 769.901 313.727 768.795 C 309.941 789.624 303.807 813.53 301.619 834.094 L 290.558 844.949 C 292.954 821.782 295.833 798.484 289.203 775.755 z"/>
<path transform="translate(0,0)" fill="rgb(253,253,185)" d="M 132.594 1456.77 C 145.272 1465.06 157.354 1470.96 171.67 1475.83 C 169.257 1492.45 165.498 1510.31 165.756 1527.15 C 163.555 1520.45 159.549 1514.09 156.275 1507.83 C 148.575 1493.12 137.029 1472.51 132.594 1456.77 z"/>
<path transform="translate(0,0)" fill="rgb(253,253,185)" d="M 193.823 1403.25 C 206.127 1406.22 218.241 1406.76 230.824 1407.08 C 229.735 1412.62 228.209 1417.71 226.343 1423.03 C 204.67 1431.55 196.004 1439.32 183.83 1458.98 L 193.823 1403.25 z"/>
<path transform="translate(0,0)" fill="rgb(253,253,185)" d="M 133.474 917.779 C 139.324 921.276 145.325 925.34 151.562 928.075 C 156.909 937.559 159.496 946.726 166.379 955.521 C 153.555 964.853 139.943 972.098 127.698 982.434 C 136.054 959.696 137.461 941.603 133.474 917.779 z"/>
<path transform="translate(0,0)" fill="rgb(253,253,185)" d="M 66.1606 968.51 C 73.3662 969.007 79.9525 969.773 86.9646 971.621 C 88.552 982.182 89.189 994.896 94.8475 1004.12 L 71.3259 1020.93 C 71.1574 1020.7 70.9621 1020.48 70.8205 1020.23 C 69.5099 1017.93 68.6451 1014.83 66.1111 1013.57 C 64.5073 1012.77 62.9255 1012.03 61.3346 1011.18 C 63.7548 997.166 64.6983 982.671 66.1606 968.51 z"/>
<path transform="translate(0,0)" fill="rgb(191,99,97)" d="M 1817.84 921.919 C 1818.57 922.732 1818.09 922.092 1818.49 924.221 C 1800.89 966.025 1773.59 1005.63 1745.93 1041.35 L 1745.46 1041.21 L 1744.88 1039.52 C 1751.26 1006.64 1794.52 947.907 1817.84 921.919 z"/>
<path transform="translate(0,0)" fill="rgb(191,99,97)" d="M 934 1326.73 C 961.76 1343.75 985.022 1362.64 1005.06 1388.49 C 983.844 1377.16 964.321 1367.87 940.744 1362.23 C 932.651 1360.3 923.685 1360.38 915.84 1357.95 C 922.505 1347.97 928.275 1337.27 934 1326.73 z"/>
<path transform="translate(0,0)" fill="rgb(253,253,185)" d="M 187.541 863.555 C 195.894 860.785 204.48 859.385 213.212 858.52 C 215.935 864.788 219.057 870.694 222.395 876.655 C 226.328 882.599 229.943 888.693 233.532 894.85 C 219.544 906.621 205.309 918.363 192.895 931.825 C 198.054 911.779 196.066 892.321 190.428 872.652 L 187.541 863.555 z"/>
<path transform="translate(0,0)" fill="rgb(252,186,69)" d="M 187.541 863.555 C 195.894 860.785 204.48 859.385 213.212 858.52 C 215.935 864.788 219.057 870.694 222.395 876.655 C 212.053 877.675 200.512 874.717 190.428 872.652 L 187.541 863.555 z"/>
<path transform="translate(0,0)" fill="rgb(191,99,97)" d="M 33.9108 1074.82 C 39.6303 1071 44.5893 1066.46 49.686 1061.86 C 64.9606 1080.1 77.4256 1091.51 102.222 1093.66 A 333.427 333.427 0 0 0 111.931 1094.32 C 96.3785 1101.44 79.2757 1105.04 62.4084 1107.39 C 54.4719 1108.5 43.7935 1108.69 36.5238 1111.78 C 35.1455 1099.53 34.931 1087.11 33.9108 1074.82 z"/>
<path transform="translate(0,0)" fill="rgb(49,177,162)" d="M 706.586 1637.67 C 707.529 1638.55 707.821 1639.43 708.088 1640.73 C 710.123 1650.61 710.51 1661.28 711.937 1671.32 C 715.351 1695.34 719.205 1719.54 724.019 1743.32 L 714.201 1737.72 C 707.95 1734.59 701.303 1732.1 694.843 1729.42 C 689.912 1699.58 693.46 1665.03 706.586 1637.67 z"/>
<path transform="translate(0,0)" fill="rgb(191,99,97)" d="M 1532.09 1038.23 C 1566.15 1040.37 1635.22 1046.91 1664.72 1060.4 C 1667.03 1064.9 1669.53 1069.38 1671.29 1074.13 C 1653.7 1070.39 1636.59 1064.74 1619.09 1060.58 C 1581.08 1051.55 1548.35 1052.39 1509.95 1056.1 C 1512.6 1048.61 1525.65 1043.25 1532.09 1038.23 z"/>
<path transform="translate(0,0)" fill="rgb(49,177,162)" d="M 818.781 1784.44 C 844.369 1783.07 870.395 1783.61 896.024 1783.74 C 882.364 1792.52 866.776 1797.69 851.5 1802.87 C 833.702 1807.58 816.995 1809.24 798.642 1809.06 C 792.273 1801.82 785.944 1794.6 779.127 1787.77 C 792.257 1785.64 805.517 1785.09 818.781 1784.44 z"/>
<path transform="translate(0,0)" fill="rgb(191,99,97)" d="M 1769.82 887.051 C 1774.13 899.467 1778.87 912.601 1780.59 925.668 C 1761.15 933.827 1722.67 962.554 1714.64 982.167 L 1712.76 982.646 L 1711.62 981.625 C 1710.34 956.695 1753.92 906.242 1769.82 887.051 z"/>
<path transform="translate(0,0)" fill="rgb(49,177,162)" d="M 1539.72 1009.41 C 1561.31 1007.15 1586.67 1008.9 1607.68 1014.44 C 1629.26 1020.14 1648.47 1031.39 1659.95 1051.17 C 1646.26 1048.19 1632.67 1043.74 1619.21 1039.84 C 1573.13 1027.35 1533.7 1019.81 1485.52 1024.07 A 174.107 174.107 0 0 1 1539.72 1009.41 z"/>
<path transform="translate(0,0)" fill="rgb(191,99,97)" d="M 1530.24 972.587 C 1550.05 969.899 1570.32 966.266 1590.22 964.856 C 1599.2 974.566 1615.1 992.248 1622.69 1002.57 C 1588.49 996.857 1553.48 998.456 1519.42 1004.18 C 1520.93 993.213 1527.93 983.417 1530.24 972.587 z"/>
<path transform="translate(0,0)" fill="rgb(238,122,93)" d="M 353.678 1482.38 L 355.388 1483.65 C 355.365 1483.93 355.336 1484.22 355.319 1484.5 C 354.923 1490.86 358.925 1495.29 358.999 1500.75 L 356.058 1503.1 C 355.853 1505.62 356.017 1505.57 357.527 1507.64 L 355.69 1511.16 C 353.643 1511.56 352.335 1511.12 350.344 1510.65 C 340.98 1508.46 336.483 1509.6 328.22 1513.88 C 327.156 1525.4 328.23 1535.06 330.662 1546.3 C 330.993 1547.83 330.889 1547.22 330.964 1548.94 C 324.43 1545.66 292.43 1533.81 285.711 1533.32 C 283.836 1533.18 280.198 1534.6 278.32 1535.22 C 263.7 1540.1 246.557 1544.54 232.578 1550.36 L 230.719 1542.13 C 248.371 1537.95 264.016 1526.39 279.918 1518.07 C 286.537 1514.6 293.656 1512.25 300.205 1508.66 C 301.07 1506.28 300.792 1504.77 300.489 1502.32 C 297.179 1499.94 295.255 1503.47 292.351 1501.84 C 292.366 1501.34 292.348 1500.83 292.394 1500.33 C 292.627 1497.8 293.577 1495.7 295.838 1494.34 C 301.327 1491.05 321.23 1497.12 328.436 1498.06 C 336.551 1490.29 344.105 1487.74 353.678 1482.38 z"/>
<path transform="translate(0,0)" fill="rgb(49,177,162)" d="M 422.979 1817.62 C 466.85 1796.06 516.199 1782.25 563.739 1771.38 C 539.393 1793.5 512.384 1811.28 482.826 1825.65 C 473.272 1830.29 462.993 1833.98 453.624 1838.85 A 1680.95 1680.95 0 0 1 422.979 1817.62 z"/>
<path transform="translate(0,0)" fill="rgb(191,99,97)" d="M 110.088 1012.83 C 116.878 1014.73 125.486 1022.65 131.855 1026.5 C 152.577 1039 173.001 1045.27 196.594 1049.49 C 180.388 1057.28 164.005 1062.52 145.907 1063.08 C 116.449 1063.2 86.3658 1050.24 57.2305 1054.05 C 75.0922 1042.3 93.0225 1026.14 110.088 1012.83 z"/>
<path transform="translate(0,0)" fill="rgb(49,177,162)" d="M 1516.98 1071.99 C 1576.15 1067.71 1645.41 1065.8 1693.11 1106.83 A 148.954 148.954 0 0 1 1710.51 1124.74 C 1646.47 1103 1581.84 1086.31 1513.72 1087.08 C 1513.92 1081.8 1515.5 1077.02 1516.98 1071.99 z"/>
<path transform="translate(0,0)" fill="rgb(253,253,185)" d="M 70.4625 1298.05 C 81.7107 1296.41 92.9201 1294.75 104.081 1292.57 C 108.522 1325.98 117.724 1361.12 145.832 1382.69 C 157.906 1391.96 172.304 1397.4 186.744 1401.77 C 182.071 1421.25 176.807 1441.46 174.149 1461.31 C 168.073 1420.54 133.03 1390.35 106.106 1361.84 C 98.6342 1353.93 92.0505 1344.62 84.4015 1337.07 C 79.1782 1324.36 74.7937 1311.1 70.4625 1298.05 z"/>
<path transform="translate(0,0)" fill="rgb(49,177,162)" d="M 1780.59 925.668 C 1792.76 920.134 1806.52 918.531 1819.75 918.84 C 1808.87 926.495 1797.69 933.47 1787.72 942.36 C 1758.05 968.825 1718.37 1019.28 1704.06 1056.23 C 1697.81 1049.82 1694.01 1044.08 1693.97 1034.71 C 1693.88 1013.33 1708.35 999.218 1714.64 982.167 C 1722.67 962.554 1761.15 933.827 1780.59 925.668 z"/>
<path transform="translate(0,0)" fill="rgb(49,177,162)" d="M 1984.71 1277.19 C 1981.94 1292.24 1977.11 1307.06 1972.7 1321.71 C 1959.81 1364.51 1944.05 1405.28 1926.08 1446.19 C 1920.15 1459.7 1912.47 1472.35 1906.97 1486.06 C 1905.45 1479.76 1905.87 1472.43 1906.18 1466 C 1909.09 1406.39 1940.34 1317.67 1984.71 1277.19 z"/>
<path transform="translate(0,0)" fill="rgb(49,177,162)" d="M 1921.41 1023.05 L 1921.95 1023.19 L 1922.25 1024.01 C 1910.38 1030.77 1899.82 1040.67 1890.39 1050.43 C 1862.11 1079.7 1843.17 1114.47 1823.04 1149.44 C 1813.38 1166.21 1804 1183.39 1791.59 1198.32 L 1791.07 1198.46 L 1790.12 1197.47 C 1788.61 1170.02 1797.22 1141.87 1809.37 1117.52 C 1833.02 1070.14 1871.68 1039.7 1921.41 1023.05 z"/>
<path transform="translate(0,0)" fill="rgb(191,99,97)" d="M 968.089 1264.39 C 970.321 1265.89 972.356 1267.64 974.43 1269.35 C 977.799 1280.57 1000.88 1307.02 1008.89 1318.34 C 1023.15 1338.49 1036.49 1365.92 1042.52 1389.68 C 1011.38 1360.1 975.607 1340.04 936.026 1324.1 C 945.67 1303.83 957.003 1283.9 968.089 1264.39 z"/>
<path transform="translate(0,0)" fill="rgb(49,177,162)" d="M 1585.81 1139.42 C 1607.37 1137.21 1631.27 1138.79 1652.61 1141.86 C 1679.55 1145.75 1710.68 1156.19 1730.3 1175.94 C 1737.27 1182.96 1743.09 1191.72 1749.04 1199.62 C 1721.23 1190.09 1693.64 1180.48 1665.22 1172.9 C 1617.15 1161.55 1568.49 1149.47 1518.74 1155.75 C 1507.13 1157.21 1495.63 1160.13 1484.22 1162.71 C 1519.13 1146.34 1547.94 1142.77 1585.81 1139.42 z"/>
<path transform="translate(0,0)" fill="rgb(49,177,162)" d="M 1878.27 966.934 L 1879.34 967.2 C 1878.24 970.654 1869.79 975.75 1866.77 978.305 A 252.976 252.976 0 0 0 1834.76 1010.63 C 1815.52 1033.65 1797.91 1060.3 1784.5 1087.1 C 1776.35 1103.37 1769.53 1119.27 1762.86 1136.19 C 1761.79 1138.9 1761.02 1142.01 1758.78 1143.97 L 1757.31 1142.81 C 1747.19 1114.32 1749.47 1086.04 1762.15 1058.7 C 1783.49 1012.72 1832.43 983.485 1878.27 966.934 z"/>
<path transform="translate(0,0)" fill="rgb(49,177,162)" d="M 1990.47 1088.24 L 1991.25 1088.31 L 1991 1089.41 C 1978.56 1097.75 1965.81 1105.25 1954.33 1114.97 C 1900.16 1160.84 1875.24 1230.04 1835.9 1287.18 C 1834.5 1289.22 1833.51 1291.61 1831.07 1292.27 A 369.542 369.542 0 0 1 1829.04 1283.74 C 1821.14 1248.52 1831.13 1208.72 1850.42 1178.79 C 1886.65 1122.56 1926.9 1102.12 1990.47 1088.24 z"/>
<path transform="translate(0,0)" fill="rgb(49,177,162)" d="M 1878.53 1539.46 C 1874 1534.63 1871.3 1511.26 1869.11 1502.94 C 1857.41 1458.35 1845.56 1413.49 1831.36 1369.63 C 1811.83 1309.3 1787.51 1247.71 1759.4 1190.95 C 1749.38 1170.7 1737.89 1151.05 1727.05 1131.22 C 1708.44 1097.17 1689.77 1061.31 1666.57 1030.13 C 1658.65 1019.48 1649.41 1009.46 1640.73 999.412 C 1634.24 991.88 1626.02 980.161 1618.7 974.247 C 1618.26 973.897 1617.78 973.617 1617.32 973.302 C 1617.37 973.009 1617.44 972.719 1617.46 972.423 C 1617.48 972.196 1617.44 971.968 1617.43 971.74 C 1618.96 972.126 1618.71 971.897 1619.8 972.653 C 1638.67 985.646 1658.46 1014.66 1673.11 1033.27 C 1694.03 1059.85 1715.41 1087.16 1733.27 1115.9 C 1787.2 1202.71 1825.36 1299.34 1855.78 1396.58 C 1868.78 1438.09 1880.57 1479.08 1888.54 1521.91 C 1885.24 1527.74 1882.11 1533.8 1878.53 1539.46 z"/>
<path transform="translate(0,0)" fill="rgb(253,253,185)" d="M 51.3362 1215.25 C 77.2554 1213.03 123.294 1208.42 147.816 1213.06 C 144.425 1247.18 139.382 1280.83 162.723 1309.38 C 174.503 1323.79 189.47 1330.96 206.701 1337.04 C 201.303 1352.4 195.722 1367.41 193.374 1383.6 C 181.778 1355.24 166.649 1335.99 144.168 1315.59 C 136.027 1308.21 126.915 1300.68 120.023 1292.1 C 115.28 1286.19 112.877 1275.46 107.306 1270.72 C 104.928 1273.43 106.731 1276.95 104.513 1279.02 C 102.627 1277.85 101.102 1276.67 99.4186 1275.23 C 89.1633 1266.44 73.3723 1262.55 60.5351 1259.38 C 56.1536 1245.27 54.9606 1229.72 51.3362 1215.25 z"/>
<path transform="translate(0,0)" fill="rgb(49,177,162)" d="M 1659.79 1388.41 A 216.303 216.303 0 0 1 1748.39 1403.25 C 1790.87 1420.17 1844.45 1459.74 1862.81 1502.82 C 1848.32 1494.86 1834.48 1485.93 1819.68 1478.5 C 1802.03 1469.31 1783.57 1461.83 1765.21 1454.22 C 1726.06 1437.99 1685.67 1422.85 1644.67 1411.92 C 1626.53 1407.08 1607.99 1403.56 1589.64 1399.58 C 1612.92 1393.01 1635.71 1389.98 1659.79 1388.41 z"/>
<path transform="translate(0,0)" fill="rgb(49,177,162)" d="M 1652.78 1298.42 C 1680.74 1295.88 1710.58 1300.13 1736.98 1309.38 C 1774.41 1322.5 1802.07 1342.9 1819.47 1379.08 C 1786.97 1369.58 1754.81 1358.95 1722.22 1349.73 C 1649.37 1331.58 1603.44 1328.66 1528.48 1332.76 C 1566.72 1313.49 1610.17 1301.97 1652.78 1298.42 z"/>
<path transform="translate(0,0)" fill="rgb(49,177,162)" d="M 1469.89 1267.71 L 1470.74 1267.36 C 1486.18 1260.87 1500.44 1251.47 1515.87 1244.78 C 1530.62 1238.39 1545.33 1231.96 1560.72 1227.26 C 1613.31 1211.17 1674.52 1208.43 1726.17 1228.98 C 1754.03 1240.06 1776.49 1258.48 1790.24 1285.4 C 1721.6 1268.51 1649.22 1246.96 1577.88 1251.45 C 1549.17 1253.26 1519.83 1257.14 1491.71 1263.2 C 1485.5 1264.54 1467.41 1273.14 1463.22 1272.41 C 1465.27 1270.67 1467.67 1269.23 1469.89 1267.71 z"/>
<path transform="translate(0,0)" fill="rgb(49,177,162)" d="M 1862.33 1385.32 C 1858.4 1356.41 1862.55 1328.18 1872.47 1300.85 C 1891.74 1247.77 1922.21 1215.9 1969.55 1187.22 C 1981.17 1180.18 1993.13 1173.09 2005.46 1167.38 C 2003.49 1180.87 2001.67 1194.42 1999.44 1207.88 C 1992.15 1212.35 1985.69 1219.34 1979.7 1225.38 C 1931.56 1273.9 1909.01 1340.56 1862.33 1385.32 z"/>
<path transform="translate(0,0)" fill="rgb(49,177,162)" d="M 525.184 1747.61 C 533.019 1744.96 541.582 1741.29 549.751 1740.07 C 584.977 1734.83 626.285 1747.07 657.496 1762.65 C 677.333 1772.55 695.44 1786.48 712.256 1800.85 C 764.966 1845.91 794.163 1889.38 823.617 1951.78 C 831.087 1967.6 838.792 1983.44 845.206 1999.73 C 835.548 1998.09 825.847 1995.68 816.252 1993.66 C 810.095 1958.07 736.479 1861.55 710.363 1834.22 C 697.402 1820.65 683.03 1808.85 667.708 1798.08 C 624.393 1767.61 578.498 1749.85 525.184 1747.61 z"/>
<path transform="translate(0,0)" fill="rgb(191,99,97)" d="M 914.141 1359.88 C 943.542 1365.7 967.968 1378.96 986.493 1402.85 C 993.882 1412.38 1000.37 1422.76 1008.78 1431.43 C 1003.21 1433.41 997.664 1435.42 991.946 1436.96 L 990.594 1417.33 C 988.309 1424.81 986.09 1432.22 983.01 1439.42 C 973.194 1442.1 962.857 1446.2 952.892 1447.83 C 950.871 1446.47 951.191 1446.39 950.412 1444.24 L 948.878 1444.82 C 947.771 1447.62 947.888 1448.75 944.89 1450.01 C 941.458 1451.46 937.436 1452.14 933.813 1453 L 934.52 1451.64 C 938.303 1444.44 947.107 1435.12 949.131 1427.77 C 926.64 1448.49 931.503 1456.36 898.161 1464.78 C 906.538 1455.15 912.727 1443.87 920.359 1433.66 C 900.596 1447.34 887.325 1473.56 862.273 1476.88 C 875.873 1461.88 887.757 1444.78 899.913 1428.58 C 888.417 1437.83 877.037 1447.14 866.253 1457.22 C 857.727 1465.19 844.999 1480.58 835.669 1486.05 C 830.815 1488.9 823.993 1489.35 818.608 1491.01 C 827.975 1475.48 837.853 1459.21 849.221 1445.07 A 455.518 455.518 0 0 0 817.79 1472.76 C 809.891 1480.29 801.736 1490.16 792.422 1495.87 C 789.403 1497.72 785.6 1498.43 782.198 1499.25 C 788.75 1484.91 803.314 1461.85 814.81 1451.31 C 821.602 1445.08 830.708 1440.74 838.331 1435.53 C 856.959 1422.8 875.482 1409.74 893.828 1396.59 C 898.522 1383.03 905.733 1371.42 914.141 1359.88 z"/>
<path transform="translate(0,0)" fill="rgb(49,177,162)" d="M 567.429 1732.61 C 585.732 1729.34 605.192 1725.86 623.804 1725.96 C 662.531 1726.16 702.172 1744.19 733.5 1765.87 C 803.681 1814.46 880.554 1923.27 895.832 2008.02 C 883.683 2006.2 871.264 2005.28 859.269 2002.63 L 860.58 2001.41 C 856.314 1985.31 846.464 1969.2 839.487 1954.03 C 805.073 1879.21 762.272 1808.67 689.092 1765.77 C 649.066 1742.31 613.143 1734.45 567.429 1732.61 z"/>
<path transform="translate(0,0)" fill="rgb(252,186,69)" d="M 1681.61 740.876 C 1695.96 747.968 1708.72 756.323 1722.52 764.219 C 1724.37 771.005 1726.47 777.6 1728.82 784.229 C 1767.83 793.228 1807.28 799.136 1845.56 811.225 A 1848.15 1848.15 0 0 1 1837.03 859.961 C 1834.88 869.492 1826.08 914.522 1819.75 918.84 C 1806.52 918.531 1792.76 920.134 1780.59 925.668 C 1778.87 912.601 1774.13 899.467 1769.82 887.051 C 1772.05 884.088 1774.15 881.573 1775.17 877.959 L 1774.25 876.453 C 1770.59 876.237 1767.35 878.409 1764.18 880.051 C 1760.05 870.657 1756.58 861.161 1753.19 851.486 C 1748.09 850.746 1741.86 850.327 1737.81 846.878 C 1731.8 836.554 1730.87 820.753 1729.46 809.034 A 76.6957 76.6957 0 0 0 1728.16 804.565 C 1723.86 791.657 1715.37 788.706 1704.49 782.909 C 1688.82 774.556 1686.45 756.53 1681.61 740.876 z"/>
<path transform="translate(0,0)" fill="rgb(252,217,88)" d="M 1733.64 807.067 C 1734.31 814.954 1740.64 841.327 1737.81 846.878 C 1731.8 836.554 1730.87 820.753 1729.46 809.034 L 1733.64 807.067 z"/>
<path transform="translate(0,0)" fill="rgb(253,253,185)" d="M 1681.61 740.876 C 1695.96 747.968 1708.72 756.323 1722.52 764.219 C 1724.37 771.005 1726.47 777.6 1728.82 784.229 C 1767.83 793.228 1807.28 799.136 1845.56 811.225 A 1848.15 1848.15 0 0 1 1837.03 859.961 C 1820.7 848.602 1804.48 836.919 1787.39 826.702 C 1768.24 815.246 1748.19 805.198 1728.85 793.982 L 1729.78 795.776 C 1731.77 799.612 1732.84 802.802 1733.64 807.067 L 1729.46 809.034 A 76.6957 76.6957 0 0 0 1728.16 804.565 C 1723.86 791.657 1715.37 788.706 1704.49 782.909 C 1688.82 774.556 1686.45 756.53 1681.61 740.876 z"/>
<path transform="translate(0,0)" fill="rgb(49,177,162)" d="M 796.472 1618.68 C 798.816 1621.39 799.283 1627.35 799.957 1630.95 C 804.86 1657.16 805.737 1683.2 804.072 1709.75 C 811.314 1699.93 820.472 1690.54 831.204 1684.62 C 827.877 1678.49 825.349 1670.64 824.822 1663.67 C 824.167 1655.02 826.739 1646.79 832.687 1640.39 A 33.3807 33.3807 0 0 1 857.491 1629.62 C 865.058 1629.64 873.301 1632.15 878.646 1637.73 C 882.973 1642.23 884.635 1648.04 884.192 1654.19 C 883.47 1664.22 878.524 1672.58 870.947 1679 C 859.805 1688.45 850.177 1687.02 836.547 1685.67 C 828.439 1694.67 822.014 1705.16 813.837 1714.21 C 842.275 1707.8 870.607 1702.06 899.966 1703.91 C 871.776 1723.56 837.39 1730.4 803.659 1728.89 C 799.562 1736.46 794.61 1743.46 789.738 1750.54 C 809.156 1747.86 828.621 1744.74 848.134 1742.87 C 865.034 1740.9 882.781 1741.5 899.813 1741.18 C 863.692 1762.79 822.523 1772.06 780.7 1765.54 C 776.773 1770.98 772.91 1775.87 768.067 1780.53 C 763.746 1773.93 760.188 1766.69 756.856 1759.55 C 733.174 1708.79 735.723 1673.01 754.695 1620.58 C 758.081 1641.58 761.69 1662.59 764.658 1683.65 C 767.912 1706.75 770.273 1729.57 775.16 1752.44 C 780.573 1743.36 785.698 1734.07 790.944 1724.89 C 779.996 1686.46 780.223 1655.52 796.472 1618.68 z"/>
<path transform="translate(0,0)" fill="rgb(253,253,185)" d="M 50.3079 834.236 L 50.8163 834.948 C 53.3671 835.962 55.3539 835.095 57.9892 834.445 C 70.7993 831.287 83.4839 826.791 96.2378 823.263 C 114.606 818.182 133.195 813.925 151.538 808.745 C 171.203 803.191 190.432 797.004 210.701 793.904 C 202.953 817.145 204.608 835.813 213.212 858.52 C 204.48 859.385 195.894 860.785 187.541 863.555 C 180.645 847.383 174.959 831.735 170.355 814.734 L 169.812 816.534 C 157.227 857.599 142.778 872.482 148.849 919.316 L 151.562 928.075 C 145.325 925.34 139.324 921.276 133.474 917.779 C 132.046 913.326 131.224 908.604 130.206 904.038 C 128.087 896.758 126.226 889.509 125.169 881.989 C 124.316 875.917 125.616 861.739 123.188 857.691 C 114.55 861.813 99.6987 894.529 96.4109 903.741 A 174.895 174.895 0 0 0 86.7422 951.757 L 86.9646 971.621 C 79.9525 969.773 73.3662 969.007 66.1606 968.51 C 64.6983 982.671 63.7548 997.166 61.3346 1011.18 C 56.721 1024.41 54.2329 1032.49 41.8277 1040.08 C 38.381 1042.19 34.6555 1043.9 31.7401 1046.74 C 28.7254 1015.14 31.2752 974.824 36.0371 943.487 C 35.4401 942.288 34.949 941.428 34.8855 940.058 C 34.4722 931.13 37.4365 919.453 38.645 910.474 C 41.3903 890.076 44.5992 853.075 50.3079 834.236 z"/>
<path transform="translate(0,0)" fill="rgb(252,186,69)" d="M 130.206 904.038 C 134.706 904.773 137.251 904.787 140.156 908.675 C 142.829 912.256 145.26 916.565 148.849 919.316 L 151.562 928.075 C 145.325 925.34 139.324 921.276 133.474 917.779 C 132.046 913.326 131.224 908.604 130.206 904.038 z"/>
<path transform="translate(0,0)" fill="rgb(252,186,69)" d="M 66.8779 957.111 C 72.5436 957.807 78.6486 959.901 84.2638 958.486 C 86.796 956.455 86.3255 954.895 86.7422 951.757 L 86.9646 971.621 C 79.9525 969.773 73.3662 969.007 66.1606 968.51 C 66.7005 964.772 66.699 960.884 66.8779 957.111 z"/>
<path transform="translate(0,0)" fill="rgb(6,73,98)" d="M 70.4779 885.379 C 67.9067 908.881 66.7471 933.472 66.8779 957.111 C 66.699 960.884 66.7005 964.772 66.1606 968.51 C 64.6983 982.671 63.7548 997.166 61.3346 1011.18 C 56.721 1024.41 54.2329 1032.49 41.8277 1040.08 C 38.381 1042.19 34.6555 1043.9 31.7401 1046.74 C 28.7254 1015.14 31.2752 974.824 36.0371 943.487 C 42.0617 922.872 55.3609 900.597 70.4779 885.379 z"/>
<path transform="translate(0,0)" fill="rgb(49,177,162)" d="M 530.576 1858.12 C 542.466 1837.61 563.38 1825.14 585.97 1819.02 C 596.432 1816.19 620.481 1813.47 630.292 1818.46 C 631.291 1818.97 631.352 1819.12 632.035 1819.81 C 629.362 1823.69 605.296 1831.39 599.113 1834.53 C 581.723 1843.39 564.011 1855.01 548.768 1867.2 C 560.35 1870.48 571.814 1873.88 582.889 1878.66 C 602.806 1857.38 624.627 1837.82 655.397 1836.62 C 673.308 1835.92 687.228 1843.86 701.353 1853.86 C 662.697 1855.87 631.006 1863.66 598.191 1885.46 C 606.146 1890.86 614.6 1894.95 623.302 1898.99 C 649.199 1881.81 680.134 1869.49 711.768 1876.3 C 724.109 1878.96 731.207 1885.89 739.251 1894.94 C 706.211 1894.19 679.728 1900.4 649.08 1912.31 C 657.213 1916.63 666.225 1919.97 675.021 1922.68 C 699.447 1916.08 729.022 1908.97 752.455 1922.56 C 760.687 1927.34 766.258 1933.91 772.278 1941.15 C 749.281 1936.66 726.933 1937.22 703.678 1938.37 C 713.555 1941.87 723.486 1945.69 733.593 1948.47 C 750.871 1953.22 775.328 1955.21 789.475 1967.01 C 795.93 1972.39 801.603 1983.69 805.346 1991.26 C 791.213 1987.85 776.586 1984.99 762.763 1980.52 C 739.289 1974.96 714.783 1966.09 692.155 1957.61 C 683.624 1958.39 603.814 1924.78 591.245 1919.04 C 573.497 1910.93 554.222 1902.4 537.965 1891.57 C 525.338 1886.74 511.893 1877.98 500.939 1870.26 C 493.637 1866.47 486.81 1861.44 479.957 1856.89 C 497.329 1854.43 513.276 1856.06 530.576 1858.12 z"/>
<path transform="translate(0,0)" fill="rgb(2,66,96)" d="M 500.939 1870.26 C 517.465 1870.61 539.019 1878.86 554.524 1884.64 C 579.893 1894.09 603.576 1906.77 628.313 1917.58 C 650.106 1927.11 750.131 1966.52 761.359 1976.96 C 762.474 1978 762.535 1978.22 763.239 1979.33 L 762.763 1980.52 C 739.289 1974.96 714.783 1966.09 692.155 1957.61 C 683.624 1958.39 603.814 1924.78 591.245 1919.04 C 573.497 1910.93 554.222 1902.4 537.965 1891.57 C 525.338 1886.74 511.893 1877.98 500.939 1870.26 z"/>
<path transform="translate(0,0)" fill="rgb(49,177,162)" d="M 537.965 1891.57 C 541.091 1890.88 543.021 1891.3 546.031 1892.35 C 579.438 1904.02 611.428 1921.58 643.723 1936.06 C 657.941 1942.43 676.639 1947.86 689.459 1955.76 A 28.7443 28.7443 0 0 1 692.155 1957.61 C 683.624 1958.39 603.814 1924.78 591.245 1919.04 C 573.497 1910.93 554.222 1902.4 537.965 1891.57 z"/>
<path transform="translate(0,0)" fill="rgb(253,253,185)" d="M 42.8189 1162.09 C 116.664 1154.5 189.198 1132.4 263.566 1129.69 C 274.663 1142.36 292.971 1157.83 297.135 1174.24 C 298.645 1180.19 298.201 1186.27 297.872 1192.33 C 297.664 1192.61 297.462 1192.9 297.249 1193.17 C 287.568 1205.84 243.166 1240.17 245.912 1257.02 C 246.195 1258.76 247.154 1259.2 248.349 1260.37 C 258.009 1263.7 271.693 1259.99 281.342 1257.46 C 282.366 1258.42 282.809 1258.5 283.085 1259.93 C 277.216 1262.28 270.586 1263.25 264.432 1264.67 C 250.653 1267.86 240.919 1273.39 229.287 1281.3 C 243.033 1243.3 247.309 1207.24 240.279 1167.36 C 238.573 1157.69 236.78 1147.69 233.074 1138.57 C 219.856 1157.11 206.198 1171.6 200.615 1194.39 C 191.789 1230.41 204.442 1255.29 222.723 1285.14 C 217.946 1297.13 214.32 1309.73 210.361 1322.02 C 202.566 1282.66 180.796 1255.01 156.578 1224.33 C 154.049 1221.12 151.388 1217.06 152.12 1212.75 C 152.203 1212.27 152.323 1211.79 152.424 1211.3 L 150.683 1209.34 C 149.688 1210.5 148.432 1211.65 147.816 1213.06 C 123.294 1208.42 77.2554 1213.03 51.3362 1215.25 C 50.412 1203.07 47.7097 1190.41 45.593 1178.36 C 44.0518 1173.09 43.5547 1167.53 42.8189 1162.09 z"/>
<path transform="translate(0,0)" fill="rgb(6,73,98)" d="M 45.593 1178.36 C 93.7778 1180.35 111.076 1180.41 150.683 1209.34 C 149.688 1210.5 148.432 1211.65 147.816 1213.06 C 123.294 1208.42 77.2554 1213.03 51.3362 1215.25 C 50.412 1203.07 47.7097 1190.41 45.593 1178.36 z"/>
<path transform="translate(0,0)" fill="rgb(191,99,97)" d="M 1623.66 689.039 C 1630.51 681.102 1640.1 669.458 1650.56 666.465 C 1653.2 667.132 1654.05 668.315 1655.5 670.606 C 1662.92 682.369 1672.2 707.417 1676.31 721.207 C 1678.17 727.474 1679.19 734.91 1681.61 740.876 C 1686.45 756.53 1688.82 774.556 1704.49 782.909 C 1715.37 788.706 1723.86 791.657 1728.16 804.565 A 76.6957 76.6957 0 0 1 1729.46 809.034 C 1730.87 820.753 1731.8 836.554 1737.81 846.878 C 1741.86 850.327 1748.09 850.746 1753.19 851.486 C 1756.58 861.161 1760.05 870.657 1764.18 880.051 C 1713.5 909.227 1687.2 952.291 1664.99 1004.33 C 1664.75 989.468 1664.23 974.393 1665.58 959.576 C 1669.29 918.75 1683.21 866.864 1696.38 827.91 A 173.658 173.658 0 0 0 1635.2 947.257 C 1634.75 952.851 1634.68 958.485 1634.6 964.095 C 1627.55 956.071 1620.09 949.249 1611.45 942.971 C 1611.96 909.846 1616.01 878.441 1621.3 845.772 C 1623.58 831.665 1625.52 817.283 1629.16 803.457 C 1597.34 838.043 1585.6 871.791 1574.3 916.28 C 1568.7 908.734 1563.22 901.055 1557.27 893.78 C 1558.2 883.609 1556.68 873.241 1558.81 863.117 C 1561.69 849.4 1573.18 839.377 1576.66 825.511 C 1578.89 816.606 1577.83 806.964 1579.24 797.879 C 1581.28 784.622 1586.32 772.098 1589.51 759.123 C 1592.09 748.631 1592.49 736.933 1597.05 727.072 C 1603.45 713.259 1615.9 702.322 1623.66 689.039 z"/>
<path transform="translate(0,0)" fill="rgb(49,177,162)" d="M 1470.27 1697.72 C 1475.74 1703.03 1480.5 1710.65 1485.18 1716.75 C 1505.91 1743.75 1514.21 1761.96 1516.31 1796.51 C 1502.44 1807.14 1488.18 1817.48 1475.07 1829.05 C 1487.19 1826.68 1499.31 1827.07 1511.59 1827.16 C 1505.99 1852 1499 1875.97 1492.13 1900.45 C 1459.39 1920.97 1415.87 1937.11 1379.32 1949.87 C 1367.07 1956.68 1353.56 1960.88 1340.35 1965.4 C 1326.97 1972.86 1307.86 1974.97 1293.1 1979.27 C 1286.29 1965.37 1277.66 1952.18 1271.71 1937.92 C 1293.38 1927.99 1317.64 1922.06 1340.55 1915.87 C 1323.82 1910.43 1305.72 1907.58 1288.69 1902.57 C 1300.74 1883.33 1318.24 1858.37 1333.4 1841.77 C 1355.77 1847.74 1377.77 1856.88 1399.22 1865.53 C 1383.58 1850.21 1367.72 1834.96 1350 1822.04 C 1364.85 1801.76 1380.5 1783.1 1399.31 1766.27 C 1412.6 1754.37 1427.71 1744.66 1440.9 1732.72 C 1452.33 1722.37 1461.19 1710.09 1470.27 1697.72 z"/>
<path transform="translate(0,0)" fill="rgb(2,66,96)" d="M 1469.71 1711.13 C 1469.76 1730.8 1470.12 1750.36 1467.94 1769.95 C 1463.01 1814.28 1445.64 1863.55 1419.91 1899.85 C 1412.36 1910.5 1404.16 1920.35 1395.61 1930.19 C 1390.62 1935.93 1384.55 1941.83 1380.42 1948.15 C 1380.05 1948.72 1379.69 1949.3 1379.32 1949.87 C 1367.07 1956.68 1353.56 1960.88 1340.35 1965.4 C 1343.73 1958.74 1376.92 1931.52 1385.22 1922.01 C 1429.82 1870.88 1448.66 1826.11 1461.44 1760.11 C 1464.59 1743.85 1466.2 1727.32 1469.71 1711.13 z"/>
<path transform="translate(0,0)" fill="rgb(253,253,185)" d="M 1588.56 519.762 C 1597.99 529.365 1605.6 540.587 1613.51 551.44 A 1053.09 1053.09 0 0 1 1678.16 652.007 C 1723.68 669.332 1773.01 678.753 1820 691.464 C 1832.31 694.792 1849.43 697.281 1860.57 702.752 C 1859.25 713.539 1858.06 724.359 1856.32 735.089 A 5769.11 5769.11 0 0 0 1845.56 811.225 C 1807.28 799.136 1767.83 793.228 1728.82 784.229 C 1726.47 777.6 1724.37 771.005 1722.52 764.219 C 1708.72 756.323 1695.96 747.968 1681.61 740.876 C 1679.19 734.91 1678.17 727.474 1676.31 721.207 C 1672.2 707.417 1662.92 682.369 1655.5 670.606 C 1654.05 668.315 1653.2 667.132 1650.56 666.465 C 1640.1 669.458 1630.51 681.102 1623.66 689.039 C 1616.75 682.391 1609 676.356 1601.83 669.943 C 1586.76 656.445 1571.92 642.668 1555.8 630.414 C 1544.2 621.605 1531.87 613.741 1520.02 605.271 C 1509.8 597.965 1498.92 588.591 1487.41 583.646 C 1484.33 582.324 1480.25 582.401 1476.93 582.25 C 1483.32 578.312 1490.57 576.553 1497.7 574.395 L 1508.06 570.298 C 1524.17 566.791 1539.96 563.031 1556 559.165 C 1560.5 561.172 1564.77 563.672 1569.09 566.056 C 1566.99 555.64 1565.44 548.898 1568.47 538.479 C 1575.69 532.748 1580.55 524.508 1588.56 519.762 z"/>
<path transform="translate(0,0)" fill="rgb(252,217,88)" d="M 1476.93 582.25 C 1483.32 578.312 1490.57 576.553 1497.7 574.395 C 1505.43 580.46 1514.96 585.101 1523.51 589.931 C 1546.9 603.135 1570.7 615.212 1594.76 627.114 C 1624.13 641.643 1654.31 658.735 1685.6 668.812 C 1697.2 684.151 1718.74 744.743 1722.52 764.219 C 1708.72 756.323 1695.96 747.968 1681.61 740.876 C 1679.19 734.91 1678.17 727.474 1676.31 721.207 C 1672.2 707.417 1662.92 682.369 1655.5 670.606 C 1654.05 668.315 1653.2 667.132 1650.56 666.465 C 1640.1 669.458 1630.51 681.102 1623.66 689.039 C 1616.75 682.391 1609 676.356 1601.83 669.943 C 1586.76 656.445 1571.92 642.668 1555.8 630.414 C 1544.2 621.605 1531.87 613.741 1520.02 605.271 C 1509.8 597.965 1498.92 588.591 1487.41 583.646 C 1484.33 582.324 1480.25 582.401 1476.93 582.25 z"/>
<path transform="translate(0,0)" fill="rgb(252,186,69)" d="M 1685.6 668.812 C 1684.83 666.67 1682.92 663.187 1683.53 661.056 C 1723.53 678.75 1763.97 694.888 1804.26 711.871 C 1821.72 719.229 1838.61 728.509 1856.32 735.089 A 5769.11 5769.11 0 0 0 1845.56 811.225 C 1807.28 799.136 1767.83 793.228 1728.82 784.229 C 1726.47 777.6 1724.37 771.005 1722.52 764.219 C 1718.74 744.743 1697.2 684.151 1685.6 668.812 z"/>
<path transform="translate(0,0)" fill="rgb(49,177,162)" d="M 938.096 1781.92 C 970.782 1709.75 1008.27 1664.84 1079.75 1628.21 C 1040.83 1675.56 1033.02 1730.92 1030.14 1789.76 C 1020.48 1797.08 1012.05 1805.41 1003.33 1813.77 C 1012.21 1814.87 1021.07 1815.23 1030 1815.58 A 1898.44 1898.44 0 0 1 1035.31 1877.87 C 1025.17 1884.37 1015.46 1891.36 1006.43 1899.36 A 1256.4 1256.4 0 0 1 1038.74 1907.71 C 1042.2 1926 1057.22 2002.7 1066.76 2015.61 L 1070.04 2016.47 C 1047.5 2018.63 1024.19 2017.51 1001.58 2017.1 L 988.341 2017.01 C 961.588 2015.3 934.701 2013.28 908.147 2009.52 C 904.915 1990.39 901.88 1971.72 900.846 1952.32 C 916.451 1951.46 931.598 1949.55 946.981 1946.83 C 932.42 1939.16 917.791 1930.36 902.413 1924.49 C 904.108 1883.32 911.012 1841.55 927.049 1803.35 C 939.557 1805.98 951.897 1808.67 963.714 1813.69 C 955.494 1802.83 946.806 1792.39 938.096 1781.92 z"/>
<path transform="translate(0,0)" fill="rgb(2,66,96)" d="M 1016.72 1705.57 C 1010.5 1722.87 1003.16 1739.2 998.175 1757.02 C 979.124 1825.11 980.155 1900.97 991.583 1970.26 C 994.192 1986.08 998.772 2001.41 1001.58 2017.1 L 988.341 2017.01 C 983.423 1993.89 977.337 1971.2 973.952 1947.77 C 961.998 1865.03 973.201 1778.03 1016.72 1705.57 z"/>
<path transform="translate(0,0)" fill="rgb(253,253,185)" d="M 452.663 1193.74 A 496.028 496.028 0 0 0 515.362 1181.28 C 527.644 1177.98 539.808 1173.52 552.209 1170.82 C 544.727 1180.5 537.27 1190.07 532.352 1201.38 C 525.97 1216.06 524.118 1232.11 523.862 1247.99 C 523.603 1264.06 529.698 1299.15 522.429 1312.05 C 515.095 1325.06 499.395 1331.89 489.625 1342.92 C 499.565 1381.8 542.922 1408.95 568.165 1439.91 C 587.111 1463.14 602.259 1489.21 615.975 1515.78 C 596.64 1517.97 576.641 1519.36 557.177 1518.88 L 557.711 1517.56 C 567.393 1493.96 574.955 1482.77 568.12 1455.68 C 547.178 1445.25 519.526 1443.98 497.405 1451.52 C 485.42 1455.6 474.121 1462.98 468.34 1474.6 C 462.604 1486.14 462.859 1499.68 467.094 1511.64 C 468.791 1516.43 470.841 1521.14 472.779 1525.84 C 464.537 1526.59 456.246 1527.18 448.041 1528.26 C 448.369 1522.94 445.381 1515.09 443.402 1510.08 C 435.084 1489.02 418.864 1479.54 399.11 1471.05 C 395.881 1474.56 392.364 1478.53 390.586 1483.04 C 386.793 1484.31 382.718 1485.52 379.284 1487.61 C 373.845 1490.91 364.943 1500.56 358.999 1500.75 C 358.925 1495.29 354.923 1490.86 355.319 1484.5 C 355.336 1484.22 355.365 1483.93 355.388 1483.65 L 353.678 1482.38 C 353.835 1481.68 354.508 1481.22 354.985 1480.69 C 355.072 1480.14 355.139 1479.59 355.246 1479.04 C 357.685 1466.63 377.329 1452.77 378.35 1448.69 C 375.005 1446.85 371.48 1447.8 368.009 1448.8 C 360.582 1450.95 346.092 1456.65 342.473 1463.61 A 58.0804 58.0804 0 0 0 341.512 1465.58 C 333.759 1457.44 325.993 1447.81 320.186 1438.17 C 339.359 1420.44 369.804 1408.06 395.767 1406.19 C 368.675 1398.46 343.598 1403.46 317.515 1412.18 C 312.68 1398.98 309.171 1385.86 306.392 1372.09 A 531.284 531.284 0 0 1 330.494 1339.38 C 324.483 1340.32 318.186 1341 312.302 1342.5 C 328.913 1320.42 347.067 1303.42 370.569 1288.71 C 388.192 1277.68 407.434 1269.95 420.952 1253.47 C 435.152 1236.16 443.864 1214.15 452.663 1193.74 z"/>
<path transform="translate(0,0)" fill="rgb(8,39,75)" d="M 354.985 1480.69 C 380.752 1472.3 388.287 1466.36 416.73 1466.32 C 410.928 1468.13 404.991 1469.53 399.11 1471.05 C 395.881 1474.56 392.364 1478.53 390.586 1483.04 C 386.793 1484.31 382.718 1485.52 379.284 1487.61 C 373.845 1490.91 364.943 1500.56 358.999 1500.75 C 358.925 1495.29 354.923 1490.86 355.319 1484.5 C 355.336 1484.22 355.365 1483.93 355.388 1483.65 L 353.678 1482.38 C 353.835 1481.68 354.508 1481.22 354.985 1480.69 z"/>
<path transform="translate(0,0)" fill="rgb(191,99,97)" d="M 292.091 856.109 C 314.534 859.037 337.289 861.826 359.963 861.927 C 415.726 907.928 437.738 950.498 444.665 1022.73 C 450.346 1081.97 447.747 1146.39 429.179 1203.33 C 425.328 1215.14 420.839 1228.06 412.738 1237.73 C 398.478 1254.76 372.58 1263.05 353.689 1273.7 A 336.441 336.441 0 0 0 315.15 1298.98 C 329.838 1280.22 350.482 1265.54 367.454 1248.84 C 346.526 1253.89 304.161 1261.28 283.085 1259.93 C 282.809 1258.5 282.366 1258.42 281.342 1257.46 C 323.473 1246.39 361.58 1213.39 383.327 1176.24 A 490.54 490.54 0 0 0 387.005 1169.84 C 373.688 1175.15 360.84 1178.04 346.797 1180.47 C 333.033 1165.4 318.452 1150.34 306.761 1133.55 C 277.169 1091.07 270.009 1038.48 266.757 988.102 C 253.108 999.645 236.907 1011.37 218.084 1009.91 C 180.638 1006.99 164.052 992.007 122.894 1000.75 C 140.088 987.391 157.294 974.774 175.449 962.777 C 204.212 981.773 243.269 990.295 277.279 983.145 C 300.27 978.311 319.213 966.914 337.676 952.867 C 286.399 941.529 242.167 932.241 190.625 949.963 C 208.579 935.348 227.732 920.788 243.213 903.495 C 267.74 920.721 291.382 929.507 321.601 924.32 C 344.321 920.421 364.315 906.478 382.966 893.679 C 371.21 889.901 359.318 885.203 347.356 882.255 C 317.058 874.788 285.88 879.474 256.642 888.669 C 268.141 877.474 280.919 867.616 292.091 856.109 z"/>
<path transform="translate(0,0)" fill="rgb(49,177,162)" d="M 472.779 1525.84 C 470.841 1521.14 468.791 1516.43 467.094 1511.64 C 462.859 1499.68 462.604 1486.14 468.34 1474.6 C 474.121 1462.98 485.42 1455.6 497.405 1451.52 C 519.526 1443.98 547.178 1445.25 568.12 1455.68 C 574.955 1482.77 567.393 1493.96 557.711 1517.56 L 557.177 1518.88 C 549.802 1525.03 544.53 1533.35 536.5 1538.87 C 525.632 1546.35 512.892 1549.33 500.926 1554.39 C 486.66 1560.42 466.519 1594.29 459.024 1608.5 C 501.519 1586.34 546.415 1577.22 594.149 1583.37 C 584.41 1602.19 567.819 1611.21 548.263 1617.54 C 512.435 1629.12 474.026 1630.15 438.723 1644.18 C 429.639 1657.8 422.879 1671.09 417.57 1686.58 C 462.982 1660.86 525.097 1649.68 576.866 1646.05 C 571.288 1654.95 565.574 1662.58 556.895 1668.7 C 526.583 1690.06 446.569 1702.82 407.78 1715.65 C 401.643 1728.12 397.4 1741.49 392.924 1754.63 C 424.325 1748.2 453.829 1736.7 484.329 1727.22 C 518.233 1716.68 554.711 1708 589.59 1701.66 C 574.745 1711.73 556.26 1718.67 539.995 1726.36 C 508.595 1741.21 477.406 1756.55 445.304 1769.87 C 427.13 1777.41 408.27 1783.32 390.116 1790.87 C 380.677 1783.05 370.727 1775.32 362.399 1766.3 C 357.367 1763.02 352.332 1757.3 347.84 1753.16 C 328.543 1735.4 311.083 1716.56 293.241 1697.4 C 277.546 1680.55 261.795 1663.95 247.194 1646.12 L 230.331 1624.39 C 226.642 1620.42 222.975 1616.72 220.355 1611.92 C 211.787 1598.11 201.358 1584.72 192.156 1571.22 L 199.732 1565.12 C 200.141 1560.19 202.073 1553.1 200.707 1548.43 L 198.264 1547.63 C 201.999 1546.14 223.547 1544.03 230.719 1542.13 L 232.578 1550.36 C 246.557 1544.54 263.7 1540.1 278.32 1535.22 C 280.198 1534.6 283.836 1533.18 285.711 1533.32 C 292.43 1533.81 324.43 1545.66 330.964 1548.94 C 330.889 1547.22 330.993 1547.83 330.662 1546.3 C 328.23 1535.06 327.156 1525.4 328.22 1513.88 C 336.483 1509.6 340.98 1508.46 350.344 1510.65 C 352.335 1511.12 353.643 1511.56 355.69 1511.16 L 357.527 1507.64 C 356.017 1505.57 355.853 1505.62 356.058 1503.1 L 358.999 1500.75 C 364.943 1500.56 373.845 1490.91 379.284 1487.61 C 382.718 1485.52 386.793 1484.31 390.586 1483.04 C 392.364 1478.53 395.881 1474.56 399.11 1471.05 C 418.864 1479.54 435.084 1489.02 443.402 1510.08 C 445.381 1515.09 448.369 1522.94 448.041 1528.26 C 456.246 1527.18 464.537 1526.59 472.779 1525.84 z"/>
<path transform="translate(0,0)" fill="rgb(253,253,185)" d="M 391.394 1526.7 L 397.846 1539.7 L 400.226 1543.27 A 344.93 344.93 0 0 1 387.086 1544.87 L 384.656 1542.1 C 384.345 1538.17 382.488 1535.38 380.061 1532.41 C 383.584 1530.14 387.607 1528.5 391.394 1526.7 z"/>
<path transform="translate(0,0)" fill="rgb(8,39,75)" d="M 385.626 1503.73 C 386.877 1511.54 390.315 1518.97 391.394 1526.7 C 387.607 1528.5 383.584 1530.14 380.061 1532.41 C 374.622 1529.15 370.485 1523.39 365.111 1519.64 A 517.237 517.237 0 0 1 376.071 1507.15 L 376.251 1522.22 C 379.118 1515.94 381.763 1509.48 385.626 1503.73 z"/>
<path transform="translate(0,0)" fill="rgb(191,99,97)" d="M 358.999 1500.75 C 364.943 1500.56 373.845 1490.91 379.284 1487.61 C 382.718 1485.52 386.793 1484.31 390.586 1483.04 C 388.95 1489.65 388.152 1497.5 385.626 1503.73 C 381.763 1509.48 379.118 1515.94 376.251 1522.22 L 376.071 1507.15 A 517.237 517.237 0 0 0 365.111 1519.64 C 361.951 1515.94 361.053 1510.98 357.527 1507.64 C 356.017 1505.57 355.853 1505.62 356.058 1503.1 L 358.999 1500.75 z"/>
<path transform="translate(0,0)" fill="rgb(2,66,96)" d="M 472.779 1525.84 C 475.603 1531.75 479.438 1537.04 483.125 1542.44 C 474.33 1557.89 462.441 1571.23 453.15 1586.35 A 418.891 418.891 0 0 0 450.648 1550.35 C 449.876 1543.4 447.621 1535.07 448.041 1528.26 C 456.246 1527.18 464.537 1526.59 472.779 1525.84 z"/>
<path transform="translate(0,0)" fill="rgb(2,66,96)" d="M 400.226 1543.27 L 401.546 1542.71 C 409.581 1552.23 436.937 1593.04 442.342 1604.02 C 437.56 1614.23 429.976 1623.61 423.213 1632.6 C 417.062 1617.73 411.66 1602.56 405.268 1587.78 C 399.255 1573.89 391.299 1559.37 387.086 1544.87 A 344.93 344.93 0 0 0 400.226 1543.27 z"/>
<path transform="translate(0,0)" fill="rgb(2,66,96)" d="M 232.578 1550.36 C 246.557 1544.54 263.7 1540.1 278.32 1535.22 C 280.198 1534.6 283.836 1533.18 285.711 1533.32 C 292.43 1533.81 324.43 1545.66 330.964 1548.94 C 336.438 1561.05 341.905 1572.92 349.318 1584.01 C 366.922 1610.35 391.558 1631.94 411.663 1656.5 L 391.976 1699.42 C 376.791 1676.92 361.659 1653.9 347.49 1630.77 C 336.196 1612.33 325.939 1592.65 312.532 1575.63 C 308.552 1570.58 301.22 1561.41 294.625 1560.49 C 292.496 1560.2 290.484 1560.78 289.078 1562.46 C 283.273 1569.37 286.92 1588.11 288.849 1596.33 C 301.91 1651.94 342.307 1688.96 383.048 1725.36 C 379.497 1735.79 375.551 1746.34 370.187 1755.99 C 369.841 1757.95 370.34 1757.86 368.848 1758.7 C 366.404 1760.07 363.447 1760.27 360.712 1760.67 L 360.41 1762.08 L 364.202 1765.5 C 363.074 1766.38 363.689 1766.15 362.399 1766.3 C 357.367 1763.02 352.332 1757.3 347.84 1753.16 C 328.543 1735.4 311.083 1716.56 293.241 1697.4 C 277.546 1680.55 261.795 1663.95 247.194 1646.12 L 230.331 1624.39 C 226.642 1620.42 222.975 1616.72 220.355 1611.92 C 211.787 1598.11 201.358 1584.72 192.156 1571.22 L 199.732 1565.12 C 200.141 1560.19 202.073 1553.1 200.707 1548.43 L 198.264 1547.63 C 201.999 1546.14 223.547 1544.03 230.719 1542.13 L 232.578 1550.36 z"/>
<path transform="translate(0,0)" fill="rgb(49,177,162)" d="M 198.264 1547.63 C 201.999 1546.14 223.547 1544.03 230.719 1542.13 L 232.578 1550.36 A 193.749 193.749 0 0 0 199.732 1565.12 C 200.141 1560.19 202.073 1553.1 200.707 1548.43 L 198.264 1547.63 z"/>
<path transform="translate(0,0)" fill="rgb(253,253,185)" d="M 220.355 1611.92 C 234.664 1607.36 248.035 1602.09 261.498 1595.34 A 964.994 964.994 0 0 1 271.084 1620.12 C 256.7 1619.46 244.355 1621.44 230.331 1624.39 C 226.642 1620.42 222.975 1616.72 220.355 1611.92 z"/>
<path transform="translate(0,0)" fill="rgb(49,177,162)" d="M 247.194 1646.12 C 275.087 1649.93 316.314 1696.53 333.472 1719.22 C 341.945 1730.42 351.066 1750.3 361.938 1757.91 C 365.163 1758.37 367.311 1757.23 370.187 1755.99 C 369.841 1757.95 370.34 1757.86 368.848 1758.7 C 366.404 1760.07 363.447 1760.27 360.712 1760.67 L 360.41 1762.08 L 364.202 1765.5 C 363.074 1766.38 363.689 1766.15 362.399 1766.3 C 357.367 1763.02 352.332 1757.3 347.84 1753.16 C 328.543 1735.4 311.083 1716.56 293.241 1697.4 C 277.546 1680.55 261.795 1663.95 247.194 1646.12 z"/>
<path transform="translate(0,0)" fill="rgb(49,177,162)" d="M 1508.99 1576.1 C 1482.38 1523.56 1424.78 1455.19 1375.25 1422.62 C 1365.2 1416.01 1354.26 1408.44 1343.43 1403.26 C 1335.58 1399.5 1326.83 1396.97 1319.35 1392.56 C 1330.64 1389.38 1343.85 1390.02 1355.55 1389.92 C 1418.3 1389.41 1523.61 1406.35 1578.81 1437.06 C 1585.27 1458.29 1588.85 1485.9 1598.85 1505.27 C 1602.85 1489.44 1608.65 1474 1614.1 1458.63 C 1644.27 1481.9 1666.09 1500.78 1690.54 1530.12 C 1686.23 1554.39 1680.62 1578.55 1675.87 1602.76 C 1686.79 1585.51 1696.8 1568.51 1710.85 1553.48 C 1732.92 1581.46 1750.44 1612.36 1766.45 1644.1 C 1754.67 1664.08 1741.26 1684.79 1731.88 1706 C 1744.28 1700.12 1755.94 1690.72 1768.85 1686.18 C 1746.17 1716.93 1716.03 1741.91 1688.26 1767.91 C 1681.6 1772.91 1675.45 1778.36 1669.26 1783.91 C 1648.82 1801.24 1626.88 1819.17 1603.96 1833.06 C 1597.54 1787.97 1584.56 1744.27 1569.43 1701.46 C 1578.01 1690.35 1588.05 1680.5 1597.92 1670.55 A 219.79 219.79 0 0 0 1559.07 1677.11 C 1551.26 1659.37 1543.17 1642.54 1533.47 1625.73 A 1363.28 1363.28 0 0 1 1567.15 1594.45 C 1548.32 1586.85 1528.54 1581.47 1508.99 1576.1 z"/>
<path transform="translate(0,0)" fill="rgb(2,66,96)" d="M 1402.53 1416.99 C 1423.86 1422.29 1444.21 1432.53 1463.37 1443.22 C 1588.68 1513.15 1650.81 1634.24 1688.26 1767.91 C 1681.6 1772.91 1675.45 1778.36 1669.26 1783.91 C 1668.84 1782.63 1668.97 1783.18 1668.75 1781.91 C 1667.35 1773.93 1665.43 1766.03 1663.46 1758.17 C 1622.8 1596.23 1543.83 1501.67 1402.53 1416.99 z"/>
<path transform="translate(0,0)" fill="rgb(49,177,162)" d="M 1165.37 1620.2 C 1157.26 1603.8 1140.72 1573.3 1143.54 1555.79 C 1151.14 1508.61 1226.86 1454.26 1264.47 1427.15 C 1276.38 1453.87 1290.99 1480.25 1300.97 1507.7 C 1263.42 1539.37 1233.8 1565.8 1210.24 1609.84 C 1234.09 1591.07 1259.61 1574.22 1287.25 1561.51 C 1291.59 1583.87 1299.82 1608.63 1298.55 1631.52 C 1297.82 1644.66 1280.31 1656.52 1271.25 1664.88 C 1263.14 1666.4 1254.86 1666.98 1246.75 1668.48 C 1234.92 1670.68 1223.46 1673.74 1211.5 1675.33 C 1224.26 1678.73 1237.37 1680.47 1250.17 1684.07 C 1229.59 1705.13 1210.11 1731.72 1195.73 1757.31 C 1196.28 1697.34 1197.3 1635.17 1207.25 1576 C 1210.29 1557.94 1214.36 1540.53 1219.93 1523.07 C 1221.39 1518.5 1226.39 1508.68 1225.52 1504.64 C 1221.26 1511.19 1218.21 1519.19 1214.87 1526.28 C 1188.88 1581.47 1185.01 1642.22 1185.02 1702.35 C 1185.02 1725.13 1187.09 1749.32 1184.04 1771.87 C 1178.56 1812.36 1156.03 1861.94 1159.4 1904.12 C 1162.61 1889.86 1165.12 1875.55 1169.08 1861.46 C 1189.65 1788.14 1227.27 1720.14 1286.39 1671.15 C 1354.94 1614.35 1432.24 1596.43 1519.68 1604.63 C 1503.65 1612.34 1486.53 1617.67 1470.5 1625.67 C 1415.1 1653.28 1381.84 1692.13 1341.44 1737.33 A 786.41 786.41 0 0 0 1300.13 1735.66 C 1308.72 1744.52 1317.68 1753.26 1324.86 1763.33 C 1310.15 1778.52 1296.56 1794.14 1283.27 1810.58 A 624.192 624.192 0 0 1 1244.13 1814.32 C 1252.78 1821.39 1262.33 1827.41 1271.75 1833.4 C 1257.67 1861.65 1249.16 1895.41 1234.09 1921.52 C 1226.57 1934.53 1217.04 1945.72 1206.88 1956.69 C 1207.41 1970.71 1207.2 1985.95 1210.02 1999.69 C 1188.87 2003.61 1167.35 2007.51 1145.89 2009.26 L 1146.49 1995.79 C 1147.35 1974.92 1143.48 1953.32 1128.54 1937.69 C 1116.09 1924.68 1100.96 1921.87 1083.79 1921.76 C 1086.25 1916.3 1089.06 1911.77 1093.97 1908.17 C 1109.63 1896.71 1130.94 1901.14 1148.68 1903.69 C 1128.91 1893.47 1110.89 1889.82 1088.74 1890.03 C 1085.8 1868.54 1084.42 1845.85 1084.2 1824.16 C 1106.21 1808.58 1130.01 1795.08 1154.24 1783.31 L 1154.33 1783.33 C 1153.91 1782.86 1153.58 1782.29 1153.07 1781.91 C 1145.86 1776.38 1092.53 1787.47 1081.02 1789.67 C 1081.08 1763.91 1081.69 1718.4 1087.41 1693.88 C 1104.01 1683.32 1122.54 1674.72 1141.03 1668.01 C 1151.17 1664.32 1161.84 1661.46 1171.54 1656.7 C 1147.03 1654.76 1124.25 1653.78 1099.72 1657.08 C 1101.12 1632.76 1105.27 1621.49 1121.13 1603.13 C 1136.78 1607.18 1151.21 1612.35 1165.37 1620.2 z"/>
<path transform="translate(0,0)" fill="rgb(2,66,96)" d="M 1424.49 1629 L 1425.44 1629.31 C 1422.41 1632.51 1416.06 1633.56 1412.06 1635.8 C 1397.51 1643.97 1382.87 1652.31 1369.21 1661.89 C 1313.75 1700.8 1259.29 1752.45 1227.93 1813.32 C 1207.72 1852.53 1195.93 1895.8 1188.33 1939.05 L 1187.51 1939.29 C 1186.87 1932.72 1188.27 1925.66 1188.69 1919.04 C 1191.09 1881.14 1199.53 1841.58 1216.69 1807.39 A 361.568 361.568 0 0 1 1424.49 1629 z"/>
<path transform="translate(0,0)" fill="rgb(191,99,97)" d="M 947.636 552.73 C 963.388 557.337 972.09 566.732 985.799 570.768 C 1030.87 584.036 1091.02 579.161 1116.57 627.159 C 1118.75 631.252 1121.33 637.065 1119.32 641.69 C 1118.54 643.47 1117.35 644.349 1115.87 645.487 C 1114.04 645.742 1113.41 645.655 1111.6 645.138 C 1108.1 644.14 1101.29 647.13 1097.75 648.212 C 1064.6 658.32 1009.29 672.051 975.652 662.905 C 959.233 658.44 942.072 649.263 925.472 646.898 C 910.267 644.733 896.19 652.405 881.097 649.399 C 868.751 646.941 856.629 638.181 846.946 630.46 C 844.364 628.401 841.807 625.513 838.947 623.919 C 837.103 622.892 836.754 623.027 834.85 623.564 C 833.803 626.326 833.47 628.168 834.793 630.939 C 836.824 635.191 839.759 638.233 843.782 640.599 L 843.013 641.143 C 839.25 639.046 836.106 636.616 832.813 633.848 C 830.313 645.997 829.662 654.152 837.018 665.022 C 846.751 679.403 862.455 690.693 875.653 701.705 L 876.232 700.624 C 880.898 699.426 889.48 704.442 893.595 706.851 C 896.488 708.545 898.821 710.496 901.183 712.864 L 900.046 714.21 C 899.172 718.979 897.119 724.684 900.185 728.92 C 900.564 729.445 900.967 729.953 901.359 730.469 C 901.239 728.272 901.043 726.253 901.4 724.069 C 903.383 724.681 903.037 724.131 903.853 725.756 C 904.758 727.556 904.595 728.473 904.642 730.399 C 904.691 732.432 904.351 731.816 905.329 732.825 C 905.436 734.242 905.541 735.616 905.807 737.013 C 906.613 741.242 909.398 745.645 911.639 749.281 C 925.718 772.121 947.668 780.632 969.052 794.581 C 980.962 802.35 992.103 811.294 1003.95 819.147 C 1019.94 829.742 1033.51 831.809 1052.12 827.953 C 1042.24 834.519 1032.52 839.165 1020.54 840.053 C 1012.45 840.654 1004.36 839.468 997.074 835.807 C 984.418 829.45 975.214 818.375 963.499 810.751 C 953.137 804.006 942.008 798.174 931.354 791.881 C 905.599 776.668 879.374 760.491 856.607 741.004 C 820.012 709.682 815.176 692.202 811.191 645.577 C 810.978 643.079 810.827 640.47 808.867 638.793 C 808.579 639.029 808.263 639.235 808.003 639.502 C 800.755 646.934 794.91 672.673 794.378 683.637 C 792.707 718.092 806.085 746.256 828.833 771.575 C 821.694 772.568 814.479 773.54 807.45 775.156 C 796.171 777.748 784.78 782.631 776.929 791.389 C 761.254 808.875 753.081 859.369 737.601 884.26 C 736.862 865.46 732.098 848.74 720.607 833.563 C 699.835 806.127 667.494 796.965 634.968 792.475 C 643.488 798.032 664.004 803.532 676.147 810.412 C 696.913 822.179 714.557 843.454 720.731 866.698 C 725.707 885.429 722.907 907.722 712.823 924.377 C 701.732 942.695 685.011 947.8 665.52 952.274 C 682.214 924.537 687.487 901.785 680.924 869.694 C 680.382 877.235 679.604 884.843 678.466 892.315 C 673.565 924.496 662.161 943.109 636.127 962.383 C 645.787 981.259 667.492 997.059 685.662 1007.07 C 682.919 1012.27 679.932 1016.89 676.41 1021.61 C 658.325 1011.6 639.436 1003.72 621.23 994.108 C 615.368 985.165 611.915 974.767 608.06 964.851 C 612.868 955.485 619.083 946.781 625.712 938.627 C 636.237 925.68 654.379 910.504 653.801 892.489 C 653.355 878.565 643.162 864.965 633.394 855.645 C 625.45 848.066 601.497 832.43 590.833 832.601 L 590.886 833.366 C 594.254 834.707 597.391 836.431 600.554 838.196 C 613.945 845.667 623.044 855.468 627.158 870.496 C 631.798 887.443 625.09 910.07 616.42 924.797 C 591.306 967.456 536.825 984.952 491.577 996.494 L 490.888 994.647 C 470.573 940.339 433.795 881.907 379.182 857.091 C 417.069 843.568 457.285 834.205 495.85 822.518 C 509.288 818.446 525.056 815.129 537.43 808.533 C 496.815 805.329 452.749 810.326 412.558 816.612 C 399.172 818.705 385.957 821.756 372.545 823.697 C 382.256 813.832 395.661 807.528 407.907 801.338 C 468.799 770.562 532.678 762.205 600.153 764.209 C 626.144 764.981 652.24 770.532 678.124 769.558 C 707.332 768.459 732.282 753.075 742.441 725.011 C 747.171 711.944 749.064 697.152 752.276 683.598 C 758.897 655.659 768.003 624.892 788.135 603.519 C 823.055 566.449 858.286 565.373 906.323 563.906 C 894.458 570.252 883.321 577.731 871.637 584.374 C 862.646 589.486 852.974 593.555 844.438 599.409 C 855.392 600.624 866.12 602.264 876.84 604.853 C 879.343 601.97 878.267 597.466 880.045 593.858 C 883.008 591.601 886.408 589.928 889.672 588.146 C 890.219 585.904 890.63 585.943 889.57 583.748 L 890.124 581.928 C 896.87 580.196 905.414 579.833 912.265 580.98 C 918.197 585.455 922.626 588.943 929.53 591.608 C 930.066 591.815 930.548 592.142 931.057 592.409 C 940.93 593.438 950.974 592.027 960.772 593.177 C 973.058 594.619 984.847 599.219 997.272 600.181 C 1014.45 601.511 1031.45 600.118 1048.37 603.863 C 1031.53 594.974 1015.79 588.977 996.993 585.295 C 987.845 583.503 978.01 582.444 969.128 579.643 C 962.894 577.677 957.888 572.367 951.48 571.162 C 939.632 568.935 927.815 569.336 915.951 566.508 C 927.465 563.683 936.678 556.783 947.636 552.73 z"/>
<path transform="translate(0,0)" fill="rgb(2,66,96)" d="M 1059.38 629.843 C 1061.22 630.171 1063.01 630.492 1064.77 631.129 C 1069.85 632.962 1071.74 635.503 1073.97 640.28 C 1072.36 640.298 1070.58 640.397 1069 640.009 C 1064.12 638.815 1061.44 633.945 1059.38 629.843 z"/>
<path transform="translate(0,0)" fill="rgb(8,39,75)" d="M 1086.82 632.006 C 1089.31 632.675 1091.99 633.49 1093.68 635.566 C 1096.31 638.798 1095.66 642.786 1095.26 646.604 L 1093.04 646.552 C 1088.94 643.03 1088.04 637.027 1086.82 632.006 z"/>
<path transform="translate(0,0)" fill="rgb(2,66,96)" d="M 774.441 677.678 C 774.551 677.97 774.683 678.254 774.771 678.553 C 776.167 683.246 775.746 689.689 776.184 694.665 C 777.996 715.214 781.709 736.889 772.534 756.326 C 768.969 732.117 763.567 700.683 774.441 677.678 z"/>
<path transform="translate(0,0)" fill="rgb(2,66,96)" d="M 876.232 700.624 C 880.898 699.426 889.48 704.442 893.595 706.851 C 896.488 708.545 898.821 710.496 901.183 712.864 L 900.046 714.21 C 899.172 718.979 897.119 724.684 900.185 728.92 C 900.564 729.445 900.967 729.953 901.359 730.469 L 901.686 730.763 C 902.49 733.096 902.476 731.906 901.624 734.332 C 895.776 730.954 892.187 725.577 885.58 722.955 C 875.074 718.787 863.479 724.468 853.735 720.036 C 854.365 718.893 870.861 717.145 873.949 715.717 C 876.399 714.584 878.429 712.698 878.923 709.941 C 879.419 707.175 877.677 704.809 876.265 702.628 C 876.064 702.318 875.857 702.013 875.653 701.705 L 876.232 700.624 z"/>
<path transform="translate(0,0)" fill="rgb(253,253,185)" d="M 876.232 700.624 C 880.898 699.426 889.48 704.442 893.595 706.851 C 896.488 708.545 898.821 710.496 901.183 712.864 L 900.046 714.21 C 893.511 713.965 891.151 712.62 885.941 708.842 L 884.674 709.194 C 884.547 711.485 885.282 712.558 886.417 714.498 C 888.411 714.979 887.456 714.869 889.861 714.824 C 890.479 714.812 891.097 714.786 891.714 714.766 C 894.106 716.034 894.463 715.844 895.333 718.356 L 893.612 719.328 C 889.504 718.938 886.606 716.605 883.28 714.381 C 881.643 708.857 880.37 704.822 876.232 700.624 z"/>
<path transform="translate(0,0)" fill="rgb(2,66,96)" d="M 889.672 588.146 C 890.219 585.904 890.63 585.943 889.57 583.748 L 890.124 581.928 C 896.87 580.196 905.414 579.833 912.265 580.98 C 918.197 585.455 922.626 588.943 929.53 591.608 C 930.066 591.815 930.548 592.142 931.057 592.409 C 926.967 593.495 925.549 594.387 921.609 592.12 C 921.113 591.835 920.631 591.523 920.142 591.225 L 919.474 591.728 C 921.132 595.321 923.165 598.946 923.694 602.902 C 928.232 599.289 934.25 597.866 939.291 595.001 C 942.492 595.938 947.516 598.218 950.693 598.331 C 935.781 603.244 924.969 618.25 913.204 621.656 C 908.767 624.429 903.127 626.418 897.851 625.273 C 887.786 623.09 882.075 612.74 876.84 604.853 C 879.343 601.97 878.267 597.466 880.045 593.858 C 883.008 591.601 886.408 589.928 889.672 588.146 z"/>
<path transform="translate(0,0)" fill="rgb(253,253,185)" d="M 895.959 596.333 C 897.645 597.172 898.945 598.167 900.401 599.355 C 900.363 602.249 899.387 602.534 897.437 604.568 C 894.823 603.882 893.404 603.719 891.364 601.803 C 892.26 599.023 893.78 598.222 895.959 596.333 z"/>
<path transform="translate(0,0)" fill="rgb(253,253,185)" d="M 889.672 588.146 C 895.284 587.263 900.037 586.832 905.155 589.635 L 904.486 589.646 C 908.95 591.785 913.554 593.071 915.421 598.067 C 915.598 598.542 915.733 599.032 915.889 599.514 C 909.246 595.182 901.706 590.445 893.353 592.561 C 890.583 593.262 888.448 594.929 887.026 597.367 C 885.005 600.833 885.313 603.228 886.231 606.954 C 886.375 607.54 886.502 608.13 886.645 608.716 C 886.743 609.119 886.851 609.519 886.954 609.92 C 883.107 605.786 881.627 599.179 880.045 593.858 C 883.008 591.601 886.408 589.928 889.672 588.146 z"/>
<path transform="translate(0,0)" fill="rgb(252,186,69)" d="M 1517.82 396.043 C 1517.3 382.011 1516.95 369.497 1507.36 358.242 C 1498.17 347.462 1491.23 347.135 1478.48 345.303 C 1475.85 344.925 1474.52 344.854 1472.94 342.583 C 1473.23 341.537 1473.24 341.286 1473.65 340.364 C 1476.8 333.2 1485.91 325.308 1491.3 319.59 C 1529.94 278.63 1569.34 251.619 1621.75 230.686 C 1642.18 242.039 1659.98 258.848 1677.79 273.904 C 1758.23 341.917 1825.06 425.448 1878.84 515.832 C 1890.68 535.716 1901.04 556.362 1912.13 576.651 C 1901.02 587.662 1892.84 598.187 1885.66 612.102 C 1880.14 623.914 1874.4 636.376 1871.25 649.081 C 1866.39 666.52 1862.58 684.739 1860.57 702.752 C 1849.43 697.281 1832.31 694.792 1820 691.464 C 1773.01 678.753 1723.68 669.332 1678.16 652.007 A 1053.09 1053.09 0 0 0 1613.51 551.44 C 1605.6 540.587 1597.99 529.365 1588.56 519.762 C 1603.95 511.766 1619.2 510.925 1635.82 514.575 C 1632.11 510.711 1628.77 507.273 1623.75 505.081 C 1610.46 499.268 1597.05 505.763 1584.63 510.631 C 1545.77 460.713 1495.66 420.64 1442.86 386.485 C 1450.04 381.66 1455.7 375.59 1461.58 369.319 C 1467.79 369.449 1474.13 369.386 1480.3 369.987 C 1498.16 371.725 1507.25 383.264 1517.82 396.043 z"/>
<path transform="translate(0,0)" fill="rgb(253,253,185)" d="M 1871.25 649.081 A 4215.76 4215.76 0 0 0 1719.16 589.662 C 1686.8 577.6 1654 566.402 1622.06 553.264 L 1622.3 552.606 C 1620.68 552.045 1619.07 551.563 1617.43 551.083 A 15474.6 15474.6 0 0 0 1810.52 596.942 C 1835.49 602.45 1860.71 606.619 1885.66 612.102 C 1880.14 623.914 1874.4 636.376 1871.25 649.081 z"/>
<path transform="translate(0,0)" fill="rgb(191,99,97)" d="M 1295.21 825.787 C 1301.7 826.954 1308.06 827.728 1314.63 828.258 C 1317.36 838.605 1319.41 849.331 1322.65 859.522 C 1327.3 874.158 1347.85 923.98 1356.36 935.219 C 1358.96 938.658 1363.11 941.425 1366.53 944.037 A 2644 2644 0 0 0 1379.84 994.481 A 661.271 661.271 0 0 0 1417.33 1000.35 C 1425.08 1017.92 1431.55 1035.93 1439.15 1053.52 C 1452.58 1056.13 1461.73 1060.62 1472.08 1069.53 C 1470.72 1071.74 1469.28 1073.13 1469.38 1075.78 C 1474.67 1077.18 1482.9 1073.87 1488.34 1073.22 C 1497.72 1072.08 1507.52 1072.23 1516.98 1071.99 C 1515.5 1077.02 1513.92 1081.8 1513.72 1087.08 C 1492.31 1088.46 1464.93 1091.38 1447.62 1105.4 C 1460.21 1104.02 1493.68 1100.36 1504.02 1104.8 C 1526.42 1105 1549.22 1106.38 1571.22 1110.91 C 1589.29 1112.07 1606.74 1113.45 1624.47 1117.31 L 1623.15 1117.63 C 1610.76 1120.49 1597.76 1121.73 1585.15 1123.39 C 1540.07 1129.31 1525.17 1133.23 1486.1 1157.12 C 1477.52 1162.37 1465.8 1167.66 1459.36 1175.43 L 1459.8 1174.9 C 1460.48 1175.44 1461.03 1176.2 1461.84 1176.51 C 1468.86 1179.18 1514.08 1180.32 1524.63 1181.09 C 1550.89 1182.98 1578.84 1185.31 1604.56 1190.64 C 1563.04 1199.15 1529.83 1198.91 1491.6 1222.06 C 1504.44 1224.73 1515.37 1227.54 1525.96 1235.61 C 1512.55 1242.93 1479.09 1258.42 1469.89 1267.71 C 1467.67 1269.23 1465.27 1270.67 1463.22 1272.41 A 776.387 776.387 0 0 0 1454.07 1278.56 C 1456.93 1254.64 1462.52 1228.66 1475.02 1207.69 C 1480.07 1199.2 1488.05 1191.59 1491.97 1182.57 C 1486.33 1182.66 1475.91 1193.92 1472.03 1197.93 C 1446.51 1224.3 1435.48 1255.07 1426.17 1289.75 L 1416.77 1293.56 C 1417.02 1253.71 1421.38 1218.83 1439.94 1182.96 C 1446.51 1170.26 1454.33 1157.94 1464.6 1147.88 A 68.0035 68.0035 0 0 1 1466.11 1146.45 C 1427.57 1167.42 1401.75 1205.01 1389.46 1246.5 C 1386.65 1256.01 1384.63 1265.74 1382.86 1275.49 C 1375.24 1263.32 1365.58 1252.07 1356.06 1241.33 C 1317.59 1197.92 1272.28 1163.83 1221.38 1136.14 C 1277.32 1185.73 1318.85 1240.58 1339.1 1313.81 C 1332.78 1305.91 1326.54 1297.86 1319.34 1290.75 C 1284.23 1256.12 1236.22 1236.56 1189.77 1222.16 C 1228.75 1245.56 1265.38 1271.19 1287.72 1312.16 C 1255.88 1288.44 1229.05 1276.37 1192.32 1262.44 C 1219.42 1280.74 1262.64 1309.02 1279.28 1337.6 C 1272.84 1340.07 1266.35 1342.82 1259.68 1344.63 C 1255.28 1338.85 1238.07 1320.73 1231.64 1319.32 C 1232.28 1321.75 1233.32 1322.3 1235.19 1323.8 C 1242.05 1329.3 1248.79 1338.7 1254.65 1345.54 L 1218.48 1360.4 C 1224.66 1350.6 1231.74 1340.45 1236.68 1329.99 C 1219.24 1350.67 1211.15 1364.96 1183.74 1372.87 C 1191.1 1361.05 1195.38 1347.33 1199.89 1334.23 C 1191.09 1347.6 1183.28 1361.57 1174.38 1374.88 L 1157.71 1382.31 C 1165.47 1361.95 1174.76 1341.63 1189.26 1325.06 C 1176.65 1335.44 1165.92 1346.98 1155.95 1359.93 C 1147.46 1370.95 1139.56 1384.96 1128.45 1393.41 C 1123.96 1396.82 1118.62 1397.99 1113.29 1399.49 C 1123.79 1359.68 1137.89 1331.2 1167.42 1301.85 C 1158.73 1307.15 1150.72 1313.74 1142.85 1320.17 C 1119.11 1339.56 1102.29 1358.46 1090.98 1387.16 C 1074.41 1360.09 1056.18 1337.26 1034.75 1313.99 C 1049.32 1295.33 1062.46 1263.92 1075.06 1242.46 C 1097.07 1237.39 1119.93 1234.15 1142.25 1230.62 C 1150.4 1212.38 1155.14 1191.96 1160.73 1172.78 C 1162.91 1165.3 1164.79 1157.25 1168.04 1150.18 C 1173.99 1137.23 1189.84 1130.9 1194.21 1117.37 C 1199.34 1101.47 1197.56 1082.86 1201.06 1066.4 C 1201.14 1066.02 1201.23 1065.64 1201.32 1065.26 C 1207.45 1059.06 1216.72 1051.53 1220.66 1043.73 C 1227.09 1031.04 1229.12 974.741 1229.99 958.169 C 1230.44 949.583 1229.94 939.427 1232.31 931.173 C 1235.37 920.468 1245.82 908.399 1251.51 898.673 C 1266.03 873.867 1276.94 848.468 1295.21 825.787 z"/>
<path transform="translate(0,0)" fill="rgb(253,253,185)" d="M 1504.02 1104.8 C 1526.42 1105 1549.22 1106.38 1571.22 1110.91 C 1555.3 1115.95 1535.8 1114.81 1519.13 1115 C 1516.79 1113.44 1514.28 1111.2 1511.48 1110.76 C 1513.73 1113.05 1515.83 1115.25 1517.71 1117.86 C 1517.39 1117.72 1517.04 1117.64 1516.73 1117.46 C 1513.29 1115.44 1505.14 1108.4 1504.02 1104.8 z"/>
<path transform="translate(0,0)" fill="rgb(253,253,185)" d="M 139.102 574.685 C 154.328 545.927 169.647 516.884 187.151 489.424 C 204.247 462.606 223.904 436.514 243.287 411.284 C 397.363 210.74 639.766 74.6355 889.938 42.1443 A 1005.41 1005.41 0 0 1 1479.92 143.224 C 1512.3 159.962 1545.43 176.725 1574.42 199.045 C 1635.16 181.163 1679.17 184.36 1735.5 213.647 C 1697.89 215.162 1657.06 216.378 1621.75 230.686 C 1569.34 251.619 1529.94 278.63 1491.3 319.59 C 1485.91 325.308 1476.8 333.2 1473.65 340.364 C 1473.24 341.286 1473.23 341.537 1472.94 342.583 C 1474.52 344.854 1475.85 344.925 1478.48 345.303 C 1491.23 347.135 1498.17 347.462 1507.36 358.242 C 1516.95 369.497 1517.3 382.011 1517.82 396.043 C 1507.25 383.264 1498.16 371.725 1480.3 369.987 C 1474.13 369.386 1467.79 369.449 1461.58 369.319 C 1455.7 375.59 1450.04 381.66 1442.86 386.485 C 1495.66 420.64 1545.77 460.713 1584.63 510.631 C 1597.05 505.763 1610.46 499.268 1623.75 505.081 C 1628.77 507.273 1632.11 510.711 1635.82 514.575 C 1619.2 510.925 1603.95 511.766 1588.56 519.762 C 1580.55 524.508 1575.69 532.748 1568.47 538.479 C 1565.44 548.898 1566.99 555.64 1569.09 566.056 C 1564.77 563.672 1560.5 561.172 1556 559.165 C 1539.96 563.031 1524.17 566.791 1508.06 570.298 L 1497.7 574.395 C 1490.57 576.553 1483.32 578.312 1476.93 582.25 C 1480.25 582.401 1484.33 582.324 1487.41 583.646 C 1498.92 588.591 1509.8 597.965 1520.02 605.271 C 1531.87 613.741 1544.2 621.605 1555.8 630.414 C 1571.92 642.668 1586.76 656.445 1601.83 669.943 C 1609 676.356 1616.75 682.391 1623.66 689.039 C 1615.9 702.322 1603.45 713.259 1597.05 727.072 C 1592.49 736.933 1592.09 748.631 1589.51 759.123 C 1586.32 772.098 1581.28 784.622 1579.24 797.879 C 1577.83 806.964 1578.89 816.606 1576.66 825.511 C 1573.18 839.377 1561.69 849.4 1558.81 863.117 C 1556.68 873.241 1558.2 883.609 1557.27 893.78 C 1557.03 893.465 1556.79 893.152 1556.55 892.833 C 1547.75 880.934 1541.58 867.002 1533.5 854.572 C 1520.79 835.032 1492.22 826.948 1470.49 823.495 C 1458.61 821.607 1446.43 821.284 1434.43 821.948 C 1443.96 830.785 1449.5 840.826 1455.47 852.216 C 1468.95 877.948 1478.6 893.899 1507.02 903.811 C 1515.45 906.748 1524.24 909.124 1532.5 912.432 C 1525.36 921.946 1517.88 932.107 1513.31 943.169 C 1489.62 947.538 1472.99 949.818 1448.91 946.242 C 1457.32 959.588 1469.6 968.102 1484.95 971.704 C 1499.91 975.216 1515.1 973.716 1530.24 972.587 C 1527.93 983.417 1520.93 993.213 1519.42 1004.18 C 1504.12 1007.52 1488.53 1013.19 1475.2 1021.5 C 1466.73 1026.78 1458.76 1032.96 1449.39 1036.56 C 1476.64 1039.7 1504.67 1037.29 1532.09 1038.23 C 1525.65 1043.25 1512.6 1048.61 1509.95 1056.1 C 1497.1 1055.99 1482.57 1062.44 1472.08 1069.53 C 1461.73 1060.62 1452.58 1056.13 1439.15 1053.52 C 1431.55 1035.93 1425.08 1017.92 1417.33 1000.35 A 661.271 661.271 0 0 1 1379.84 994.481 A 2644 2644 0 0 1 1366.53 944.037 C 1363.11 941.425 1358.96 938.658 1356.36 935.219 C 1347.85 923.98 1327.3 874.158 1322.65 859.522 C 1319.41 849.331 1317.36 838.605 1314.63 828.258 C 1308.06 827.728 1301.7 826.954 1295.21 825.787 C 1276.94 848.468 1266.03 873.867 1251.51 898.673 C 1245.82 908.399 1235.37 920.468 1232.31 931.173 C 1229.94 939.427 1230.44 949.583 1229.99 958.169 C 1229.12 974.741 1227.09 1031.04 1220.66 1043.73 C 1216.72 1051.53 1207.45 1059.06 1201.32 1065.26 C 1201.23 1065.64 1201.14 1066.02 1201.06 1066.4 C 1197.56 1082.86 1199.34 1101.47 1194.21 1117.37 C 1189.84 1130.9 1173.99 1137.23 1168.04 1150.18 C 1164.79 1157.25 1162.91 1165.3 1160.73 1172.78 C 1155.14 1191.96 1150.4 1212.38 1142.25 1230.62 C 1119.93 1234.15 1097.07 1237.39 1075.06 1242.46 C 1062.46 1263.92 1049.32 1295.33 1034.75 1313.99 C 1017.32 1297.42 995.693 1280.64 974.43 1269.35 C 972.356 1267.64 970.321 1265.89 968.089 1264.39 C 957.003 1283.9 945.67 1303.83 936.026 1324.1 C 934.044 1323.7 931.895 1322.81 929.999 1323.55 C 931.325 1324.61 932.638 1325.7 934 1326.73 C 928.275 1337.27 922.505 1347.97 915.84 1357.95 C 912.846 1357.46 910.015 1356.89 906.969 1357.22 C 909.348 1358.17 911.715 1359.06 914.141 1359.88 C 905.733 1371.42 898.522 1383.03 893.828 1396.59 C 875.482 1409.74 856.959 1422.8 838.331 1435.53 C 830.708 1440.74 821.602 1445.08 814.81 1451.31 C 803.314 1461.85 788.75 1484.91 782.198 1499.25 C 781.489 1499.47 782.042 1499.36 780.554 1498.69 C 785.245 1461.43 807.141 1431.32 829.099 1402.3 C 805.032 1422.39 786.472 1441.41 768.976 1467.58 C 740.424 1423.66 683.169 1366.47 636.976 1340.56 C 672.757 1374.99 705.746 1418.25 724.691 1464.51 C 706.118 1443.91 684.677 1434.37 658.93 1425.38 C 678.07 1439.21 697.6 1454.98 709.567 1475.72 C 674.749 1445.92 617.171 1412.43 589.075 1378.82 C 582.368 1370.8 576.623 1361.45 574.5 1351.09 C 565.256 1305.97 636.803 1253.22 658.872 1217.73 C 662.049 1212.62 664.783 1206.99 666.132 1201.11 C 671.753 1176.6 663.773 1133.77 657.066 1108.81 C 653.013 1093.73 647.405 1079.08 643.916 1063.85 C 653.613 1053.18 661.209 1040.52 670.604 1029.47 C 683.74 1036.72 698.432 1048.07 703.84 1062.62 C 708.316 1074.66 703.75 1082.24 698.817 1092.98 C 699.431 1095.79 699.107 1096.14 701.45 1097.71 C 704.093 1098.07 705.793 1098.26 708.119 1096.72 C 716.924 1090.92 719.149 1077.87 721.616 1068.38 L 723.575 1068.23 L 724.885 1069.94 C 725.418 1074.05 725.348 1078.07 724.632 1082.16 C 722.551 1094.04 712.531 1099.36 703.69 1105.9 L 703.773 1107.2 C 705.434 1107.67 706.894 1107.99 708.631 1108.02 C 717.623 1108.14 724.895 1106.5 731.198 1099.72 C 740.105 1090.12 737.392 1075.22 736.756 1063.31 C 740.507 1070.12 745.721 1079.08 747.049 1086.73 C 748.033 1092.4 745.686 1101.18 748.987 1105.83 C 752.257 1104.68 754.947 1100.96 756.459 1097.9 C 759.902 1090.91 757.851 1080.86 755.409 1073.86 C 753.188 1067.48 750.758 1061.8 746.553 1056.44 C 741.336 1049.79 734.387 1045.4 728.133 1039.87 C 713.833 1027.23 704.388 1013.53 686.619 1004.95 C 700.759 996.239 715.443 986.705 727.491 975.264 C 733.242 987.895 734.756 1009.18 739.537 1016.79 C 750.822 1024.13 792.379 1018.25 806.784 1016.07 C 815.323 1021.75 822.038 1027.88 827.025 1036.96 C 820.843 1048.98 814.472 1052.45 802.471 1058.1 C 808.114 1061.18 812.853 1063.3 819.445 1063.46 C 833.501 1063.82 831.18 1048.84 838.848 1042.56 C 839.148 1042.31 839.507 1042.15 839.832 1041.94 C 839.852 1041.93 839.865 1041.91 839.881 1041.89 C 845.652 1054.33 832.085 1068.13 828.481 1078.85 C 829.073 1081.55 828.968 1081.47 831.218 1083.06 C 833.874 1083.39 835.65 1083.35 838.145 1082.27 C 855.266 1074.86 846.496 1056.61 851.223 1044.64 C 859.063 1047.82 849.225 1070.22 853.506 1076.93 C 855.799 1076.87 856.465 1076.63 858.396 1075.2 C 863.826 1071.2 867.062 1063.54 867.702 1056.99 C 868.917 1044.56 861.167 1034.13 855.655 1023.71 C 853.408 1019.46 851.18 1013.72 848.065 1010.07 C 844.441 1005.83 838.709 1003.23 833.833 1000.7 C 808.782 987.703 799.962 989.846 773.04 987.735 C 766.291 973.414 764.063 954.956 761.384 939.37 C 776.347 921.235 787.862 900.087 797.016 878.47 C 806.849 855.253 812.864 830.135 830.412 811.16 C 838.319 802.61 847.841 795.295 859.727 793.686 C 886.182 790.104 949.187 826.868 972.549 841.326 C 983.52 848.115 994.093 857.187 1005.93 862.262 C 1010.98 864.427 1016.19 865.341 1021.68 864.971 C 1032.02 864.273 1043.7 859.811 1050.54 851.875 C 1063.14 837.262 1059.65 816.717 1058.73 799.062 L 1054.37 816.562 C 1051.93 818.874 1049.58 821.498 1046.19 821.806 C 1044.55 811.953 1049.34 801.493 1048.33 791.545 C 1045.4 794.618 1045.38 799.811 1043.18 803.445 C 1043.01 803.724 1042.8 803.979 1042.62 804.246 C 1038.9 807.787 1035.53 811.713 1030.54 813.321 C 1028.62 813.756 1026.82 814.279 1024.97 814.929 C 1023.27 813.814 1021.72 812.491 1020.13 811.23 C 1018.69 810.522 1019.52 810.654 1017.62 811.271 C 1015.96 813.189 1014.44 814.896 1012.46 816.503 L 1011.07 815.96 L 1011.1 812.098 C 1008.87 809.78 1006.99 810.415 1003.82 810.284 C 1001.95 805.945 1005.44 800.774 1005.79 796.318 C 1006.01 793.647 1004.91 792.453 1003.24 790.593 C 1001.56 790.293 999.989 789.983 998.364 789.465 C 997.949 789.333 997.539 789.186 997.127 789.046 C 995.716 786.762 994.55 785.142 994.527 782.35 C 994.597 780.067 994.455 778.264 993.93 776.04 C 990.215 775.947 985.8 776.314 982.319 774.937 L 982.489 773.306 L 984.851 773.698 C 989.934 769.121 991.946 763.483 992.332 756.752 L 991.063 756.553 C 988.419 759.207 985.737 762.269 982.708 764.474 C 981.417 765.414 980.899 766.031 979.27 765.711 C 977.926 758.943 984.961 753.369 981.537 746.493 C 978.281 749.944 978.021 757.576 974.004 759.656 C 973.775 759.374 973.516 759.114 973.317 758.81 C 969.866 753.516 972.138 745.076 972.976 739.212 L 966.111 746.584 L 964.708 746.523 C 961.35 740.883 959.291 733.242 958.334 726.766 C 955.508 707.646 963.028 690.725 974.232 675.8 C 977.541 681.709 982.119 687.134 986.198 692.544 C 988.193 687.545 990.177 682.872 992.937 678.231 C 995.619 682.556 1000.21 691.991 1005.27 693.493 L 1007.01 692.233 C 1008.84 687.944 1008.81 683.299 1009.15 678.701 C 1009.59 677.094 1009.28 677.67 1010.27 676.323 C 1012.37 673.446 1016.98 676.616 1020.46 676.025 C 1024.67 680.477 1029.21 690.387 1034.96 692.456 C 1037.7 689.661 1035.68 685.36 1037.88 681.835 L 1039.82 681.663 C 1044.37 684.499 1047.59 689.615 1050.88 693.782 C 1053.3 687.613 1055.04 681.061 1056.99 674.722 C 1058.58 678.083 1060.15 682.419 1062.57 685.229 C 1064.02 686.903 1064.43 687.047 1066.63 687.322 C 1066.86 687.085 1067.12 686.876 1067.31 686.612 C 1070.3 682.544 1069.08 674.516 1068.87 669.678 C 1072.91 674.41 1076.71 681.747 1081.47 685.43 L 1082.91 684.585 C 1084.52 678.818 1084.21 672.962 1084.35 667.018 A 1430.38 1430.38 0 0 0 1096.7 685.129 C 1097.23 678.071 1097.57 671.336 1100.18 664.681 C 1100.56 662.32 1100.17 660.69 1099.58 658.43 C 1099.24 657.095 1099.69 656.769 1100.23 655.541 C 1100.86 655.689 1101.49 655.83 1102.12 655.985 C 1103.78 656.397 1104.81 656.898 1106.24 657.797 C 1108.2 659.035 1109.03 659.032 1111.22 659.431 C 1115.87 660.278 1124.14 670.937 1126.67 670.517 C 1127.64 664.643 1127.35 658.6 1127.32 652.66 C 1127.25 635.028 1125.04 621.654 1114.58 607.125 C 1097.01 582.705 1074.93 577.145 1046.88 571.801 A 2794.92 2794.92 0 0 1 1003.14 563.351 C 996.049 561.882 987.613 560.815 980.888 558.139 C 970.379 553.958 964.059 539.108 952.949 537.568 C 940.886 535.895 927.898 552.378 914.674 553.55 C 902.039 554.671 896.569 537.841 886.061 543.256 C 884.17 546.296 882.971 549.927 879.945 551.807 C 874.452 551.303 873.684 544.256 867.22 546.612 L 866.318 547.817 C 864.425 550.313 863.069 552.599 860.051 553.789 C 855.954 553.666 854.406 552.095 851.415 549.482 C 849.606 547.901 848.436 547.132 846.033 546.576 C 844.506 546.864 843.245 546.647 842.276 547.994 C 840.108 551.004 840.678 555.167 837.533 557.38 C 832.094 557.446 828.628 550.996 824.236 552.492 C 821.117 556.091 820.075 560.372 819.018 564.926 C 814.398 563.817 808.228 561.421 803.849 564.06 C 801.063 565.739 800.66 569.787 800.201 572.701 L 800.034 573.82 C 798.148 575.776 798.193 575.649 795.464 575.854 C 791.752 574.133 788.638 572.002 784.565 573.112 C 782.719 575.114 781.707 576.405 781.715 579.248 C 781.723 581.913 783.208 585.366 784.086 587.868 C 782.621 589.603 781.063 589.839 778.832 589.944 C 775.317 590.11 771.375 589.074 768.138 590.665 C 766.718 592.774 766.348 594.648 766.869 597.139 C 767.541 600.352 768.852 603.515 769.729 606.699 C 767.5 608.524 766.969 609.195 763.908 608.992 C 762.144 608.874 760.124 608.148 758.409 607.68 C 756.323 608.336 755.52 608.746 754.476 610.899 C 752.53 614.912 759.457 625.604 755.423 627.536 C 749.765 630.245 747.798 626.733 744.203 633.642 C 743.991 638.831 747.989 642.355 747.373 647.467 C 744.612 649.936 739.014 649.676 738.714 654.029 C 738.401 658.585 741.33 662.468 743.592 666.177 C 740.288 668.529 732.844 673.025 732.002 677.202 C 731.684 678.785 731.642 678.6 732.57 679.634 C 733.954 681.178 735.533 682.156 737.238 683.311 C 738.004 685.993 737.643 686.173 736.528 688.784 C 733.982 690.833 731.488 691.793 728.444 692.93 C 727.348 694.921 726.84 696.282 727.675 698.563 C 728.249 700.133 729.263 701.667 730.059 703.135 C 731.563 705.912 732.406 707.779 731.886 710.929 C 729.846 712.178 727.665 712.179 725.345 712.392 C 723.667 713.91 723.114 714.508 723.149 717.005 C 723.202 720.839 725.768 724.838 727.531 728.13 C 722.072 727.974 718.248 727.531 713.201 729.842 C 708.752 735.527 714.318 740.284 706.09 743.84 C 700.436 742.715 697.691 735.064 691.332 738.689 C 686.465 741.462 683.168 747.092 680.056 751.584 C 677.102 747.839 673.897 742.335 668.811 741.66 C 666.741 741.385 664.564 742.46 663.029 743.822 C 660.624 745.955 658.717 748.705 656.843 751.294 C 654.471 747.703 651.832 742.607 647.473 741.241 C 644.262 740.235 641.336 741.671 638.765 743.463 C 636.098 745.322 633.615 747.518 631.137 749.618 C 628.935 744.473 627.268 739.849 622.298 736.886 C 618.007 736.652 616.228 738.447 612.878 740.907 C 610.308 742.796 607.945 744.383 604.583 743.898 C 598.037 742.955 599.486 730.124 589.607 735.969 C 586.4 737.866 583.472 740.427 580.579 742.77 C 578.316 739.463 575.861 734.812 571.495 734.137 C 567.924 733.586 564.737 736.297 562.396 738.635 C 560.528 740.502 558.824 742.598 557.113 744.609 C 553.483 739.932 550.19 734.163 543.931 733.116 C 540.58 733.753 538.825 734.972 536.931 737.735 C 535.18 740.289 533.553 742.934 531.93 745.57 C 529.036 741.819 525.531 735.831 520.605 734.858 C 519.02 734.545 517.83 735.029 516.525 735.986 C 513.762 738.012 512.376 742.914 511.154 745.99 C 507.113 743.004 503.104 739.717 498.772 737.173 C 495.357 740.84 492.586 744.328 489.92 748.605 C 486.677 745.674 483.892 742.915 479.774 741.25 C 478.272 741.353 477.5 740.977 476.475 742.216 C 475.421 743.49 474.919 744.582 474.198 746.034 C 473.029 748.388 472.163 749.361 470.053 750.879 C 468.076 751.195 468.187 751.576 466.422 750.405 C 463.84 748.691 461.727 746.893 458.471 746.928 C 454.304 748.763 453.14 751.489 451.543 755.502 C 451.308 756.092 451.095 756.69 450.857 757.278 C 450.143 759.041 450.581 758.416 449.305 759.543 L 448.218 758.644 C 445.521 756.448 443.638 754.835 440.217 754.075 C 437.156 754.931 435.553 755.893 434 758.765 C 432.484 761.569 431.74 764.647 431.019 767.726 C 427.833 765.35 425.345 763.075 421.293 762.646 C 418.68 763.466 417.209 764.075 415.74 766.533 C 414.166 769.166 413.062 772.355 411.904 775.206 L 403.135 770.976 C 397.835 774.122 394.382 782.511 391.287 783.845 C 388.536 782.981 386.941 781.799 384.248 783.564 C 380.418 786.074 377.484 793.488 372.798 793.527 C 372.568 793.529 370.65 793.282 370.484 793.264 C 366.111 792.804 362.418 795.138 359.354 798.149 C 359.087 798.412 358.881 798.731 358.644 799.022 C 354.321 793.491 353.048 790.006 352.471 782.986 C 374.72 753.558 380.428 724.897 387.972 690.039 C 375.748 694.168 364.209 699.036 353.6 706.487 C 332.076 721.603 318.119 742.889 313.727 768.795 C 305.981 769.901 296.125 772.026 289.203 775.755 A 206.048 206.048 0 0 0 258.709 720.596 C 252.333 740.292 247.536 760.032 247.503 780.823 C 239.969 781.814 232.257 785.01 225.541 788.502 C 223.323 780.283 221.067 772.145 219.763 763.717 C 216.96 773.862 214.213 783.975 210.701 793.904 C 190.432 797.004 171.203 803.191 151.538 808.745 C 133.195 813.925 114.606 818.182 96.2378 823.263 C 83.4839 826.791 70.7993 831.287 57.9892 834.445 C 55.3539 835.095 53.3671 835.962 50.8163 834.948 L 50.3079 834.236 C 57.225 808.058 61.5953 781.653 69.9572 755.755 C 73.3103 741.823 81.8405 724.437 83.3811 711.268 C 95.3181 677.356 105.992 642.458 122.998 610.647 C 124.425 603.675 134.602 579.807 139.102 574.685 z"/>
<path transform="translate(0,0)" fill="rgb(6,73,98)" d="M 1100.23 655.541 C 1106.12 661.814 1109.56 666.007 1112.1 674.35 L 1111.36 675.787 C 1106.79 674.184 1102.6 668.757 1100.18 664.681 C 1100.56 662.32 1100.17 660.69 1099.58 658.43 C 1099.24 657.095 1099.69 656.769 1100.23 655.541 z"/>
<path transform="translate(0,0)" fill="rgb(6,73,98)" d="M 984.851 773.698 C 988.646 774.006 990.446 773.695 993.432 771.243 C 997.688 767.746 1001.3 763.22 1004.93 759.096 C 1002.32 768.035 1000.52 775.01 994.527 782.35 C 994.597 780.067 994.455 778.264 993.93 776.04 C 990.215 775.947 985.8 776.314 982.319 774.937 L 982.489 773.306 L 984.851 773.698 z"/>
<path transform="translate(0,0)" fill="rgb(6,73,98)" d="M 1009.15 678.701 C 1009.59 677.094 1009.28 677.67 1010.27 676.323 C 1012.37 673.446 1016.98 676.616 1020.46 676.025 C 1019.72 683.052 1021.57 690.741 1022.64 697.728 C 1017.76 691.57 1013.35 685.337 1009.15 678.701 z"/>
<path transform="translate(0,0)" fill="rgb(6,73,98)" d="M 1022.81 807.565 L 1025.6 809.779 L 1026.85 809.45 C 1025.84 802.562 1023.04 803.386 1027.9 796.85 C 1030.93 792.779 1033.91 788.742 1036.74 784.529 C 1034.81 793.835 1030.15 803.878 1030.54 813.321 C 1028.62 813.756 1026.82 814.279 1024.97 814.929 C 1023.27 813.814 1021.72 812.491 1020.13 811.23 L 1022.81 807.565 z"/>
<path transform="translate(0,0)" fill="rgb(2,66,96)" d="M 1492.29 570.172 L 1502.71 566.403 L 1502.8 567.939 C 1501.33 568.699 1499.28 569.224 1498.71 570.8 C 1500.61 570.932 1501.75 570.738 1503.53 570.244 C 1505.6 569.667 1506.09 569.627 1508.06 570.298 L 1497.7 574.395 C 1490.57 576.553 1483.32 578.312 1476.93 582.25 C 1475.71 581.821 1476.49 582.161 1474.76 580.91 L 1475.94 578.467 C 1474.5 575.247 1470.11 573.281 1467.16 571.306 C 1467.61 571.113 1468.03 570.851 1468.5 570.727 C 1471.26 570.006 1475.84 572.828 1478.29 574.021 C 1483.32 573.206 1487.58 572.279 1492.29 570.172 z"/>
<path transform="translate(0,0)" fill="rgb(2,66,96)" d="M 1313.16 701.44 L 1314.03 702.66 C 1311.07 704.376 1307.94 705.264 1304.69 706.284 C 1309.47 708.756 1313.63 705.053 1318.21 706.829 C 1306.15 710.912 1293.02 711.768 1281.83 718.302 C 1277.93 713.301 1274.71 708.383 1271.68 702.807 L 1284.8 710.394 C 1294.4 708.01 1303.79 704.562 1313.16 701.44 z"/>
<path transform="translate(0,0)" fill="rgb(6,73,98)" d="M 997.127 789.046 C 1002.13 779.897 1007.1 771.464 1013.78 763.449 C 1009.84 771.596 1004.57 781.708 1006.98 791.002 C 1008.06 791.919 1008.23 792.603 1009.79 792.327 C 1015.12 791.378 1019.49 784.372 1022.67 780.371 L 1015.45 798.553 C 1018.87 801.348 1021.52 803.159 1022.81 807.565 L 1020.13 811.23 C 1018.69 810.522 1019.52 810.654 1017.62 811.271 C 1015.96 813.189 1014.44 814.896 1012.46 816.503 L 1011.07 815.96 L 1011.1 812.098 C 1008.87 809.78 1006.99 810.415 1003.82 810.284 C 1001.95 805.945 1005.44 800.774 1005.79 796.318 C 1006.01 793.647 1004.91 792.453 1003.24 790.593 C 1001.56 790.293 999.989 789.983 998.364 789.465 C 997.949 789.333 997.539 789.186 997.127 789.046 z"/>
<path transform="translate(0,0)" fill="rgb(2,66,96)" d="M 1471.6 628.737 C 1475.86 629.688 1480.45 631.202 1484.47 632.944 C 1501.16 640.185 1508.58 653.584 1514.91 669.622 C 1516.95 667.473 1518.84 665.296 1521.38 663.727 C 1521.93 666.187 1522.37 668.657 1522.81 671.138 C 1525.95 671.533 1526.46 668.546 1529.44 668.168 L 1530.98 671.884 L 1532.85 672.647 L 1534.14 671.958 L 1531.98 669.553 C 1533.31 667.45 1532.56 668.172 1534.59 666.78 C 1536.32 665.588 1538.94 663.413 1540.93 663.821 L 1539.32 666.322 C 1537.52 668.325 1536.31 669.449 1535.73 672.161 L 1537.01 672.47 C 1538.91 671.426 1540.8 670.476 1542.77 669.575 L 1543.69 670.101 C 1542.42 671.654 1541.15 672.882 1539.58 674.126 C 1530.96 680.941 1519.93 682.946 1509.32 681.793 C 1504.99 658.974 1488.46 643.194 1471.6 628.737 z"/>
<path transform="translate(0,0)" fill="rgb(252,217,88)" d="M 1347.07 510.347 C 1389.38 520.695 1454.64 548.416 1492.29 570.172 C 1487.58 572.279 1483.32 573.206 1478.29 574.021 C 1475.84 572.828 1471.26 570.006 1468.5 570.727 C 1468.03 570.851 1467.61 571.113 1467.16 571.306 C 1459.61 570.664 1439.18 556.93 1431.23 552.506 C 1403.77 537.215 1375.29 524.132 1347.07 510.347 z"/>
<path transform="translate(0,0)" fill="rgb(6,73,98)" d="M 1418.87 496.283 C 1454.05 486.378 1485.79 494.103 1514.18 516.589 C 1527.47 527.114 1537.74 537.26 1554.03 543.294 L 1550.44 529.591 C 1553.97 529.818 1555.09 533.344 1558.83 533.958 C 1561.79 531.298 1562.3 524.923 1564.35 521.271 L 1565.51 521.135 L 1566.49 524.973 L 1567.69 524.605 C 1569.25 522.607 1570.42 521.004 1571.34 518.622 C 1571.95 517.029 1572.03 516.71 1573.27 515.416 L 1576.36 517.267 C 1579.79 516.236 1582.19 513.137 1584.63 510.631 C 1597.05 505.763 1610.46 499.268 1623.75 505.081 C 1628.77 507.273 1632.11 510.711 1635.82 514.575 C 1619.2 510.925 1603.95 511.766 1588.56 519.762 C 1580.55 524.508 1575.69 532.748 1568.47 538.479 C 1565.44 548.898 1566.99 555.64 1569.09 566.056 C 1564.77 563.672 1560.5 561.172 1556 559.165 C 1539.96 563.031 1524.17 566.791 1508.06 570.298 C 1506.09 569.627 1505.6 569.667 1503.53 570.244 C 1501.75 570.738 1500.61 570.932 1498.71 570.8 C 1499.28 569.224 1501.33 568.699 1502.8 567.939 L 1502.71 566.403 C 1503.01 566.173 1503.32 565.947 1503.62 565.714 C 1507.9 562.391 1510.38 559.132 1510.9 553.6 C 1511.5 547.25 1508.92 541.743 1504.96 536.928 C 1485.54 513.266 1448.56 499.149 1418.87 496.283 z"/>
<path transform="translate(0,0)" fill="rgb(252,186,69)" d="M 987.814 341.961 C 1005.55 339.598 1023.71 339.5 1041.59 338.996 C 1092.73 337.555 1144.41 338.55 1195.19 345.145 A 917.163 917.163 0 0 1 1236.32 351.578 C 1248.59 353.868 1263.48 358.345 1275.9 357.801 C 1282.38 368.627 1279.91 379.86 1278.91 391.756 C 1248.26 381.986 1217.57 372.547 1186.11 365.664 C 1121.19 351.459 1054.07 345.845 987.814 341.961 z"/>
<path transform="translate(0,0)" fill="rgb(6,73,98)" d="M 1244.14 589.206 C 1289.34 589.54 1323.98 605.114 1355.76 637.23 C 1368.96 650.564 1380.23 665.721 1391.75 680.488 L 1402.32 677.261 C 1397.05 668.614 1391.79 660.216 1384.81 652.826 C 1394.56 658.668 1402.16 665.414 1410.05 673.558 L 1408.43 661.733 C 1412.52 664.734 1416.83 670.046 1421.65 671.362 C 1426.32 670.154 1429.49 664.843 1432.63 661.161 C 1435.31 663.108 1432.97 666.491 1436.28 667.355 C 1442.08 664.738 1447.8 661.845 1454.06 660.521 C 1458.2 661.937 1462.43 663.026 1465.9 665.779 L 1466.13 666.533 C 1462.25 667.44 1457.92 667.556 1454.19 668.855 C 1444.37 672.277 1427.78 684.746 1420.17 692.026 C 1423.3 703.286 1427.51 714.154 1430.96 725.304 C 1422.63 716.916 1415.6 709.02 1410.76 698.108 C 1386.12 712.014 1372.99 710.525 1346.3 705.567 C 1339.4 704.286 1333.95 703.299 1326.99 704.972 C 1324.22 705.639 1321.02 706.576 1318.21 706.829 C 1313.63 705.053 1309.47 708.756 1304.69 706.284 C 1307.94 705.264 1311.07 704.376 1314.03 702.66 L 1313.16 701.44 C 1323.05 696.68 1328.79 692.926 1332.57 682.031 C 1333.94 678.069 1335.13 673.955 1336.17 669.891 C 1325.28 639.093 1289 608.928 1260.3 595.224 C 1255.05 592.719 1249.7 590.896 1244.14 589.206 z"/>
<path transform="translate(0,0)" fill="rgb(252,186,69)" d="M 139.102 574.685 C 154.328 545.927 169.647 516.884 187.151 489.424 C 204.247 462.606 223.904 436.514 243.287 411.284 C 397.363 210.74 639.766 74.6355 889.938 42.1443 A 1005.41 1005.41 0 0 1 1479.92 143.224 C 1512.3 159.962 1545.43 176.725 1574.42 199.045 C 1635.16 181.163 1679.17 184.36 1735.5 213.647 C 1697.89 215.162 1657.06 216.378 1621.75 230.686 C 1569.34 251.619 1529.94 278.63 1491.3 319.59 C 1485.91 325.308 1476.8 333.2 1473.65 340.364 C 1473.24 341.286 1473.23 341.537 1472.94 342.583 C 1474.52 344.854 1475.85 344.925 1478.48 345.303 C 1491.23 347.135 1498.17 347.462 1507.36 358.242 C 1516.95 369.497 1517.3 382.011 1517.82 396.043 C 1507.25 383.264 1498.16 371.725 1480.3 369.987 C 1474.13 369.386 1467.79 369.449 1461.58 369.319 C 1455.7 375.59 1450.04 381.66 1442.86 386.485 C 1411.23 403.122 1377.97 410.904 1343.04 416.888 C 1313.17 422.004 1282.56 420.199 1256.64 437.684 C 1236.46 451.296 1208.27 483.103 1184.04 485.885 C 1178.11 486.565 1171.98 484.933 1166.36 483.176 C 1155.27 479.708 1144.4 475.395 1133.54 471.277 C 1144.43 467.761 1154.96 464.08 1166.47 463.279 C 1174.81 462.699 1183.41 463.402 1191.66 461.886 C 1218.56 456.943 1238.59 433.235 1256.7 414.766 C 1264.08 407.23 1272.13 399.823 1278.91 391.756 C 1279.91 379.86 1282.38 368.627 1275.9 357.801 A 113.076 113.076 0 0 0 1261.92 336.622 C 1261.64 336.577 1261.36 336.537 1261.08 336.486 C 1248.57 334.199 1227.46 323.716 1214.31 319.028 A 712.34 712.34 0 0 0 1132.62 295.533 C 970.489 258.733 806.746 300.659 670.427 392.141 C 659.518 399.461 647.601 406.874 638.149 416.035 C 712.829 411.03 769.502 410.749 844.023 420.157 C 820.083 423.32 795.573 423.684 771.504 425.955 A 1611.92 1611.92 0 0 0 634.502 445.1 C 623.219 447.187 606.106 448.657 596.181 454.578 C 576.26 466.461 530.383 523.907 514.171 545.086 C 499.656 564.047 488.465 585.339 473.742 604.027 C 503.59 597.137 532.822 587.462 562.543 579.956 C 599.998 570.496 637.538 564.011 675.722 558.259 C 663.32 565.29 631.616 574.085 615.969 579.841 A 1983.58 1983.58 0 0 0 498.011 626.474 C 482.774 632.962 466.667 638.887 451.987 646.471 C 445.168 657.756 439.908 670.384 434.594 682.435 C 421.718 711.641 410.727 739.966 403.135 770.976 C 397.835 774.122 394.382 782.511 391.287 783.845 C 388.536 782.981 386.941 781.799 384.248 783.564 C 380.418 786.074 377.484 793.488 372.798 793.527 C 372.568 793.529 370.65 793.282 370.484 793.264 C 366.111 792.804 362.418 795.138 359.354 798.149 C 359.087 798.412 358.881 798.731 358.644 799.022 C 354.321 793.491 353.048 790.006 352.471 782.986 C 374.72 753.558 380.428 724.897 387.972 690.039 C 375.748 694.168 364.209 699.036 353.6 706.487 C 332.076 721.603 318.119 742.889 313.727 768.795 C 305.981 769.901 296.125 772.026 289.203 775.755 A 206.048 206.048 0 0 0 258.709 720.596 C 252.333 740.292 247.536 760.032 247.503 780.823 C 239.969 781.814 232.257 785.01 225.541 788.502 C 223.323 780.283 221.067 772.145 219.763 763.717 C 216.96 773.862 214.213 783.975 210.701 793.904 C 190.432 797.004 171.203 803.191 151.538 808.745 C 133.195 813.925 114.606 818.182 96.2378 823.263 C 83.4839 826.791 70.7993 831.287 57.9892 834.445 C 55.3539 835.095 53.3671 835.962 50.8163 834.948 L 50.3079 834.236 C 57.225 808.058 61.5953 781.653 69.9572 755.755 C 73.3103 741.823 81.8405 724.437 83.3811 711.268 C 95.3181 677.356 105.992 642.458 122.998 610.647 C 124.425 603.675 134.602 579.807 139.102 574.685 z"/>
<path transform="translate(0,0)" fill="rgb(253,253,185)" d="M 480.364 438.795 C 465.496 449.105 447.463 456.301 431.269 464.356 C 403.364 478.236 375.702 492.366 347.537 505.737 C 272.921 541.162 198.689 577.578 122.998 610.647 C 124.425 603.675 134.602 579.807 139.102 574.685 C 146.715 573.583 155.502 568.954 162.733 566.104 C 187.383 556.386 211.532 545.766 235.982 535.616 C 254.264 528.025 273.059 521.597 291.502 514.408 C 317.825 504.147 343.911 493.227 370.11 482.651 C 406.64 467.906 442.921 450.998 480.364 438.795 z"/>
<path transform="translate(0,0)" fill="rgb(253,253,185)" d="M 83.3811 711.268 C 84.2192 711.382 85.06 711.744 85.8954 711.611 C 93.0113 710.48 118.682 697.22 127.475 693.406 L 252.282 639.722 A 4483.45 4483.45 0 0 1 427.666 568.838 C 458.091 556.989 488.179 544.017 519.004 533.251 C 491.986 552.075 460.854 565.85 431.397 580.398 L 293.843 647.66 C 235.685 676.438 177.753 704.946 118.79 732.077 C 103.822 738.965 84.8914 750.96 69.9572 755.755 C 73.3103 741.823 81.8405 724.437 83.3811 711.268 z"/>
<path transform="translate(0,0)" fill="rgb(6,73,98)" d="M 994.472 176.373 C 1010.45 172.958 1026.36 169.44 1042.62 167.711 C 1156.11 155.65 1233.04 206.1 1320.25 269.247 C 1348.96 290.033 1378.55 314.259 1411.53 327.727 C 1416.09 322.546 1419.64 317.273 1422.42 310.956 C 1421.98 309.291 1421.5 307.626 1420.86 306.026 C 1414.33 289.821 1397.53 277.611 1382.21 270.531 C 1388.23 269.518 1394.38 268.546 1400.49 268.422 C 1421.68 267.993 1436.93 278.108 1451.73 292.126 C 1487.48 244.104 1519.88 222.339 1574.42 199.045 C 1635.16 181.163 1679.17 184.36 1735.5 213.647 C 1697.89 215.162 1657.06 216.378 1621.75 230.686 C 1569.34 251.619 1529.94 278.63 1491.3 319.59 C 1485.91 325.308 1476.8 333.2 1473.65 340.364 C 1473.24 341.286 1473.23 341.537 1472.94 342.583 C 1474.52 344.854 1475.85 344.925 1478.48 345.303 C 1491.23 347.135 1498.17 347.462 1507.36 358.242 C 1516.95 369.497 1517.3 382.011 1517.82 396.043 C 1507.25 383.264 1498.16 371.725 1480.3 369.987 C 1474.13 369.386 1467.79 369.449 1461.58 369.319 C 1455.7 375.59 1450.04 381.66 1442.86 386.485 C 1411.23 403.122 1377.97 410.904 1343.04 416.888 C 1313.17 422.004 1282.56 420.199 1256.64 437.684 C 1236.46 451.296 1208.27 483.103 1184.04 485.885 C 1178.11 486.565 1171.98 484.933 1166.36 483.176 C 1155.27 479.708 1144.4 475.395 1133.54 471.277 C 1144.43 467.761 1154.96 464.08 1166.47 463.279 C 1174.81 462.699 1183.41 463.402 1191.66 461.886 C 1218.56 456.943 1238.59 433.235 1256.7 414.766 C 1264.08 407.23 1272.13 399.823 1278.91 391.756 C 1279.91 379.86 1282.38 368.627 1275.9 357.801 A 113.076 113.076 0 0 0 1261.92 336.622 C 1249.57 319.599 1233.95 303.781 1218.42 289.638 C 1153.29 230.313 1078.03 200.841 994.472 176.373 z"/>
</svg>
