<svg version="1.1" xmlns="http://www.w3.org/2000/svg" style="display: block;" viewBox="0 0 2048 2048" width="1024" height="1024">
<defs>
	<linearGradient id="Gradient1" gradientUnits="userSpaceOnUse" x1="1312.75" y1="1793.77" x2="1372.99" y2="1557.36">
		<stop class="stop0" offset="0" stop-opacity="1" stop-color="rgb(234,243,213)"/>
		<stop class="stop1" offset="1" stop-opacity="1" stop-color="rgb(253,253,243)"/>
	</linearGradient>
	<linearGradient id="Gradient2" gradientUnits="userSpaceOnUse" x1="1525.05" y1="1095.09" x2="1522.46" y2="1082.43">
		<stop class="stop0" offset="0" stop-opacity="1" stop-color="rgb(0,0,0)"/>
		<stop class="stop1" offset="1" stop-opacity="1" stop-color="rgb(22,1,0)"/>
	</linearGradient>
	<linearGradient id="Gradient3" gradientUnits="userSpaceOnUse" x1="1631.14" y1="1690.81" x2="1434.06" y2="1308.49">
		<stop class="stop0" offset="0" stop-opacity="1" stop-color="rgb(0,0,0)"/>
		<stop class="stop1" offset="1" stop-opacity="1" stop-color="rgb(40,34,34)"/>
	</linearGradient>
</defs>
<path transform="translate(0,0)" fill="rgb(254,254,254)" d="M 0 0 L 2048 0 L 2048 2048 L 0 2048 L 0 0 z"/>
<path transform="translate(0,0)" fill="rgb(1,1,1)" d="M 1220.6 495.108 C 1220.51 493.756 1220.62 492.376 1220.33 491.05 C 1218.02 480.193 1148.5 430.623 1142.77 410.847 C 1141.34 405.922 1142.62 401.924 1145.89 398.11 C 1154.05 388.596 1165.58 383.125 1176.68 377.876 C 1233.61 350.957 1316.16 338.399 1379.04 335.078 C 1384.55 334.787 1395.44 335.713 1400.28 333.677 C 1407.92 330.461 1442.17 301.77 1452.72 293.898 C 1518.51 244.767 1596.62 188.131 1677.75 169.111 C 1689.83 166.278 1712.75 160.867 1722.81 170.629 C 1727.53 175.215 1728.43 182.282 1728.27 188.553 C 1726.55 258.698 1644.24 365.482 1600.28 418.026 C 1584.15 437.297 1566.7 455.444 1550.4 474.567 C 1545.83 501.577 1539.6 528.369 1534.13 555.213 C 1527.11 589.704 1520.26 638.663 1504.8 669.684 C 1505.4 648.716 1511.22 627.095 1515.34 606.556 A 9940.3 9940.3 0 0 1 1540.96 485.583 C 1533.45 493.121 1519.1 504.419 1514.88 513.499 C 1510 523.974 1511.44 539.545 1510.55 550.957 C 1508.75 573.869 1504.23 677.324 1497.19 690.072 C 1489.79 703.479 1451.53 728.396 1436.89 734.257 C 1430 707.135 1409.59 665.192 1390.31 644.341 C 1384.75 648.991 1378.86 657.426 1372.91 660.66 L 1370.52 659.205 C 1357.51 667.712 1347.33 679.85 1336.58 690.871 C 1333.78 693.738 1330.54 696.066 1327.8 698.972 C 1328.24 700.583 1327.82 699.991 1328.83 700.891 L 1329.18 703.541 C 1324.4 709.07 1313.62 715.229 1306.11 715.381 C 1305.74 715.389 1305.39 715.229 1305.03 715.153 C 1300.81 715.715 1296.58 716.524 1292.32 716.117 L 1297.13 717.871 L 1296.58 718.939 C 1291.45 719.904 1285.58 720.239 1281.1 717.504 C 1276.16 717.797 1274.61 718.607 1270.96 721.989 C 1268.69 720.385 1271.24 720.339 1270.5 718.068 L 1266.8 718.054 C 1265.06 719.246 1263.73 720.36 1261.61 720.755 C 1261.24 720.824 1260.86 720.827 1260.49 720.864 L 1265 715.262 L 1266.29 715.381 L 1266.96 714.193 L 1265.01 712.633 C 1263.32 713.798 1263.17 713.876 1260.99 714.029 C 1252.97 707.348 1248.45 699.35 1242.96 690.76 C 1240.82 683.293 1240.97 676.39 1241.45 668.754 C 1243.2 665.741 1241.74 657.184 1241.12 653.809 L 1243 651.845 C 1243.22 646.609 1236.2 638.682 1234.94 632.53 C 1235.13 631.048 1235.09 629.451 1235.15 627.965 C 1232.51 622.906 1219.02 619.941 1213.38 617.429 C 1195.39 627.736 1189.04 626.113 1170.03 621.17 L 1168.48 620.774 C 1165.49 618.897 1163 616.388 1160.43 613.996 C 1158.54 606.998 1152.84 598.903 1149.52 592.267 C 1149.21 589.509 1149.12 586.687 1148.94 583.915 C 1149.63 582.847 1149.4 583.361 1149.77 582.052 C 1153.05 570.255 1156.69 560.041 1166.94 552.357 C 1168.16 551.448 1169.32 550.576 1170.49 549.612 C 1172.74 540.855 1199.95 520.63 1208.13 514.652 C 1207.59 512.706 1207.6 511.799 1207.74 509.833 C 1210.12 505.446 1213.88 504.07 1217.59 501.09 C 1220.13 499.047 1220.26 498.348 1220.6 495.108 z"/>
<path transform="translate(0,0)" fill="rgb(68,67,65)" d="M 1447.18 422.982 L 1447.36 424.856 C 1442.39 431.355 1432.54 446.477 1424.68 448.673 C 1423.69 446.991 1423.45 446.003 1423.35 444.057 C 1427.49 435.786 1440.09 429.086 1447.18 422.982 z"/>
<path transform="translate(0,0)" fill="rgb(68,67,65)" d="M 1413.62 451.844 C 1414.87 453.12 1414.94 454.306 1415.39 455.995 C 1413.89 464.711 1398.04 477.356 1391.46 483.709 C 1390.56 481.827 1388.84 479.093 1389.01 476.981 C 1389.63 469.67 1408.12 456.726 1413.62 451.844 z"/>
<path transform="translate(0,0)" fill="rgb(46,31,44)" d="M 1311.98 535.863 C 1311.67 543.785 1311.23 551.588 1312.21 559.485 C 1300.67 569.312 1291.31 580.913 1280.25 591.051 C 1282.67 579.354 1300.85 569.326 1307.91 559.649 C 1306.11 555.41 1304.85 551.504 1303.85 547.027 L 1303.55 545.623 L 1303.53 545.592 C 1296.44 551.912 1276.81 575.36 1270.21 576.657 C 1284.32 562.933 1296.74 548.529 1311.98 535.863 z"/>
<path transform="translate(0,0)" fill="rgb(254,254,254)" d="M 1275.78 674.935 C 1279.93 674.856 1283.28 675.223 1286.34 678.298 C 1288.72 680.684 1290.05 683.591 1289.89 686.99 C 1289.67 691.429 1287.77 693.967 1284.48 696.733 C 1280.75 696.639 1278.18 696.261 1275.41 693.597 C 1272.55 690.847 1271.22 687.583 1271.31 683.618 C 1271.4 679.597 1273.15 677.621 1275.78 674.935 z"/>
<path transform="translate(0,0)" fill="rgb(254,254,254)" d="M 1279.44 665.02 C 1281.73 665.123 1284.15 665.359 1286.32 666.094 C 1292.6 668.224 1296.93 672.636 1299.7 678.541 C 1302.48 684.455 1304.44 691.556 1301.89 697.898 C 1300.13 702.266 1296.47 705.431 1292.14 707.134 A 22.6505 22.6505 0 0 1 1274.8 706.707 A 23.6658 23.6658 0 0 1 1262.29 693.629 C 1259.36 686.069 1260.72 677.449 1263.86 670.234 C 1265.23 669.155 1264.41 669.476 1266.37 669.459 C 1265.68 675.031 1262.78 681.999 1264.53 687.483 C 1266.51 693.685 1270.9 700.719 1277.03 703.509 C 1281.03 705.329 1285.75 705.468 1289.78 703.67 C 1293.94 701.816 1296.88 698.048 1298.19 693.743 C 1299.75 688.596 1298.81 683.008 1296.06 678.441 C 1290.51 669.227 1284.8 669.293 1275.38 667.062 L 1279.44 665.02 z"/>
<path transform="translate(0,0)" fill="rgb(254,254,254)" d="M 1208.13 514.652 C 1221.28 507.456 1233.31 503.983 1248.22 508.6 C 1259.24 512.013 1268.54 519.218 1273.61 529.692 C 1276.28 535.202 1278.43 541.978 1277.6 548.085 L 1276.07 549.549 C 1274.26 548.52 1263.89 502.169 1226.48 512.019 C 1205.49 517.548 1189.34 539.107 1170.49 549.612 C 1172.74 540.855 1199.95 520.63 1208.13 514.652 z"/>
<path transform="translate(0,0)" fill="rgb(254,254,254)" d="M 1280.25 591.051 C 1291.31 580.913 1300.67 569.312 1312.21 559.485 L 1314.05 570.762 C 1296.28 596.436 1267.12 620.926 1253.38 646.61 L 1251.9 647.111 C 1251.01 644.921 1250.63 642.883 1251.63 640.653 C 1257.89 626.672 1280.73 605.025 1291.46 592.522 C 1299.13 583.575 1306.21 574.086 1313.51 564.829 C 1306.92 569.368 1300.32 573.88 1294.49 579.406 C 1287.83 585.727 1243.12 633.981 1241.02 635.006 L 1240.18 634.107 C 1243.77 620.133 1272.46 604.209 1280.25 591.051 z"/>
<path transform="translate(0,0)" fill="rgb(254,254,254)" d="M 1261.51 709.604 A 173.383 173.383 0 0 1 1258.85 706.777 C 1251.16 698.402 1247.02 687.973 1247.74 676.506 C 1248.35 666.835 1252.17 659.854 1259.48 653.654 C 1267.07 647.22 1275.86 642.569 1286.07 643.697 C 1296.63 644.863 1306.06 650.856 1312.32 659.322 C 1319.11 668.512 1324.08 682.752 1321.84 694.239 C 1319.93 704.073 1312.8 709.796 1305.03 715.153 C 1300.81 715.715 1296.58 716.524 1292.32 716.117 C 1300.14 709.953 1309.17 711.292 1313.61 700.22 C 1316.8 692.266 1315.78 682.164 1312.34 674.463 A 38.0859 38.0859 0 0 0 1290.17 654.171 C 1282.22 651.457 1272.93 651.851 1265.42 655.748 C 1259.01 659.077 1254.64 664.688 1252.65 671.605 C 1248.67 685.441 1255.31 697.715 1261.51 709.604 z"/>
<path transform="translate(0,0)" fill="rgb(166,113,217)" d="M 1555.25 279.387 C 1564.03 279.801 1572.38 281.43 1579.74 286.521 C 1588.64 292.671 1593.97 302.431 1595.75 312.972 C 1599.28 333.954 1591.38 354.925 1579.44 371.812 C 1581.85 361.363 1585.99 351.587 1587.99 340.977 C 1588.2 334.523 1587.79 328.18 1586.38 321.864 C 1583.93 310.831 1578.34 300.894 1568.49 294.918 C 1550.55 284.038 1529.25 289.988 1510.4 294.571 C 1525.42 286.6 1538.26 280.943 1555.25 279.387 z"/>
<path transform="translate(0,0)" fill="rgb(68,67,65)" d="M 1381.26 481.713 C 1383.64 482.835 1385.56 486.79 1387.07 489.053 C 1382.97 495.638 1375.66 501.937 1370.38 507.788 A 2850.35 2850.35 0 0 1 1324.73 557.535 L 1322.44 558.993 L 1321.31 558.032 C 1319.87 552.57 1320.29 546.765 1320.29 541.15 C 1333.24 521.106 1362.99 498.024 1381.26 481.713 z"/>
<path transform="translate(0,0)" fill="rgb(166,113,217)" d="M 1536.52 297.262 C 1539.62 297.026 1542.75 296.776 1545.86 296.921 C 1555.46 297.369 1564.25 301.269 1570.46 308.715 C 1578.58 318.451 1580.21 330.613 1578.87 342.812 C 1578.45 346.578 1578.06 354.007 1575.08 356.401 L 1573.67 354.665 C 1562.13 331.624 1545.24 314.208 1524.06 299.748 L 1536.52 297.262 z"/>
<path transform="translate(0,0)" fill="rgb(254,254,254)" d="M 1232.84 518.317 C 1238.44 518.764 1242.52 519.486 1247.35 522.474 C 1260.4 530.545 1266.37 544.694 1269.47 559.053 C 1265.09 564.967 1242.06 589.738 1236.49 591.526 L 1235.97 590.179 C 1235.91 577.816 1232.55 564.856 1224.92 554.939 C 1217.03 544.685 1207.36 542.06 1195.14 540.713 C 1205.68 531.708 1218.75 520.3 1232.84 518.317 z"/>
<path transform="translate(0,0)" fill="rgb(254,254,254)" d="M 1319.42 609.162 C 1330.15 608.585 1338.79 610.922 1347.15 618.102 C 1353.49 623.553 1359.02 631.557 1359.5 640.13 C 1360.33 654.625 1340.43 675.25 1330.89 685.54 C 1329.72 675.016 1327.38 664.34 1322.06 655.071 C 1314.07 641.142 1302.48 635.442 1287.71 631.233 C 1297.84 623.175 1307.67 614.772 1319.42 609.162 z"/>
<path transform="translate(0,0)" fill="rgb(254,254,254)" d="M 1183.95 554.28 C 1191.12 554.455 1197.56 555.438 1203.9 559.012 A 38.873 38.873 0 0 1 1222.3 583.292 C 1224.44 591.611 1223.96 600.628 1219.2 607.974 C 1213.58 616.656 1205.01 619.96 1195.36 621.993 C 1187.84 621.576 1180.95 619.77 1174.63 615.532 C 1165.16 609.186 1158.62 598.538 1156.84 587.311 C 1155.64 579.761 1156.96 571.988 1161.59 565.779 C 1167.27 558.173 1174.94 555.516 1183.95 554.28 z"/>
<path transform="translate(0,0)" fill="rgb(1,1,1)" d="M 1177.16 562.197 C 1182.05 561.782 1186.61 561.818 1191.33 563.359 C 1201.33 566.625 1209.84 574.374 1214.35 583.838 C 1217.3 590.05 1218.64 597.486 1216.11 604.073 C 1213.36 611.256 1207.73 614.578 1201.01 617.54 C 1195.29 618.119 1190.38 618.232 1184.88 616.347 C 1175.66 613.195 1168.39 606.294 1164.23 597.557 C 1160.97 590.717 1159.34 582.079 1162.35 574.859 C 1165.21 568.011 1170.48 564.666 1177.16 562.197 z"/>
<path transform="translate(0,0)" fill="rgb(254,254,254)" d="M 1175.9 579.408 C 1177.73 577.595 1179.72 575.695 1182.12 574.65 C 1187.32 572.386 1192.08 574.59 1196.87 576.744 L 1195.29 578.688 L 1188.26 578.933 L 1187.85 577.748 C 1183.56 577.446 1181.33 578.405 1177.93 581.131 L 1175.9 579.408 z"/>
<path transform="translate(0,0)" fill="rgb(239,247,221)" d="M 1196.87 576.744 C 1202.18 581.319 1205.55 586.113 1206.17 593.302 C 1206.5 597.006 1205.95 601.623 1203.19 604.408 C 1200.42 607.206 1196.95 608.352 1193.05 608.301 C 1187.25 608.225 1181.2 605.453 1177.38 601.079 C 1174.01 597.214 1172.5 592.345 1173.11 587.258 C 1173.43 584.574 1174.53 581.731 1175.9 579.408 L 1177.93 581.131 C 1177.57 582.391 1177.16 583.675 1177.05 584.989 C 1176.73 588.643 1178.41 593.053 1180.84 595.736 C 1183.54 598.711 1187.32 600.171 1191.29 600.344 C 1194.71 600.493 1198.47 599.304 1200.72 596.614 C 1202.19 594.847 1202.87 592.297 1202.46 590.021 C 1201.67 585.587 1198.52 581.626 1195.29 578.688 L 1196.87 576.744 z"/>
<path transform="translate(0,0)" fill="rgb(1,1,1)" d="M 1177.93 581.131 C 1181.33 578.405 1183.56 577.446 1187.85 577.748 L 1188.26 578.933 L 1195.29 578.688 C 1198.52 581.626 1201.67 585.587 1202.46 590.021 C 1202.87 592.297 1202.19 594.847 1200.72 596.614 C 1198.47 599.304 1194.71 600.493 1191.29 600.344 C 1187.32 600.171 1183.54 598.711 1180.84 595.736 C 1178.41 593.053 1176.73 588.643 1177.05 584.989 C 1177.16 583.675 1177.57 582.391 1177.93 581.131 z"/>
<path transform="translate(0,0)" fill="rgb(239,247,221)" d="M 1187.85 577.748 L 1188.26 578.933 C 1189.92 581.14 1191.5 583.432 1193.45 585.393 C 1195.09 588.16 1195.9 589.633 1195.68 592.999 C 1194.22 594.916 1193.71 595.827 1191.04 595.938 C 1188.34 596.05 1185.22 594.611 1183.4 592.636 C 1182.44 591.596 1181.74 590.272 1181.04 589.066 C 1181.01 588.607 1180.96 588.149 1180.96 587.689 C 1180.97 583.132 1184.78 580.6 1187.85 577.748 z"/>
<path transform="translate(0,0)" fill="rgb(254,254,254)" d="M 1221.22 613.801 C 1233.55 597.796 1252.87 586.588 1267.71 572.833 C 1287.88 554.143 1306.33 533.51 1326.36 514.675 C 1364.94 478.399 1405.92 444.514 1446.51 410.538 C 1460.88 398.508 1481.27 378.283 1498.09 370.738 C 1504.88 367.692 1504.79 363.271 1506.67 362.471 C 1507.64 370.456 1497.28 383.786 1492.94 390.321 C 1478.55 411.991 1461.29 431.725 1444.82 451.827 C 1417.2 485.549 1389.48 518.415 1359.03 549.668 C 1348.82 560.141 1338.59 571.81 1326.57 580.233 C 1321.29 583.928 1316.81 585.086 1310.62 586.33 C 1343.19 552.943 1374.13 518.164 1405.48 483.656 C 1438.67 447.113 1471.82 411.297 1501.42 371.662 C 1481.75 386.232 1463.91 402.362 1445.16 418.002 C 1399.87 455.786 1354.63 495.082 1311.98 535.863 C 1296.74 548.529 1284.32 562.933 1270.21 576.657 C 1252.63 586.992 1238.97 603.812 1221.22 613.801 z"/>
<path transform="translate(0,0)" fill="rgb(254,254,254)" d="M 1409.51 508.245 C 1425.78 524.021 1441.64 540.027 1452.72 560.013 C 1430.64 582.215 1407.32 603.159 1385.6 625.73 C 1384.25 621.767 1382.94 617.681 1381.18 613.88 C 1372.95 596.122 1359.21 587.075 1341.37 580.363 C 1362.49 555.254 1386.84 531.986 1409.51 508.245 z"/>
<path transform="translate(0,0)" fill="rgb(254,254,254)" d="M 1502.79 525.911 L 1503.75 527.096 C 1502.76 553.198 1499 579.431 1497 605.501 C 1495.18 629.179 1494.92 665.877 1489.55 688.006 L 1489.53 687.992 C 1475.01 700.841 1459.85 712.504 1443.27 722.585 C 1431.43 691.547 1414.4 657.21 1392.54 632.129 C 1385.25 638.917 1377.04 644.386 1368.72 649.81 C 1369.46 639.853 1368.4 632.626 1363.22 623.811 C 1357.33 613.794 1348.39 605.804 1337.09 602.75 C 1336.65 602.632 1336.21 602.524 1335.77 602.411 L 1336.2 600.993 C 1338.37 599.75 1339.9 599.475 1342.37 599.223 C 1348.01 601.852 1352.39 604.578 1357.13 608.61 C 1377.55 628.804 1367.24 638.276 1371.71 645.565 C 1389.88 635.192 1433.66 592.974 1451.39 576.566 C 1455.59 591.994 1459.54 607.371 1461.87 623.215 C 1465.16 645.596 1466.41 668.155 1470.41 690.458 C 1474.1 650.944 1464.56 611.463 1455.22 573.379 A 1574.62 1574.62 0 0 1 1502.79 525.911 z"/>
<path transform="translate(0,0)" fill="rgb(254,254,254)" d="M 1387.58 342.494 L 1388.86 342.231 L 1389.7 343.136 C 1386.18 347.746 1380.63 351.508 1376.13 355.204 C 1352.16 355.841 1328.06 358.596 1304.24 361.166 C 1274.25 364.402 1244.5 367.093 1215.47 375.81 C 1208.38 377.938 1190.36 382.549 1187.13 389.831 C 1186.46 391.353 1187.18 392.057 1187.74 393.492 C 1190.46 395.634 1192.94 396.801 1196.34 397.606 C 1210.68 401.013 1225.69 401.838 1240.16 405.282 C 1249.64 407.538 1285.74 419.345 1292.63 418.685 C 1294.58 418.498 1293.97 418.855 1294.96 417.698 C 1291.06 413.898 1283.58 411.979 1278.44 410.32 C 1266.61 406.501 1254.89 403.243 1242.72 400.774 C 1229.69 398.133 1202.61 396.149 1191.97 390.364 L 1192.03 388.728 C 1214.35 373.508 1329.65 365.331 1360.14 364.813 L 1362.53 364.57 L 1363.08 365.527 C 1355.77 375.639 1327.7 395.197 1316.45 405.041 A 1604.48 1604.48 0 0 0 1229.42 486.612 C 1215.62 472.931 1154.65 419.724 1151.29 407.273 C 1151.65 404.608 1152.19 403.029 1153.97 400.963 C 1158.98 395.17 1167.49 390.998 1174.18 387.428 C 1233.21 355.948 1321.3 347.418 1387.58 342.494 z"/>
<path transform="translate(0,0)" fill="rgb(254,254,254)" d="M 1696.56 175.333 C 1701.78 174.785 1708.9 173.37 1713.54 176.413 C 1715.98 178.016 1717.26 180.59 1717.89 183.353 C 1719.31 189.549 1717.88 196.964 1716.82 203.155 C 1708.61 250.99 1667.67 312.625 1638.62 351.809 C 1624.21 371.251 1607.11 389.505 1593.98 409.758 L 1593.16 411.024 C 1591.57 401.197 1588.88 391.499 1586.51 381.833 C 1594.66 366.362 1602.71 351.349 1605.87 333.955 C 1608.68 318.509 1607.23 302.561 1597.85 289.415 C 1590.21 278.704 1578.8 271.992 1565.83 270.038 C 1539.62 266.09 1509.33 282.957 1489.15 298.208 C 1504.74 299.546 1521.63 309.949 1533.57 319.711 C 1562.28 343.185 1581.63 382.911 1585.32 419.516 A 1494.35 1494.35 0 0 1 1456.59 556.295 C 1445.15 538.083 1430.8 515.974 1412.15 504.691 C 1444.56 465.298 1476.78 425.743 1504.12 382.592 L 1504.74 381.495 C 1508.13 375.359 1512.34 368.101 1510.33 360.951 C 1509.31 360.13 1508.69 359.219 1507.3 359.191 C 1492.7 358.898 1393.81 445.001 1375.54 460.356 C 1359.51 443.413 1341.86 423.94 1321.23 412.82 C 1336.36 430.714 1356.68 445.625 1373.61 462.009 C 1345.76 486.924 1318.1 511.753 1291.49 537.987 C 1288.97 528.275 1285.9 518.515 1279.66 510.472 C 1269.43 497.286 1254.42 492.755 1238.62 490.905 C 1255.83 470.41 1277.21 452.926 1297.02 435.03 C 1325.88 408.964 1355.56 384.747 1385.55 360.037 C 1448.39 308.268 1520.35 251.422 1592.04 212.911 C 1624.2 195.632 1660.34 180.608 1696.56 175.333 z"/>
<path transform="translate(0,0)" fill="rgb(1,1,1)" d="M 1599.12 214.159 C 1599.53 214.385 1599.94 214.623 1600.35 214.839 C 1604.81 217.136 1612.19 216.767 1617.22 217.857 C 1640.56 222.906 1655.14 239.435 1663.05 261.279 C 1666.51 270.828 1666.96 286.404 1672.09 293.995 C 1667.69 301.891 1662.37 309.457 1657.49 317.082 C 1660.06 307.973 1661.89 298.875 1661.77 289.366 C 1661.55 271.922 1654.28 253.521 1641.61 241.377 C 1624.19 224.664 1602.04 222.51 1579.11 223.148 C 1585.64 219.803 1592.35 216.991 1599.12 214.159 z"/>
<path transform="translate(0,0)" fill="rgb(46,31,44)" d="M 1599.12 214.159 C 1621.63 204.265 1682.3 175.554 1705.21 185.195 C 1708.13 186.424 1710.1 188.343 1711.08 191.374 C 1716.96 209.604 1683.1 276.645 1672.29 293.698 C 1672.23 293.799 1672.16 293.896 1672.09 293.995 C 1666.96 286.404 1666.51 270.828 1663.05 261.279 C 1655.14 239.435 1640.56 222.906 1617.22 217.857 C 1612.19 216.767 1604.81 217.136 1600.35 214.839 C 1599.94 214.623 1599.53 214.385 1599.12 214.159 z"/>
<path transform="translate(0,0)" fill="rgb(46,31,44)" d="M 1667.07 336.366 C 1667.37 336.571 1667.67 336.765 1667.96 336.982 C 1674.09 341.579 1679.69 347.952 1685.21 353.296 A 765.504 765.504 0 0 1 1745.06 417.279 A 951.947 951.947 0 0 1 1959.73 896.174 A 933.368 933.368 0 0 1 1778.74 1589.26 C 1669.16 1733.52 1512.98 1852.79 1342.38 1914.91 A 955.414 955.414 0 0 1 1153.59 1960.63 A 937.556 937.556 0 0 1 459.587 1781 A 960.581 960.581 0 0 1 85.8049 1143.22 C 80.7381 1106.01 78.9399 1067.72 78.6971 1030.19 A 940.998 940.998 0 0 1 276.129 449.215 A 956.027 956.027 0 0 1 787.444 108.172 C 822.645 98.7465 858.873 90.5771 895.015 85.7575 A 942.377 942.377 0 0 1 1350.56 135.634 C 1373.74 144.34 1396.25 155.093 1418.79 165.312 C 1458.28 183.213 1500.13 201.979 1534.7 228.47 A 2403.17 2403.17 0 0 1 1505.14 248.391 C 1499.55 252.897 1493.27 258.438 1486.83 261.622 A 3706.07 3706.07 0 0 0 1432.6 303.247 C 1421.51 311.931 1410.54 321.326 1398.96 329.332 C 1378.33 328.641 1356.53 331.794 1336.05 334.366 C 1284.77 340.808 1185.43 355.921 1147.3 391.008 C 1143.51 394.5 1137.33 401.607 1137.76 407.199 C 1138.22 413.034 1143.32 419.765 1146.98 424.202 C 1162.02 442.406 1181.67 457.967 1198.74 474.319 C 1205.14 480.444 1211.99 489.578 1219.3 494.298 C 1219.73 494.575 1220.16 494.838 1220.6 495.108 C 1220.26 498.348 1220.13 499.047 1217.59 501.09 C 1213.88 504.07 1210.12 505.446 1207.74 509.833 C 1207.6 511.799 1207.59 512.706 1208.13 514.652 C 1199.95 520.63 1172.74 540.855 1170.49 549.612 C 1169.32 550.576 1168.16 551.448 1166.94 552.357 C 1156.69 560.041 1153.05 570.255 1149.77 582.052 C 1149.4 583.361 1149.63 582.847 1148.94 583.915 C 1149.12 586.687 1149.21 589.509 1149.52 592.267 C 1152.84 598.903 1158.54 606.998 1160.43 613.996 C 1163 616.388 1165.49 618.897 1168.48 620.774 L 1170.03 621.17 C 1189.04 626.113 1195.39 627.736 1213.38 617.429 C 1219.02 619.941 1232.51 622.906 1235.15 627.965 C 1235.09 629.451 1235.13 631.048 1234.94 632.53 C 1236.2 638.682 1243.22 646.609 1243 651.845 L 1241.12 653.809 C 1241.74 657.184 1243.2 665.741 1241.45 668.754 C 1240.97 676.39 1240.82 683.293 1242.96 690.76 C 1248.45 699.35 1252.97 707.348 1260.99 714.029 C 1263.17 713.876 1263.32 713.798 1265.01 712.633 L 1266.96 714.193 L 1266.29 715.381 L 1265 715.262 L 1260.49 720.864 C 1260.86 720.827 1261.24 720.824 1261.61 720.755 C 1263.73 720.36 1265.06 719.246 1266.8 718.054 L 1270.5 718.068 C 1271.24 720.339 1268.69 720.385 1270.96 721.989 C 1274.61 718.607 1276.16 717.797 1281.1 717.504 C 1285.58 720.239 1291.45 719.904 1296.58 718.939 L 1297.13 717.871 L 1292.32 716.117 C 1296.58 716.524 1300.81 715.715 1305.03 715.153 C 1305.39 715.229 1305.74 715.389 1306.11 715.381 C 1313.62 715.229 1324.4 709.07 1329.18 703.541 L 1328.83 700.891 L 1329.56 700.381 L 1330.77 699.514 C 1340.74 692.5 1348.33 682.631 1358.11 675.606 C 1364.77 670.816 1373.93 668.42 1380.18 663.432 C 1384.13 660.279 1382.19 654.998 1389.68 649.04 L 1390.39 650.029 C 1410.63 677.39 1424.27 707.961 1434.81 740.093 C 1452.41 731.229 1469.67 720.906 1484.92 708.388 C 1491.02 703.383 1496.96 697.904 1500.71 690.85 C 1504.92 682.925 1507.61 673.381 1510.49 664.881 C 1523.53 626.332 1530.75 587.281 1539.29 547.616 C 1544.29 524.403 1551.22 500.162 1553.48 476.524 A 1543.07 1543.07 0 0 0 1636.39 378.592 L 1648.28 362.88 A 308.116 308.116 0 0 0 1667.07 336.366 z"/>
<path transform="translate(0,0)" fill="rgb(239,247,221)" d="M 1807.75 1208.32 C 1809.19 1208.9 1810.27 1209.64 1811.55 1210.49 C 1812.31 1213.44 1811.7 1214.32 1810.75 1217.15 C 1808.93 1216.63 1807.84 1215.95 1806.34 1214.82 C 1805.91 1212.02 1806.7 1210.9 1807.75 1208.32 z"/>
<path transform="translate(0,0)" fill="rgb(239,247,221)" d="M 1734.55 1207.47 C 1736.15 1207.88 1737.47 1208.48 1738.97 1209.15 C 1740.35 1211.78 1740.09 1212.7 1739.93 1215.6 C 1737.81 1215.29 1736.44 1214.85 1734.56 1213.83 C 1733.59 1211.16 1734.02 1210.2 1734.55 1207.47 z"/>
<path transform="translate(0,0)" fill="rgb(239,247,221)" d="M 1852.82 1112.25 C 1854.8 1112.64 1855.97 1113.27 1857.66 1114.37 C 1858.17 1117.28 1857.71 1117.8 1856.52 1120.55 C 1854.94 1120.06 1853.65 1119.38 1852.19 1118.63 C 1851.24 1115.99 1852.02 1114.89 1852.82 1112.25 z"/>
<path transform="translate(0,0)" fill="rgb(239,247,221)" d="M 1723.6 919.39 C 1725.63 919.895 1726.66 920.676 1728.27 921.99 C 1728.77 924.838 1728.26 925.383 1727.06 928.073 C 1725.07 927.552 1724.2 927.074 1722.52 925.979 C 1721.85 923.024 1722.53 922.163 1723.6 919.39 z"/>
<path transform="translate(0,0)" fill="rgb(239,247,221)" d="M 1711.74 597.675 C 1713.65 598.19 1714.85 598.895 1716.47 600.023 C 1717.18 602.917 1716.57 603.767 1715.61 606.524 C 1712.69 605.796 1711.91 605.834 1709.8 603.573 C 1709.58 600.911 1710.41 599.868 1711.74 597.675 z"/>
<path transform="translate(0,0)" fill="rgb(239,247,221)" d="M 1233.88 1136.83 C 1236.44 1138.28 1236.88 1138.43 1238.22 1141.01 C 1237.7 1144.22 1236.65 1145.09 1234.44 1147.27 C 1232.37 1145.71 1231.52 1144.75 1230.46 1142.38 C 1231.19 1139.49 1231.78 1139.01 1233.88 1136.83 z"/>
<path transform="translate(0,0)" fill="rgb(239,247,221)" d="M 1701.25 1162.35 C 1704.09 1162.46 1705.32 1162.61 1707.81 1164.2 C 1709.15 1166.93 1708.82 1168.26 1708.37 1171.15 C 1705.82 1171.13 1704.49 1170.92 1702.22 1169.72 C 1700.65 1167.09 1700.97 1165.25 1701.25 1162.35 z"/>
<path transform="translate(0,0)" fill="rgb(239,247,221)" d="M 1646.45 536.313 C 1649.13 536.532 1650.52 536.848 1652.81 538.284 C 1653.67 541.439 1653.08 542.47 1652.19 545.554 C 1649.65 545.226 1648.37 544.767 1646.24 543.339 C 1645.37 540.293 1645.76 539.333 1646.45 536.313 z"/>
<path transform="translate(0,0)" fill="rgb(254,254,254)" d="M 531.681 465.331 C 534.271 466.185 535.48 466.641 537.399 468.707 C 537.609 471.83 536.827 472.779 535.445 475.526 C 532.481 474.825 531.584 474.843 529.38 472.631 C 529.335 469.215 530.087 468.275 531.681 465.331 z"/>
<path transform="translate(0,0)" fill="rgb(239,247,221)" d="M 357.701 623.421 C 360.866 624.118 362.062 624.166 364.54 626.354 C 365.297 629.417 364.777 630.698 363.772 633.563 C 360.91 633.232 359.738 633.015 357.385 631.162 C 356.447 627.953 356.997 626.636 357.701 623.421 z"/>
<path transform="translate(0,0)" fill="rgb(239,247,221)" d="M 1311.92 1874.35 L 1315.24 1871.09 C 1318.63 1874.1 1322.86 1876.96 1324.24 1881.41 L 1323.48 1882.9 C 1317.54 1881.81 1315.58 1878.92 1311.92 1874.35 z"/>
<path transform="translate(0,0)" fill="rgb(239,247,221)" d="M 1410 1156.58 C 1410.89 1156.63 1412.21 1156.68 1413.05 1156.91 C 1415.47 1157.57 1416.09 1158.4 1417.45 1160.31 C 1417.8 1163.35 1416.96 1164.9 1415.63 1167.52 C 1415.18 1167.5 1414.72 1167.5 1414.26 1167.47 C 1410.85 1167.22 1409.62 1166.6 1407.5 1164.1 C 1407.17 1160.82 1408.35 1159.23 1410 1156.58 z"/>
<path transform="translate(0,0)" fill="rgb(239,247,221)" d="M 1301.18 1853.62 C 1305.71 1859.22 1311.43 1865.04 1315.24 1871.09 L 1311.92 1874.35 C 1306.62 1869.12 1301.78 1862.42 1297.57 1856.26 L 1301.18 1853.62 z"/>
<path transform="translate(0,0)" fill="rgb(239,247,221)" d="M 1767.9 1129.51 C 1770.15 1130.04 1772.58 1130.81 1774.25 1132.49 C 1775.99 1134.25 1776.71 1136.52 1776.3 1138.94 C 1775.79 1141.98 1773.46 1143.48 1771.19 1145.13 C 1769.27 1144.66 1767.17 1144.08 1765.54 1142.91 C 1763.58 1141.52 1762.7 1138.9 1762.92 1136.59 C 1763.21 1133.5 1765.77 1131.44 1767.9 1129.51 z"/>
<path transform="translate(0,0)" fill="rgb(254,254,254)" d="M 1037.96 535.739 C 1040.14 535.634 1042.91 535.413 1044.91 536.5 C 1046.98 537.627 1048.23 539.456 1048.38 541.825 C 1048.57 544.888 1046.68 547.619 1045.08 550.042 C 1042.91 550.109 1040.37 550.301 1038.44 549.063 C 1036.4 547.752 1035.1 546.058 1034.89 543.602 C 1034.63 540.478 1036.25 538.149 1037.96 535.739 z"/>
<path transform="translate(0,0)" fill="rgb(239,247,221)" d="M 1142.7 1360.85 C 1144.66 1360.78 1146.55 1360.69 1148.5 1361.07 C 1150.91 1361.54 1153.28 1362.63 1154.58 1364.83 C 1156.46 1368.02 1155.3 1371.28 1154.2 1374.47 C 1151.43 1374.89 1148.85 1375.3 1146.08 1374.48 C 1143.36 1373.67 1142.39 1371.93 1141.05 1369.64 C 1140.71 1366.01 1141.23 1364.16 1142.7 1360.85 z"/>
<path transform="translate(0,0)" fill="rgb(254,254,254)" d="M 1234.76 249.828 C 1237.17 250.026 1239.84 250.084 1241.95 251.405 A 6.80575 6.80575 0 0 1 1245.16 256.919 C 1245.3 261.428 1243.13 263.74 1240.18 266.755 C 1237.99 266.54 1235.72 266.416 1233.81 265.19 C 1231.83 263.916 1230.34 261.76 1230.1 259.398 C 1229.66 255.086 1231.96 252.637 1234.76 249.828 z"/>
<path transform="translate(0,0)" fill="rgb(239,247,221)" d="M 1729.14 1275.25 C 1742.7 1279.3 1758.73 1284.35 1771.18 1291.09 L 1769.52 1295.23 C 1755.82 1289.44 1742.07 1284.03 1727.97 1279.32 L 1729.14 1275.25 z"/>
<path transform="translate(0,0)" fill="rgb(254,254,254)" d="M 1687.95 816.755 C 1690.97 816.661 1694.9 816.276 1697.34 818.389 C 1699.2 820.008 1700.16 821.864 1700 824.361 C 1699.79 827.739 1697.6 830.058 1695.45 832.421 C 1692.72 832.547 1689.77 832.759 1687.46 830.988 C 1685.49 829.48 1684.52 827.534 1684.4 825.067 C 1684.25 821.732 1686.09 819.304 1687.95 816.755 z"/>
<path transform="translate(0,0)" fill="rgb(254,254,254)" d="M 891.198 231.956 C 894.617 231.849 898.133 231.656 900.906 234.094 C 902.825 235.78 903.853 237.821 903.776 240.409 C 903.682 243.59 901.76 245.631 899.755 247.836 C 899.318 247.933 898.884 248.048 898.443 248.126 C 895.282 248.68 891.546 248.725 889.003 246.401 C 887.185 244.739 886.508 242.527 886.672 240.114 C 886.904 236.682 889.02 234.382 891.198 231.956 z"/>
<path transform="translate(0,0)" fill="rgb(254,254,254)" d="M 576.663 662.838 C 579.584 662.993 582.754 663.359 585.132 665.233 C 587.098 666.782 588.313 669.094 588.23 671.62 C 588.095 675.756 585.67 678.14 582.907 680.826 C 580.202 680.944 577.141 680.652 574.87 679.02 C 572.643 677.418 571.744 675.268 571.574 672.603 C 571.307 668.388 573.919 665.579 576.663 662.838 z"/>
<path transform="translate(0,0)" fill="rgb(254,254,254)" d="M 253.102 903.848 C 256.925 904.57 259.919 905.137 262.192 908.695 C 263.861 911.309 264.093 914.038 263.109 916.96 C 261.798 920.854 259.317 922.174 255.862 923.913 C 255.678 923.875 255.495 923.834 255.31 923.8 C 254.504 923.649 253.695 923.515 252.895 923.338 C 249.776 922.647 247.23 921.393 245.731 918.363 C 244.538 915.952 244.211 913.867 245.106 911.276 C 246.546 907.11 249.413 905.676 253.102 903.848 z"/>
<path transform="translate(0,0)" fill="rgb(239,247,221)" d="M 1771.18 1291.09 C 1790.88 1299.65 1848.28 1332.29 1859.96 1349.19 L 1860.29 1351.06 L 1858.51 1351.86 C 1851.61 1347.77 1845.54 1341.6 1839.11 1336.73 C 1822.06 1323.81 1802.56 1310.18 1782.82 1301.8 L 1769.52 1295.23 L 1771.18 1291.09 z"/>
<path transform="translate(0,0)" fill="rgb(1,1,1)" d="M 1317.35 1836.64 C 1345.23 1840.15 1373.03 1837.9 1400.89 1839.85 C 1407.76 1840.28 1414.94 1839.83 1421.68 1841.06 L 1421.2 1843.32 C 1394.15 1847.39 1366.87 1842.52 1339.91 1845.11 C 1335.54 1845.22 1331.12 1844.74 1326.75 1844.44 L 1326.04 1843.97 C 1323.67 1844.11 1321.96 1843.58 1319.71 1842.95 C 1317.87 1841.03 1317.75 1839.15 1317.35 1836.64 z"/>
<path transform="translate(0,0)" fill="rgb(1,1,1)" d="M 1277.78 909.019 C 1280.92 908.797 1284.39 908.328 1287.49 908.936 C 1290.86 909.595 1294.58 911.915 1296.21 915.01 C 1297.54 917.531 1297.81 920.006 1297.11 922.751 C 1295.71 928.29 1291.26 931.439 1286.68 934.301 C 1284.39 934.877 1282.1 935.242 1279.73 935.16 C 1276.72 935.056 1273.92 933.61 1271.97 931.328 C 1269.46 928.403 1268.87 924.509 1269.44 920.796 C 1270.34 915.001 1273.2 912.346 1277.78 909.019 z"/>
<path transform="translate(0,0)" fill="rgb(254,254,254)" d="M 1281.79 912.966 C 1282.5 913.044 1283.2 913.154 1283.89 913.292 C 1287.54 914.015 1290.59 915.198 1292.42 918.741 C 1293.57 920.968 1293.66 923.353 1292.73 925.675 C 1291.19 929.515 1288.3 930.903 1284.76 932.392 C 1281.14 931.688 1277.69 930.891 1275.42 927.686 C 1273.97 925.641 1273.66 923.202 1274.37 920.817 C 1275.54 916.88 1278.54 915.027 1281.79 912.966 z"/>
<path transform="translate(0,0)" fill="rgb(239,247,221)" d="M 1399.88 1067.34 L 1401.24 1064.34 C 1427.18 1096.74 1457.25 1119.84 1499.76 1124.5 C 1509.12 1125.53 1519.39 1125.82 1528.72 1124.63 L 1534.08 1126.47 L 1534.15 1128.06 C 1522.46 1130.96 1509.71 1130.83 1497.82 1129.44 C 1458.06 1124.77 1425.16 1102.4 1400.92 1071.39 L 1399.88 1067.34 z"/>
<path transform="translate(0,0)" fill="rgb(239,247,221)" d="M 1242.64 1532.67 C 1245.34 1520.14 1250.58 1507.54 1255.57 1495.72 A 380.524 380.524 0 0 1 1337.98 1372.08 L 1337.02 1379.54 C 1296.77 1423.66 1265.89 1472.49 1247.92 1529.79 C 1247.78 1528.39 1246.36 1526.9 1246.54 1526.09 L 1246.98 1526.13 L 1246.12 1526.05 L 1243.99 1532.55 C 1243.54 1532.62 1243.06 1532.85 1242.64 1532.67 z"/>
<path transform="translate(0,0)" fill="rgb(1,1,1)" d="M 1205.52 1594.34 C 1212.51 1591.85 1220.73 1587.63 1228.24 1588.23 L 1229.94 1589.72 C 1230.11 1592.56 1229.67 1594.76 1229 1597.48 C 1198.58 1602.15 1140.82 1626.86 1115.21 1644.1 C 1106.56 1649.93 1098.67 1656.68 1092.42 1665.09 C 1085.96 1673.78 1081.24 1684.16 1082.74 1695.22 C 1084.86 1710.73 1097.43 1722.56 1109.52 1731.26 C 1127.01 1743.84 1148.41 1753.23 1169.03 1759.25 C 1177.16 1761.62 1185.74 1762.92 1193.69 1765.8 L 1192.81 1766.97 C 1174.3 1765.55 1150.43 1755.52 1134.05 1747.5 C 1126.76 1743.93 1119.87 1739.3 1112.51 1735.95 C 1103.64 1731.91 1098.31 1721.11 1090.12 1717.26 C 1090.5 1718.97 1090.75 1720.61 1090.94 1722.34 L 1089.53 1722.99 C 1086.52 1721.2 1083.95 1717.3 1082.09 1714.31 C 1077.91 1707.58 1082.64 1709.44 1083.47 1705.52 C 1084.64 1699.91 1079.36 1690.03 1082.3 1679.88 C 1090.51 1651.65 1125.77 1633.98 1150.31 1623.01 C 1156.44 1620.27 1163.09 1618.47 1169.01 1615.34 C 1170.39 1614.61 1171.67 1613.94 1173.14 1613.42 C 1173.57 1613.26 1174.01 1613.12 1174.44 1612.97 L 1174.02 1612.24 L 1175.47 1612.73 C 1180.57 1610.02 1187.52 1607.17 1193.25 1606.37 C 1195.19 1606.1 1196 1606.14 1197.46 1604.67 L 1197.03 1603.58 C 1194.75 1604.23 1193.24 1605.14 1190.95 1604.34 L 1191.1 1602.99 C 1192.98 1601.62 1194.64 1601.13 1196.85 1600.51 C 1197.15 1600.43 1199.65 1599.77 1200.03 1599.6 C 1205.15 1597.38 1210.49 1595.82 1215.73 1593.84 C 1213.27 1597.18 1209.57 1599.34 1206.21 1601.7 C 1212 1598.19 1220.69 1599.51 1225.73 1595.59 C 1227.97 1593.85 1228.1 1593.03 1228.76 1590.43 C 1221.99 1588.35 1213.69 1595.85 1206.8 1594.62 C 1206.37 1594.54 1205.95 1594.43 1205.52 1594.34 z"/>
<path transform="translate(0,0)" fill="rgb(239,247,221)" d="M 673.716 427.356 L 677.876 427.612 L 679.028 429.234 C 653.392 446.221 634.211 469.857 627.799 500.533 A 101.685 101.685 0 0 0 642.978 577.01 C 656.803 597.717 678.384 613.737 702.728 619.604 L 696.491 620.357 L 698.178 621.094 C 700.067 621.937 701.52 622.931 703.161 624.174 C 677.25 618.345 654.4 601.215 639.677 579.331 A 106.205 106.205 0 0 1 623.789 499.477 C 629.728 469.999 648.817 443.788 673.716 427.356 z"/>
<path transform="translate(0,0)" fill="rgb(254,254,254)" d="M 1480.08 1281.21 C 1557.39 1252.77 1650.87 1248.92 1729.14 1275.25 L 1727.97 1279.32 C 1663.06 1258.57 1598.25 1256.96 1531.91 1271.52 C 1516.01 1275.01 1499.33 1278.69 1484.15 1284.63 L 1480.08 1281.21 z"/>
<path transform="translate(0,0)" fill="rgb(239,247,221)" d="M 1349.63 1874.28 C 1341.95 1866.36 1330.72 1855.46 1325.49 1845.8 L 1326.75 1844.44 C 1331.12 1844.74 1335.54 1845.22 1339.91 1845.11 C 1356.15 1848.07 1395.83 1846.02 1414.79 1845.94 C 1393.07 1855.36 1371.64 1865.55 1349.63 1874.28 z"/>
<path transform="translate(0,0)" fill="rgb(251,216,120)" d="M 1067.24 238.533 C 1071.34 242.247 1074.73 273.444 1075.62 280.485 C 1088.09 282.837 1100.43 285.568 1112.49 289.549 C 1100.66 292.557 1088.53 294.57 1076.53 296.783 C 1074.25 307.137 1072.71 331.819 1068.72 339.456 L 1067.15 339.53 C 1062.96 326.117 1061 311.015 1058.09 297.205 C 1045.1 296.559 1031.87 293.876 1019.08 291.548 C 1031.14 286.649 1044.04 284.674 1056.37 280.574 C 1060.72 266.889 1063.7 252.467 1067.24 238.533 z"/>
<path transform="translate(0,0)" fill="rgb(254,254,254)" d="M 673.716 427.356 C 700.039 411.661 729.005 405.873 759.051 413.417 A 104.949 104.949 0 0 1 825.081 462.539 A 110.441 110.441 0 0 1 836.455 546.513 C 829.305 574.021 808.28 599.189 783.881 613.253 C 761.18 626.338 730.823 631.592 705.289 624.803 C 704.574 624.613 703.836 624.477 703.161 624.174 C 701.52 622.931 700.067 621.937 698.178 621.094 L 696.491 620.357 L 702.728 619.604 C 727.847 624.588 751.413 623.922 774.843 612.561 C 800.231 600.252 821.399 577.575 830.449 550.687 C 839.136 524.879 837.333 495.113 824.927 470.871 A 105.015 105.015 0 0 0 763.302 418.81 C 732.823 409.31 706.601 414.757 679.028 429.234 L 677.876 427.612 L 673.716 427.356 z"/>
<path transform="translate(0,0)" fill="rgb(239,247,221)" d="M 1038.82 1452.52 C 1043.37 1462.36 1046.24 1486.76 1048.48 1498.71 C 1063.38 1500.36 1085.39 1502.93 1099.35 1507.48 C 1094.62 1510.82 1056.92 1517.38 1047.34 1519.95 C 1046.95 1529.61 1041.64 1563.77 1038.56 1572.1 C 1036.08 1566.91 1028.2 1525.88 1027.65 1518.19 A 2718.26 2718.26 0 0 1 973.277 1507.89 C 982.031 1506.55 1019.85 1503.07 1025.29 1499.46 C 1033 1494.35 1036.38 1462.61 1038.82 1452.52 z"/>
<path transform="translate(0,0)" fill="rgb(254,254,254)" d="M 1237.3 1552.46 C 1238.39 1557.3 1231.38 1588.91 1230.82 1598.03 L 1229.93 1598.5 L 1229 1597.48 C 1229.67 1594.76 1230.11 1592.56 1229.94 1589.72 L 1228.24 1588.23 C 1220.73 1587.63 1212.51 1591.85 1205.52 1594.34 C 1167.76 1602.75 1100.63 1633.83 1079.7 1666.68 C 1072.83 1677.46 1069.69 1689.36 1072.49 1702.05 C 1076.92 1722.17 1094.46 1735.74 1111.07 1745.96 C 1158.14 1774.93 1211.38 1783.04 1264.46 1793.83 C 1272.76 1815.27 1287.32 1835.42 1301.18 1853.62 L 1297.57 1856.26 C 1282.33 1838.79 1270.51 1817.91 1259.58 1797.6 C 1214.77 1790.94 1166.13 1781.42 1125.68 1760.14 C 1103.33 1748.39 1075.72 1731.22 1068.3 1705.24 C 1064.69 1692.62 1067.28 1679.46 1073.57 1668.16 C 1100.63 1619.57 1180.38 1596.1 1231.09 1581.57 C 1232.89 1571.82 1234.54 1561.99 1237.3 1552.46 z"/>
<path transform="translate(0,0)" fill="rgb(254,254,254)" d="M 1442.17 875.748 C 1475.97 856.806 1509.33 852.219 1546.75 862.808 C 1584.15 873.393 1615.64 895.206 1634.58 929.678 C 1652.19 961.725 1655.73 996.003 1645.3 1031 C 1642.78 1039.46 1639.59 1047.68 1636.31 1055.87 C 1634.37 1059.12 1632.11 1062.41 1630.6 1065.89 C 1625.27 1073.14 1620.03 1080.66 1613.85 1087.21 C 1594.82 1107.37 1565.56 1123.68 1537.96 1127.63 A 50.8403 50.8403 0 0 1 1534.15 1128.06 L 1534.08 1126.47 L 1528.72 1124.63 C 1544.98 1122.65 1560.87 1117.16 1575.4 1109.7 C 1607.65 1093.14 1629.18 1065.34 1640.18 1031.03 C 1651 997.262 1646.53 963.326 1630.13 932.068 C 1613.06 899.528 1582.56 878.868 1548.05 868.257 C 1509.86 856.514 1479.6 861.313 1444.54 879.752 C 1412.92 899.772 1389.74 928.359 1381.44 965.431 C 1379.45 974.328 1377.58 985.477 1377.82 994.588 C 1377.93 998.814 1379.02 1002.67 1378.86 1006.96 L 1374.49 1009.23 A 126.607 126.607 0 0 1 1377.53 961.584 C 1387.09 924.943 1409.52 894.988 1442.17 875.748 z"/>
<path transform="translate(0,0)" fill="rgb(239,247,221)" d="M 1295.68 1799.98 C 1363.21 1808.87 1432.86 1809.13 1499.59 1794 C 1488.39 1802.62 1436.9 1834.64 1424.89 1838.16 C 1417.26 1840.4 1408.71 1838.72 1400.89 1839.85 C 1373.03 1837.9 1345.23 1840.15 1317.35 1836.64 C 1309.8 1824.35 1301.86 1813.11 1295.68 1799.98 z"/>
<path transform="translate(0,0)" fill="rgb(251,216,120)" d="M 1636.31 1055.87 C 1705.78 1039.53 1782.81 1018.12 1823.07 953.539 C 1838.67 928.5 1844.65 899.581 1837.91 870.646 C 1819.22 790.376 1722.44 719.528 1655.33 678.317 C 1645.76 672.437 1636.12 666.269 1626.17 661.048 C 1620.29 657.964 1613.63 655.529 1608.08 651.958 C 1605.97 650.607 1604.73 649.735 1603.21 647.724 L 1603.84 645.758 C 1606.84 644.367 1608.82 644.715 1611.91 645.876 C 1623.64 650.285 1639.65 660.573 1651.02 667.074 C 1718.69 705.764 1807.54 771.732 1838.48 844.65 C 1851.5 875.347 1853.92 907.178 1841.02 938.388 C 1820.51 988.017 1772.27 1020.42 1724.21 1040.04 C 1705.96 1047.49 1647.57 1066.98 1630.6 1065.89 C 1632.11 1062.41 1634.37 1059.12 1636.31 1055.87 z"/>
<path transform="translate(0,0)" fill="rgb(166,113,217)" d="M 893.162 939.845 C 924.677 915.667 954.218 888.422 985.02 863.252 A 5966.59 5966.59 0 0 1 1177.19 711.891 C 1191.17 701.277 1226.38 671.792 1240.75 666.492 L 1241.45 668.754 C 1240.97 676.39 1240.82 683.293 1242.96 690.76 C 1221.4 710.877 1196.95 728.187 1174.91 747.873 C 1154.77 765.859 1135.92 785.12 1116.74 804.095 L 1045.9 874.243 C 1016.26 903.928 981.089 935.873 954.768 967.944 C 934.107 958.862 913.83 948.934 893.162 939.845 z"/>
<path transform="translate(0,0)" fill="rgb(249,120,145)" d="M 1234.94 632.53 C 1236.2 638.682 1243.22 646.609 1243 651.845 L 1241.12 653.809 C 1233.08 658.029 1225.15 664.073 1217.63 669.233 C 1193.67 685.676 1170.69 703.676 1147.57 721.288 C 1103.82 754.629 1061.41 789.362 1018.28 823.466 A 2288.33 2288.33 0 0 0 931.315 894.547 C 914.935 908.439 898.179 922.105 883.007 937.332 C 861.19 927.199 840.183 915.397 818.171 905.646 A 4123.62 4123.62 0 0 1 1093.74 718.513 C 1140.47 689.36 1188.23 661.786 1234.94 632.53 z"/>
<path transform="translate(0,0)" fill="rgb(166,113,217)" d="M 1648.28 362.88 C 1667.06 377.048 1685.4 398.917 1701.76 416.358 C 1722.16 438.111 1739.69 460.858 1757.43 484.805 A 917.415 917.415 0 0 1 1928.7 909.681 A 885.174 885.174 0 0 1 1896.28 1289.16 C 1890.25 1284.75 1884.04 1280.47 1878.14 1275.89 C 1882.24 1257.84 1887.33 1240.05 1891.52 1222.03 A 876.39 876.39 0 0 0 1910.39 1112.87 C 1913.68 1082.4 1915.86 1051.01 1915.5 1020.35 C 1913.63 861.007 1862.61 689.308 1777.74 554.544 A 1039.64 1039.64 0 0 0 1681.89 427.317 C 1667.16 410.666 1651.21 395.15 1636.39 378.592 L 1648.28 362.88 z"/>
<path transform="translate(0,0)" fill="rgb(46,31,44)" d="M 679.028 429.234 C 706.601 414.757 732.823 409.31 763.302 418.81 A 105.015 105.015 0 0 1 824.927 470.871 C 837.333 495.113 839.136 524.879 830.449 550.687 C 821.399 577.575 800.231 600.252 774.843 612.561 C 751.413 623.922 727.847 624.588 702.728 619.604 C 678.384 613.737 656.803 597.717 642.978 577.01 A 101.685 101.685 0 0 1 627.799 500.533 C 634.211 469.857 653.392 446.221 679.028 429.234 z"/>
<path transform="translate(0,0)" fill="rgb(254,147,116)" d="M 727.332 425.41 C 748.348 424.146 769.28 429.316 786.375 441.827 A 93.0623 93.0623 0 0 1 823.108 503.709 C 826.903 529.811 820.725 553.042 804.829 574.001 C 787.138 597.328 765.794 607.13 737.251 611.015 C 712.796 612.084 691.149 607.426 671.685 591.759 C 652.515 576.328 640.47 555.006 637.878 530.536 C 635.098 504.303 642.87 479.807 659.555 459.456 C 677.042 438.127 700.306 427.942 727.332 425.41 z"/>
<path transform="translate(0,0)" fill="rgb(1,1,1)" d="M 766.942 563.076 C 769.003 562.975 771.13 563.005 773.177 563.302 C 776.48 563.782 779.575 565.778 781.511 568.491 C 783.382 571.113 783.996 574.259 783.302 577.418 C 782.215 582.368 778.825 584.956 774.772 587.558 C 772.818 587.684 770.681 587.857 768.75 587.43 C 765.609 586.736 762.522 584.243 760.834 581.559 C 759.008 578.656 758.561 575.03 759.373 571.719 C 760.465 567.262 763.197 565.358 766.942 563.076 z"/>
<path transform="translate(0,0)" fill="rgb(254,147,116)" d="M 768.765 568.533 C 770.212 568.885 772.251 569.2 773.531 569.934 C 775.952 571.324 776.198 572.45 777.051 574.902 C 776.525 578.458 775.346 579.854 772.94 582.462 C 771.694 582.136 770.101 581.832 768.937 581.211 C 766.617 579.974 765.984 578.371 765.135 576.039 C 765.42 572.513 766.487 571.174 768.765 568.533 z"/>
<path transform="translate(0,0)" fill="rgb(1,1,1)" d="M 673.913 542.14 C 676.002 542.446 678.036 542.856 679.963 543.762 C 683.41 545.381 686.335 548.899 687.465 552.522 A 11.5106 11.5106 0 0 1 686.517 561.48 C 684.311 565.452 680.97 566.712 676.847 568.063 C 675.552 567.8 674.283 567.505 673.036 567.06 C 669.084 565.65 665.883 562.87 664.264 558.944 C 662.803 555.403 662.933 552.132 664.698 548.697 C 666.6 544.999 670.15 543.307 673.913 542.14 z"/>
<path transform="translate(0,0)" fill="rgb(254,147,116)" d="M 672.966 547.359 C 674.556 547.8 676.527 548.323 677.907 549.282 C 680.274 550.927 681.017 552.255 681.675 554.987 C 680.988 558.719 680.222 559.443 677.883 562.295 C 675.945 562.118 673.274 561.553 671.753 560.23 C 669.95 558.661 668.857 557.006 668.839 554.55 C 668.816 551.304 670.831 549.419 672.966 547.359 z"/>
<path transform="translate(0,0)" fill="rgb(1,1,1)" d="M 801.346 514.942 C 803.581 515.003 805.303 515.074 807.457 515.785 C 810.575 516.814 813.308 519.576 814.737 522.468 A 13.1329 13.1329 0 0 1 815.198 532.811 C 813.56 537.289 810.361 539.383 806.18 541.236 C 804.933 541.155 803.682 541.069 802.448 540.87 C 798.934 540.303 795.474 538.165 793.445 535.219 C 791.513 532.413 791.213 528.92 792.042 525.67 C 793.401 520.344 796.903 517.743 801.346 514.942 z"/>
<path transform="translate(0,0)" fill="rgb(254,147,116)" d="M 799.879 521.789 C 801.385 521.761 803.596 521.528 805.02 521.963 C 807.749 522.797 808.182 523.842 809.416 526.144 C 809.412 529.745 808.47 531.64 806.731 534.753 C 805.232 534.81 803.224 534.961 801.8 534.403 C 799.681 533.573 798.174 531.793 797.63 529.605 C 796.895 526.654 798.462 524.202 799.879 521.789 z"/>
<path transform="translate(0,0)" fill="rgb(1,1,1)" d="M 716.052 567.889 C 717.447 567.754 719.1 567.502 720.519 567.609 C 724.636 567.919 728.221 570.059 730.744 573.28 C 733.112 576.301 734.14 580.125 733.414 583.914 C 732.507 588.639 729.769 590.914 725.863 593.342 C 724.015 593.509 722.179 593.7 720.323 593.53 C 716.419 593.171 713.147 591.452 710.692 588.376 C 708.418 585.526 707.611 581.997 708.275 578.434 C 709.239 573.266 711.927 570.841 716.052 567.889 z"/>
<path transform="translate(0,0)" fill="rgb(254,147,116)" d="M 719.873 572.852 C 722.275 573.584 724.705 574.314 726.363 576.378 C 727.991 578.404 728.465 580.383 727.981 582.919 C 727.407 585.926 724.594 587.498 722.268 589.077 C 720.166 588.316 717.842 587.325 716.309 585.624 C 714.639 583.771 713.932 581.647 714.429 579.183 C 714.998 576.362 717.743 574.493 719.873 572.852 z"/>
<path transform="translate(0,0)" fill="rgb(1,1,1)" d="M 727.866 505.917 C 730.386 505.942 733.277 506.179 735.626 507.143 C 739.82 508.863 743.249 512.734 744.808 516.947 C 746.109 520.462 745.906 524.253 744.16 527.572 C 742.071 531.541 739.149 532.863 735.035 534.152 C 733.355 534.06 731.637 533.971 729.982 533.648 A 14.6692 14.6692 0 0 1 720.345 527.155 C 718.266 523.983 717.46 520.184 718.466 516.49 C 719.909 511.187 723.237 508.472 727.866 505.917 z"/>
<path transform="translate(0,0)" fill="rgb(254,147,116)" d="M 729.752 510.767 C 733.125 511.77 735.973 512.437 738.102 515.49 C 739.588 517.621 740.021 519.941 739.255 522.435 C 738.292 525.574 736.009 526.995 733.438 528.679 C 731.168 528.069 728.666 527.529 726.801 526.017 C 724.996 524.554 723.762 522.195 723.855 519.848 C 724.02 515.686 726.865 513.282 729.752 510.767 z"/>
<path transform="translate(0,0)" fill="rgb(1,1,1)" d="M 763.155 455.961 C 765.442 455.981 767.538 456.011 769.735 456.719 A 16.68 16.68 0 0 1 779.661 465.593 A 15.9442 15.9442 0 0 1 779.597 478.761 C 777.149 484.07 772.956 486.23 767.662 488.011 C 765.105 488.035 762.599 488.045 760.135 487.267 C 756.083 485.989 752.591 483.214 750.867 479.278 C 749.077 475.19 749.334 470.646 751.107 466.593 C 753.593 460.908 757.689 458.374 763.155 455.961 z"/>
<path transform="translate(0,0)" fill="rgb(254,147,116)" d="M 763.955 461.981 C 767.835 462.832 771.304 463.653 773.668 467.2 C 775.204 469.505 775.305 471.76 774.608 474.368 C 773.487 478.569 769.568 480.695 766.01 482.533 C 762.162 481.622 758.704 480.718 756.526 477.05 C 755.199 474.815 755.134 472.63 755.748 470.167 C 756.798 465.955 760.379 463.824 763.955 461.981 z"/>
<path transform="translate(0,0)" fill="rgb(1,1,1)" d="M 686.961 448.094 C 690.194 447.731 693.521 447.364 696.743 447.971 C 701.8 448.924 706.55 451.657 709.369 456.039 C 712.122 460.319 712.671 465.605 711.392 470.474 C 709.477 477.77 704.991 481.841 698.771 485.589 C 696.315 486.157 693.938 486.666 691.402 486.404 A 17.7878 17.7878 0 0 1 678.824 478.986 C 675.176 473.894 674.202 467.486 675.588 461.444 C 677.134 454.703 681.291 451.521 686.961 448.094 z"/>
<path transform="translate(0,0)" fill="rgb(254,147,116)" d="M 689.843 453.99 C 690.597 453.974 691.352 453.99 692.105 454.023 C 696.46 454.214 700.59 455.309 703.499 458.792 C 705.526 461.219 706.075 464.289 705.592 467.338 C 704.699 472.978 700.622 476.3 696.333 479.567 C 694.844 479.72 693.431 479.836 691.942 479.577 C 688.223 478.93 684.79 476.917 682.744 473.687 C 680.749 470.539 680.307 466.563 681.327 463.003 C 682.655 458.368 685.811 456.202 689.843 453.99 z"/>
<path transform="translate(0,0)" fill="url(#Gradient1)" d="M 1242.64 1532.67 C 1243.06 1532.85 1243.54 1532.62 1243.99 1532.55 L 1246.12 1526.05 L 1246.98 1526.13 L 1246.54 1526.09 C 1246.36 1526.9 1247.78 1528.39 1247.92 1529.79 A 307.749 307.749 0 0 0 1236.89 1579.44 C 1235.51 1589.59 1235.33 1600.46 1232.93 1610.34 L 1232.94 1611.41 C 1232.99 1630.64 1230.74 1648.87 1232.55 1668.3 C 1233.71 1680.79 1239.06 1698.21 1239.05 1709.48 C 1239.18 1711.6 1239.28 1713.5 1239.86 1715.55 C 1328.01 1730.88 1439.72 1725.48 1528.84 1714.73 C 1560.43 1710.92 1591.83 1706.83 1622.64 1698.61 C 1620.62 1703.46 1612.79 1709.05 1608.19 1711.2 C 1607.89 1711.34 1607.57 1711.45 1607.25 1711.58 C 1604.02 1715.31 1599.67 1716.44 1596.55 1719.64 C 1589.64 1729.43 1549.66 1760.01 1538.33 1765.75 C 1531.95 1768.98 1524.45 1770.45 1517.45 1771.65 A 843.822 843.822 0 0 1 1193.69 1765.8 C 1185.74 1762.92 1177.16 1761.62 1169.03 1759.25 C 1148.41 1753.23 1127.01 1743.84 1109.52 1731.26 C 1097.43 1722.56 1084.86 1710.73 1082.74 1695.22 C 1081.24 1684.16 1085.96 1673.78 1092.42 1665.09 C 1098.67 1656.68 1106.56 1649.93 1115.21 1644.1 C 1140.82 1626.86 1198.58 1602.15 1229 1597.48 L 1229.93 1598.5 L 1230.82 1598.03 C 1231.38 1588.91 1238.39 1557.3 1237.3 1552.46 C 1238.03 1545.96 1240.14 1538.73 1242.64 1532.67 z"/>
<path transform="translate(0,0)" fill="rgb(1,1,1)" d="M 1186.68 1735.34 C 1188.23 1735.42 1190.63 1735.38 1192.02 1736.01 C 1194.23 1737.01 1195.7 1738.43 1196.2 1740.87 C 1196.78 1743.71 1195.11 1746.49 1193.83 1748.89 C 1192.81 1748.84 1191.14 1748.89 1190.13 1748.53 C 1187.39 1747.57 1186.84 1746.77 1185.34 1744.48 C 1184.85 1740.87 1185.48 1738.74 1186.68 1735.34 z"/>
<path transform="translate(0,0)" fill="rgb(1,1,1)" d="M 1123.75 1651.53 C 1125.17 1651.65 1127.16 1651.65 1128.48 1652.17 C 1131.09 1653.19 1131.45 1654.16 1132.59 1656.49 C 1132.37 1660.02 1131.09 1661.59 1129.03 1664.27 C 1127.52 1664.55 1126.14 1664.57 1124.6 1664.6 C 1122.34 1663.15 1121.55 1662.89 1120.98 1660.06 C 1120.38 1657.03 1122.2 1653.95 1123.75 1651.53 z"/>
<path transform="translate(0,0)" fill="rgb(1,1,1)" d="M 1312.01 1755.67 C 1313.96 1755.56 1316.11 1755.64 1317.97 1756.28 C 1320.39 1757.11 1321.27 1759.21 1322.17 1761.34 C 1321.87 1764.3 1321.5 1765.46 1319.6 1767.76 C 1317.89 1767.65 1315.57 1767.7 1313.97 1767.14 C 1311.37 1766.21 1310.83 1765.31 1309.52 1763.1 C 1309.36 1759.81 1310.34 1758.33 1312.01 1755.67 z"/>
<path transform="translate(0,0)" fill="rgb(1,1,1)" d="M 1150.72 1719.85 C 1151.99 1720.33 1153.65 1720.84 1154.79 1721.64 C 1156.68 1722.95 1157.99 1725.14 1158.04 1727.45 C 1158.11 1730.56 1155.97 1732.62 1154 1734.69 C 1152.08 1734.02 1149.57 1733.22 1148.09 1731.78 C 1146.18 1729.93 1146.12 1728.57 1145.92 1726.13 C 1146.98 1723.11 1148.39 1721.86 1150.72 1719.85 z"/>
<path transform="translate(0,0)" fill="rgb(1,1,1)" d="M 1103.52 1679.61 C 1105.37 1679.89 1107.74 1680.33 1109.24 1681.52 C 1111.52 1683.34 1111.63 1684.81 1111.96 1687.46 C 1110.7 1690.69 1109.92 1691.05 1107.25 1693.1 C 1105.63 1692.7 1103.26 1692.3 1101.87 1691.34 C 1099.52 1689.72 1099.37 1688.17 1098.98 1685.62 C 1099.94 1682.63 1101.2 1681.53 1103.52 1679.61 z"/>
<path transform="translate(0,0)" fill="rgb(1,1,1)" d="M 1119.88 1702.47 C 1121.96 1702.98 1124.91 1703.98 1126.38 1705.7 C 1128.22 1707.84 1128.15 1708.79 1128.16 1711.44 C 1126.81 1714.4 1125.6 1714.98 1122.9 1716.54 C 1121.58 1716.05 1119.77 1715.54 1118.62 1714.72 C 1116.35 1713.08 1116.07 1712.09 1115.36 1709.57 C 1116.03 1706.12 1117.47 1704.8 1119.88 1702.47 z"/>
<path transform="translate(0,0)" fill="rgb(1,1,1)" d="M 1261.55 1750.69 C 1263.15 1750.63 1264.93 1750.49 1266.52 1750.75 C 1269.24 1751.19 1270.38 1752.4 1272.09 1754.4 C 1272.8 1757.81 1272.12 1759.45 1270.81 1762.49 C 1269.14 1762.79 1267.14 1763.26 1265.46 1763.1 C 1262.91 1762.86 1261.82 1761.4 1260.44 1759.49 C 1259.82 1755.93 1260.29 1754.06 1261.55 1750.69 z"/>
<path transform="translate(0,0)" fill="rgb(1,1,1)" d="M 1223.59 1743.48 C 1225.16 1743.7 1227.42 1743.78 1228.83 1744.47 C 1231.49 1745.76 1231.76 1746.84 1232.72 1749.4 C 1232.34 1752.92 1231.06 1754.61 1228.94 1757.39 C 1227.52 1757.23 1225.36 1757.18 1224.08 1756.58 C 1221.69 1755.47 1221.38 1754.25 1220.47 1752.01 C 1220.69 1748.36 1221.65 1746.54 1223.59 1743.48 z"/>
<path transform="translate(0,0)" fill="rgb(1,1,1)" d="M 1375.93 1754.35 C 1377.44 1755.09 1379.24 1755.83 1380.52 1756.92 C 1382.74 1758.8 1382.92 1760.71 1383.2 1763.42 C 1382.12 1766.68 1380.8 1767.89 1378.15 1770.02 C 1377.08 1769.67 1374.93 1769.14 1373.97 1768.42 C 1371.5 1766.57 1371.46 1765.41 1370.98 1762.58 C 1371.99 1758.94 1373.41 1757.13 1375.93 1754.35 z"/>
<path transform="translate(0,0)" fill="rgb(1,1,1)" d="M 1502.65 1746.78 C 1504.42 1746.84 1506.79 1746.73 1508.48 1747.29 C 1511.13 1748.17 1512.05 1749.5 1513.3 1751.87 C 1513.67 1755.47 1513.05 1757.27 1511.53 1760.53 C 1509.3 1760.92 1507.48 1760.77 1505.24 1760.51 C 1503.75 1759.49 1502.52 1759.08 1501.78 1757.36 C 1500.17 1753.61 1501.35 1750.38 1502.65 1746.78 z"/>
<path transform="translate(0,0)" fill="rgb(1,1,1)" d="M 1437.74 1754.55 C 1439.55 1754.68 1441.39 1754.72 1443.05 1755.53 C 1444.78 1756.37 1446.38 1758.25 1446.66 1760.17 C 1447.24 1764.28 1445.11 1766.92 1442.65 1769.86 C 1440.74 1769.76 1438.44 1769.54 1436.83 1768.37 C 1435.52 1767.41 1434.71 1766.11 1434.42 1764.54 C 1433.65 1760.35 1435.38 1757.75 1437.74 1754.55 z"/>
<path transform="translate(0,0)" fill="rgb(1,1,1)" d="M 1596.55 1719.64 C 1582.44 1723.79 1566.8 1725.24 1552.23 1727.15 A 1520.87 1520.87 0 0 1 1430.22 1737.48 C 1364.75 1740.21 1200.27 1744.2 1151.58 1697.69 C 1144.26 1690.7 1140.27 1682 1140.2 1671.83 C 1140.11 1659.88 1145.13 1649.48 1153.41 1641.05 C 1170.03 1624.14 1193.28 1614.36 1215.36 1606.9 C 1219.34 1605.55 1224.46 1603.19 1228.59 1603.15 L 1228.56 1610.84 C 1205.7 1615.36 1167.52 1632.73 1154.04 1652.5 C 1149.24 1659.55 1146.11 1668.24 1147.91 1676.81 C 1150.03 1686.85 1157.97 1694.14 1166.4 1699.26 C 1240.35 1744.2 1429.2 1732.98 1517.62 1723.59 C 1547.59 1720.4 1577.36 1714.5 1607.25 1711.58 C 1604.02 1715.31 1599.67 1716.44 1596.55 1719.64 z"/>
<path transform="translate(0,0)" fill="rgb(254,254,254)" d="M 1232.93 1610.34 L 1232.94 1611.41 C 1232.99 1630.64 1230.74 1648.87 1232.55 1668.3 C 1233.71 1680.79 1239.06 1698.21 1239.05 1709.48 C 1239.18 1711.6 1239.28 1713.5 1239.86 1715.55 C 1328.01 1730.88 1439.72 1725.48 1528.84 1714.73 C 1560.43 1710.92 1591.83 1706.83 1622.64 1698.61 C 1620.62 1703.46 1612.79 1709.05 1608.19 1711.2 C 1607.89 1711.34 1607.57 1711.45 1607.25 1711.58 C 1577.36 1714.5 1547.59 1720.4 1517.62 1723.59 C 1429.2 1732.98 1240.35 1744.2 1166.4 1699.26 C 1157.97 1694.14 1150.03 1686.85 1147.91 1676.81 C 1146.11 1668.24 1149.24 1659.55 1154.04 1652.5 C 1167.52 1632.73 1205.7 1615.36 1228.56 1610.84 L 1232.93 1610.34 z"/>
<path transform="translate(0,0)" fill="rgb(1,1,1)" d="M 1239.86 1715.55 C 1224.82 1712.3 1209.24 1709.38 1194.83 1703.89 C 1183.92 1699.73 1171.41 1693.53 1166.66 1682.16 C 1163.61 1674.83 1164.43 1666.4 1167.44 1659.2 C 1175.73 1639.4 1195.64 1629.5 1214.07 1621.46 C 1218.58 1619.5 1221.41 1618.63 1223.26 1613.92 C 1224.93 1614.42 1225.76 1614.97 1226.53 1616.67 C 1227.58 1618.98 1227.38 1621.09 1226.62 1623.4 C 1223.72 1626.87 1214.53 1628.89 1210.12 1631.1 C 1196.2 1638.1 1178.13 1650.08 1173.44 1665.81 C 1171.89 1670.99 1172.33 1676.15 1175.13 1680.83 C 1185.9 1698.8 1220.21 1704.99 1239.05 1709.48 C 1239.18 1711.6 1239.28 1713.5 1239.86 1715.55 z"/>
<path transform="translate(0,0)" fill="rgb(46,31,44)" d="M 1225.79 1626.05 C 1227.51 1629.66 1226.75 1656.9 1227.32 1664.24 C 1228.33 1677.16 1230.38 1689.88 1232.55 1702.64 C 1220.42 1699.82 1209.01 1696.58 1197.57 1691.61 C 1193.07 1689.44 1188.41 1687.04 1184.66 1683.7 C 1180.96 1680.41 1178.19 1676.24 1178.25 1671.14 C 1178.5 1649.42 1212.36 1639 1225.03 1626.82 C 1225.29 1626.57 1225.53 1626.31 1225.79 1626.05 z"/>
<path transform="translate(0,0)" fill="rgb(166,113,217)" d="M 255.116 1508.88 A 1084.78 1084.78 0 0 1 168.833 1332.72 C 159.242 1307.45 151.584 1281.68 144.326 1255.66 C 138.532 1234.9 132.346 1214.1 128.043 1192.96 C 90.5413 1008.75 117.596 815.958 194.431 645.299 C 211.647 607.062 232.46 571.304 255.217 536.155 A 919.391 919.391 0 0 1 594.423 220.929 C 628.175 202.642 662.353 185.894 698.306 172.332 A 921.552 921.552 0 0 1 1354.39 172.433 C 1388.94 185.991 1424.38 201.842 1456.95 219.731 C 1472.75 228.407 1487.88 240.828 1504.16 247.982 C 1504.49 248.123 1504.81 248.255 1505.14 248.391 C 1499.55 252.897 1493.27 258.438 1486.83 261.622 C 1460.34 248.59 1435.08 232.935 1408.51 219.823 C 1355.55 193.68 1299.02 174.597 1241.84 160.1 A 887.539 887.539 0 0 0 578.16 254.202 A 903.269 903.269 0 0 0 161.31 803.98 A 883.661 883.661 0 0 0 203.992 1367.08 C 223.287 1411.93 247.456 1453.87 272.413 1495.72 A 1015.29 1015.29 0 0 1 255.116 1508.88 z"/>
<path transform="translate(0,0)" fill="rgb(1,1,1)" d="M 1444.54 879.752 C 1479.6 861.313 1509.86 856.514 1548.05 868.257 C 1582.56 878.868 1613.06 899.528 1630.13 932.068 C 1646.53 963.326 1651 997.262 1640.18 1031.03 C 1629.18 1065.34 1607.65 1093.14 1575.4 1109.7 C 1560.87 1117.16 1544.98 1122.65 1528.72 1124.63 C 1519.39 1125.82 1509.12 1125.53 1499.76 1124.5 C 1457.25 1119.84 1427.18 1096.74 1401.24 1064.34 L 1399.88 1067.34 C 1398.18 1064.35 1396.91 1062.91 1394.18 1060.8 C 1391.53 1057.54 1389.54 1054.2 1387.53 1050.52 C 1381.18 1037.45 1377.34 1023.42 1374.49 1009.23 L 1378.86 1006.96 C 1379.02 1002.67 1377.93 998.814 1377.82 994.588 C 1377.58 985.477 1379.45 974.328 1381.44 965.431 C 1389.74 928.359 1412.92 899.772 1444.54 879.752 z"/>
<path transform="translate(0,0)" fill="rgb(239,247,221)" d="M 1392.55 1049.16 C 1395.37 1054.21 1398.04 1059.53 1401.24 1064.34 L 1399.88 1067.34 C 1398.18 1064.35 1396.91 1062.91 1394.18 1060.8 C 1391.53 1057.54 1389.54 1054.2 1387.53 1050.52 L 1392.55 1049.16 z"/>
<path transform="translate(0,0)" fill="rgb(239,247,221)" d="M 1374.49 1009.23 L 1378.86 1006.96 C 1382.04 1021.63 1386.26 1035.49 1392.55 1049.16 L 1387.53 1050.52 C 1381.18 1037.45 1377.34 1023.42 1374.49 1009.23 z"/>
<path transform="translate(0,0)" fill="rgb(249,120,145)" d="M 1497.83 872.398 A 103.098 103.098 0 0 1 1551.46 881.424 A 2086.09 2086.09 0 0 1 1511.88 882.9 C 1492.97 882.925 1474.01 884.25 1455.12 883.205 C 1469.4 877.669 1482.53 873.809 1497.83 872.398 z"/>
<path transform="translate(0,0)" fill="rgb(249,120,145)" d="M 1592.18 1081.7 L 1596.35 1081.39 L 1596.53 1082.72 C 1585.48 1097.04 1547.41 1110.29 1529.4 1112.57 C 1514.22 1114.48 1496.22 1114.2 1481.37 1110.39 C 1475.32 1108.83 1468.44 1105.08 1462.39 1104.32 C 1460.02 1103.17 1457.74 1101.95 1455.44 1100.67 C 1463.29 1098.68 1487.78 1099.6 1497.58 1099.1 C 1528.74 1097.51 1562.62 1091.77 1592.18 1081.7 z"/>
<path transform="translate(0,0)" fill="rgb(249,120,145)" d="M 1633.14 974.975 L 1634.59 975.671 C 1635.01 976.934 1635.76 978.685 1635.78 980.001 C 1635.81 981.506 1635.7 982.839 1634.44 983.723 C 1626.71 989.129 1613.92 990.987 1604.78 993.581 C 1540.06 1011.94 1457.22 1020.16 1390.61 1010.09 L 1389.17 996.375 C 1463.06 1013.76 1562.52 1001.17 1633.14 974.975 z"/>
<path transform="translate(0,0)" fill="rgb(249,120,145)" d="M 1558.45 886.401 C 1565.38 885.891 1579.07 895.305 1585.3 898.861 C 1547.51 915.176 1495.48 914.973 1454.82 910.729 C 1445.25 909.674 1436.01 907.221 1426.76 904.634 C 1432.96 898.904 1439.77 893.837 1446.41 888.648 C 1478.56 891.306 1526.89 891.519 1558.45 886.401 z"/>
<path transform="translate(0,0)" fill="rgb(249,120,145)" d="M 1590.61 903.967 C 1590.9 903.967 1591.19 903.924 1591.47 903.967 C 1595.91 904.631 1601.45 911.581 1604.5 914.845 C 1604.15 915.078 1603.8 915.315 1603.45 915.544 C 1561.91 942.322 1470.11 940.788 1421.6 930.719 L 1408.33 927.628 L 1420.92 910.396 C 1470.47 924.798 1542.8 923.098 1590.61 903.967 z"/>
<path transform="translate(0,0)" fill="rgb(249,120,145)" d="M 1633.29 990.068 L 1635.15 991.019 C 1636.49 995.664 1636 1000.54 1635.88 1005.33 C 1622.07 1015.18 1602.5 1019.37 1586.18 1023.39 C 1521.76 1039.27 1464.07 1043.35 1398.22 1034.25 C 1394.34 1029.51 1393.33 1021.99 1391.87 1016.14 C 1454.78 1023.57 1522.09 1019.12 1583.62 1004.5 C 1600.38 1000.52 1616.85 995.169 1633.29 990.068 z"/>
<path transform="translate(0,0)" fill="rgb(249,120,145)" d="M 1421.62 1072.99 C 1442 1073.19 1462.55 1073.66 1482.9 1072.46 C 1530.94 1069.64 1576.31 1059.3 1622.81 1047.62 C 1618.11 1056.43 1612.43 1064.81 1606.36 1072.72 L 1597.08 1074.49 C 1595.37 1076.85 1593.74 1079.22 1592.18 1081.7 C 1562.62 1091.77 1528.74 1097.51 1497.58 1099.1 C 1487.78 1099.6 1463.29 1098.68 1455.44 1100.67 C 1457.74 1101.95 1460.02 1103.17 1462.39 1104.32 C 1460.38 1104.45 1458.42 1104.35 1456.42 1104.28 C 1454.42 1103.34 1453.55 1102.56 1452.36 1100.76 C 1450.97 1098.68 1449.51 1096.78 1447.91 1094.86 C 1438.04 1091.06 1428.89 1080.39 1421.62 1072.99 z"/>
<path transform="translate(0,0)" fill="url(#Gradient2)" d="M 1447.91 1094.86 C 1478.38 1095.17 1509.06 1093.62 1539.08 1088.16 C 1558.55 1084.62 1577.87 1079.24 1597.08 1074.49 C 1595.37 1076.85 1593.74 1079.22 1592.18 1081.7 C 1562.62 1091.77 1528.74 1097.51 1497.58 1099.1 C 1487.78 1099.6 1463.29 1098.68 1455.44 1100.67 C 1457.74 1101.95 1460.02 1103.17 1462.39 1104.32 C 1460.38 1104.45 1458.42 1104.35 1456.42 1104.28 C 1454.42 1103.34 1453.55 1102.56 1452.36 1100.76 C 1450.97 1098.68 1449.51 1096.78 1447.91 1094.86 z"/>
<path transform="translate(0,0)" fill="rgb(249,120,145)" d="M 1631.64 1016 L 1632.48 1016.72 C 1633.11 1023.89 1628.14 1034.26 1625.62 1040.95 C 1603.66 1046.94 1581.73 1053.27 1559.42 1057.81 C 1512.25 1067.38 1465.81 1068.89 1417.85 1067.73 C 1414.92 1064.72 1412.52 1061.42 1410.03 1058.05 C 1407 1052.61 1404.25 1046.98 1401.4 1041.44 C 1475.71 1051.48 1561.97 1045.11 1631.64 1016 z"/>
<path transform="translate(0,0)" fill="rgb(249,120,145)" d="M 1625.31 948.92 L 1626.68 949.619 C 1629.63 955.383 1631.22 961.657 1633.04 967.845 C 1616.87 975.175 1599.51 979.472 1582.29 983.543 C 1519.81 998.315 1452.34 1003.86 1389.02 990.779 C 1388.73 980.83 1390.54 971.221 1392.65 961.544 C 1397.26 963.558 1402.01 965.144 1406.81 966.614 C 1474.89 987.443 1561.99 982.27 1625.31 948.92 z"/>
<path transform="translate(0,0)" fill="rgb(249,120,145)" d="M 1608.41 920.819 L 1610.25 921.471 C 1615.82 927.442 1619.55 933.912 1622.93 941.298 C 1558.55 977.35 1481.07 978.48 1410.99 960.377 C 1405.61 958.676 1400.31 956.729 1394.99 954.832 C 1397.88 946.86 1402.15 939.333 1406.02 931.803 C 1408.96 933.039 1411.91 934.273 1414.93 935.298 C 1451.82 947.836 1523.05 946.583 1560.48 938.245 C 1577.46 934.465 1592.83 928.4 1608.41 920.819 z"/>
<path transform="translate(0,0)" fill="rgb(251,216,120)" d="M 1008.26 981.81 C 1029.33 954.792 1052.88 929.559 1076.08 904.373 A 4653.2 4653.2 0 0 1 1208.12 767.365 C 1214.91 760.513 1256.28 716.932 1261.69 715.277 C 1262.74 714.954 1263.9 715.267 1265 715.262 L 1260.49 720.864 C 1260.86 720.827 1261.24 720.824 1261.61 720.755 C 1263.73 720.36 1265.06 719.246 1266.8 718.054 L 1270.5 718.068 C 1271.24 720.339 1268.69 720.385 1270.96 721.989 C 1274.61 718.607 1276.16 717.797 1281.1 717.504 C 1281.61 719.852 1281.8 719.745 1280.51 721.75 C 1270.7 736.969 1256.47 751.253 1245.06 765.504 C 1222.21 794.056 1199.87 823.253 1177.52 852.23 C 1153.89 882.883 1130.6 913.439 1108.49 945.216 C 1095.65 963.653 1084.12 983.297 1070.75 1001.29 A 1438.31 1438.31 0 0 0 1329.77 1055.74 C 1350.42 1058.17 1373.41 1061.79 1394.18 1060.8 C 1396.91 1062.91 1398.18 1064.35 1399.88 1067.34 L 1400.92 1071.39 C 1387.18 1073 1370.48 1070.24 1356.7 1069.16 C 1256.9 1061.31 1160.44 1037.45 1064.21 1011.4 A 2821.9 2821.9 0 0 0 994.867 1137.39 C 1021.83 1147.52 1050.02 1155.32 1077.61 1163.57 C 1130.63 1179.42 1183.4 1194.27 1237.29 1206.95 A 2117.8 2117.8 0 0 0 1297.75 1220.08 C 1309.06 1222.29 1321.84 1222.95 1332.55 1227.13 C 1335.91 1228.44 1338.97 1229.96 1340.48 1233.39 C 1339.74 1234.94 1339.94 1235.19 1338.28 1236 C 1323.96 1242.98 1121.28 1188.46 1095.07 1180.73 C 1060.04 1170.39 1025.65 1157.86 990.73 1147.12 C 917.283 1302.65 865.896 1485.25 919.121 1655.2 A 392.705 392.705 0 0 0 1093.02 1875.72 C 1119.22 1891.59 1146.94 1903.44 1174 1917.57 C 1154.58 1919.38 1134.89 1921.3 1115.61 1924.23 A 883.895 883.895 0 0 1 1092.92 1913.34 C 1076.56 1905.1 1060.11 1896.68 1044.69 1886.74 A 398.611 398.611 0 0 1 881.682 1673.11 C 836.729 1535.85 863.67 1381.87 914.868 1250.25 C 929.792 1211.88 947.691 1174.79 966.276 1138.09 C 947.79 1130.8 928.847 1124.82 910.483 1117.19 C 898.35 1135.8 883.523 1153.06 870.844 1171.44 C 832.866 1226.48 797.897 1285.33 772.868 1347.49 C 731.654 1449.83 712.801 1567.53 757.822 1672.16 C 799.725 1769.55 890.882 1842.7 983.354 1889.72 C 1010.88 1903.71 1039.52 1915.06 1068.19 1926.45 C 1057.71 1927.04 1048.21 1926.82 1038.01 1924.13 C 1024.52 1920.58 1011.37 1913.73 998.832 1907.68 C 947.932 1883.11 897.681 1853 854.965 1815.78 C 777.722 1748.47 729.551 1664.78 722.74 1561.38 C 714.629 1438.27 768.338 1312.68 833.058 1210.82 C 860.81 1167.15 891.887 1126.37 923.667 1085.64 C 948.858 1053.35 973.768 1020.94 1000.76 990.118 C 990.095 985.651 979.407 981.233 969.033 976.106 C 966.365 974.788 964.558 974.357 963.579 971.45 L 964.69 969.662 C 972.629 967.711 999.205 978.867 1008.26 981.81 z"/>
<path transform="translate(0,0)" fill="rgb(46,31,44)" d="M 1260.49 720.864 C 1260.86 720.827 1261.24 720.824 1261.61 720.755 C 1263.73 720.36 1265.06 719.246 1266.8 718.054 L 1270.5 718.068 C 1271.24 720.339 1268.69 720.385 1270.96 721.989 C 1266.79 727.42 1261.33 732.462 1256.68 737.551 A 1703.35 1703.35 0 0 0 1225.51 772.217 C 1199.3 802.712 1172.1 832.447 1146.28 863.269 C 1114.36 901.372 1075.72 953.352 1049.74 995.432 C 1039.13 991.969 1028.43 988.683 1018.11 984.412 C 1037.29 964.808 1054.8 943.286 1073.47 923.149 C 1111.58 882.068 1150.32 841.62 1187.99 800.124 C 1203.95 782.549 1219.4 764.525 1235.4 746.974 C 1243.44 738.147 1251.45 728.67 1260.49 720.864 z"/>
<path transform="translate(0,0)" fill="rgb(46,31,44)" d="M 1011.51 994.678 C 1022.31 998.191 1033 1002.1 1043.72 1005.87 C 1016.31 1044.22 991.318 1086.67 970.523 1128.95 L 956.041 1123.94 C 942.824 1119.38 929.52 1114.24 915.946 1110.89 C 927.421 1094.67 940.381 1079.2 952.83 1063.72 C 971.757 1040.18 990.726 1016.63 1011.51 994.678 z"/>
<path transform="translate(0,0)" fill="rgb(251,216,120)" d="M 644.342 840.416 C 628.955 828.144 612.638 817.098 597.045 805.099 C 566.119 781.301 535.448 754.621 509.885 725.029 C 460.273 667.599 433.356 599.843 438.856 523.24 C 443.235 462.249 469.417 393.875 516.574 353.521 C 569.132 308.544 640.045 304.459 705.968 309.421 C 800.883 316.564 895.124 345.891 980.468 387.279 C 987.525 390.701 1008.63 399.043 1012.49 404.287 C 1013.95 406.269 1014.29 408.218 1013.82 410.605 C 1007.56 413.778 996.236 406.387 990.378 403.43 C 887.449 351.474 729.107 301.983 612.801 321.307 C 563.605 329.481 522.61 354.072 493.559 394.722 C 454.422 449.482 440.562 523.238 451.892 589.08 C 471.086 700.625 571.316 774.983 657.35 836.129 C 673.079 829.57 687.989 820.308 703.022 812.3 L 783.626 770.035 A 11726.1 11726.1 0 0 1 1051.72 632.286 A 6916.87 6916.87 0 0 1 1122.24 597.719 C 1131.2 593.297 1139.84 587.989 1148.94 583.915 C 1149.12 586.687 1149.21 589.509 1149.52 592.267 C 1152.84 598.903 1158.54 606.998 1160.43 613.996 C 1163 616.388 1165.49 618.897 1168.48 620.774 C 1144.05 633.54 1120.47 647.936 1096.68 661.834 L 986.288 727.07 A 7625.45 7625.45 0 0 0 855.2 806.324 A 3352.59 3352.59 0 0 0 709.958 903.315 C 670.21 931.023 626.274 958.6 589.779 990.243 A 1727.77 1727.77 0 0 0 629.382 1014.96 C 637.09 1019.63 645.462 1024.02 652.769 1029.26 L 646.623 1034.78 C 623.769 1023.58 602.589 1009.24 579.718 998.06 C 553.422 1015.7 528.878 1036.59 504.028 1056.23 A 2540.18 2540.18 0 0 0 299.792 1236.33 C 271.305 1264.38 243.515 1292.25 217.295 1322.48 L 212.429 1311.99 C 231.677 1288.69 254.006 1267.24 275.227 1245.75 C 366.646 1153.17 467.588 1070.98 570.23 991.297 C 552.405 977.582 531.227 966.403 512.032 954.59 C 434.035 1007.03 355.768 1059.23 280.497 1115.56 A 3237.43 3237.43 0 0 0 215.608 1166.37 C 200.069 1179.08 184.858 1192.47 168.706 1204.39 A 1228.94 1228.94 0 0 1 157.462 1145.35 C 177.977 1131.11 197.357 1115 217.729 1100.47 A 2685.41 2685.41 0 0 1 385.944 988.009 C 416.941 968.739 448.184 949.535 480.489 932.514 C 455.697 916.633 432.232 897.296 408.892 879.343 C 362.22 843.445 310.264 802.794 267.884 762.15 C 264.271 758.685 260.211 754.219 260.123 748.963 L 261.484 747.753 C 272.284 747.552 294.51 772.765 303.115 780.562 C 335.389 809.807 369.223 836.729 403.712 863.278 C 432.216 885.22 460.909 907.103 491.435 926.187 C 513.583 914.474 535.11 901.211 556.835 888.717 A 2408.75 2408.75 0 0 1 644.342 840.416 z"/>
<path transform="translate(0,0)" fill="rgb(46,31,44)" d="M 675.973 856.144 A 1462.95 1462.95 0 0 0 720.64 882.446 C 685.487 906.338 651.719 931.956 617.297 956.857 C 607.831 963.704 590.16 978.527 580.872 982.594 C 578.547 983.613 576.537 981.883 574.534 980.857 A 392.83 392.83 0 0 1 523.791 948.738 C 574.859 918.568 625.4 887.163 675.973 856.144 z"/>
<path transform="translate(0,0)" fill="rgb(46,31,44)" d="M 1149.52 592.267 C 1152.84 598.903 1158.54 606.998 1160.43 613.996 C 1113.14 641.596 1064.92 667.512 1017.87 695.531 C 1003.28 704.222 989.131 713.608 974.62 722.422 C 932.151 748.217 889.383 773.396 847.288 799.836 C 807.819 824.626 769.13 850.552 729.972 875.811 C 715.236 868.497 701.19 859.561 687.058 851.141 C 809.826 777.797 935.726 710.091 1060.9 640.99 C 1073.56 634.001 1144.74 599.826 1149.52 592.267 z"/>
<path transform="translate(0,0)" fill="rgb(249,120,145)" d="M 811.053 909.721 C 832.251 921.43 853.261 932.452 875.422 942.249 C 837.948 971.227 803.196 1004.32 768.954 1036.99 C 650.014 1150.46 506.099 1312.13 484.335 1481.39 C 472.187 1575.85 496.485 1665.21 554.849 1740.32 C 589.457 1784.86 632.225 1820.97 680.553 1850 C 698.357 1860.69 718.025 1869.42 735.033 1881.26 A 975.14 975.14 0 0 1 372.939 1651.36 C 362.502 1640.67 336.984 1616.35 331.427 1604.32 C 327.003 1594.75 325.648 1582.44 323.896 1572.05 C 313.795 1512.13 323.719 1453.37 345.789 1397.32 C 389.239 1286.96 493.433 1176.37 578.304 1095.37 C 592.84 1081.49 608.375 1068.66 623.594 1055.55 C 631.292 1048.92 639.773 1042.28 646.623 1034.78 L 652.769 1029.26 C 672.463 1017.28 690.927 1000.54 709.132 986.265 C 742.616 960.011 776.12 934.043 811.053 909.721 z"/>
<path transform="translate(0,0)" fill="rgb(166,113,217)" d="M 884.66 946.703 C 900.556 956.63 926.976 965.637 944.978 973.323 C 936.551 983.52 926.593 992.726 917.435 1002.3 A 1106.56 1106.56 0 0 0 872.278 1052.18 C 765.4 1179.59 663.877 1339.91 659.85 1511.4 C 659.215 1538.44 660.018 1565.74 664.336 1592.48 C 683.15 1708.99 758.474 1802.78 852.536 1869.86 C 876.105 1886.67 900.093 1901.5 925.703 1914.96 C 930.107 1917.28 935.978 1919.49 939.422 1923.11 L 939.036 1923.82 C 911.085 1923.94 880.617 1916.18 853.55 1909.71 C 756.507 1890.38 639.074 1816.13 575.465 1740.54 C 517.646 1671.84 491.536 1587.27 499.278 1497.9 C 504.361 1439.22 523.171 1383.47 549.917 1331.2 C 573.108 1285.88 602.236 1245.03 633.385 1204.9 A 1690.96 1690.96 0 0 1 884.66 946.703 z"/>
<path transform="translate(0,0)" fill="url(#Gradient3)" d="M 1484.15 1284.63 C 1499.33 1278.69 1516.01 1275.01 1531.91 1271.52 C 1598.25 1256.96 1663.06 1258.57 1727.97 1279.32 C 1742.07 1284.03 1755.82 1289.44 1769.52 1295.23 L 1782.82 1301.8 C 1786.25 1307.85 1851.36 1341.7 1855.89 1354.15 C 1856.58 1356.04 1855.51 1359.83 1854.97 1361.69 C 1851.75 1372.89 1845.96 1381.21 1840.64 1391.33 L 1839.02 1391.87 L 1838.81 1392.24 C 1839.02 1390.05 1839.33 1387.9 1839.19 1385.7 C 1822.54 1428.51 1806.7 1472.93 1780.63 1511.2 C 1776.81 1516.82 1768.09 1518.51 1764.86 1523.35 C 1766.58 1523.31 1768.28 1523.25 1770 1523.17 C 1768.53 1525.91 1768.4 1526.35 1768.56 1529.46 C 1769.02 1531.89 1766.81 1534.12 1765.43 1536.15 A 884.282 884.282 0 0 1 1648.8 1675.41 C 1643.75 1680.31 1634.07 1691.67 1627.26 1693.02 C 1626.25 1693.22 1625.22 1693.31 1624.2 1693.43 L 1625.79 1694.68 C 1624.86 1696.69 1624.26 1697.19 1622.64 1698.61 C 1591.83 1706.83 1560.43 1710.92 1528.84 1714.73 C 1439.72 1725.48 1328.01 1730.88 1239.86 1715.55 C 1239.28 1713.5 1239.18 1711.6 1239.05 1709.48 C 1239.06 1698.21 1233.71 1680.79 1232.55 1668.3 C 1230.74 1648.87 1232.99 1630.64 1232.94 1611.41 L 1232.93 1610.34 C 1235.33 1600.46 1235.51 1589.59 1236.89 1579.44 A 307.749 307.749 0 0 1 1247.92 1529.79 C 1265.89 1472.49 1296.77 1423.66 1337.02 1379.54 L 1337.98 1372.08 C 1350.53 1360.19 1365.59 1343.52 1380.93 1335.64 C 1397.07 1318.04 1449.01 1293.57 1472.37 1284.18 L 1480.08 1281.21 L 1484.15 1284.63 z"/>
<path transform="translate(0,0)" fill="rgb(239,247,221)" d="M 1472.37 1284.18 L 1480.08 1281.21 L 1484.15 1284.63 L 1471.09 1289.4 L 1470.72 1288.56 C 1471.05 1288.25 1471.34 1287.9 1471.7 1287.63 C 1472.21 1287.24 1472.77 1286.92 1473.31 1286.57 L 1472.37 1284.18 z"/>
<path transform="translate(0,0)" fill="rgb(239,247,221)" d="M 1380.93 1335.64 C 1383.01 1334.71 1384.92 1333.92 1387.13 1333.32 L 1388.84 1334.38 C 1370.67 1348.52 1353.11 1363.02 1337.02 1379.54 L 1337.98 1372.08 C 1350.53 1360.19 1365.59 1343.52 1380.93 1335.64 z"/>
<path transform="translate(0,0)" fill="rgb(239,247,221)" d="M 1472.37 1284.18 L 1473.31 1286.57 C 1472.77 1286.92 1472.21 1287.24 1471.7 1287.63 C 1471.34 1287.9 1471.05 1288.25 1470.72 1288.56 L 1471.09 1289.4 C 1454.8 1297.62 1437.89 1304.48 1421.99 1313.49 C 1411.68 1319.33 1399.14 1330.1 1388.84 1334.38 L 1387.13 1333.32 C 1384.92 1333.92 1383.01 1334.71 1380.93 1335.64 C 1397.07 1318.04 1449.01 1293.57 1472.37 1284.18 z"/>
<path transform="translate(0,0)" fill="rgb(239,247,221)" d="M 1330.96 1426.89 A 451.814 451.814 0 0 1 1351.57 1403 A 358.925 358.925 0 0 1 1522.81 1299.69 C 1539.49 1295.21 1556.39 1291.4 1573.7 1290.7 C 1555.77 1309.03 1537.2 1325.88 1516.7 1341.34 C 1472.71 1374.5 1386.01 1424.9 1331.94 1426.88 C 1331.61 1426.89 1331.28 1426.89 1330.96 1426.89 z"/>
<path transform="translate(0,0)" fill="rgb(239,247,221)" d="M 1488.02 1546.28 A 100.726 100.726 0 0 1 1493.9 1545.81 C 1504.52 1545.32 1518.36 1546.53 1526.36 1554.2 C 1529.3 1557.02 1531.2 1560.7 1531.21 1564.83 C 1531.23 1570.66 1527.54 1575.91 1523.66 1579.94 C 1494.44 1610.27 1426.09 1604.78 1404.31 1627.8 C 1400.33 1632.01 1397.91 1638.46 1398.26 1644.26 C 1398.5 1648.17 1400.27 1651.47 1403.3 1653.94 C 1422.91 1669.93 1464.84 1654.09 1486.95 1651.86 C 1496.95 1650.85 1507.53 1651.89 1515.48 1658.66 C 1517.81 1660.64 1520.05 1663.03 1519.93 1666.33 C 1519.83 1669.13 1518 1671.73 1516.1 1673.66 C 1497.86 1692.19 1428.86 1704.43 1402.45 1709.96 C 1390.94 1712.37 1379.28 1715.74 1367.65 1717.3 C 1360.84 1718.21 1353.81 1718.07 1346.94 1718.05 A 744.437 744.437 0 0 1 1263.84 1713.64 C 1258.01 1695.29 1256.95 1675.01 1254.87 1655.93 A 213.157 213.157 0 0 0 1267.55 1655.72 C 1276.94 1655.34 1331.05 1653.63 1335.34 1648.98 L 1334.68 1646.81 C 1332.9 1645.47 1332.09 1644.62 1329.79 1644.43 C 1323.1 1643.91 1313.87 1646.13 1306.98 1646.74 A 776.763 776.763 0 0 1 1254.92 1649.85 C 1254.62 1627.05 1257.8 1604.77 1261.46 1582.34 C 1313.9 1581.01 1365.57 1576.19 1416.86 1564.74 C 1440.2 1559.53 1463.23 1550.9 1486.6 1546.54 L 1488.02 1546.28 z"/>
<path transform="translate(0,0)" fill="rgb(239,247,221)" d="M 1682.71 1295.17 C 1739.5 1305.98 1796.5 1333.22 1839.06 1372.59 C 1832.1 1379.06 1798.14 1411.42 1796.79 1417.81 L 1797.93 1419.23 C 1810.45 1419 1828.31 1384.75 1839.18 1383.62 L 1839.19 1385.7 C 1822.54 1428.51 1806.7 1472.93 1780.63 1511.2 C 1776.81 1516.82 1768.09 1518.51 1764.86 1523.35 C 1766.58 1523.31 1768.28 1523.25 1770 1523.17 C 1768.53 1525.91 1768.4 1526.35 1768.56 1529.46 C 1769.02 1531.89 1766.81 1534.12 1765.43 1536.15 A 884.282 884.282 0 0 1 1648.8 1675.41 C 1643.75 1680.31 1634.07 1691.67 1627.26 1693.02 C 1626.25 1693.22 1625.22 1693.31 1624.2 1693.43 C 1609.76 1695.72 1595.48 1699.38 1581.01 1701.78 C 1519.73 1711.95 1449.84 1721.01 1387.9 1719.03 C 1424.32 1711.9 1479.09 1703.79 1511.11 1685.48 C 1517.36 1681.9 1525.53 1676.48 1527.16 1669.01 C 1528.02 1665.09 1526.62 1661.21 1524.31 1658.05 C 1502.67 1628.45 1450.52 1658.78 1419.91 1653.52 C 1414.59 1652.6 1409.42 1650.53 1406.37 1645.83 C 1404.94 1643.64 1404.23 1641.12 1405.03 1638.55 C 1409.98 1622.53 1463.84 1613.57 1478.93 1609.3 C 1490.84 1605.92 1503.11 1601.95 1513.99 1595.95 C 1527.56 1588.45 1535.29 1578.46 1539.53 1563.66 C 1538.04 1559.28 1536.52 1555.26 1533.73 1551.53 C 1523.92 1538.4 1507.71 1539.89 1493.28 1537.87 C 1514.23 1527.87 1545.94 1520.86 1569 1513.76 C 1622.17 1497.38 1705.41 1462.97 1741.89 1420.12 C 1752.34 1407.85 1760.37 1392.58 1758.57 1375.96 C 1755.16 1344.59 1718.34 1331.4 1691.88 1325.8 C 1679.47 1323.18 1659.79 1322.22 1649.87 1314.55 C 1649.33 1313.19 1648.6 1312.49 1649.26 1311.04 C 1652.71 1303.53 1675.03 1297.9 1682.71 1295.17 z"/>
<path transform="translate(0,0)" fill="rgb(1,1,1)" d="M 1764.86 1523.35 C 1766.58 1523.31 1768.28 1523.25 1770 1523.17 C 1768.53 1525.91 1768.4 1526.35 1768.56 1529.46 C 1761.46 1531.66 1753.33 1538.62 1746.63 1542.33 C 1731.95 1550.46 1676.27 1577.51 1661.7 1575.48 L 1660.7 1574.01 C 1663.73 1567.97 1677.76 1565.06 1683.89 1562.91 C 1716.08 1551.64 1735.46 1538.72 1764.86 1523.35 z"/>
<path transform="translate(0,0)" fill="rgb(239,247,221)" d="M 1584.14 1289.23 C 1609.15 1285.15 1641.61 1287.76 1666.55 1292.65 C 1658.12 1296.04 1643.59 1300.41 1640.16 1309.7 C 1639.24 1312.18 1639.69 1314.25 1640.98 1316.47 C 1652.37 1336.08 1760.72 1326.91 1751.82 1385.75 C 1748.17 1409.89 1725.24 1429.34 1706.53 1442.54 C 1644.34 1486.44 1571.53 1505.86 1499.76 1527.05 C 1492.57 1529.17 1491.51 1533.24 1486.22 1537.22 C 1481.59 1540.7 1473.46 1542.58 1467.94 1544.31 C 1399.69 1565.63 1333.67 1572.58 1262.71 1576.42 C 1266.13 1560.37 1271.27 1528.49 1281.28 1516.25 C 1283.1 1515.71 1284.4 1515.49 1286.29 1515.59 C 1285.23 1514.79 1284.54 1513.72 1283.72 1512.67 C 1286.26 1510.48 1289.82 1512.22 1292.93 1510.85 C 1293.21 1510.72 1293.47 1510.53 1293.74 1510.37 L 1282.49 1510.41 A 379.582 379.582 0 0 1 1324.86 1434.23 C 1325.67 1431.14 1326.77 1428.69 1329.21 1426.57 L 1330.96 1426.89 C 1331.28 1426.89 1331.61 1426.89 1331.94 1426.88 C 1386.01 1424.9 1472.71 1374.5 1516.7 1341.34 C 1537.2 1325.88 1555.77 1309.03 1573.7 1290.7 C 1577.43 1289.28 1580.17 1289.03 1584.14 1289.23 z"/>
<path transform="translate(0,0)" fill="rgb(1,1,1)" d="M 1573.7 1290.7 C 1577.43 1289.28 1580.17 1289.03 1584.14 1289.23 C 1549.83 1335.23 1455.68 1393.1 1403.05 1414.88 C 1383.76 1422.87 1362.41 1429.37 1341.74 1432.43 C 1336.16 1433.25 1330.48 1433.82 1324.86 1434.23 C 1325.67 1431.14 1326.77 1428.69 1329.21 1426.57 L 1330.96 1426.89 C 1331.28 1426.89 1331.61 1426.89 1331.94 1426.88 C 1386.01 1424.9 1472.71 1374.5 1516.7 1341.34 C 1537.2 1325.88 1555.77 1309.03 1573.7 1290.7 z"/>
<path transform="translate(0,0)" fill="rgb(1,1,1)" d="M 1293.74 1510.37 C 1320.17 1509.84 1346.38 1509.09 1372.59 1505.44 C 1443.88 1495.51 1598.86 1456.16 1649.09 1404.53 C 1653.94 1399.54 1659.06 1392.78 1658.95 1385.46 C 1658.87 1379.89 1655.84 1375.32 1651.81 1371.7 C 1631.05 1353.06 1592.44 1351.51 1565.91 1351.44 C 1560.25 1351.43 1552.68 1353.04 1547.36 1352.28 C 1545.41 1352 1544.39 1350.58 1543.43 1349.11 L 1543.7 1347.45 C 1552.11 1341.47 1597.48 1346.29 1609.18 1348.23 C 1624.33 1350.74 1652.76 1358.63 1661.62 1371.9 C 1665.43 1377.6 1666.35 1384.62 1664.61 1391.2 C 1659.11 1412.05 1629.77 1429.45 1612.27 1438.98 C 1528.98 1484.34 1381.77 1521.84 1286.29 1515.59 C 1285.23 1514.79 1284.54 1513.72 1283.72 1512.67 C 1286.26 1510.48 1289.82 1512.22 1292.93 1510.85 C 1293.21 1510.72 1293.47 1510.53 1293.74 1510.37 z"/>
</svg>
