<?xml version="1.0" encoding="UTF-8"?>
<svg width="400px" height="400px" viewBox="0 0 400 400" xmlns="http://www.w3.org/2000/svg">
  <!-- Book base -->
  <rect x="100" y="100" width="200" height="200" rx="10" fill="#6366f1" />
  
  <!-- Book pages -->
  <path d="M110,110 L290,110 C295.523,110 300,114.477 300,120 L300,280 C300,285.523 295.523,290 290,290 L110,290 C104.477,290 100,285.523 100,280 L100,120 C100,114.477 104.477,110 110,110 Z" fill="#f5f5f5" />
  
  <!-- Book spine -->
  <rect x="90" y="110" width="20" height="180" rx="5" fill="#4f46e5" />
  
  <!-- Decoration lines on pages -->
  <line x1="120" y1="140" x2="260" y2="140" stroke="#e5e7eb" stroke-width="2" />
  <line x1="120" y1="160" x2="280" y2="160" stroke="#e5e7eb" stroke-width="2" />
  <line x1="120" y1="180" x2="240" y2="180" stroke="#e5e7eb" stroke-width="2" />
  <line x1="120" y1="200" x2="270" y2="200" stroke="#e5e7eb" stroke-width="2" />
  <line x1="120" y1="220" x2="250" y2="220" stroke="#e5e7eb" stroke-width="2" />
  <line x1="120" y1="240" x2="280" y2="240" stroke="#e5e7eb" stroke-width="2" />
  <line x1="120" y1="260" x2="230" y2="260" stroke="#e5e7eb" stroke-width="2" />
  
  <!-- Star decoration -->
  <polygon points="200,80 210,100 235,105 218,120 222,145 200,133 178,145 182,120 165,105 190,100" fill="#fbbf24" />
  
  <!-- Plant sprout decoration -->
  <path d="M200,320 Q170,300 200,280 Q230,300 200,320 Z" fill="#10b981" />
  <rect x="195" y="320" width="10" height="30" fill="#10b981" />
  
  <!-- Small child silhouette -->
  <circle cx="160" cy="200" r="15" fill="#ec4899" />
  <rect x="155" y="215" width="10" height="20" fill="#ec4899" />
  <line x1="165" y1="225" x2="175" y2="235" stroke="#ec4899" stroke-width="5" stroke-linecap="round" />
  <line x1="155" y1="225" x2="145" y2="235" stroke="#ec4899" stroke-width="5" stroke-linecap="round" />
  
  <!-- Small pet silhouette (dog) -->
  <circle cx="240" cy="210" r="12" fill="#fb923c" />
  <ellipse cx="255" cy="210" width="25" height="15" fill="#fb923c" />
  <rect x="253" y="210" width="4" height="15" fill="#fb923c" />
  <rect x="258" y="210" width="4" height="15" fill="#fb923c" />
  
  <!-- Text: Tales Together -->
  <text x="200" y="350" font-family="Arial" font-size="18" text-anchor="middle" fill="#4f46e5" font-weight="bold">Tales Together</text>
</svg>