<svg xmlns="http://www.w3.org/2000/svg" width="1024" height="1024" style="display:block" viewBox="0 0 2048 2048"><defs><linearGradient id="a" x1="165.906" x2="144.784" y1="1278.98" y2="1289.13" gradientUnits="userSpaceOnUse"><stop class="stop0" offset="0" stop-color="#220800"/><stop class="stop1" offset="1" stop-color="#4B2118"/></linearGradient></defs><path fill="#FEFEFD" d="M0 0h2048v2048H0z"/><path fill="#2F190F" d="M111.768 1242.3c-2.464-.29-4.619-.82-6.964-1.66-7.782-2.76-13.764-7.5-17.195-15.14-5.064-11.27-2.752-22.91 1.325-34l1.05 6.65c-1.863 9.19-2.816 17.35 2.585 25.7 5.45 8.43 14.721 12.62 24.231 14.53l2.544 1.43-.073 1.26c-2.502.47-4.978.89-7.503 1.23"/><path fill="#3C1E1C" d="M197.295 1284.3c4.142.98 5.911 2.69 8.327 6.17 6.853 8.94 20.801 14.25 31.622 15.79 1.937.27 3.843.45 5.795.55l-.249 1.93c-.755.9-.874 1.15-2.009 1.87-4.72 2.98-11.495 3.54-16.728 1.82-13.889-4.59-20.708-15.82-26.758-28.13"/><path fill="url(#a)" d="M135.455 1251.64c3.116 8.5 3.683 16.72 8.697 24.82 9.187 14.85 24.218 20.34 40.284 24.17l.849 1.88c-3.63.76-7.526.82-11.196.33-12.205-1.61-24.568-7.36-32.106-17.36-7.704-10.22-8.088-21.69-6.528-33.84"/><path fill="#3C1E1C" d="M206.756 1289.76c.593-.13 1.187-.26 1.778-.4 8.992-2.15 23.001-13.42 26.413-14 .738-.12 1.463.32 2.194.48 1.587 1.86 1.784 3.12 2.236 5.43 1.336 6.83 4.799 11.19 8.937 16.54-2.226-.35-3.143-1.03-5.076-2.15.54 1.89 1.146 3.43 2.1 5.15 4.756 6.12 9.533 9.14 17.394 10.03 8.854.99 18.844-1.37 26.242-6.23l1.196.41c-2.942 8.05-5.786 18.09-11.772 24.3l-1.387 1.45c-6.689 6.97-13.712 11.02-23.533 11.32-6.847.21-16.038-1.93-21.165-6.67l.237-1.35c4.009-1.08 6.237 1.98 9.463 1.3 9.117-1.94 23.674-12.23 30.801-18.3-10.289-.24-20.456-.29-28.184-8.08l-1.84-.25.249-1.93c-1.952-.1-3.858-.28-5.795-.55-10.821-1.54-24.769-6.85-31.622-15.79z"/><path fill="#FEFEFD" d="M234.291 1279.34c1.308 10.45 5.079 17.86 8.748 27.47-1.952-.1-3.858-.28-5.795-.55-10.821-1.54-24.769-6.85-31.622-15.79l1.134-.71c4.823 1.93 9.085 1.65 13.841-.47 5.178-2.32 9.478-6.23 13.694-9.95"/><path fill="#3C1E1C" d="M856.979 174.398c20.007-15.447 39.993-30.457 62.159-42.749 72.662-40.293 164.592-58.798 247.132-48.19 34.78 4.472 70.73 14.576 102.47 29.458 10.76 5.045 40.33 23.919 47.63 26.19 1.55.481 3.21-2.285 8.97-.885 23.51-25.584 59.28-35.179 93.01-36.629 47.51-2.044 100.29 14.344 135.59 46.85 36.22 33.365 62.09 83.083 64.05 132.464a68 68 0 0 1 .06 2.451c35 35.479 59.88 101.588 59.55 150.919-.19 29.631-7.58 53.278-19.76 79.826 19.06 26.874 40.03 49.41 58.6 77.577a682 682 0 0 1 97.48 242.354c2.84 14.297 6.7 29.263 7.71 43.792 12.42 15.333 24.95 30.674 35.74 47.218 63.67 97.626 93.86 217.086 107.67 331.686 4.58 37.99 9.5 79.11 5.46 117.29-1.05 10-3.16 19.52-7 28.82-15.29 24.06-22.57 53.24-35.35 78.68-15.09 30.04-30.76 64.22-47.74 92.73-9.03 15.18-20.96 28.46-29.7 43.69-6.98 12.17-21.86 45.03-34.27 50.81-3.72 12.25-10.88 19.42-21 26.73-6.11 15.55-10.97 28.27-27.6 35.35-9.25 3.94-19.7 5.34-29.56 6.82-10.87 17.59-78.05 60.88-98.07 71.9-13.53 7.44-28.15 14.97-43.16 18.81-2.65.68-5.2.99-7.93 1.05l-72.68 65.67c-24.08 21.5-50.04 47.38-79.34 61.51a108.4 108.4 0 0 1-52.99 10.73c-10.15-.53-16.54-3.24-24.59-9.31l-277.77-1.11c-8.15-.05-16.38-.06-24.5.62-7.46.62-23.79 4.2-30.18 3.15-1.22-.2-2.7-1.73-3.47-2.48-15.56-2.8-36.051.96-52.14.99-52.389.13-122.996-4.56-171.961-23.26-2.363 4.72-4.243 8.41-9.361 10.46-2.195-.83-2.612-.95-3.554-3.31-2.523-6.3 1.024-12.77 3.42-18.49-13.094 2.43-26.5 4.4-39.764 5.62-11.606 3.98-27.679 3.67-39.924 4.91-49.171 5-100.244 6.55-149.673 4.45-23.413-.99-47.693-5.04-70.992-4.63-.627 1.22-1.436 2.42-2.15 3.6-2.605-.29-5.203-.42-7.82-.56l-.872-2.92c-9.578-3.7-35.307-4.77-47.01-6.55a1141 1141 0 0 1-92.072-17.22 754 754 0 0 1-72.761-20.72c-10.867-3.71-28.633-12.87-38.659-14.18-2.212-.65-1.257-.24-3.249-1.33-2.798-1.54-6.748-2.55-8.015-5.46l1.271 1.85-3.181-1.43c-3.25-13.03 14.028-85.79 18.092-101.84 29.862-117.91 66.766-223.08 156.005-310.05a623 623 0 0 1 49.415-43.83c11.6-9.32 23.756-17.99 35.177-27.52 19.729-16.46 31.11-41.48 53.632-54.9 10.992 1.71 20.63 6.08 30.71 10.55 5.003-19.34 8.882-39.1 12.692-58.71a136.6 136.6 0 0 1-35.841 25.4c-41.117 20.42-92.566 19.27-135.887 6.67-11.374-3.3-22.341-8.49-33.576-12.33-4.828 5.95-9.498 10.77-16.215 14.62-10.745 6.16-24.366 8.1-36.321 4.61-9.716-2.83-15.83-8.79-20.628-17.47l-2.218-.19-1.196-.41c-7.398 4.86-17.388 7.22-26.242 6.23-7.861-.89-12.638-3.91-17.394-10.03-.954-1.72-1.56-3.26-2.1-5.15 1.933 1.12 2.85 1.8 5.076 2.15-4.138-5.35-7.601-9.71-8.937-16.54-.452-2.31-.649-3.57-2.236-5.43-.731-.16-1.456-.6-2.194-.48-3.412.58-17.421 11.85-26.413 14-.591.14-1.185.27-1.778.4l-1.134.71c-2.416-3.48-4.185-5.19-8.327-6.17-4.009-2.65-27.514 1.57-38.136-4.4-3.998-2.25-6.38-5.86-7.568-10.24-1.896-6.99 4.342-15.7 7.562-21.78l-.563-1.36-3.822.33c-14.707.98-28.292-4.03-43-4.55 2.525-.34 5.001-.76 7.503-1.23l.073-1.26-2.544-1.43c-9.51-1.91-18.782-6.1-24.231-14.53-5.401-8.35-4.448-16.51-2.585-25.7l-1.05-6.65c.865-2.03 1.794-4.01 2.953-5.89 6.761-10.98 16.76-15.39 28.765-18.38-4.546-4.16-9.024-8.15-10.469-14.38-2.155-9.3 3.291-18.07 8.038-25.61l-8.349-3.75c-1.067-.32-.691-.17-1.89-.73-10.853-5.11-18.76-13.6-22.722-24.96-4.886-14-2.941-29.38 3.476-42.55 7.64-15.68 19.026-24.28 35.211-30.01-4.143-5.85-8.977-12.42-9.087-19.88-.104-7.045 3.91-11.405 8.568-16.149 4.736-.853 9.555-.432 14.297-1.362-.905-3.341-2.274-6.858-1.489-10.31-1.226-5.064-2.51-10.112-2.768-15.338-.744-15.048 5.311-25.397 14.98-36.225a36 36 0 0 1-.145-2.979c-.122-29.269 8.018-72.589 14.369-102.005a856.4 856.4 0 0 1 230.756-423.101A766.66 766.66 0 0 1 779.9 187.712c21.291-4.583 56.091-13.198 77.079-13.314"/><path fill="#FEFEFD" d="M923.742 641.238c3.473-.294 6.41-.669 9.774.384 2.692 2.223 3.071 4.638 3.914 7.852-6.736-1.102-9.371-3.011-13.688-8.236"/><path fill="#F3EBCF" d="M542.223 990.878c1.469-1.447 2.234-1.702 4.258-2.029 1.888 1.158 1.94.967 3.095 3.079-1.031 4.443-1.585 8.522-1.721 13.082l-1.438-.71-1.926-5.933c-1.005-2.4-1.577-4.982-2.268-7.489"/><path fill="#785B4F" d="M961.163 135.132c2.294.658 2.094.134 3.418 2.378-4.756 2.498-9.44 5.14-14.497 6.982-1.306-.99-2.656-1.615-4.118-2.345 4.769-2.717 10.173-4.774 15.197-7.015M1887.29 1181.61c.08 0 .17-.02.25-.01 2.64.51 4.18.56 5.74 2.81-2.45 5.55-17.31 12.31-22.74 15.49-1.12.92-1.85 1.09-3.21 1.5a200 200 0 0 1 5.89-8.39c4.82-6.42 5.85-10.2 14.07-11.4"/><path fill="#F3EBCF" d="M746.004 1402.59c1.402 7.24 3.62 14.22 5.774 21.26l-8.029 13.99c-4.429-.34-8.526-.64-12.809-1.94.885-.64 1.849-1.03 2.835-1.5 3.833-2.02 5.016-2.91 6.431-7.24 2.623-8.03 3.32-16.49 5.798-24.57"/><path fill="#785B4F" d="M550.986 1000.44c.843 2.11.96 3.89 3.055 4.92 1.034-1.93 1.479-3.56 1.911-5.707.175 19.517.426 40.227-3.049 59.487.23 9.58-.603 19.04-.082 28.77l-1.317 1.2c.121.28.233.56.363.84.229.48.475.96.713 1.45-2.77-.11-5.494-1.22-8.145-2.02 2.915-10.91 3.821-22.77 5.183-33.98 1.359-15.27-1.947-41.89 1.368-54.96"/><path fill="#F3EBCF" d="M345.095 1295.13c6.054 2.06 11.718 4.47 17.486 7.23-10.94 9.34-22.861 13.2-37.25 12.13-7.41-.56-15.273-1.85-20.491-7.7-1.019-1.14-1.311-2.29-1.613-3.75 8.001 4.25 17.239 6.66 26.247 4.34 2.87-.73 5.249-2.16 7.577-3.94 3.158-2.16 5.562-5.43 8.044-8.31"/><path fill="#FEFEFD" d="M109.765 1172.11c-8.296 12.09-13.699 24.7-10.748 39.75 2.276 11.61 9.319 18.92 17.783 26.52-9.51-1.91-18.782-6.1-24.231-14.53-5.401-8.35-4.448-16.51-2.585-25.7 3.451-10.59 7.56-16.64 16.532-23.54z"/><path fill="#F3EBCF" d="M1631.46 1413.72c49.85-47.56 102.69-92.71 155.56-136.93l.35.59c-11.18 11.34-23.93 21.41-35.86 31.98l-60.32 53.97c-15.88 14.21-36.39 30-47.32 48.37-11.27 3.46-23.17 5.22-34.3 8.9l-.9-3.48c7.54-1.18 15.19-2.73 22.79-3.4"/><path fill="#FEFEFD" d="M826.797 1072.36c19.197-1.36 36.078-5.32 54.123-11.99.491 2.66-.934 4.94-.318 6.89.761 4.69 1.777 9.4 1.644 14.16-.939.68-1.562 1.21-2.708 1.64-11.354 4.21-41.951-4.87-52.741-10.7"/><path fill="#F3EBCF" d="M1292.6 840.567c5.31 3.093 10.28 7.35 15.19 11.072-1.96 13.136-2.77 26.337-4.22 39.529-2.23 2.128-4.55 2.242-7.51 2.993-4.34 1.13-8.36 3.233-12.43 5.112 1.46-19.83 4.71-39.307 8.97-58.706"/><path fill="#785B4F" d="M943.999 1752.62c11.115.21 35.937-13.11 46.511-18.34a1594 1594 0 0 0-14.869 40.54c-2.304-4.66-4.479-8.11-9.559-9.97-4.983-1.83-10.189-.27-14.68 2.15-4.199 2.26-7.961 5.72-11.467 8.93-.314-7.26-.447-14.27.182-21.51zM299.745 1272.91c.489-1.41 1.433-2.44 2.315-3.63 13.669 9.64 27.491 19.45 43.035 25.85-2.482 2.88-4.886 6.15-8.044 8.31-2.328 1.78-4.707 3.21-7.577 3.94-9.008 2.32-18.246-.09-26.247-4.34.139-3.05-.299-6.06-.603-9.09l-1.056 4.43-.592-.39c-.099-8.44-.345-16.67-1.231-25.08"/><path fill="#3C1E1C" d="M302.624 1293.95c11.393 7.56 21.065 8.7 34.427 9.49-2.328 1.78-4.707 3.21-7.577 3.94-9.008 2.32-18.246-.09-26.247-4.34.139-3.05-.299-6.06-.603-9.09"/><path fill="#785B4F" d="m544.491 998.367 1.926 5.933 1.438.71.344 1.76c-6.492 14.59-4.08 61.54-7.819 81.64-9.994-2.07-19.791-2.35-29.965-2.14 8.923-16.26 18.317-32.92 23.686-50.75 2.702-8.97 5.672-30.66 10.39-37.153"/><path fill="#F3EBCF" d="m1300.77 900.381 1.33.047c2.97 2.721 3.16 47.888 3.63 55.202-7.75 3.741-14.13 7.468-20.27 13.59-.58.953-.15.559-1.47.958-3.78-9.779-1.87-53.195-.82-66.563 5.87-1.527 11.59-2.467 17.6-3.234M1546.87 719.952c12.31 3.975 25.32 7.905 36.93 13.628-5.66 12.881-11.57 25.816-17.9 38.378-6.48-9.35-18.76-15.058-29.57-17.219l-2.11-1.364c.17-7.363 9.65-25.754 12.65-33.423"/><path fill="#785B4F" d="M792.993 1375.53c5.895 3.93 11.253 10.73 16.94 15.32 16.542 13.34 34.086 25.48 49.691 39.98l-8.857 2.68a565 565 0 0 1-33.513 10.62c-5.155-24.88-13.145-45.91-24.261-68.6"/><path fill="#F3EBCF" d="M760.69 1462.2c14.005 9.78 20.922 26.53 27.843 41.56-17.808 4.63-35.352 8.71-53.83 9.6-2.688-.06-5.648.4-8.346.6 11.612-17.04 23.523-34.19 34.333-51.76M957.73 1557.92c4.765 5.37 9.86 26.7 12.169 34.42-11.301 9.36-25.347 15.67-38.535 21.9l-2.685.64c-4.057-4.63-6.311-29.39-7.451-36.51 12.899-5.9 24.775-12.48 36.502-20.45M136.236 977.539l.141-1.065c2.495-19.736.22-33.058 18.188-47.296 9.88-7.828 21.934-10.987 34.397-9.37 9.975 1.294 20.586 5.429 29.015 10.844-18.791 1.983-43.962 2.636-56.696 18.998-8.781 11.283-7.048 25.134-5.937 38.427-5.33-.273-12.529-1.445-17.619-.228-.905-3.341-2.274-6.858-1.489-10.31M1474.7 870.628c10.96 7.257 19.89 15.416 29.03 24.775-8.93 14.796-16.97 30.166-25.82 45.035l-1.85-.069c-7.91-9.331-17.53-17.592-26.4-26.01a3489 3489 0 0 0 25.04-43.731M1780.02 1701.24c.85.51.29.1 1.19 1.72-4.29 9.94-10.09 16.04-20.32 19.95-24.33 9.31-72.82 8.39-96.68-2.79-1.08-.82-2.16-1.64-3.19-2.52-2.48-2.14-4.4-4.38-4.59-7.76 2.58-3.96 7.23-1.68 11.26-.99 35.74 6.06 77.3.36 112.33-7.61M1446.58 920.497c10.11 6.761 18.32 17.989 25.97 27.347-8.41 16.65-20.3 32.222-30.85 47.605-1.17 1.671-.41.946-2.41 2.05-6.72-10.817-11.4-20.857-20.44-30.076 10.03-15.098 18.78-31.173 27.73-46.926M1415.55 971.878c7.17 10.167 14.34 21.585 19 33.162-7.61 10.44-21.53 32.51-32.4 38.69-2.45-.96-3.38-2.17-5.05-4.11l-5.34 2.74c-5.01-6.72-8.88-13.87-10.44-22.16 1.44-2.38 1.5-3.1 4.04-4.14-.79-2.97-.87-3.74.79-6.37 8.31-13.152 20.37-24.84 29.4-37.812"/><path fill="#2F190F" d="M1381.32 1020.2c1.44-2.38 1.5-3.1 4.04-4.14 2.85 8.74 6.67 15.93 11.74 23.56l-5.34 2.74c-5.01-6.72-8.88-13.87-10.44-22.16"/><path fill="#F3EBCF" d="M992.198 1693.29c1.498-.34 3.254-1.58 4.642-2.31 1.534 5.73 2.956 11.51 4.62 17.19-3.156 7.39-6.577 14.75-9.29 22.31-15.524 8.4-32.083 14.9-48.171 22.14l-3.882 1.8c-.492-11.59-.237-23.31-.333-34.91 17.513-9 35.244-16.29 52.414-26.22M1504.32 813.379c11.64 5.606 21.63 18.196 29.4 28.137-9.18 15.526-16.59 32.001-25.83 47.504-8.13-11.461-16.89-18.734-30.42-23.158 9.51-17.154 17.61-35.158 26.85-52.483M860.266 1431.92c8.649 3.06 22.867 16.94 30.032 23.25-15.961 9.71-32.96 16.71-50.171 23.82l-20.231 7.76c.968-13.77-.536-26.46-2.296-40.07 14.612-4.07 28.676-8.9 42.666-14.76M1506.59 809.151c4.07-9.553 18.38-46.457 25.33-51.703l4.56 1.277c8.73 5.251 17.4 11.124 26.35 15.972l1 1.73c-1.63 12.428-19.41 43.779-25.76 55.996-10.04-10.014-18.15-17.811-31.48-23.272M755.746 1347.68c35.915 46.12 49.209 101.32 50.628 158.78l-1.219 8.21a88 88 0 0 0-1.633-7.78c-7.618-29.05-20.669-50.21-46.778-65.36 1.397-2.41 2.575-4.31 4.685-6.21 3.999-.6 6.988 1.13 10.71 2.52-1.973-13.89-6.082-27.6-12.848-39.93-3.296-6-7.137-11.71-9.743-18.07-.125-.3-.242-.61-.363-.92 1.892-10.49 4.192-20.85 6.561-31.24M1693.8 1736.29c14.65 2.31 29.71 2.04 44.48 1.36-10.87 17.59-78.05 60.88-98.07 71.9-13.53 7.44-28.15 14.97-43.16 18.81-2.65.68-5.2.99-7.93 1.05 14.3-14.07 30.18-26.58 45.23-39.82 20-17.57 39.33-35.84 59.45-53.3M1805.93 1657.13l.74 1.03c.59 4.11-.26 7.98-1.71 11.85-3.16 8.39-10.38 13.85-18.32 17.43-32.45 14.63-115.6 17.98-149.05 5.55-2.17-1.91-4.08-3.94-5.48-6.49-1.25-2.3-1.56-4.1-.9-6.66 2.16-1.78 2.2-1.34 5.08-1.04 47.45 4.94 75.75 1.27 122-8.22 16.19-3.33 32.59-6.33 47.64-13.45"/><path fill="#785B4F" d="M1418.41 117.428c20.05-1.616 43.04 3.087 62.1 9.12 40.09 12.69 69.76 33.333 89.42 71.232-14.98-17.673-36.41-31.043-56.74-41.697-10.65-5.918-23.32-10.358-35.04-13.561a147 147 0 0 0-112.64 13.733c-8.57-5.458-17.29-10.349-26.25-15.129 26.66-15.336 48.75-21.49 79.15-23.698"/><path fill="#F3EBCF" d="M1807.3 1502.28c8.42-.99 17.1.12 24.66 4.07 5.66 2.97 10.89 7.35 12.76 13.69 1.54 5.24.48 10.85-2.19 15.54-3.39 5.94-9.24 10.6-15.91 12.19-9 2.15-16.79-1.95-24.1-6.63-13.06-1.12-60.49 17.78-76.25 23.47-3.76 1.45-7.53 2.69-11.39 3.82-7.64 2.23-18.74 6.34-26.2 2.24l-.32-1.68c.39-.56.76-1.13 1.16-1.68 14.25-19.64 94.02-61.29 117.78-65.03"/><path fill="#785B4F" d="M489.322 1388.52c25.243 7.15 64.133 51.68 83.299 71.81-17.904-1.51-36.752-1.17-54.404-4.27-26.306-.68-60.979-8.89-87.808-13.01 18.748-19.24 38.932-36.62 58.913-54.53M969.982 1594.61c4.513 13.05 7.99 26.7 11.927 39.96 5.489 18.48 11.838 37.36 14.931 56.41-1.388.73-3.144 1.97-4.642 2.31-5.466-.33-43.091 20.26-52.738 23.89a721 721 0 0 0-11.522-99.15c14.806-7.17 28.503-13.94 42.044-23.42M771.712 436.515l.944-.326c1.505 1.336-1.566 8.505-2.18 10.735-3.617 13.149-3.659 29.027-2.607 42.543 4.182 53.746 32.461 83.278 71.089 116.443-6.951-1.079-14.169-1.412-21.183-2.051-19.322-2.957-39.465-10.516-54.651-23.064-16.28-13.452-21.794-30.745-23.551-51.212-2.085-24.273 2.157-67.997 18.749-87.098 4.543-5.231 6.579-5.488 13.39-5.97"/><path fill="#3C1E1C" d="M758.437 467.755c1.724 1.796 1.081 3.607.901 5.963-3.082 40.167 3.31 86.232 38.376 111.379 3.832 2.748 18.504 11.28 20.089 14.186l-2.031.559c-3.069-.573-6.188-1.261-9.162-2.21-18.764-5.984-34.02-21.747-42.389-39.211-12.26-25.584-15.261-63.813-5.784-90.666"/><path fill="#F3EBCF" d="M1284.16 975.205c7.07-4.184 14.02-8.129 21.55-11.445 2.46 22.798 4.63 49.31 21.14 66.72l1.18 1.23c-1.19 3.44-8.35 1.23-10.89 4.57.62 1.57 1.14 2.66 2.51 3.76 5.69 4.58 16.44 2.63 23.2 1.99-.2 14.79 4.55 26.66 12.79 38.64-2.61-13.1-7.58-25.78-12.34-38.23 6.88-2.88 13.04-6.59 19.04-11.01 3.82-2.82 14.52-13.8 18.35-14.31l.63 3.08c1.56 8.29 5.43 15.44 10.44 22.16 1.81 2.44 3.98 4.75 5.95 7.08-15.01 16.27-36.42 36.05-59.22 39.72-7.69 1.24-15.3.2-21.63-4.57-24.17-18.19-29.3-80.75-32.7-109.385M427.783 1445.65c28.978 3.91 57.888 8.83 86.958 11.97 19.721 2.14 39.907 2.4 59.507 5.09 11.965 12.53 26.059 25.51 36.488 39.26-27.043.05-53.929-2.89-80.768-5.93-36.472-4.12-72.119-8.93-107.965-16.94-7.55-1.58-14.681-3.76-21.876-6.54 8.842-9.36 18.273-18.1 27.656-26.91"/><path fill="#B79B8A" d="M1137.24 1430.97c37.04-.32 74.14-2.09 111.17-3.22l170.06-4.52c63.03-1.58 127.53.92 190.2-6.11l.9 3.48c-60.61 13.43-123.74 11.48-185.5 13.09l-277.16 5.25c-39.72 85.55-74.91 174.69-107 263.41-14.12 39.04-26.21 78.95-40.772 117.78-3.736 2.69-7.812 5.01-11.71 7.46 7.321-18.11 12.533-37.45 18.912-55.94a8349 8349 0 0 1 42.14-116.76c21.42-56.44 46.43-111.34 68.42-167.43 7.3-18.61 13.68-37.65 20.34-56.49"/><path fill="#F3EBCF" d="M1804.44 1544.72c4.5 1.64 8.51 5.55 11.8 8.97 10.71 11.16 20.34 29.45 19.74 45.18-.57 14.82-9.35 27.9-19.84 37.79a67.6 67.6 0 0 1-18.12 12.4c-10.86 5-23.3 7.47-34.93 10.06-35.28 7.86-70.09 12.9-106.33 11.62-5.62-.52-11.36-1.18-16.89-2.31-5.15-1.05-10.92-2.37-13.91-7.01.07-1.33-.13-2.25.67-3.4 14.55-20.95 112.15-35.18 140.75-41.54 13.02-2.89 24.91-7.94 32.16-19.84 9.07-14.86 9.05-35.54 4.9-51.92M268.813 1718.18l.865.37c14.368 6.41 27.788 15.36 42.089 22.14 39.92 18.93 119.614 48.49 163.07 49.44 4.315 1.28 8.86 1.12 13.327 1.25.017 11.44 1.431 25.35-1.229 36.45-14.143-1.65-28.129-2.78-42.169-5.3-45.331-8.13-90.001-23.61-132.868-40.2-17.798-6.88-35.534-19.51-53.888-24.02 3.205-13.41 6.366-27.07 10.803-40.13"/><path fill="#785B4F" d="M1418.06 147.5c28.29-2.728 55.74 1.789 81.46 13.869 29.36 13.787 61.77 36.168 78.89 64.419 6.44 10.632 10.76 22.373 14.99 34.009-12.48-12.721-25.71-24.216-40.7-33.897-19.94-12.485-43.16-23.527-67.19-23.189-23.96.336-47.26 7.159-64.27 24.575-15.07-25.42-30.4-47.555-51.73-68.242 15.56-7.527 31.43-10.278 48.55-11.544"/><path fill="#F3EBCF" d="M1839.85 1131.01c1.47 1.54.54 4.14.16 6.06-4.47 22.61-5.77 44.06-5.14 67.1-33.86 32.29-74.66 57.78-110 88.6-25.56 22.29-51.65 46.49-74.14 71.88-11.64 13.13-21.45 27.86-33.4 40.7l-1.18 1.25c4.07-12.67 14.47-24.37 22.25-35.12 36.94-51.04 73.83-93.58 122.66-133.86a537 537 0 0 1 26.96-20.62c7.44-5.24 17.93-10.27 23.68-17.19l-2.8 1.88-.47-.82c-2.75 3.83-14.96 8.97-19.47 11.68-13.36 8.03-26.23 16.6-38.46 26.29-56.41 44.73-96.93 93.72-135.68 154.02-2.58 3.93-5.35 6.97-8.67 10.25l.32-1.17c4.6-16.66 16.45-31.75 25.85-46.06 10.43-15.86 20.58-32.1 32.15-47.17 30.58-39.78 79.03-87.06 122.35-111.67l-.2-1.68.76.35-1.54-.33c-9.39 2.64-18.78 9.68-26.94 15.06-54.69 36.04-97.43 88.01-133.17 142.14-5.47 8.28-18 36.16-24.22 40.64l-2.61-.85c-.92-1.89-1.13-2.54-.8-4.72 1.07-7.04 16.52-35.26 21.06-43.94 38.92-74.46 100.22-131.68 168.33-179.29 16.98-11.87 35.68-21.05 52.36-33.41M637.257 1792.12c22.399-.87 44.546-3.66 66.789-6.31 76.664-9.13 149.782-25.38 219.515-59.44a716 716 0 0 1 .339 40.39c-24.58 9.35-49.025 19.32-74.136 27.17-67.679 21.18-150.541 34.11-221.215 35.2-13.815-.7-28.056.35-41.919.29a2008 2008 0 0 1-81.887-2.13c-2.149-10.29.065-23.18.232-33.81 20.688 1.14 41.637.61 62.358.67 22.905.06 47.263 1.17 69.924-2.03M532.308 1340.5c15.085 4.76 38.035 20.3 52.099 29.03 35.648 22.11 70.634 46.36 107.917 65.62 10.467 5.41 21.403 10.58 32.908 13.36 6.562 1.59 17.497.34 22.878 3.87 1.714 1.12 3.248 3.24 3.494 5.29.15 1.26-52.439 65.78-59.535 73.98-6.808 7.72-12.934 14.44-16.958 24.04-30.758-48.91-105.759-126.1-154.481-157.05-8.827-5.6-18-9.88-27.693-13.75 13.931-13.97 25.927-29.92 39.371-44.39M1214.23 1315.54c34.24-1.48 69.84-.16 103.98 2.89a845 845 0 0 1 203.13 45.96c17.62 6.38 36.78 13.33 52.35 23.8 7.8 5.24 13.3 11.47 19.31 18.66-20.6-.55-44.09-.24-64.28-4.18-8.64-1.69-17.1-4.98-25.57-7.37-19.46-5.48-39.27-10.93-59.15-14.61-34.94-6.48-71.79-7.07-107.26-6.32l-10.64 1.01c19.9 2.25 40 2.63 59.94 4.5 36.7 3.44 88.87 12.7 123.54 23.76-39.05 1.86-78.76.58-117.91.48a5432 5432 0 0 0-140.74 1.88c-35.94.91-71.77 1.69-107.61 4.81 11.46-29.83 42.32-64.09 47.46-94.73z"/><path fill="#3C1E1C" d="M1274.72 1338.46c76.5-1.93 156.13 13.92 229.06 36.11 21.67 6.59 47.19 14.08 65.37 27.72-8.96-1.62-17.92-4.6-26.71-6.99-69.98-23.06-140.79-41.58-214.33-48.96-29.18-2.93-58.43-2.98-87.65-5.03 11.12-2.79 22.86-2.53 34.26-2.85"/><path fill="#785B4F" d="M258.01 1758.31c18.354 4.51 36.09 17.14 53.888 24.02 42.867 16.59 87.537 32.07 132.868 40.2 14.04 2.52 28.026 3.65 42.169 5.3.12 9.6-1.238 19.32-2.154 28.87-2.48 25.85-6.475 52.37-5.972 78.35-9.578-3.7-35.307-4.77-47.01-6.55a1141 1141 0 0 1-92.072-17.22 754 754 0 0 1-72.761-20.72c-10.867-3.71-28.633-12.87-38.659-14.18 10.015-38.97 16.606-80.02 29.703-118.07M197.831 948.722l12.132-2.708c-8.294 32.311-14.038 59.616-12.845 93.296-15.96 11.47-24.118 26.81-27.358 46.01-6.784 40.18 6.9 76.45 30.204 108.79 5.654 7.84 11.682 14.24 19.441 20.05 8.335 6.25 18.39 11.3 24.632 19.8.964 6.68 1.811 13.33 2.417 20.06l.743-1.06c.006-.43.001-.87.017-1.31.373-10.32 9.099-16.06.489-26.58-6.516-7.96-17.625-10.4-24.924-17.27-26.589-25.04-47.699-68.52-45.15-105.56 1.278-18.57 7.535-34.63 17.343-50.26 1.498 48.47 34.386 133.05 62.664 173.68 6.197 8.91 13.612 16.73 21.508 24.14 7.298 6.85 15.093 13.25 22.916 19.48-.882 1.19-1.826 2.22-2.315 3.63l-1.775-.15c-6.815 7.96-1.529 25.61-5.582 32.45l-2.218-.19-1.196-.41c-7.398 4.86-17.388 7.22-26.242 6.23-7.861-.89-12.638-3.91-17.394-10.03-.954-1.72-1.56-3.26-2.1-5.15 1.933 1.12 2.85 1.8 5.076 2.15-4.138-5.35-7.601-9.71-8.937-16.54-.452-2.31-.649-3.57-2.236-5.43-.731-.16-1.456-.6-2.194-.48-3.412.58-17.421 11.85-26.413 14-.591.14-1.185.27-1.778.4l-1.134.71c-2.416-3.48-4.185-5.19-8.327-6.17-4.009-2.65-27.514 1.57-38.136-4.4-3.998-2.25-6.38-5.86-7.568-10.24-1.896-6.99 4.342-15.7 7.562-21.78l-.563-1.36-3.822.33c.176-.19.381-.36.528-.58 1.807-2.65 3.821-6.83 3.027-9.82-6.979-3.4-16.275-1.83-23.769-4.51-5.971-2.13-10.359-7.38-12.93-13.02-4.409-9.69-3.161-21.48.603-31.17 3.057-7.87 7.204-12.2 14.857-15.6 1.628-.72.988-.11 1.839-1.7l-11.291-3.2c-3.572-4.05-6.01-7.95-8.543-12.67.971-10.43 3.949-18.2 8.376-27.6 3.501 12.51 6.591 24.4 12.867 35.92 11.499 21.11 30.019 34.66 52.765 41.5-13.611-7.82-28.506-18.5-37.672-31.36-15.715-22.05-20.232-47.76-14.265-73.96 1.618-7.1 5.568-13.44 6.76-20.65l-.927-.79c-.353.22-.726.41-1.058.66-11.989 9.04-16.127 32.78-18.327 46.6-3.038-1.91-6.199-3.66-9.311-5.45-10.7-8.66-18.484-18.16-20.082-32.41-1.389-12.38 3.229-23.71 11.152-33.07 5.494-6.49 11.749-12.04 19.273-16.02 3.616-1.91 8.069-3.79 11.164-6.42 1.921-1.64 1.778-2.09 1.988-4.48-3.828-7.98-16.629-13.52-15.853-23 1.081-1.59 1.752-3.36 3.807-3.81 8.289-1.803 28.461 1.08 38.407.91 1.924-2.258 4.028-4.497 5.793-6.873-2.763-10.529-4.167-19.65-3.828-30.545 7.561-8.472 15.124-11.879 25.858-15.063-4.717 11.748-14.026 29.849-12.987 42.368l1.101 1.351c1.663-.956 2.3-1.231 2.852-3.239.429-1.562.154-3.039.029-4.625-.888-11.252 5.685-25.936 10.86-35.802"/><path fill="#3C1E1C" d="M247.197 1252.96c6.136 2.33 10.993 6.19 13.659 12.32 3.551 8.16 2.662 19.04-.881 27.06-1.318 2.99-2.946 3.9-5.221 5.95-.426.38-.785.84-1.177 1.25l-1.29-1.09c2.644-2.88 4.077-3.69 3.923-7.83-.313-8.45.786-22.34-6.254-28.17-1.895-1.57-4.387-2.62-6.598-3.67.691-2.15 1.533-3.15 3.096-4.76zM177.714 1207.89c-.181 8.61-5.252 17.13-5.215 26.32.042 10.05 3.914 21.77 11.394 28.75 3.923 3.67 8.906 5.78 14.32 5.39 12.876-.93 21.877-13.21 29.787-22.12-.873 3.73-2.157 7.35-3.349 10.99-.569 1.12-1.11 2.15-1.861 3.16-5.204 6.98-13.247 12.62-21.953 13.95a29.73 29.73 0 0 1-22.262-5.45c-7.22-5.38-11.326-13.5-12.448-22.34-1.833-14.45 2.995-27.31 11.587-38.65"/><path fill="#785B4F" d="M329.145 1563.52c14.954 8.77 39.49 25.45 55.745 28.86 20.966 8.43 41.991 15.64 63.599 22.25 5.069 14.73 10.318 29.97 13.953 45.1.084.4.155.8.252 1.19 2.356 9.47 6.995 18.51 9.762 27.9 9.587 32.54 16.122 68.5 15.708 102.56-4.467-.13-9.012.03-13.327-1.25l.381-.41c-4.637-2.32-42.393-8.08-51.976-10.42-49.295-12.04-110.985-35.92-153.188-63.89 2.781-17.98 33.438-101.09 43.398-117.68 4.295-11.79 9.978-23.06 15.693-34.21"/><path fill="#F3EBCF" d="M329.145 1563.52c14.954 8.77 39.49 25.45 55.745 28.86 20.966 8.43 41.991 15.64 63.599 22.25 5.069 14.73 10.318 29.97 13.953 45.1-28.781-3.12-125.991-44.99-148.99-62 4.295-11.79 9.978-23.06 15.693-34.21M799.499 1935.92c16.393-35.48 41.562-71.46 72.5-95.51 18.422-14.32 38.402-26.57 56.676-41.11 8.29-6.59 21.761-23.6 30.879-26.93 2.198-.81 4.369-1.15 6.431.14 3.025 1.9 4.148 5.11 4.76 8.47 2.623 14.4-4.226 30.99-12.601 42.48-8.018 11-18.893 20-30.472 27.04-7.195 4.37-19.898 9.67-25.153 16.23-1.695 2.11-1.555 3.4-1.212 5.95 2.231 1.56 3.244 1.85 5.994 1.47 11.298-1.53 25.044-10.9 35.566-15.84 32.113-15.08 64.293-28.94 95.203-46.6 20.62-11.78 39.47-27.74 61.23-37.25 11.87-5.2 24.01-7.99 36.94-8.76a491.1 491.1 0 0 1-101.85 97.31c-7.67 5.46-16.18 9.73-23.87 15.15-3.32 2.33-6.2 4.59-6.1 8.85 2.3 2.12 3.82 2.82 7.01 2.81 19.78-.04 65.69-19.26 82.68-30.62 18.01-12.03 69.85-63.09 90.15-57.81 1.2 1.97 1.26 2 .8 4.16-3.74 17.42-56.81 73.5-73.15 83.22-7.5 4.46-15.49 7.85-23.74 10.64-19.44 6.57-106.588 27.78-116.932 41.18l-.111 2.16c.99 1.05 1.424 2.12 2.974 2.19 7.157.31 41.329-13.86 51.069-16.85 20.06-6.15 40.9-9.43 60.88-15.72 9.53-3 19.18-6.48 28.11-10.97 11.72-5.9 21.11-15.86 30.08-25.2-28.16 47.26-31.41 59-86.7 73.07-8.68 2.21-27.07 3.72-33.94 8.92-15.56-2.8-36.051.96-52.14.99-52.389.13-122.996-4.56-171.961-23.26"/><path fill="#785B4F" d="M628.549 1829.13c-4.565.78-8.96 1.26-13.588 1.43 24.513 1.29 48.917-1.26 73.313-3.6 55.812-5.36 110.535-14.69 164.064-31.61 24.096-7.62 47.813-17.01 71.52-25.79l1.537 16.89c-18.002 13.88-37.168 24.91-55.891 37.64-36.973 25.14-60.413 58.5-78.712 98.73-6.542.77-37.125 3.61-40.552 7.38-11.606 3.98-27.679 3.67-39.924 4.91-49.171 5-100.244 6.55-149.673 4.45-23.413-.99-47.693-5.04-70.992-4.63 1.697-16.43 7.355-32.75 9.643-49.24a387 387 0 0 0 2.966-29.3c.539-9.59.226-19.74 2.483-29.1a2008 2008 0 0 0 81.887 2.13c13.863.06 28.104-.99 41.919-.29"/><path fill="#B79B8A" d="M1645.99 1420.05c.26 3.13-12.86 31.61-15.12 37.85l-171.5 471.84c-27.34 22.57-51.92 26.55-86.12 26.2-.58-2.95.57-5.9 1.51-8.67 11.5-34.05 25.49-67.49 37.87-101.25l84.11-229.09 37.26-98.44c9.86-26.3 20.11-53.03 26.92-80.3 29.06-2.57 58.39-5.61 85.07-18.14"/><path fill="#785B4F" d="M536.487 912.048c1.635-4.947 3.35-12.169 7.404-15.558 4.175 7.381-9.736 61.546-12.162 73.273 1.576-.671 1.041-.232 2.154-1.554 2.454-2.911 4.515-5.057 7.658-7.229.599 4.247.077 7.932-.515 12.138-1.204 36.232-20.681 82.582-37.832 114.092-15.184 4.01-28.693 11.81-38.217 24.49-13.049 17.36-18.401 40.48-15.06 61.86 3.694 23.65 16.644 48.37 36.405 62.37 25.171 17.83 57.781 21.06 87.501 16.2l1.015 1.28c.182 2.41.099 4.15-1.08 6.33-7.56 13.98-49.303 31.73-64.679 36.4-48.215 14.66-103.259 6.06-147.241-17.46a179 179 0 0 1-27.775-18.31c-9.4-7.43-60.17-54.87-62.69-63.11 6.48 5.16 12.122 11.46 18.579 16.73 29.669 24.22 62.454 42.02 100.957 46.09-22.316-9.06-40.3-13.81-61.672-26.62-61.314-36.74-88.547-75.56-105.779-144.67 8.797 17.7 18.047 32.37 36.895 40.5 28.408 12.24 63.7 6.95 91.571-4.08 63.182-24.99 120.549-95.03 153.762-153.225 11.166-19.564 20.205-40.055 29.228-60.666z"/><path fill="#3C1E1C" d="M536.487 912.048c1.635-4.947 3.35-12.169 7.404-15.558 4.175 7.381-9.736 61.546-12.162 73.273-3.145 6.793-2.969 15.125-6.449 21.718-.932 1.766-1.242 2.918-3.176 3.503-1.778-9.401 12.56-66.395 14.267-81.813z"/><path fill="#785B4F" d="M917.472 1622.75c2.85 33.81 5.149 67.39 5.984 101.34-53.182 23.97-101.53 41.1-159.314 51.19-34.282 5.99-69.544 9.98-104.159 13.68-5.444.58-24.974.65-28.091 2.59l5.365.57c-22.661 3.2-47.019 2.09-69.924 2.03-20.721-.06-41.67.47-62.358-.67.807-13.52 5.188-27.8 8.2-41.04 6.315-27.75 13.119-55.21 16.617-83.5 31.313 1.68 62.957 3.08 94.325 2.92 13.841-.08 28.253-2.56 41.998-1.67l.913 1.29c15.794.67 32.031-.95 47.763-2.23 68.576-5.57 139.23-19.24 202.681-46.5"/><path fill="#F3EBCF" d="M1383.97 598.498c5.67-5.43 15.91-13.311 17.38-21.252.41-2.184.34-3.248 1.96-4.927l1.28.074c.09.399.14.807.25 1.196 3.26 10.709 16.56 19.945 26.12 24.93 35.51 18.507 80.78 16.32 118.05 4.636 46.46-14.567 86.21-45.646 108.83-89.052 19.06 26.874 40.03 49.41 58.6 77.577a682 682 0 0 1 97.48 242.354c2.84 14.297 6.7 29.263 7.71 43.792-64.16-71.484-151.84-124.52-238.17-164.965-18.97-8.887-38.54-17.33-58.18-24.606-21.29-7.889-42.9-14.498-63.17-24.925-29.55-15.21-57.11-39.197-78.14-64.832"/><path fill="#F3EBCF" d="M1342.84 577.014c33.65 42.663 74.9 81.613 123.62 106.494 22.05 11.261 45.51 20.038 68.4 29.434-10.44 23.201-20.44 46.575-31.58 69.471a2179 2179 0 0 1-61.29 114.581c-20.99 36.892-42.6 74.613-70.96 106.426-9.09 9.53-18.9 20.29-30.82 26.21-3.83-4.37-6.46-8.4-8.56-13.83-13.24-34.165-15.81-120.194-14.19-157.762 7.51 6.086 13.49 13.847 20.99 19.925 2.5 2.02 4.33 3.489 7.59 3.169l.63-1.727c-.94-2.589-1.99-5.068-3.29-7.504-16.21-30.383-51.89-46.904-83.32-56.51 3.8-6.001 7.81-11.893 11.69-17.839 15.23-23.279 27.97-46.597 38.61-72.339 20.07-48.54 23.83-86.846 13.05-138.275 6.81-2.925 13.11-6.056 19.43-9.924"/><path fill="#785B4F" d="M1473.05 215.428c16.17-1.003 32.85 2.715 47.47 9.543 16.96 7.929 33.67 19.559 47.25 32.437 28.67 27.193 57.44 71.881 70.78 109.016 14.8 41.197 17.6 92.183-1.66 132.424-20.4 42.626-58.03 68.373-101.64 83.499-15.9 4.419-31.22 6.813-47.75 6.912-30.08.18-61.68-5.358-83.82-27.104 2.73-27.919 10.41-31.473 22.22-54.178 8.6-16.528 16.79-34.057 22.8-51.697 26.4-77.451 8.66-155.961-26.12-227.411 16.86-6.615 32.25-12.035 50.47-13.441"/><path fill="#3C1E1C" d="M1495.13 241.298c.71-.055 1.71-.157 2.45-.138 26.77.683 59.46 20.571 77.33 39.481 27.91 29.535 51.84 81.78 50.84 122.605-3.7-4.944-5.77-20.924-7.41-27.586-3.53-14.43-9.74-28.821-16.57-41.973-25.23-48.596-54.56-75.676-106.64-92.389M1587.43 418.724c1.73.61 4.52 1.03 5.46 2.649 8.66 15 4.9 50.291.96 66.641-6.88 28.555-22.37 53.326-47.89 68.649-34.16 20.509-77.17 17.214-114.21 7.71-4.07-1.304-9.42-2.835-12.02-6.391l.37-1.513c1.75-.18 1.15-.29 2.73.158 20.84 5.912 42.09 7.387 63.59 4.106 29.03-4.432 57.45-19.037 74.99-43.054 20.86-28.56 31.45-63.931 26.02-98.955"/><path fill="#3C1E1C" d="M1448.52 280.069c1.63-.046 3.25-.099 4.88.123 8.97 1.222 18.33 5.142 26.59 8.723 29.13 12.629 54.2 29.929 73.39 55.542 22.52 30.048 35.84 68.532 30.18 106.202-4.06 27.007-17.06 49.532-39.21 65.658-30.82 22.448-68.4 29.406-105.6 23.396-1.15-.171-2.27-.343-3.4-.589-4.67-1.017-15.8-2.508-18.33-6.53 4.81-3.101 32.47.567 40.19.293 30.12-1.067 63.41-14.807 83.82-37.213 16.54-18.15 25.23-40.416 23.83-65.044-3.14-55.49-38.08-102.635-83.3-132.492-8.62-5.686-25.69-10.687-31.96-16.912-.37-.373-.72-.771-1.08-1.157"/><path fill="#785B4F" d="M961.163 135.132c23.533-10.579 47.307-16.355 72.397-21.753 71.2-15.327 115.28-16.28 186.31-.943 14.48 3.128 29.23 5.851 43.13 11.113 11.53 4.366 22.27 10.484 33.01 16.468-72.19-.391-102.39 21.575-154.86 67.009 22.03-34.552 42.96-71.763 86.03-81.54 6.74-1.53 14.07-1.32 20.63-3.212l-.48-1.673 1.24.591-.61 1.008.56-1.087c-6.14-4.204-20.61-2.086-27.79-.724-41.58 7.883-65.42 42.39-89.76 73.539-55.73 71.328-90.19 107.802-179.745 137.542-26.922 8.94-54.992 15.396-81.356 25.946-11.424 4.571-25.515 12.204-32.305 22.885-2.094 3.293-3.258 6.428-4.061 10.219l.676 2.271c-.268.301-.538.598-.802.901-2.952 3.39-4.914 9.436-7.935 12.01-8.054 6.861-19.372 8.659-27.971 17.228l-2.916.139.027-1.143c-4.422-4.56-20.398 8.118-28.07 5.837-5.769-1.716-10.164-6.325-12.756-11.627-9.411-19.262 1.905-54.544 8.465-73.502 7.606-21.978 18.807-41.741 31.102-61.346 39.235-62.563 86.307-106.765 152.643-139.141 1.462.73 2.812 1.355 4.118 2.345 5.057-1.842 9.741-4.484 14.497-6.982-1.324-2.244-1.124-1.72-3.418-2.378"/><path fill="#3C1E1C" d="m792.343 289.587 1.091 1.01c1.227 5.008-7.684 29.729-9.141 36.563a168.6 168.6 0 0 0-3.361 38.536c.437 11.846 3.035 25.415 8.422 36.065 2.442 4.829 10.151 9.696 10.143 14.965-2.532.952-4.984-.001-7.511-.602-3.07-2.113-6.334-4.3-9.033-6.878-9.927-9.477-13.015-24.055-13.458-37.256-.796-23.722 6.145-64.535 22.848-82.403"/><path fill="#3C1E1C" d="m964.581 137.51 1.721.415c-4.476 5.51-14.538 10.085-20.537 14.305a284 284 0 0 0-21.894 17.089c-39.279 34.239-93.965 97.281-111.387 145.573a156.4 156.4 0 0 0-8.15 65.903c1.248 12.402 5.902 22.199 9.854 33.804-13.503-12.039-19.43-25.755-20.365-43.717-3.158-60.596 38.468-120.625 77.732-163.632 29.153-31.933 42.97-40.671 78.529-62.758 5.057-1.842 9.741-4.484 14.497-6.982"/><path fill="#3C1E1C" d="m1060.29 121.792 1.21.566c-.52 3.594-23.29 20.462-27.75 25.433-22.23 24.768-37.181 55.211-59.678 80.07a629 629 0 0 1-50.694 49.36c-29.758 25.814-70.629 55.391-90.999 89.38-7.017 11.71-10.846 25.613-14.02 38.813l-1.747-1.38c-3.479-11.611.634-24.803 5.262-35.619 16.686-39.002 56.874-67.823 87.992-95.066 19.305-16.901 38.849-34.34 56.134-53.334 22.24-24.439 37.83-54.34 61.7-77.304 9.62-9.252 20.25-15.9 32.59-20.919"/><path fill="#B79B8A" d="M1903.31 1191.77c.61 1.61.59 2.21.18 3.94-2.09 8.8-6.19 17.88-9.36 26.39a1617 1617 0 0 0-19.41 53.4c-23.7 71.27-47.38 142.96-68.23 215.1-9.86 2.24-19.16 4.87-28.43 8.95-17.47 7.7-88.16 47.91-98.03 61.03-2.48 3.29-4.28 7.28-3.14 11.47 1.03 3.78 4.49 6.77 7.77 8.64 18.09 10.27 86.96-22.13 109.62-28.35-.45 9.69-.51 19.72-2.42 29.25-1.2 6.01-3.41 13.19-8.64 16.95-9.25 6.65-25.41 8.46-36.46 10.65-35.41 7.04-88.46 13.35-118.12 33.32-5.85 3.94-11.49 9.11-12.68 16.41-.98 6.04 2.24 9.76 5.47 14.38l-1.29 14.49c11.69 20.14 23.13 11.47 28.42 20.09.05 4.26-.03 8.88 2.22 12.66 5.5 9.24 19.72 12.14 29.41 14.42a4162 4162 0 0 0-89.83 78.38c-38.11 35.42-77.67 69.24-116.36 104.02 9.5-18.99 15.76-39.62 23.34-59.43l47.72-127.82 54.75-154.31c16.56-46.06 35.2-91.64 50.11-138.26 2.36-7.4 3.37-15.13 5.6-22.57l.59-1.91c.99-3.34 2.1-5.2 4.52-7.74 19.83-20.82 43.96-38.83 65.34-58.12a7176 7176 0 0 1 177.34-155.43"/><path fill="#785B4F" d="M1322.04 149.676c2.44.412 5.45 2.888 7.64 4.238 16.65 10.222 30.36 22.111 42.41 37.488 47.56 60.715 73.86 158.025 64.3 234.595-3.81 30.575-15.65 73.068-34.86 97.651-9.89 12.661-25.07 24.111-37.72 34.007 9.43-11.788 17.64-23.391 23.97-37.196 11.04-24.033 15.56-52.409 5.84-77.668-9.11-23.692-30.36-45.814-53.57-55.98 4.61-3.362 9.14-6.863 13.29-10.793 26.54-25.147 40.5-57.593 41.2-94.065.1-5.648.5-16.502-3.49-20.667-2.75 4.937-1.63 17.315-2.55 23.425-6.9 45.549-29.64 70.242-65.22 96.665-12.45-2.217-25.07-3.287-36.39 3.668-17.73 10.893-22.43 37.167-27.29 55.821a522 522 0 0 1-13.53.331c-33.9.274-72.88-13.233-100.87-32.002-12.97-8.692-24.14-18.989-35.2-29.919l.54-1.288c5.12-.076 19.46 13.774 27.71 17.757 20.68 9.971 47.48 17.071 70.56 16.194 28.45-1.08 56.9-18.287 75.74-38.915 4.71-5.151 9.4-11.148 9.05-18.433l-.64.13c-15.3 19.573-39.16 34.276-62.68 41.802-31.98 10.237-71.26 5.241-100.91-10.03 4.19 1.055 8.4 2.125 12.64 2.971 46.92 9.364 101.91-19.598 139.49-44.849 8.45-6.235 16.84-12.731 24.74-19.65 29.05-25.445 53.47-60.787 54.64-100.708.08-2.477.32-4.322-1.38-6.248-3.94 6.466-4.96 16.036-7.54 23.333-3.32 9.388-8.09 18.458-13.14 27.02-28.83 48.948-94.81 94.194-149.56 108.24-23.71 6.084-49.66 11.77-71.85-1.44 24.42-8.069 49.87-20.858 71.85-34.244 41.51-25.277 100.89-78.847 126.01-119.962 9.32-15.246 15.38-30.787 19.59-48.107-6.33 11.837-12.62 23.824-20.13 34.959-19.34 28.64-46.21 54.055-72.1 76.719-11.83 10.352-23.96 20.397-37.22 28.877-48.63 31.095-139.12 67.789-196.6 61.952-16.226-1.647-31.855-6.111-47.382-10.881-12.042-3.7-23.885-8.167-36.556-8.916l-1.654-.091c31.249-8.253 61.265-14.848 90.592-29.128 30.37-14.785 56.99-34.64 81.83-57.354 42.64-38.974 80.1-84.228 134.58-107.513a147 147 0 0 1 44.28-11.21c4.25-.408 8.67-.887 12.94-.715 6.39.257 26.65 3.843 31.51 1.976 1.12-.431 2.06-1.231 3.09-1.847"/><path fill="#3C1E1C" d="m1419.7 322.496 1.12.856c2.62 4.749 2.2 18.918 2.28 24.671.34 28.308-5.21 56.082-25.34 76.938-.81-.14-.32.028-1.24-.936 2.46-4.768 5.59-9.092 7.98-13.908 8.87-17.855 12.07-36.55 13.14-56.295.55-10.047.39-20.496 1.92-30.437.04-.296.09-.592.14-.889"/><path fill="#785B4F" d="M618.559 740.645c-8.538-3.543-17.084-6.358-26.117-8.382-82.633-18.522-187.261 13.438-257.327 57.741l-.857-.384c6.035-6.54 22.495-15.112 30.788-20.17 52.507-32.032 97.924-50.572 159.51-58.254 25.026-3.122 49.515-3.535 74.679-2.212 9.546.501 19.217.151 28.719 1.154 27.494 2.905 54.399 14.596 76.091 31.501-13.99-2.902-28.052-6.078-42.254-7.744-11.915-1.398-25.271-1.849-36.86 1.719-6.522 2.008-11.649 6.318-17.494 9.659-24.189 13.831-47.141 27.277-69.036 44.716-3.785 3.014-13.342 10.082-13.894 14.987l1.49 1.725-.767 2.647 1.653 1.551c10.427-6.423 21.344-10.458 32.754-14.769-9.32 18.361-25.519 37.825-37.695 54.747l.194 1.685 4.944.324c.952 1.122 1.616 1.354 1.522 2.95-.213 3.614-2.519 7.697-3.943 11.012l1.732 1.406c2.279-8.865 5.894-16.932 12.435-23.482l1.316.123c-.278 19.259-17.219 39.802-21.403 59.085 4.817-4.887 9.518-12.346 12.615-18.518l.953 2.614c-12.797 63.976-79.288 152.784-129.937 193.304-32.336 25.86-75.823 46.03-118.167 41.11-21.099-2.45-40.779-11.69-53.99-28.62-4.035-5.17-7.174-10.77-9.088-17.06-5.829-19.17-8.434-61.51-6.007-81.168 2.307-18.677 7.695-36.647 13.715-54.412 17.062-50.354 42.022-97.474 85.014-130.565 66.471-51.164 170.765-78.824 254.269-76.398 16.94.492 33.683 4.248 50.443 6.378"/><path fill="#3C1E1C" d="M526.391 868.254c2.279-8.865 5.894-16.932 12.435-23.482l1.316.123c-.278 19.259-17.219 39.802-21.403 59.085.413 5.257-9.244 21.584-13.002 26.252l-.506-.856c8.177-20.216 13.361-40.895 21.16-61.122M522.136 852.562l4.944.324c.952 1.122 1.616 1.354 1.522 2.95-.213 3.614-2.519 7.697-3.943 11.012-1.06 3.22-2.17 6.479-3.811 9.458-5.27 9.563-33.239 54.921-41.325 57.194-1.275-7.959 39.274-60.587 42.467-79.948.054-.329.097-.66.146-.99M526.883 810.899c10.427-6.423 21.344-10.458 32.754-14.769-9.32 18.361-25.519 37.825-37.695 54.747-15.038 9.713-31.395 33.099-43.694 47.104-60.358 68.728-130.259 127.479-212.802 167.759-8.673 4.23-27.053 14.74-36.038 15.32l-.803-.84c1.291-6.96 12.792-12.11 18.491-15.4 32.535-18.77 65.881-35.66 97.035-56.91 65.401-44.604 152.17-132.255 199.496-196.597-3.116.927-5.464 3.937-7.857 6.131-9.907 9.085-28.795 27.973-43.559 27.32.952-5.472 19.199-15.604 24.044-19.539 3.995-3.244 10.046-8.953 10.628-14.326M580.77 748.403c3.099-.052 3.739.006 6.463 1.447l-.276 1.008a754 754 0 0 0-28.895 6.577c-32.819 8.374-63.74 23.455-93.983 38.4-89.981 44.463-155.903 99.43-211.802 183.239-11.744 17.608-22.165 36.286-32.976 54.486-.92 1.42-1.606 1.99-2.912 3.01.574-6.1 3.519-12.61 5.657-18.33 13.516-36.131 35.948-67.528 60.256-97.17 55.497-67.679 129.032-116.667 210.064-148.737 28.205-11.163 58.126-20.915 88.404-23.93"/><path fill="#785B4F" d="M819.315 1488.67c25.545-8.84 48.83-18.89 72.582-31.95 49.654 38.82 46.743 40.47 66.404 99.19l-37.563 20.71c-2.738-16.34-5.291-32.74-12.368-47.87 1.089 7.99 8.067 46.82 4.489 51.39-1.052 1.34-2.151 1.7-3.664 2.36l.96.38 3.19-.46c4.24 5.11 3.217 29.9 4.46 37.86-76.732 34.59-168.335 46.42-251.69 49.91-13.745-.89-28.157 1.59-41.998 1.67-31.368.16-63.012-1.24-94.325-2.92-3.498 28.29-10.302 55.75-16.617 83.5-3.012 13.24-7.393 27.52-8.2 41.04-.167 10.63-2.381 23.52-.232 33.81-2.257 9.36-1.944 19.51-2.483 29.1a387 387 0 0 1-2.966 29.3c-2.288 16.49-7.946 32.81-9.643 49.24-.627 1.22-1.436 2.42-2.15 3.6-2.605-.29-5.203-.42-7.82-.56l-.872-2.92c-.503-25.98 3.492-52.5 5.972-78.35.916-9.55 2.274-19.27 2.154-28.87 2.66-11.1 1.246-25.01 1.229-36.45.414-34.06-6.121-70.02-15.708-102.56-2.767-9.39-7.406-18.43-9.762-27.9-.097-.39-.168-.79-.252-1.19-3.635-15.13-8.884-30.37-13.953-45.1-21.608-6.61-42.633-13.82-63.599-22.25-16.255-3.41-40.791-20.09-55.745-28.86 14.691-34.73 40.251-64.3 68.658-88.67l11.942 6.88 5.844-1.2 6.414-1.43c35.846 8.01 71.493 12.82 107.965 16.94 26.839 3.04 53.725 5.98 80.768 5.93 20.855 19.49 40.548 40.87 60.566 61.28l-2.142 4.12 1.242.43c11.94-6.76 33.234-29.02 43.097-39.77 4.177-4.55 8.192-10.12 12.858-14.07 2.698-.2 5.658-.66 8.346-.6l-1.363 1.02c12.471 3.49 43.725-5.28 56.054-9.23 4.577 9.58 8.319 16.59 17.128 22.96-.589-4.24-1.721-9.16-1.367-13.44l1.219-8.21c.59 6.31.906 12.8 2.319 18.98 5.627-12.18 9.806-23.28 10.622-36.77"/><path fill="#3C1E1C" d="M415.589 1480.53c28.496 10.24 54.503 41.87 67.126 68.45 11.641 24.5 18.154 51.96 24.486 78.24 23.408 3.59 47.418 3.67 71.052 4.34 77.064 2.16 155.34.57 230.677-17.28a665 665 0 0 0 65.18-18.51c11.765-4.12 23.264-9.48 35.085-13.27l.96.38c-15.751 9.61-37.041 15.82-54.748 21.09-90.226 26.88-174.404 32.41-267.993 30.1-26.558-.66-53.597-.87-79.879-4.93 1.34 10.29 3.595 21.29 3.421 31.66.716 3.37.493 4.72 3.154 7.03 4.583 1.33 9.128.36 13.818.59.36-2.26.583-7.25 1.891-8.93.147 3.19.166 6.27-.027 9.45-3.498 28.29-10.302 55.75-16.617 83.5-3.012 13.24-7.393 27.52-8.2 41.04-.167 10.63-2.381 23.52-.232 33.81-2.257 9.36-1.944 19.51-2.483 29.1a387 387 0 0 1-2.966 29.3c-2.288 16.49-7.946 32.81-9.643 49.24-.627 1.22-1.436 2.42-2.15 3.6-2.605-.29-5.203-.42-7.82-.56l-.872-2.92c-.503-25.98 3.492-52.5 5.972-78.35.916-9.55 2.274-19.27 2.154-28.87 2.66-11.1 1.246-25.01 1.229-36.45.414-34.06-6.121-70.02-15.708-102.56-2.767-9.39-7.406-18.43-9.762-27.9-.097-.39-.168-.79-.252-1.19-3.635-15.13-8.884-30.37-13.953-45.1-21.608-6.61-42.633-13.82-63.599-22.25 8.806-.47 52.644 16.88 63.863 21.1a427 427 0 0 1-7.962-18.63c6.153 6.04 9.984 12.8 14.058 20.28 12.463 4.04 25.219 7.03 37.937 10.13-8.577-41.44-14.886-85.68-47.299-116.09-10.943-10.26-23.531-18.77-35.742-27.44z"/><path fill="#785B4F" d="M510.956 1660.8c.716 3.37.493 4.72 3.154 7.03 4.583 1.33 9.128.36 13.818.59-2.146 19.84-11.555 39.17-18.778 57.66 3.46-21.32 2.674-43.76 1.806-65.28M478.906 1664.15c4.776.74 10.071 1.13 14.571 2.91l.004.21c1.275.77 2.551 1.49 3.85 2.21 4.677 6.89 2.129 62.88 2.162 74.29-6.099-22.17-11.105-44.21-18.046-66.18-.886-2.81-3.092-7.81-3.186-10.7-.03-.94.43-1.83.645-2.74"/><path fill="#F3EBCF" d="M456.412 1617.33c11.828 3.51 23.957 7.68 36.219 9.29 1.752 10.54 6.935 29.69 4.559 39.82-2.489.88-1.247.71-3.713.62-4.5-1.78-9.795-2.17-14.571-2.91-.73-.45-1.608-.71-2.189-1.33-2.761-2.97-17.203-38.78-20.305-45.49"/><path fill="#785B4F" d="m397.803 1474.85 11.942 6.88c12.211 8.67 24.799 17.18 35.742 27.44 32.413 30.41 38.722 74.65 47.299 116.09-12.718-3.1-25.474-6.09-37.937-10.13-4.074-7.48-7.905-14.24-14.058-20.28a427 427 0 0 0 7.962 18.63c-11.219-4.22-55.057-21.57-63.863-21.1-16.255-3.41-40.791-20.09-55.745-28.86 14.691-34.73 40.251-64.3 68.658-88.67"/><path fill="#F3EBCF" d="m910.155 1582.88 3.19-.46c4.24 5.11 3.217 29.9 4.46 37.86-76.732 34.59-168.335 46.42-251.69 49.91-13.745-.89-28.157 1.59-41.998 1.67-31.368.16-63.012-1.24-94.325-2.92.193-3.18.174-6.26.027-9.45-1.308 1.68-1.531 6.67-1.891 8.93-4.69-.23-9.235.74-13.818-.59-2.661-2.31-2.438-3.66-3.154-7.03.174-10.37-2.081-21.37-3.421-31.66 26.282 4.06 53.321 4.27 79.879 4.93 93.589 2.31 177.767-3.22 267.993-30.1 17.707-5.27 38.997-11.48 54.748-21.09"/><path fill="#D8C4B0" d="M525.997 806.701c8.148-5.047 16.215-10.135 23.829-15.975 20.08-15.402 42.981-39.5 68.188-45.188 8.308-1.875 19.771-.31 27.999 1.782 10.645 2.706 19.697 8.983 28.548 15.206 26.423 18.576 47.79 40.767 63.889 69.054 17.846 31.355 30.332 97.793 66.792 108.643 7.887 2.347 16.176 2.584 24.306 1.663 12.645-1.433 34.077-10.559 41.897 3.849 8.199 15.106 1.488 38.11 1.193 54.485.279.3.552.59.836.88 6.585 6.72 26.684 16.7 26.388 26.49-.144 4.73-3.257 8.7-6.673 11.7-21.101 18.52-53.969 26.76-81.273 28.41 12.091 16.43 30.268 26.36 50.349 29.41 16.648 2.54 28.611-1.99 42.725-10.26 10.988 15.94 2.239 26.46 5.14 43.09 2.537 14.55 14.004 28.87 11.135 44.21-2.189 11.71-13.808 20.27-23.311 26.28-14.039 8.88-29.949 14.26-45.584 19.6-16.894 5.77-34.647 10.68-50.781 18.31-39.244 18.58-48.752 58.91-57.748 97.79-6.81 29.43-14.547 68.54-10.066 98.27-.986.47-1.95.86-2.835 1.5-29.946-6.3-69.705-34.49-96.639-50.92-22.114-13.49-44.399-27-67.77-38.22 14.912-31.03 15.147-63.67 20.979-96.85 13.764-8.95 27.05-18.22 36.209-32.19 4.707-7.18 10.532-21.04 8.166-29.74-.397-1.46-.396-1.07-1.822-1.85-4.035 3.76-5.891 9.73-8.685 14.45-7.337 12.38-20.541 24.76-33.529 31.05-21.51 10.41-49.141 10.58-71.465 2.72-23.262-8.2-41.237-24.57-51.653-46.88-8.191-17.55-10.966-37.41-3.967-55.89 5.14-13.56 14.562-22.84 27.624-28.8 32.699-14.93 67.26-.8 98.502 10.86-9.075-8.92-19.182-14.85-30.562-20.36a371 371 0 0 0 7.433-60.22c.417-8.82 2.106-42.58-3.286-48.506l-1.326.116c-2.404 4.169-2.535 10.24-3.197 14.983-.432 2.147-.877 3.777-1.911 5.707-2.095-1.03-2.212-2.81-3.055-4.92-.019-3.185.013-5.556-1.41-8.512-1.155-2.112-1.207-1.921-3.095-3.079-2.024.327-2.789.582-4.258 2.029-.167-5.579.676-11.354 1.152-16.918l-2.349-.842c.592-4.206 1.114-7.891.515-12.138-3.143 2.172-5.204 4.318-7.658 7.229-1.113 1.322-.578.883-2.154 1.554 2.426-11.727 16.337-65.892 12.162-73.273-4.054 3.389-5.769 10.611-7.404 15.558l-1.573-.729c.945-8.122 2.359-16.617 2.344-24.791-.005-2.488.049-4.227-1.714-6.084-2.69 1.087-2.85 2.57-4.19 5.018-3.097 6.172-7.798 13.631-12.615 18.518 4.184-19.283 21.125-39.826 21.403-59.085l-1.316-.123c-6.541 6.55-10.156 14.617-12.435 23.482l-1.732-1.406c1.424-3.315 3.73-7.398 3.943-11.012.094-1.596-.57-1.828-1.522-2.95l-4.944-.324-.194-1.685c12.176-16.922 28.375-36.386 37.695-54.747-11.41 4.311-22.327 8.346-32.754 14.769l-1.653-1.551z"/><path fill="#2F190F" d="M541.541 960.98c.237-4.12 1.08-7.881 2.078-11.877l1.447-1.035c1.534 1.036 1.207.404 1.532 2.221 1.231 6.864-1.9 16.865-3.223 23.671l-2.349-.842c.592-4.206 1.114-7.891.515-12.138"/><path fill="#3C1E1C" d="m854.638 964.426 3.253.858c.458 1.124.551 1.156.667 2.571.441 5.422-4.064 14.636-7.413 18.74l-3.135-.95c-1.733-1.834-2.092-2.32-2.2-5.009-.225-5.653 5.316-12.291 8.828-16.21M671.436 811.079c2.247-.137 4.467-.311 6.687.174 10.132 2.21 19.205 10.506 24.858 18.899-22.617 12.604-33.375 33.835-44.935 56.062-1.989 4.151-3.94 9.96-7.432 12.985l-1.828-.15c-1.243-1.171-2.246-2.217-3.078-3.727-8.131-14.77-9.35-33.531-4.088-49.374 5.193-15.634 15.038-27.451 29.816-34.869M520.656 1118.37a69.1 69.1 0 0 1 19.71 1.67c17.205 4.07 37.835 22.95 46.352 38.01 1.335 2.36 1.802 3.62 1.168 6.24-11.132 4.05-20.405-15.1-30.204-18.04-3.106 1.67-4.506 3.43-5.814 6.62-2.571 6.27-4.298 17.29-1.12 23.61 2.825 5.62 9.649 10.92 15.726 12.44 8.678 2.16 18.176-1.09 24.591-7.06 2.653-2.47 4.846-5.99 7.972-7.81l.755 1.91c-.602 6.62-2.68 12.08-7.127 17.15-6.105 6.97-13.559 8-22.238 8.6-8.37-.96-15.396-3.12-21.776-8.99-6.574-6.05-9.861-14.31-10.17-23.16-.435-12.44 4.071-20.78 12.249-29.54-13.296-6.22-28.4-10.26-43.079-6.76-7.722 1.84-14.744 6.1-18.737 13.12-6.98 12.29-3.147 26.71.569 39.32-5.652-7.75-9.425-15.22-10.471-24.91-1.018-9.43.927-19.18 7.179-26.54 8.721-10.26 21.5-14.54 34.465-15.88M710.398 975.378c-12.578-21.668-19.559-51.354-16.297-76.319 1.128-8.634 4.086-18.773 11.588-24.041 2.252-1.582 4.297-2.244 6.97-1.67-2.244 5.758-5.888 12.626-6.011 18.81 2.25 1.288 8.877-7.461 14.015-7.107 7.579.523 16.106 11.711 20.622 17.214 12.321 15.012 28.292 39.632 26.323 60.098l-.48 1.458c3.066.513 5.32 1.124 8.083 2.564l.24 1.254c-8.519 6.886-53.87 8.463-65.053 7.739"/><path fill="#D8C4B0" d="M734.84 907.474c.925.461 1.03.464 1.968 1.22 4.309 3.474 6.271 8.221 6.569 13.601-3.172-1.311-6.337-2.762-8.107-5.882-1.681-2.962-1.055-5.786-.43-8.939"/><path fill="#FEFEFD" d="M714.135 968.308c-4.947-15.878-8.145-32.439-7.651-49.093.244-8.217 3.904-17.937 10.224-23.448 2.478-2.16 4.232-2.325 7.407-2.041 2.707 1.735 3.823 3.326 5.428 5.994-2.471 2.728-4.876 5.73-5.792 9.37-2.218 8.818 4.32 20.086 9.052 27.322 8.969 13.718 18.447 22.475 34.805 25.951l-.48 1.458c-18.112 1.21-34.559 4.982-52.993 4.487"/><path fill="#B79B8A" d="M1543.61 1439.44c2.68-.17 5.46.06 8.15.13-14.01 43.23-31.45 85.74-47.76 128.14a11970 11970 0 0 0-73.61 192.61l-49.83 134.86c-6.68 17.96-12.11 37.33-20.36 54.57a14019 14019 0 0 0-173.9.01c-30.56-.02-63.59-2.36-93.82.27 4.25-1.64 8.57-3.25 12.56-5.47 7.84-4.36 14.23-10.65 19.52-17.84 7.51-10.22 13.02-21.6 19.09-32.68 6.54-11.94 13.52-23.68 20.49-35.37 7.85-13.17 17.69-25.1 25.39-38.31 2.07-3.55 3.83-7.32 4.92-11.29 1.1-4.05 1.47-9.25-1.11-12.85-1.67-2.33-4.26-3.68-7.03-4.2-32.46-6.01-73.85 43.49-98.81 60.63l-1.37.93c-17.31 10.39-37.19 18.91-56.12 25.85 9.77-6.43 19.69-12.85 28.93-20.05 22.79-17.76 69.4-59.92 82.42-85.12 1.7-3.29 2.98-7.41 1.38-10.99-1.26-2.82-4.44-4.53-7.28-5.35-28.61-8.19-72.2 24.83-95.58 39.4-10.38 6.46-21.06 12.3-31.82 18.1 28.52-63.4 50.2-130.43 74.81-195.42 22.29-58.84 47.65-116.69 68.92-175.86a14493 14493 0 0 0 290.21-2.85c33.85-.65 67.79-.27 101.61-1.85"/><path fill="#F3EBCF" d="M890.877 362.489c2.863.228 2.894.317 4.888 2.48.081.088.14.193.211.289l1.465-1.375 1.548.708c.625 4.376-2.973 8.131-1.706 12.385l1.606.654c3.243-3.545 4.931-8.143 6.909-12.473 20.096 4.925 38.279 13.653 57.649 20.623 47.943 17.249 88.823 7.043 136.063-5.535 12.94 13.391 24.05 28.907 39.44 39.633a225 225 0 0 0 26.27 16.013c25.01 12.684 70.88 29.439 86.03 53.848 6.24 10.036 5.36 22.272 9.17 33.117 1.14 3.238 1.65 6.005 5.13 6.938 2.75-2.939 2.82-8.502 3.01-12.415.59-11.903-.71-23.981-.53-35.927.38-25.431 4.02-90.316 38.25-92.405 16.96-1.036 39.51 14.101 51.39 25.324 15.52 14.667 25.47 34.45 26.02 55.964.84 33.217-21.51 68.334-43.87 91.275-4.19 4.296-8.62 8.624-13.4 12.267-3.51 2.68-7.81 4.921-10.93 8.025-1.52 1.511-1.73 1.77-1.92 3.95l3.53 2.14c.86 26.712 1.25 56.165-3.36 82.511-9.97 56.83-48.3 123.018-87.42 164.99-11.05 11.854-31.01 31.857-48.46 32.167-4.18.074-8.41-1.242-12.31-2.63-19.69-7.009-38.67-16.66-58.38-23.978-34.93-12.972-72.01-23.708-105.32-40.43-13.941-6.997-27.707-15.868-38.566-27.163-26.612-27.679-32.695-64.386-45.392-99.108-3.28-8.971-8.843-17.096-11.449-26.262l.421-1.551c12.512 6.268 28.078 42.44 44.005 36.23 2.788-1.088 4.49-3.804 5.207-6.588 2.478-9.638-1.633-22.208-6.949-30.246-4.069-6.151-9.222-11.057-16.699-12.295-9.217-1.525-16.481-.329-24.025 5.281-2.282 1.697-4.393 3.614-6.489 5.533-18.146-20.975-43.644-33.827-63.138-53.103l.605-1.116c4.272-7.709 9.983-12.38 18.53-14.84 5.264-1.515 10.652-2.644 15.96-4.003.889-1.843 1.068-2.667 1.291-4.634 17.659 2.45 67.516 41.829 77.962 55.629 10.388 13.725 23.249 35.547 20.87 53.486-2.636 19.88-24.674 39.847-9.527 59.875 5.91 7.813 15.358 11.745 24.858 12.92 14.165 1.752 35.125-1.518 46.385-10.776 2.89-2.372 8.44-7.609 8.97-11.466.04-.296 0-.597 0-.896-7.64-.815-27.26 18.69-53.249 13.889-6.425-1.186-12.79-4.138-17.114-9.164-3.157-3.669-4.081-8.797-3.68-13.518.882-10.39 8.675-18.989 12.541-28.358 7.966-19.303-10.49-57.982-22.56-73.086-22.774-28.5-55.715-47.179-89.056-60.546-7.816-3.133-17.291-7.359-25.78-7.972-8.469-.611-16.313 2.958-22.448 8.597-4.139 3.804-6.73 8.102-9.138 13.123-19.996-30.216-30.72-61.453-31.725-97.741-.248-8.983-.397-18.46 1.445-27.304 1.16-5.563 2.632-14.555 6.489-18.696l4.15-1.684 2.916-.139c8.599-8.569 19.917-10.367 27.971-17.228 3.021-2.574 4.983-8.62 7.935-12.01.264-.303.534-.6.802-.901 18.509-17.762 31.685-24.969 56.698-30.302"/><path fill="#2F190F" d="M890.877 362.489c2.863.228 2.894.317 4.888 2.48.081.088.14.193.211.289-2.986 5.784-12.155 16.605-17.72 20.203 1.92-8.823 6.549-16.476 12.621-22.972"/><path fill="#3C1E1C" d="M922.986 613.363c4.435.26 9.866.157 13.964 1.904 2.109.9 1.395.269 2.267 2.449-10.3 3.648-20.719 3.765-30.271 9.686l-1.049.665c-2.626 2.234-5.406 4.701-9.017 4.825-1.828.062-1.797-.478-2.976-1.646-.02-2.26.481-3.653 1.814-5.507 5.494-7.633 16.411-10.924 25.268-12.376M1057.23 551.192c10.12-.897 22.77-.476 31.46 5.301 2.2 1.459 4.52 3.062 5.13 5.75-5.8 4.477-26.23-1.615-35.15-.264-19.33 2.926-36.05 11.319-53.29 20.024l-2.03.426-.41-1.394c1.86-3.152 4.41-5.227 7.13-7.621l-.81-.912c-4.37-4.945-7.88-9.288-11.086-15.096 6.396 3.019 10.086 7.832 15.956 11.348 2.09-.513 3.01-1.273 4.59-2.71-.85-3.779-6.09-5.123-7.95-8.897 1.93-.671 2.16-.396 3.95.442 3.47 1.622 4.41 4.676 5.63 7.996 11.8-6.349 23.72-11.601 36.88-14.393"/><path fill="#3C1E1C" d="M1034.98 574.259c7.75-.476 15.57.386 22.82 3.261 8.81 3.493 16.56 10.045 20.06 19.012 3.99 10.246 1.3 20.035-3.14 29.552-5.37-2.544-9.98-5.742-14.8-9.18-13.04-10.123-24.78-19.169-33.76-33.275l-.97.667-1.6 1.074c-1.93 1.319-3.95 3.08-6.28 3.585-2.03.439-2.43.417-4.17-.713.14-1.295.39-2.199 1.18-3.259 4.88-6.526 12.94-9.328 20.66-10.724"/><path fill="#FEFEFD" d="M1047.88 588.97c3.52.527 6.28.803 9.23 2.875 1.11 2.727.95 3.203.43 6.136-3.26-1.168-7.65-2.45-9.67-5.442-.97-1.434-.36-2.028.01-3.569"/><path fill="#3C1E1C" d="M1310.69 410.251c10.8.569 20.26 2.814 28.97 9.62 11.01 8.6 17.85 22.371 19.45 36.148.62 5.374 1.15 15.199-2.39 19.561-5.24-5.006-4.28-19.241-6.95-26.216-2.21-5.763-6.22-11.647-10.28-16.297-6.07-6.949-15.36-14.3-24.97-14.577-3.92-.113-7.69 1.516-10.46 4.271-10.71 10.683-8.99 38.492-8.99 52.841 3.67-1.542 7.51-2.784 11.25-4.135 5.29 1.39 10.03 2.832 14.97 5.233 7.93 5.408 15.23 11.771 17.25 21.659 1.72 8.423-1.65 16.76-6.39 23.599-3.07 4.416-10.62 9.789-15.99 10.559-1.54.221-1.15.159-2.36-.76-.41-5.494 10.8-14.363 12.74-23.105 1.27-5.707-.08-10.191-3.12-15.038-7.06-11.251-16.11-13.927-28.27-16.786.09 4.665.67 9.68-.84 14.144l-1.38.595c-2.55-2.521-3.32-6.293-3.99-9.7-3.42-17.222-4.7-48.156 6.04-63.013 4.19-5.792 8.86-7.539 15.71-8.603M1010.71 454.382c21.64-4.221 54.46 1.789 73.21 13.442-9.45 2.904-19.83 4.026-29.58 5.754-22.48 3.984-44.18 9.226-64.822 19.271-11.644 6.209-24.705 17.176-37.419 20.426-2.392.611-3.556.11-5.614-1.176-5.209-3.255-8.706-10.928-9.484-16.813-.629-4.757.58-9.413 3.526-13.214 12.273-15.836 50.983-25.335 70.183-27.69M1168.12 692.668c3.35 2.033 4.19 5.511 5.16 9.201 6.45 24.553 2.81 56.04-9.98 78.06-6.79 11.693-17.53 23.599-31.1 26.909-18.94 4.621-41.56-8.699-56.94-18.392l-6.07-5.222c-4.85 1.502-12.72 4.807-17.5 3.016l-.26-1.951c.55-.768 34.07-17.778 40.06-22.22 17.35-12.867 34.12-27.814 49.55-42.942 8.99-8.818 17.2-18.615 27.08-26.459"/><path fill="#FEFEFD" d="m1152.06 716.88.99 1.606c-.86 5.535-2.78 11.059-4.87 16.243-8.77 21.771-23.47 42.673-45.6 52.214l-12.85-4.855c-3.34-1.261-6.61-2.807-9.89-4.216 26.29-17.468 49.49-39.249 72.22-60.992"/><path fill="#F3EBCF" d="M1592.86 738.118c23.35 10.082 46.03 22.771 68.09 35.407 109.41 62.668 182.76 141.531 229.57 259.115 32.97 82.82 50.9 189.3 62.66 278.05 2.74 20.7 4.73 41.56 6.9 62.34 1.03 9.84 1.39 20.12 3.42 29.81-15.29 24.06-22.57 53.24-35.35 78.68-15.09 30.04-30.76 64.22-47.74 92.73-9.03 15.18-20.96 28.46-29.7 43.69-6.98 12.17-21.86 45.03-34.27 50.81 1.25-6.77 2.2-13.43 2.23-20.34 12.13-10.86 22.92-23.82 26.95-39.98 4.58-18.36-2.53-33.9-11.87-49.08a63 63 0 0 0 4.68-2.92c8.59-6.02 15.7-14.53 17.35-25.15a33.05 33.05 0 0 0-6.16-24.69c-6.92-9.27-16.85-13.14-27.86-14.92 3.96-26.08 14.38-51.83 22.52-76.9l45.07-143.5c7.35-23.13 14.74-46.17 21.27-69.55 2.49-8.93 5.66-17.92 7-27.11a58.78 58.78 0 0 1-39.01-8.49c-12.95 8.61-24.2 17.93-35.45 28.62-1.58-23.13-.42-48.45 3.04-71.38l.26-1.67c-1.65-1.49-1.84-1.85-4.2-1.62-7.77.73-18.43 8.03-25.42 11.83-53.46 29.13-99.99 67.16-140.47 112.4a422 422 0 0 0-6.69-14.99l-.48-1.38c-18.99-55.56-15.03-177.13-1.68-234.569 6.1-26.216 16.76-52.841 28.69-76.919 2.15-4.338 4.48-8.417 7-12.542.85-1.397.63-.786.73-2.342-7.66 3.159-32.8 50.422-36.49 59.227-29.44 70.295-26.17 148.355-17.29 222.515-11.05-26.81-20.92-54.68-28.66-82.63-4.12-14.86-6.26-31.3-11.66-45.61a452.9 452.9 0 0 0 30.2 133.5c5.05 12.98 11.47 25.22 16.94 38.01 1.69 3.95 2.64 8.11 4.21 12.07 2.95 4.28 5.53 8.61 8.05 13.14-33.37 41.08-61.82 86.92-80.15 136.73-17.03-8.26-31.79-20.43-49.15-28.42-73.79-33.99-188.49-57.22-269.29-57.04-1.76-15.72-4.68-31.32-6.4-47.07-3.26-29.92-5.17-60.14-9.65-89.91-2.33-15.47-6.03-30.85-9.32-46.14-.17 25.65-1.69 51.02-.67 76.7l-19.83-67.62c-5.13-17.94-11.43-50.79-20.61-65.38 5.76 35.44 12.34 71.15 22.11 105.72 5.3 18.73 13.37 36.88 17.96 55.73 5.64 23.19 9.31 53.57 13.69 77.85-24.89-.1-49.2 3.53-73.28 9.57-16.95 24.69-26.18 54-40.21 80.34 4.49-20.52 14.11-40.13 20.61-60.1 9.01-27.73 13.98-57.92 18.01-86.74 5.94-42.52 7.36-85.22 8.99-128.05 1.78-46.44 2.85-95.29 15.83-140.226 12.81-44.369 39.89-87.849 72.88-119.799-2.85 15.542-6.43 30.824-8.54 46.508-6.22 46.2-3.58 96.697 10.92 141.157 6.13 18.79 15.88 40.63 34.74 49.73 12.37 5.98 26.4 4.32 39-.02 16.93-5.84 31.88-16.69 44.8-28.89 52.09-49.14 110.85-154.924 143.31-219.507 11.84-23.532 22.5-47.618 34.01-71.31a579 579 0 0 0 9.2 5.016l1.66-.706-3.92-2.998c2.79.832 3.87 1.52 6.71.685-3.81-1.941-7.47-3.719-11.54-5.017 3.95-11.343 8.64-22.878 11.75-34.455"/><path fill="#3C1E1C" d="m1588.2 780.609 1.66-.706-3.92-2.998c2.79.832 3.87 1.52 6.71.685 14.71 7.121 28.72 16.113 42.67 24.62 37.34 22.772 76.53 47.735 108.75 77.451a2732 2732 0 0 1-115.48-71.704c-12.17-7.929-30.09-17.721-40.39-27.348"/><path fill="#F3EBCF" d="M148.448 925.976a36 36 0 0 1-.145-2.979c-.122-29.269 8.018-72.589 14.369-102.005a856.4 856.4 0 0 1 230.756-423.101A766.66 766.66 0 0 1 779.9 187.712c21.291-4.583 56.091-13.198 77.079-13.314-52.343 46.927-96.087 105.063-116.583 172.999-4.102 13.597-8.151 27.786-8.934 42.015-.777 14.133 1.808 29.734 11.389 40.694 3.296 3.769 6.912 5.81 11.473 7.679-17.338 12.69-24.995 37.588-28.06 58.017-4.327 28.845-3.357 60.234 14.836 84.402 15.644 20.783 41.362 31.36 66.546 34.748 13.296 1.789 26.105.968 39.231-1.591 13.995 13.357 33.87 24.038 45.487 39.306 13.039 17.139 17.193 40.106 23.462 60.327 5.506 17.758 11.282 36.426 21.525 52.095 27.636 42.279 99.049 66.859 145.009 85.033 21.66 8.562 73.29 31.774 94.25 31.392 21.31-.39 45.26-22.721 58.62-37.317 5.85-6.395 11.43-13.037 17.26-19.456 11.18 3.648 22.55 7.472 33.01 12.882-15.28 14.384-30.98 27.083-44.43 43.466-83.23 101.375-58.98 223.551-72.28 343.941-3.46 31.34-9.02 62.68-15.36 93.55-6.39 31.17-13.76 62.39-17 94.1-3.59.58-7.23.84-10.3 2.96-5.44 9.76-8.87 21.27-13.29 31.57l-28.49 65.16-36.3 86.11c-12.06 28.11-24.67 56.23-35.25 84.94-9.83-40.27-47.757-172.8-70.136-202.2-19.737-25.93-90.314-75.31-120.854-93.91-9.164-5.58-21.196-10.42-29.442-17-7.536-6.01-12.839-16.95-18.446-24.78-3.733-5.21-7.98-9.99-12.391-14.63 6.249-27.7 13.5-58.86 38.998-75.04 34.802-22.09 123.662-30.33 133.93-76.95 3.944-17.91-5.256-35.41-12.99-50.93 2.371-14.08 5.745-31.04-2.999-43.69-2.974-4.3-7.155-7.06-12.378-7.7-6.623-.8-12.515 1.61-18.468 4.2-1.115-4.61-1.875-9.36-4.519-13.36l-1.789-.69-.714.52c-.616-1.95.809-4.23.318-6.89 11.83-8.05 25.902-10.29 31.918-25.56 1.995-5.07 1.764-10.44-.412-15.41-5.683-12.96-20.215-18.64-32.382-23.683 3.784-11.535 7.653-26.08 6.061-38.168-1.269-9.634-4.203-21.842-12.435-27.809-12.39-8.981-31.837-.916-45.481 1.298-9.708 1.575-21.074 1.878-29.501-3.949-19.014-13.15-37.205-79.788-49.587-103.481-16.211-31.023-36.077-53.878-64.523-74.109 7.571-.511 15.275-1.102 22.72.77 4.932 1.24 11.447 6.041 16.388 5.144 1.214-2.157 1.31-2.474.479-5.022-6.735-20.647-31.342-38.695-50.507-46.637-16.935-7.018-32.401-5.97-50.12-7.547-14.481-1.289-28.795-3.089-43.353-3.509a412.3 412.3 0 0 0-167.552 30.606c-69.78 29.147-134.301 79.762-172.294 145.891-9.679 16.847-16.867 34.866-24.208 52.808-8.979-4.659-18.78-9.616-28.93-10.922-15.526-1.999-27.207 5.811-38.753 14.895"/></svg>