<?xml version="1.0" encoding="UTF-8" standalone="no"?>
<svg
   width="28.377392mm"
   height="27.784006mm"
   version="1.1"
   viewBox="0 0 100.54981 98.447263"
   id="svg68"
   sodipodi:docname="books-2022464.svg"
   xmlns:inkscape="http://www.inkscape.org/namespaces/inkscape"
   xmlns:sodipodi="http://sodipodi.sourceforge.net/DTD/sodipodi-0.dtd"
   xmlns:xlink="http://www.w3.org/1999/xlink"
   xmlns="http://www.w3.org/2000/svg"
   xmlns:svg="http://www.w3.org/2000/svg">
  <sodipodi:namedview
     id="namedview68"
     pagecolor="#ffffff"
     bordercolor="#000000"
     borderopacity="0.25"
     inkscape:showpageshadow="2"
     inkscape:pageopacity="0.0"
     inkscape:pagecheckerboard="0"
     inkscape:deskcolor="#d1d1d1"
     inkscape:document-units="mm" />
  <defs
     id="defs44">
    <pattern
       id="k"
       patternTransform="matrix(.43638 0 0 .42754 -.66809 -.3824)"
       xlink:href="#a" />
    <pattern
       id="j"
       patternTransform="matrix(.39219 0 0 .43638 -.66809 -.3824)"
       xlink:href="#a" />
    <pattern
       id="i"
       patternTransform="matrix(.35683 0 0 .40103 -.66809 -.3824)"
       xlink:href="#a" />
    <pattern
       id="h"
       patternTransform="matrix(.44522 0 0 .39219 -.66809 -.3824)"
       xlink:href="#a" />
    <pattern
       id="g"
       patternTransform="matrix(.4629 0 0 .37451 -.66809 -.3824)"
       xlink:href="#a" />
    <pattern
       id="a"
       width="10"
       height="10"
       patternTransform="translate(0) scale(10)"
       patternUnits="userSpaceOnUse">
      <circle
         cx="2.567"
         cy=".81"
         r=".45"
         id="circle1" />
      <circle
         cx="3.048"
         cy="2.33"
         r=".45"
         id="circle2" />
      <circle
         cx="4.418"
         cy="2.415"
         r=".45"
         id="circle3" />
      <circle
         cx="1.844"
         cy="3.029"
         r=".45"
         id="circle4" />
      <circle
         cx="6.08"
         cy="1.363"
         r=".45"
         id="circle5" />
      <circle
         cx="5.819"
         cy="4.413"
         r=".45"
         id="circle6" />
      <circle
         cx="4.305"
         cy="4.048"
         r=".45"
         id="circle7" />
      <circle
         cx="5.541"
         cy="3.045"
         r=".45"
         id="circle8" />
      <circle
         cx="4.785"
         cy="5.527"
         r=".45"
         id="circle9" />
      <circle
         cx="2.667"
         cy="5.184"
         r=".45"
         id="circle10" />
      <circle
         cx="7.965"
         cy="1.448"
         r=".45"
         id="circle11" />
      <circle
         cx="7.047"
         cy="5.049"
         r=".45"
         id="circle12" />
      <circle
         cx="4.34"
         cy=".895"
         r=".45"
         id="circle13" />
      <circle
         cx="7.125"
         cy=".34"
         r=".45"
         id="circle14" />
      <circle
         cx="9.553"
         cy="1.049"
         r=".45"
         id="circle15" />
      <circle
         cx="7.006"
         cy="2.689"
         r=".45"
         id="circle16" />
      <circle
         cx="8.909"
         cy="2.689"
         r=".45"
         id="circle17" />
      <circle
         cx="9.315"
         cy="4.407"
         r=".45"
         id="circle18" />
      <circle
         cx="7.82"
         cy="3.87"
         r=".45"
         id="circle19" />
      <circle
         cx="8.27"
         cy="5.948"
         r=".45"
         id="circle20" />
      <circle
         cx="7.973"
         cy="7.428"
         r=".45"
         id="circle21" />
      <circle
         cx="9.342"
         cy="8.072"
         r=".45"
         id="circle22" />
      <circle
         cx="8.206"
         cy="9.315"
         r=".45"
         id="circle23" />
      <circle
         cx="9.682"
         cy="9.475"
         r=".45"
         id="circle24" />
      <circle
         cx="9.688"
         cy="6.186"
         r=".45"
         id="circle25" />
      <circle
         cx="3.379"
         cy="6.296"
         r=".45"
         id="circle26" />
      <circle
         cx="2.871"
         cy="8.204"
         r=".45"
         id="circle27" />
      <circle
         cx="4.59"
         cy="8.719"
         r=".45"
         id="circle28" />
      <circle
         cx="3.181"
         cy="9.671"
         r=".45"
         id="circle29" />
      <circle
         cx="5.734"
         cy="7.315"
         r=".45"
         id="circle30" />
      <circle
         cx="6.707"
         cy="6.513"
         r=".45"
         id="circle31" />
      <circle
         cx="5.73"
         cy="9.67"
         r=".45"
         id="circle32" />
      <circle
         cx="6.535"
         cy="8.373"
         r=".45"
         id="circle33" />
      <circle
         cx="4.37"
         cy="7.154"
         r=".45"
         id="circle34" />
      <circle
         cx=".622"
         cy="7.25"
         r=".45"
         id="circle35" />
      <circle
         cx=".831"
         cy="5.679"
         r=".45"
         id="circle36" />
      <circle
         cx="1.257"
         cy="8.519"
         r=".45"
         id="circle37" />
      <circle
         cx="1.989"
         cy="6.877"
         r=".45"
         id="circle38" />
      <circle
         cx=".374"
         cy="3.181"
         r=".45"
         id="circle39" />
      <circle
         cx="1.166"
         cy="1.664"
         r=".45"
         id="circle40" />
      <circle
         cx="1.151"
         cy=".093"
         r=".45"
         id="circle41" />
      <circle
         cx="1.151"
         cy="10.093"
         r=".45"
         id="circle42" />
      <circle
         cx="1.302"
         cy="4.451"
         r=".45"
         id="circle43" />
      <circle
         cx="3.047"
         cy="3.763"
         r=".45"
         id="circle44" />
    </pattern>
  </defs>
  <g
     transform="translate(-3.9089583,-5.4692)"
     fill-rule="evenodd"
     id="g68">
    <path
       d="m 6.8449,61.811 c -2.73,4.3788 -1.9396,7.4375 -0.97227,10.43 l 44.283,30.406 41.101,-17.324 -3.182,-2.1213 -0.70711,-3.5355 c 1.1314,-1.0925 2.1975,-2.1719 2.9168,-3.182 0.19776,-1.2037 1.1075,-2.7634 -0.44194,-3.0936 l -46.934,-22.981 -32.085,10.165 -1.5026,1.4142 z"
       fill="#a02c2c"
       stroke="#ff6600"
       stroke-width="0.29055"
       id="path44" />
    <path
       d="m 5.6959,64.905 c 14.773,8.4179 28.654,23.521 42.426,30.848 l 1.149,6.364 L 5.2539,72.065 C 5.12735,69.6785 4.104,67.292 5.69584,64.9055 Z"
       fill="url(#k)"
       opacity="0.304"
       id="path45" />
    <path
       d="m 51.15,91.137 c -0.91911,3.2428 -0.76026,6.1263 0.44194,8.6621 l 36.858,-14.938 c -0.24151,0.96604 -1.3787,-5.3408 -0.92808,-5.701 0.3257,-0.26041 3.1375,-2.5193 2.8726,-2.6958 l -36.239,13.965 c -0.74016,0.75885 -1.5675,1.3434 -3.0052,0.70711 z"
       fill="#f4eed7"
       stroke="#000000"
       stroke-width="0.29055"
       id="path46" />
    <path
       d="m 91.103,75.487 -36.898,14.16 c -0.28282,0.23543 -1.0856,1.1255 -1.6035,1.2344 -0.60914,0.12804 -1.2524,-0.67843 -2.0117,0.23828 -0.63766,1.8202 -0.71374,3.0698 -0.50391,4.7676 0.27512,2.226 0.40889,2.8611 1.1426,4.834 l 37.422,-15.18 c 0.51558,-1.6188 -0.24434,-3.2098 -0.48828,-4.6504 -0.08122,-0.53612 -0.06839,-1.0095 0.18164,-1.6074 0.25004,-0.59793 1.1207,-0.9842 2.041,-1.9961 0.54595,-0.60026 0.66655,-1.2005 0.71875,-1.8008 z m -2.1348,1.9082 c 0.12971,0.70884 -1.1541,0.60808 -1.7793,1.3945 -0.13121,0.16504 -0.23153,0.3541 -0.31445,0.55078 -0.4768,0.16218 -2.3072,0.78244 -3.2812,1.1426 -4.0542,1.4989 -12.144,4.5672 -12.043,4.8105 0.101,0.2433 8.0442,-3.1067 12.088,-4.4258 1.037,-0.33826 2.6329,-0.83405 3.0703,-0.9707 -0.12399,0.53571 -0.14191,1.045 -0.10938,1.2598 0.19865,1.3112 0.38954,2.2254 0.36914,3.1445 l -34.941,14.523 c -0.50919,-1.2321 -0.86374,-2.399 -0.9375,-3.6562 0.39389,-0.14773 9.344,-3.5059 14.045,-5.4961 4.1303,-1.7486 12.739,-4.7896 12.572,-5.0371 -0.167,-0.2475 -8.7134,2.7661 -12.832,4.6387 -4.4195,2.0094 -12.726,5.0629 -13.803,5.3613 0.0066,-0.78935 0.12394,-1.6194 0.40039,-2.5332 0.25879,0.03288 1.2443,0.08278 1.5078,0.04102 0.58833,-0.09323 1.0032,-0.6056 1.5918,-1.1875 1.3125,-0.5 34.396,-13.561 34.396,-13.561 z m -17.363,11.66 c -4.3684,1.7608 -15.816,6.5459 -15.836,6.7676 -0.02042,0.22172 11.681,-4.5655 16.006,-6.3262 3.9774,-1.6192 13.974,-5.3372 13.229,-5.3745 -0.74477,-0.03734 -9.6998,3.4421 -13.399,4.9331 z"
       color="#000000"
       color-rendering="auto"
       fill="#decd87"
       image-rendering="auto"
       shape-rendering="auto"
       solid-color="#000000"
       style="text-indent:0;text-decoration-line:none;text-decoration-style:solid;text-decoration-color:#000000;text-transform:none;white-space:normal;isolation:auto;mix-blend-mode:normal"
       id="path47" />
    <path
       d="M 43.15,49.426 9.693,59.723 c 0,0 -0.42222,1.0774 -0.90234,1.2871 -0.70042,0.30601 -2.2715,-0.31055 -2.2715,-0.31055 -1.3952,0.64588 -2.4229,3.4556 -2.582,6.0469 -0.15912,2.5913 0.36948,5.1443 1.2227,6.0996 l 44.248,30.814 c 0.66242,0.37449 0.9988,0.25992 1.3359,0.14648 l 41.467,-17.113 c 0.82061,-0.37092 0.86192,-1.2502 0.16602,-2.1973 l -4.0664,-2.8223 c 0.32776,1.4767 0.56976,2.8704 0.39844,3.6816 -8.0988,3.2448 -26.941,10.879 -37.668,15.457 -0.83446,-1.1623 -0.92786,-2.9451 -1.0918,-4.5176 -0.18248,-1.7504 -0.0091,-4.0961 0.67969,-5.1348 0.68882,-1.0387 1.5227,-0.0117 2.0664,-0.26562 0.43849,-0.20479 1.1134,-0.67161 1.4785,-1.2168 8.3321,-2.7891 26.692,-10.205 37.889,-14.562 0.80476,-0.82668 0.36365,-1.3419 -0.13867,-1.8418 z m -0.16406,2.082 45.609,22.76 -35.646,13.613 c 0,0 -0.48828,0.81641 -0.92578,0.97266 -0.37877,0.13527 -0.95846,-0.3899 -1.373,-0.5332 -0.51012,-0.17633 -1.3599,0.14642 -1.7246,0.71484 -0.86812,1.3532 -1.3931,3.0081 -1.6699,4.5859 -0.33319,1.8988 -0.06808,3.7438 0.43555,5.418 l -39.834,-27.408 c -0.90928,-0.61828 -1.8027,-2.4593 -1.6836,-4.3984 0.12073,-1.9661 0.60257,-3.9927 1.8926,-4.6152 0,0 1.4561,0.51506 1.9082,0.37891 0.50889,-0.15326 1.125,-1.2441 1.125,-1.2441 z m -32.101,12.572 c -0.77273,0.32356 12.161,7.8854 18.955,11.949 6.5417,3.913 20.551,12.169 20.963,11.516 0.41208,-0.65349 -13.664,-8.4307 -20.18,-12.342 -6.5945,-3.9586 -18.965,-11.446 -19.738,-11.123 z"
       color="#000000"
       color-rendering="auto"
       fill="#501616"
       image-rendering="auto"
       shape-rendering="auto"
       solid-color="#000000"
       style="text-indent:0;text-decoration-line:none;text-decoration-style:solid;text-decoration-color:#000000;text-transform:none;white-space:normal;isolation:auto;mix-blend-mode:normal"
       id="path48" />
    <path
       d="m 8.4359,44.487 3.2704,-0.88388 34.825,-0.26516 38.802,23.688 -1.591,0.88388 -1.591,4.6846 c 0.45667,1.2669 0.41905,3.5224 1.5026,3.5355 l -48.437,11.932 -28.991,-34.118 c 0.42907,-3.255 -0.75811,-7.0488 2.2097,-9.4576 z"
       fill="#00aa00"
       stroke="#ff0000"
       stroke-width="0.29055"
       id="path49" />
    <path
       d="m 7.4333,46.606 c 10.372,10.268 17.573,22.103 26.308,32.966 -0.15116,2.5729 -0.44133,4.6327 3.0677,8.5781 -1.149,-0.49128 -2.2981,-0.58601 -3.4471,-1.9445 L 6.5799,54.1206 Z"
       fill="url(#j)"
       opacity="0.294"
       id="path50" />
    <path
       d="m 36.654,76.818 c 1.1733,0.15436 2.3127,0.54572 3.7123,-0.88388 l 42.515,-6.7175 c -1.0388,2.2066 -1.318,4.3047 -0.70711,6.2756 l -44.548,10.165 c -1.6193,-1.0023 -2.3561,-2.4459 -2.5633,-4.1543 -0.1897,-1.2915 -0.08393,-2.6938 1.591,-4.6846 z"
       fill="#f4eed7"
       stroke="#000000"
       stroke-width="0.29055"
       id="path51" />
    <path
       d="m 84.953,68.221 c -15.169,2.179 -37.081,5.4866 -45.057,6.9883 -0.31979,0.4392 -0.85766,0.8202 -1.5391,0.97852 -0.2578,0.05989 -0.8873,-0.06006 -1.5977,-0.12305 -1.6791,1.0933 -2.3958,3.3425 -2.1699,5.4199 0.28921,2.6594 1.3744,3.6836 2.8057,4.707 15.36,-3.4074 30.719,-6.2108 46.079,-10.35 -1.1103,-3.4523 -0.06768,-5.4947 1.4785,-7.6211 z m -3.2578,1.9043 c -0.58069,1.127 -0.67621,1.8733 -0.51172,3.1387 -0.32558,0.06119 -3.9699,0.74379 -5.9199,1.125 -2.3708,0.46347 -6.981,1.1332 -6.9883,1.4766 -0.0073,0.34338 4.7965,-0.44269 7.1504,-0.92969 1.7377,-0.35952 4.9757,-0.74919 5.8047,-1.373 0.04398,0.29462 0.08441,0.57533 0.15039,0.9375 l -43.518,10.242 c -0.56058,-0.33969 -1.0429,-1.0054 -1.3906,-1.7109 0.74644,-0.1452 7.7394,-1.5031 11.43,-2.0781 4.2487,-0.66209 12.711,-2.4872 12.594,-2.791 -0.117,-0.3038 -8.0759,1.7401 -12.662,2.2188 -3.8154,0.39823 -10.95,1.8838 -11.629,2.0254 -0.1331,-0.37406 -0.23126,-0.73796 -0.25195,-1.0469 -0.10751,-1.6047 -0.14845,-2.6888 1.2578,-4.1074 0.30362,0.24703 0.9745,0.4085 1.5117,0.29297 0.78102,-0.16797 1.1393,-0.3692 1.623,-0.9043 z m -5.543,2.5137 c -0.76641,-0.13864 -11.032,1.8048 -16.334,2.6445 -7.2898,1.1545 -21.942,3.0722 -21.773,3.498 0.16817,0.42582 14.789,-1.8587 22.139,-3.0742 5.5808,-0.92291 16.735,-2.9297 15.969,-3.0684 z"
       color="#000000"
       color-rendering="auto"
       fill="#decd87"
       image-rendering="auto"
       shape-rendering="auto"
       solid-color="#000000"
       style="text-indent:0;text-decoration-line:none;text-decoration-style:solid;text-decoration-color:#000000;text-transform:none;white-space:normal;isolation:auto;mix-blend-mode:normal"
       id="path52" />
    <path
       d="m 46.818,42.407 -35.639,0.3457 c -0.2316,0.32999 -0.78472,0.81626 -1.0547,0.87695 -0.28391,0.06383 -1.0536,-0.56073 -1.5254,-0.37891 -2.1398,0.82459 -2.3591,3.336 -2.7266,4.7285 -0.66073,2.5036 -0.071674,6.3102 0.68164,7.4414 1.125,1.3125 26.792,31.698 27.771,32.664 1.1314,1.1159 2.1679,1.2682 4.0547,0.77539 8.4253,-2.2005 32.944,-7.542 48.434,-11.758 0.91348,-0.47786 0.53794,-1.2682 -0.13086,-1.9023 l -3.7148,-2.2559 c 0.01724,1.0157 0.16176,1.9414 0.46094,2.8945 -14.394,3.3198 -31.538,7.0544 -46.137,10.34 -1.2699,-0.44679 -2.5564,-2.4397 -2.7031,-3.4785 -0.40598,-2.8742 0.13524,-4.2374 0.6875,-5.0371 0.54998,-0.79641 0.97304,-1.2784 1.4766,-1.5918 0.55643,0.05724 1.3794,0.29469 1.8691,0.11133 0.51899,-0.19431 0.88224,-0.57331 1.2637,-0.92773 l 46.328,-7.2305 c 0.7198,-0.54389 0.25689,-1.3057 -0.10156,-1.6309 z m -0.41797,2.082 36.238,22.145 -43.861,6.7441 c -0.48295,0.24662 -0.65235,0.80824 -0.86719,0.88867 -0.21483,0.08043 -0.9057,-0.08245 -1.4883,-0.13867 -1.2098,0.35582 -2.7767,2.5498 -3.1582,4.1074 -0.87254,3.5624 -0.20128,5.3987 1.3828,7.9336 l -26.359,-31.67 C 7.65056,53.52992 7.28982,51.905 7.71292,49.2628 c 0.20991,-1.3108 0.6539,-2.5788 1.3281,-3.6582 0.42636,0.03262 0.80617,0.33484 1.5176,0.10547 0.91606,-0.29535 0.9001,-0.99274 1.1191,-1.0762 z m -35.207,2.3542 c -0.4918,0.44787 8.2364,8.8095 12.541,13.29 4.3556,4.5341 12.492,13.936 13.139,13.438 0.6466,-0.49882 -7.9944,-9.6477 -12.332,-14.16 -4.1916,-4.3606 -12.856,-13.016 -13.347,-12.568 z"
       color="#000000"
       color-rendering="auto"
       fill="#005500"
       image-rendering="auto"
       shape-rendering="auto"
       solid-color="#000000"
       style="text-indent:0;text-decoration-line:none;text-decoration-style:solid;text-decoration-color:#000000;text-transform:none;white-space:normal;isolation:auto;mix-blend-mode:normal"
       id="path53" />
    <path
       d="M 45.382,29.284 7.375,34.6757 c -1.2853,3.3162 -3.3196,6.2205 -0.088388,12.021 l 39.775,30.229 44.901,-13.347 -3.3588,-1.8562 c 0.08092,-3.4835 0.96134,-6.5305 2.8284,-10.253 z"
       fill="#0055d4"
       stroke="#ff6600"
       stroke-width="0.29055"
       id="path54" />
    <path
       d="m 5.6959,39.714 c 12.296,11.411 25.8,20.053 38.537,29.257 0.25064,2.7189 0.52333,5.4316 2.3865,7.6898 L 7.0214,46.3438 C 5.6474,44.2894 5.6937,41.9984 5.6956,39.7147 Z"
       fill="url(#i)"
       opacity="0.296"
       id="path55" />
    <path
       d="m 47.791,64.886 c -0.90067,1.5384 -1.1892,3.3829 -1.149,5.3917 l 1.2374,3.4471 41.101,-10.783 -0.35355,-4.2426 1.2374,-3.3588 z"
       fill="#f4eed7"
       stroke="#000000"
       stroke-width="0.29055"
       id="path56" />
    <path
       d="m 91.928,54.026 -2.0176,0.45312 -42.121,9.3555 c -0.77248,0.83367 -2.0673,2.4882 -1.6641,6.0859 0.20658,1.843 0.67467,3.4994 1.8027,4.9727 l 41.635,-11.375 c 0.17088,-1.069 0.01681,-3.2126 0.15039,-4.7598 0.13359,-1.5472 0.63843,-2.1062 1.1504,-2.959 z m -3.2832,2.2266 c -0.21501,0.76866 -0.5359,1.4849 -0.68555,2.2852 -0.50568,-0.01762 -1.2533,-0.03268 -1.6914,0.05859 -2.575,0.53649 -7.7104,1.9635 -7.5605,2.2598 0.14988,0.29629 4.8037,-1.3944 7.748,-1.5781 0.42595,-0.02657 0.98372,0.003 1.4082,0.03125 -0.04004,0.4814 -0.06099,0.87426 -0.07813,1.2598 -4.5746,1.1523 -9.6638,2.3894 -14.225,3.5117 -5.8726,1.4451 -14.612,3.3424 -14.5,3.8301 0.11239,0.48764 8.8441,-1.8913 14.674,-3.3262 4.5578,-1.1218 9.4585,-2.1866 14.033,-3.3301 0.0053,0.31093 0.02348,0.59269 0.07422,0.81641 l -38.838,10.557 c -1.2221,-0.49077 -1.2302,-1.8001 -1.3633,-2.8047 -0.2012,-1.5186 -0.20359,-3.2696 0.80273,-4.082 z m -22.281,6.793 c -6.4068,1.5816 -18.136,4.6853 -18.031,4.9961 0.105,0.3108 11.793,-2.8482 18.123,-4.5664 3.3472,-0.90863 10.211,-2.5921 9.5992,-2.7546 -0.61139,-0.16245 -6.5575,1.5514 -9.691,2.3249 z"
       color="#000000"
       color-rendering="auto"
       fill="#decd87"
       image-rendering="auto"
       shape-rendering="auto"
       solid-color="#000000"
       style="text-indent:0;text-decoration-line:none;text-decoration-style:solid;text-decoration-color:#000000;text-transform:none;white-space:normal;isolation:auto;mix-blend-mode:normal"
       id="path57" />
    <path
       d="M 45.416,28.68 7.701,33.6878 c -1.937,0.55403 -3.0426,4.7878 -2.959,7.3477 0.065395,2.0023 1.1686,5.1723 2.4219,6.5586 l 40.16,30.543 46.559,-13.525 c 0.58576,-0.7623 0.29875,-1.1755 0.07813,-1.6152 l -4.3828,-2.6602 c 0,0 0.10352,1.9121 -0.02148,3.1621 -11.97,3.1417 -30.898,8.3305 -42.09,11.482 -0.68932,-0.69239 -1.6288,-3.3659 -1.6816,-5.0801 -0.09013,-2.9259 0.35446,-4.7783 1.4902,-5.8047 l 46.787,-10.535 c 0.54298,-0.35184 0.60691,-1.2185 -0.18555,-1.9844 z m -0.12695,1.6133 44.457,21.727 -44.49,9.8984 c -1.5685,1.9145 -1.962,4.0135 -1.9258,6.1152 0.03025,1.7563 0.50778,4.3447 1.3477,5.7168 L 8.44595,45.8077 C 7.54733,44.99777 6.89385,42.4306 6.89125,41.2843 6.8872,39.5167 7.49095,37.7762 8.52405,35.5577 Z m -34.779,6.5423 c -0.92648,0.40486 14.931,11.706 14.931,11.706 0,0 18.415,13.411 18.639,12.787 0.224,-0.624 -17.334,-14.025 -17.334,-14.025 0,0 -15.31,-10.872 -16.236,-10.467 z"
       color="#000000"
       color-rendering="auto"
       fill="#002255"
       image-rendering="auto"
       shape-rendering="auto"
       solid-color="#000000"
       style="text-indent:0;text-decoration-line:none;text-decoration-style:solid;text-decoration-color:#000000;text-transform:none;white-space:normal;isolation:auto;mix-blend-mode:normal"
       id="path58" />
    <path
       d="m 51.304,18.147 -36.681,10.43 c 0,0 -0.44194,1.4142 -0.97227,1.3258 -0.53033,-0.08839 -2.74,-0.08839 -2.74,-0.08839 -1.9665,2.5078 -2.0103,4.8874 -0.44194,7.1595 l 52.326,25.633 39.068,-14.142 -1.7678,-1.5026 1.8562,-2.74 0.0884,-4.331 z"
       fill="#ffcc00"
       stroke="#ff6600"
       stroke-width="0.29055"
       id="path59" />
    <path
       d="m 10.292,33.173 c 17.265,9.4457 34.593,17.228 51.858,24.264 l 1.1749,5.4346 -53.033,-25.633 z"
       fill="url(#h)"
       opacity="0.304"
       id="path60" />
    <path
       d="m 51.334,17.502 c -12.332,3.4319 -26.273,7.1208 -37.496,10.08 -0.2188,0.13889 -0.29897,0.6787 -0.77734,1.168 -0.20847,0.21322 -1.0825,-0.23648 -1.3926,-0.20117 -0.48568,0.05531 -1.0458,0.46326 -1.4375,0.80859 -0.53424,0.47095 -0.69443,0.93276 -0.93164,1.5879 -0.24496,0.67654 -0.23828,1.4295 -0.29297,2.2734 -0.10938,1.6879 0.20375,3.6655 0.91016,4.5938 17.318,8.5665 35.859,18.102 52.436,26.17 0.3485,0.26982 1.1276,0.31141 1.5703,0.23633 0.44273,-0.07508 0.82047,-0.22313 0.95898,-0.51953 0.08798,-0.18827 0.35116,-0.54824 0.63867,-0.73633 0.29253,-0.19137 0.56988,0.29464 1.2285,0.2832 l 36.213,-13.855 c 0.40371,-0.15447 0.66901,-0.74011 0.002,-1.2773 l -2.3086,-1.4844 -1.1563,1.7324 c -10.755,3.6959 -22.901,8.1527 -34.273,12.318 -0.86826,-0.18559 -1.8729,-2.0148 -1.9258,-2.877 -0.05894,-0.96169 0.42795,-2.0674 0.72656,-2.543 12.623,-4.7015 26.366,-9.3733 40.027,-14.217 0.64138,-0.36157 0.45604,-0.93097 -0.0996,-1.5918 l -52.619,-21.949 z m -0.06055,1.5977 49.111,21.418 -36.631,12.627 c -0.8395,0.31675 -1.3591,0.99502 -1.8008,1.6406 -0.57452,0.83973 -0.96887,2.092 -0.87695,3.5918 0.085,1.387 0.42999,2.3214 0.89844,3.0723 l -50.51,-25.021 c -0.66648,-0.98039 -0.63924,-1.8734 -0.57422,-3.0488 0.05115,-0.92462 0.304,-1.7349 0.8457,-2.4199 0.06394,-0.08086 0.78477,-0.63041 1.5352,-0.20508 0.31041,0.17595 0.61212,0.18191 1.1406,-0.19727 0.65079,-0.46691 0.42377,-0.89446 0.87305,-1.2559 l 35.988,-10.201 z m -36.311,11.398 c -0.12624,-0.02363 -0.20125,-0.01833 -0.22266,0.01563 -0.34243,0.5432 14.42,7.5634 21.736,11.133 8.0861,3.9447 24.197,11.813 24.484,11.359 0.28699,-0.4539 -16.036,-8.3719 -24.172,-12.32 -6.8271,-3.3132 -19.933,-9.833 -21.826,-10.188 z"
       color="#000000"
       color-rendering="auto"
       fill="#aa8800"
       image-rendering="auto"
       shape-rendering="auto"
       solid-color="#000000"
       style="text-indent:0;text-decoration-line:none;text-decoration-style:solid;text-decoration-color:#000000;text-transform:none;white-space:normal;isolation:auto;mix-blend-mode:normal"
       id="path61" />
    <path
       d="M 102.15,42.082 64.206,55.683 c -0.37427,1.5992 -0.35541,2.0558 0.01072,2.7195 l 1.1642,1.7106 34.346,-12.328 c 1.6283,-2.013 2.624,-3.9397 2.4231,-5.7033 z"
       fill="#f4eed7"
       stroke="#000000"
       stroke-width="0.29055"
       id="path62" />
    <path
       d="m 102.79,41.512 c -13.361,4.3705 -31.857,11.296 -38.65,13.633 -0.76858,0.84464 -0.71224,1.9197 -0.45703,2.9102 0.25521,0.9905 1.0702,2.3687 1.6621,2.6074 l 34.459,-12.35 c 0.26244,-0.36298 1.366,-1.3848 2.1035,-2.5195 0.36877,-0.56734 0.6543,-1.5007 0.79883,-2.1191 0.14453,-0.61847 0.38241,-1.7155 0.084,-2.1621 z m -1.2852,1.2715 c 0.25532,0.81069 -0.3075,1.4457 -0.68945,2.0703 -0.60792,0.99418 -1.4168,1.989 -1.9512,2.7012 l -33.066,11.857 c -0.53268,-0.27938 -0.96061,-0.88601 -1.1465,-1.6074 -0.19082,-0.7406 -0.12739,-1.5325 0.08594,-1.8711 z m -17.527,7.0508 c -5.7447,2.0967 -17.307,5.8307 -17.141,6.4512 0.16648,0.62048 11.653,-3.8999 17.451,-6.0234 5.4543,-1.9978 15.827,-5.7952 15.621,-6.0497 -0.20592,-0.25456 -10.767,3.7371 -15.931,5.622 z m 14.895,-3.4023 c -0.1253,-0.15461 -4.2908,1.2975 -6.3398,2.0781 -1.9287,0.73478 -26.881,9.6635 -26.766,9.9707 0.11538,0.30722 25.142,-8.8006 27.094,-9.5352 2.0324,-0.76504 6.137,-2.3591 6.0117,-2.5137 z"
       color="#000000"
       color-rendering="auto"
       fill="#decd87"
       image-rendering="auto"
       shape-rendering="auto"
       solid-color="#000000"
       style="text-indent:0;text-decoration-line:none;text-decoration-style:solid;text-decoration-color:#000000;text-transform:none;white-space:normal;isolation:auto;mix-blend-mode:normal"
       id="path63" />
    <path
       d="m 54.309,6.038 -41.012,8.1317 c -2.9989,2.8982 -4.0667,6.532 -2.1213,11.314 l 41.631,27.754 48.348,-12.198 -4.2426,-3.0052 -0.35355,-4.5962 3.8891,-5.3033 z"
       fill="#d40000"
       stroke="#ff6600"
       stroke-width="0.29055"
       id="path64" />
    <path
       d="m 10.999,21.594 c 13.612,8.8187 27.224,16.137 40.835,23.335 l 1.6794,8.1317 -2.8284,-0.88388 -39.863,-26.958 z"
       fill="url(#g)"
       opacity="0.283"
       id="path65" />
    <path
       d="M 55.481,41.64 97.996,31.033 c -1.8276,4.0335 -1.0398,5.7785 -1.149,8.3085 L 54.421,50.6555 53.6255,46.678 Z"
       fill="#f4eed7"
       stroke="#000000"
       stroke-width="0.29055"
       id="path66" />
    <path
       d="m 100.3,29.817 c -0.13862,0.01613 -0.289,0.08418 -0.36719,0.10352 l -44.611,10.857 c -1.0348,1.7182 -2.0658,3.4191 -2.2617,5.2637 -0.18401,1.7328 0.68087,4.012 0.99219,5.5449 l 44.016,-11.562 c -0.33462,-1.7092 -0.55902,-3.2723 -0.57812,-4.6582 -0.02325,-1.6869 0.75018,-2.931 1.5098,-3.8027 0.37979,-0.43585 0.67002,-0.5354 0.96875,-0.75 0.24957,-0.17929 0.53941,-0.32378 0.64062,-0.49609 0.0474,-0.08069 0.0294,-0.14334 -0.002,-0.29688 -0.0373,-0.18441 -0.16733,-0.21933 -0.30664,-0.20312 z m -3.8809,2.1875 c -0.67616,0.82655 -0.85377,1.4378 -0.89453,2.0801 -2.9492,0.43033 -12.367,2.4751 -17.479,3.6445 -5.9443,1.3599 -17.812,4.2627 -17.723,4.5684 0.08981,0.30568 12.009,-2.4817 17.979,-3.8477 5.1016,-1.1674 14.285,-3.2076 17.213,-4.0664 -0.0013,0.38349 0.01774,0.78549 0.01953,1.2715 0.0078,2.1192 0.31122,2.856 0.39453,3.2363 l -41.057,10.268 c -0.14144,-0.38036 -0.22675,-0.68849 -0.29102,-0.97852 0.87353,0.0075 3.5458,-0.49982 4.9707,-0.84961 1.8499,-0.45413 8.0053,-2.194 7.9785,-2.4453 -0.02678,-0.25131 -6.3182,1.4039 -8.2227,1.8711 -1.3992,0.34324 -3.967,0.84717 -4.7695,1.1816 -0.09457,-0.56917 -0.08183,-1.0964 -0.0293,-1.9238 0.12662,-1.9945 1.0386,-3.1983 1.1895,-3.4258 z m -24.48,9.6953 c -5.1818,1.1384 -15.462,3.2177 -15.438,3.6641 0.02415,0.44637 10.469,-1.7875 15.65,-2.9258 5.7539,-1.2641 17.264,-3.9797 16.446,-4.1224 -0.81792,-0.14268 -11.266,2.1992 -16.659,3.3841 z"
       color="#000000"
       color-rendering="auto"
       fill="#decd87"
       image-rendering="auto"
       shape-rendering="auto"
       solid-color="#000000"
       style="text-indent:0;text-decoration-line:none;text-decoration-style:solid;text-decoration-color:#000000;text-transform:none;white-space:normal;isolation:auto;mix-blend-mode:normal"
       id="path67" />
    <path
       d="m 54.484,5.4692 -42.176,8.2051 c 0,0 -2.7762,3.1451 -2.7324,6.3828 0.04252,3.1478 0.41311,5.0176 1.3145,5.9199 1.3138,0.91567 41.91,28.377 41.91,28.377 l 48.922,-12.873 c 0.5045,-0.61966 0.13287,-1.0933 -0.24218,-1.5664 l -3.7441,-1.6816 0.32617,1.7109 c -14.414,3.8257 -29.634,7.7742 -44.27,11.406 -0.19902,-0.84807 -0.89184,-3.2197 -0.95703,-4.0488 -0.24892,-3.1658 1.856,-6.0602 2.1328,-6.4277 l 46.244,-10.955 c 0.50623,-0.68116 0.36172,-1.5821 -0.18164,-2.1133 z m -0.11914,1.4707 44.002,21.391 -44.33,11.088 c 0,0 -3.3447,3.3447 -3.0527,7.8184 0.10706,1.6403 0.97301,3.9406 1.1328,4.5645 l -39.549,-26.375 c -0.8075,-0.83822 -1.0658,-2.5371 -1.1055,-5.4766 -0.0257,-1.9023 1.4715,-4.4616 1.6973,-4.6602 z m -40.463,8.6035 c -0.23217,0.47077 12.561,8.0626 18.969,11.879 6.7833,4.0398 19.998,12.201 20.605,11.689 0.60705,-0.51149 -13.192,-8.4387 -19.916,-12.443 -6.4671,-3.8515 -19.426,-11.596 -19.658,-11.125 z"
       color="#000000"
       color-rendering="auto"
       fill="#aa0000"
       image-rendering="auto"
       shape-rendering="auto"
       solid-color="#000000"
       style="text-indent:0;text-decoration-line:none;text-decoration-style:solid;text-decoration-color:#000000;text-transform:none;white-space:normal;isolation:auto;mix-blend-mode:normal"
       id="path68" />
  </g>
</svg>
