<svg xmlns="http://www.w3.org/2000/svg" width="687.879" height="551.56"><defs><radialGradient id="e" cx="123.04" cy="921.88" r="43.942" gradientTransform="matrix(2.1581 2.509 -8.0724 6.9435 7336.6 -6074.4)" gradientUnits="userSpaceOnUse"><stop offset="0" stop-color="#ffb380"/><stop offset="1" stop-color="#ffb380" stop-opacity="0"/></radialGradient><radialGradient id="f" cx="100.01" cy="921.84" r="43.942" gradientTransform="matrix(.5846 -.82976 1.9116 1.3468 -1686.1 -486.66)" gradientUnits="userSpaceOnUse"><stop offset="0"/><stop offset="1" stop-opacity="0"/></radialGradient><radialGradient id="d" cx="332.34" cy="814.47" r="64.65" gradientTransform="matrix(3.7428 -3.6402 .84899 .87291 -1419.6 997.57)" gradientUnits="userSpaceOnUse"><stop offset="0" stop-color="#c8b7b7"/><stop offset="1" stop-color="#c8b7b7" stop-opacity="0"/></radialGradient><radialGradient id="c" cx="133.85" cy="834.67" r="63.135" gradientTransform="matrix(5.5783 -.13125 .0176 .74794 -571.19 -74.839)" gradientUnits="userSpaceOnUse"><stop offset="0" stop-color="#c8b7b7"/><stop offset="1" stop-color="#c8b7b7" stop-opacity="0"/></radialGradient><radialGradient id="b" cx="336.38" cy="890.23" r="68.18" gradientTransform="matrix(3.6825 -3.1357 .92972 1.0918 -1544 705.84)" gradientUnits="userSpaceOnUse"><stop offset="0" stop-color="#c8b7b7"/><stop offset="1" stop-color="#c8b7b7" stop-opacity="0"/></radialGradient><radialGradient id="a" cx="122.73" cy="924.58" r="72.226" gradientTransform="matrix(4.9909 1.3538 -.21927 .80833 -237.92 -234.15)" gradientUnits="userSpaceOnUse"><stop offset="0" stop-color="#c8b7b7"/><stop offset="1" stop-color="#c8b7b7" stop-opacity="0"/></radialGradient></defs><path fill="red" stroke="#000" stroke-width="1.641" d="m35.63 251.168-1.657-23.203L365.443.915l318.21 116.01 3.314 14.916-328.15 261.86-323.18-142.53"/><path fill="red" stroke="#000" stroke-width="1.641" d="m32.315 249.508 8.287 8.287h4.972l303.29 135.9 18.23-4.972 319.86-255.23V116.92L363.774 2.56l-344.72 237L4.14 282.65.824 330.714l8.287 59.664h13.26a2602 2602 0 0 0 281.742 145.848l44.748 8.286 323.18-283.4 1.657-18.23-38.119-9.945-3.315-4.972v-23.203l16.573-38.119-291.69 227.05-324.84-144.19"/><path fill="none" stroke="#ffb306" stroke-width="1.641" d="m103.583 218.018 246.94-174.02 9.944 3.315 41.433-6.63 208.82 79.552 11.601 34.804-243.63 185.62-58.006 3.315-222.08-99.44 4.972-26.517"/><path fill="red" fill-rule="evenodd" stroke="#ffd200" d="M244.73 676.81a13.132 8.586 0 1 1 .361.894" transform="matrix(2.3194 0 0 1.6407 -220.407 -1071.032)"/><path fill="red" fill-rule="evenodd" stroke="#ffff16" stroke-width="1.641" d="M82.417 235.326a18.231 15.745 0 1 1 .501 1.64"/><path fill="red" fill-rule="evenodd" stroke="#ede611" stroke-width="1.641" d="M322.971 351.353a29.833 19.889 0 1 1 .82 2.07"/><path fill="red" fill-rule="evenodd" stroke="#ffe50c" stroke-width="1.641" d="M594.733 138.22a27.347 19.06 0 1 1 .753 1.984"/><path fill="red" d="m100.263 201.448 4.972 61.321-33.147-8.287 3.315-43.09zm174.02 145.84 145.84-13.259-56.349 46.405-89.496-33.147M604.093 97.028l23.203 82.866 36.461-46.405zm-270.14-54.69 87.838-6.63-56.349-24.86z"/><path fill="#fca" stroke="#000" stroke-width="1.641" d="m643.873 236.248 6.63 11.601-306.61 258.54-306.61-137.56 3.314-112.7 306.61 132.59 301.63-220.42-8.287 38.12 3.315 29.831"/><path fill="none" stroke="#000" stroke-width="1.641" d="m347.203 388.718-11.6 34.804"/><path fill="#ffb380" d="m234.513 390.378 97.782 44.748 117.67-76.237-119.33 82.866-96.125-51.377"/><path fill="maroon" stroke="#000" stroke-width="1.641" d="m37.287 365.518-11.6 6.63-4.973 16.572-8.287-64.636L29 252.82l1.658 14.916 6.63-9.944v107.73"/><path fill="#ffb380" d="m630.613 196.468-280.09 212.14 1.657-8.287 278.43-203.85M282.573 451.698l49.72 26.517 81.21-62.978-79.553 71.265zM42.26 261.108l-1.657 33.147 298.32 112.7 33.147-28.175-24.86 8.287zm591.664-28.179 6.63 11.601-64.637 56.35 13.26-21.546-31.49 33.147 28.175-38.119 48.063-41.433"/><path fill="#f95" d="m343.893 393.698-8.287 36.461 24.86-31.489 56.35-34.804-62.979 28.175z"/><path fill="#917c6f" d="m103.583 329.058 53.034 16.573 41.433 16.573 48.063 24.86-51.377-16.573 1.657-6.63-41.433-16.572-9.944 1.657z"/><path fill="#d38d5f" d="m196.393 368.838-8.287 61.321-9.944-26.517z"/><path fill="url(#a)" d="m53.394 618.89 237 116.01-3.315 4.972L53.4 618.892" style="fill:url(#a)" transform="translate(-16.107 -233.482)"/><path fill="url(#b)" d="M633.46 526.08 411.38 719.99h11.601z" style="fill:url(#b)" transform="translate(-16.107 -233.482)"/><path fill="url(#c)" d="M293.71 577.46 86.54 484.65l195.56 94.468 11.601-1.657" style="fill:url(#c)" transform="translate(-16.107 -233.482)"/><path fill="url(#d)" d="M616.89 420.01 409.72 575.8l8.287 1.657 203.85-147.5-4.972-9.944" style="fill:url(#d)" transform="translate(-16.107 -233.482)"/><path fill="url(#e)" stroke="url(#f)" stroke-width="1.641" d="m164.44 579.11-19.888 29.832 9.944 36.461-18.231 9.944-6.63 28.175-59.663 61.321 46.405-16.573-6.63 56.349 49.72-82.866 26.517-6.63 16.573-33.146-9.944-23.203 21.545-39.776-49.72-19.888" style="fill:url(#e);stroke:url(#f)" transform="translate(-16.107 -233.482)"/><path fill="#e49c1d" stroke="#000" stroke-width="1.641" d="m270.973 353.918 18.231-3.315 53.035 13.26 61.321-29.833 14.916 1.658-69.608 48.063-77.894-29.832m372.9-256.89 1.656 14.915 26.517 14.916-16.573 19.888 1.658 9.944 29.832-23.203-1.658-18.23-41.433-18.232m-374.56 422.621 19.888-11.6 54.692 14.915 41.433-29.832 23.203-3.315-58.006 53.035-41.433-4.972-39.776-18.23m366.27-227.05-1.658-14.917 19.888-31.489-6.63-1.657 3.315-8.287 24.86 6.63 1.657 16.572-41.433 33.147"/></svg>