<svg xmlns="http://www.w3.org/2000/svg" xmlns:xlink="http://www.w3.org/1999/xlink" width="107.253" height="105.01" viewBox="0 0 100.55 98.447"><defs><pattern xlink:href="#a" id="b" patternTransform="matrix(.43638 0 0 .42754 -.668 -.382)"/><pattern xlink:href="#a" id="c" patternTransform="matrix(.39219 0 0 .43638 -.668 -.382)"/><pattern xlink:href="#a" id="d" patternTransform="matrix(.35683 0 0 .40103 -.668 -.382)"/><pattern xlink:href="#a" id="e" patternTransform="matrix(.44522 0 0 .39219 -.668 -.382)"/><pattern xlink:href="#a" id="f" patternTransform="matrix(.4629 0 0 .37451 -.668 -.382)"/><pattern id="a" width="10" height="10" patternTransform="scale(10)" patternUnits="userSpaceOnUse"><circle cx="2.567" cy=".81" r=".45"/><circle cx="3.048" cy="2.33" r=".45"/><circle cx="4.418" cy="2.415" r=".45"/><circle cx="1.844" cy="3.029" r=".45"/><circle cx="6.08" cy="1.363" r=".45"/><circle cx="5.819" cy="4.413" r=".45"/><circle cx="4.305" cy="4.048" r=".45"/><circle cx="5.541" cy="3.045" r=".45"/><circle cx="4.785" cy="5.527" r=".45"/><circle cx="2.667" cy="5.184" r=".45"/><circle cx="7.965" cy="1.448" r=".45"/><circle cx="7.047" cy="5.049" r=".45"/><circle cx="4.34" cy=".895" r=".45"/><circle cx="7.125" cy=".34" r=".45"/><circle cx="9.553" cy="1.049" r=".45"/><circle cx="7.006" cy="2.689" r=".45"/><circle cx="8.909" cy="2.689" r=".45"/><circle cx="9.315" cy="4.407" r=".45"/><circle cx="7.82" cy="3.87" r=".45"/><circle cx="8.27" cy="5.948" r=".45"/><circle cx="7.973" cy="7.428" r=".45"/><circle cx="9.342" cy="8.072" r=".45"/><circle cx="8.206" cy="9.315" r=".45"/><circle cx="9.682" cy="9.475" r=".45"/><circle cx="9.688" cy="6.186" r=".45"/><circle cx="3.379" cy="6.296" r=".45"/><circle cx="2.871" cy="8.204" r=".45"/><circle cx="4.59" cy="8.719" r=".45"/><circle cx="3.181" cy="9.671" r=".45"/><circle cx="5.734" cy="7.315" r=".45"/><circle cx="6.707" cy="6.513" r=".45"/><circle cx="5.73" cy="9.67" r=".45"/><circle cx="6.535" cy="8.373" r=".45"/><circle cx="4.37" cy="7.154" r=".45"/><circle cx=".622" cy="7.25" r=".45"/><circle cx=".831" cy="5.679" r=".45"/><circle cx="1.257" cy="8.519" r=".45"/><circle cx="1.989" cy="6.877" r=".45"/><circle cx=".374" cy="3.181" r=".45"/><circle cx="1.166" cy="1.664" r=".45"/><circle cx="1.151" cy=".093" r=".45"/><circle cx="1.151" cy="10.093" r=".45"/><circle cx="1.302" cy="4.451" r=".45"/><circle cx="3.047" cy="3.763" r=".45"/></pattern></defs><g fill-rule="evenodd"><path fill="#a02c2c" stroke="#f60" stroke-width=".291" d="M2.936 56.342c-2.73 4.379-1.94 7.437-.972 10.43l44.283 30.406 41.1-17.324-3.181-2.122-.707-3.535c1.131-1.093 2.197-2.172 2.916-3.182.198-1.204 1.108-2.763-.442-3.094L39 44.941 6.914 55.104 5.412 56.52z"/><path fill="url(#b)" d="M5.696 64.905c14.773 8.418 28.654 23.521 42.426 30.848l1.149 6.364L5.254 72.065c-.127-2.386-1.15-4.773.442-7.16Z" opacity=".304" transform="translate(-3.909 -5.47)"/><path fill="#f4eed7" stroke="#000" stroke-width=".291" d="M47.241 85.668c-.92 3.243-.76 6.126.442 8.662l36.858-14.938c-.242.966-1.379-5.34-.928-5.701.326-.26 3.137-2.52 2.873-2.696L50.246 84.96c-.74.759-1.567 1.344-3.005.707z"/><path fill="#decd87" d="m91.103 75.487-36.898 14.16c-.283.235-1.086 1.125-1.604 1.234-.609.128-1.252-.678-2.011.239-.638 1.82-.714 3.07-.504 4.767.275 2.226.409 2.861 1.142 4.834l37.422-15.18c.516-1.619-.244-3.21-.488-4.65-.081-.536-.068-1.01.182-1.608.25-.597 1.12-.984 2.04-1.996.547-.6.667-1.2.72-1.8zm-2.135 1.908c.13.709-1.154.608-1.78 1.395a2.3 2.3 0 0 0-.314.55c-.476.163-2.307.783-3.28 1.143-4.055 1.499-12.145 4.567-12.044 4.81.101.244 8.044-3.106 12.088-4.425 1.037-.338 2.633-.834 3.07-.97-.123.535-.141 1.044-.109 1.259.199 1.311.39 2.225.37 3.144L52.026 98.824c-.509-1.232-.863-2.399-.937-3.656.394-.148 9.344-3.506 14.045-5.496 4.13-1.749 12.739-4.79 12.572-5.037-.167-.248-8.714 2.766-12.832 4.639-4.42 2.01-12.726 5.063-13.803 5.361.006-.79.124-1.62.4-2.533.259.033 1.244.083 1.508.04.588-.092 1.003-.605 1.592-1.187 1.312-.5 34.396-13.56 34.396-13.56zm-17.363 11.66c-4.368 1.761-15.816 6.546-15.836 6.768s11.681-4.566 16.006-6.326c3.978-1.62 13.974-5.338 13.23-5.375-.746-.037-9.7 3.442-13.4 4.933" color="#000" style="text-indent:0;text-decoration-line:none;text-decoration-style:solid;text-decoration-color:#000;text-transform:none;white-space:normal;isolation:auto;mix-blend-mode:normal" transform="translate(-3.909 -5.47)"/><path fill="#501616" d="M43.15 49.426 9.693 59.723s-.422 1.077-.902 1.287c-.7.306-2.272-.31-2.272-.31-1.395.645-2.423 3.455-2.582 6.046s.37 5.145 1.223 6.1l44.248 30.814c.662.375.999.26 1.336.147L92.21 86.694c.82-.371.862-1.25.166-2.198l-4.067-2.822c.328 1.477.57 2.87.399 3.682C80.61 88.6 61.768 96.235 51.04 100.813c-.835-1.163-.928-2.946-1.092-4.518-.182-1.75-.01-4.096.68-5.135.689-1.039 1.522-.012 2.066-.265.439-.205 1.114-.672 1.479-1.217 8.332-2.79 26.692-10.205 37.889-14.562.804-.827.363-1.342-.14-1.842zm-.164 2.082 45.609 22.76-35.646 13.613s-.488.816-.926.973c-.379.135-.958-.39-1.373-.534-.51-.176-1.36.147-1.724.715-.869 1.354-1.394 3.008-1.67 4.586-.334 1.899-.068 3.744.435 5.418L7.857 71.631c-.91-.618-1.802-2.46-1.683-4.398.12-1.966.602-3.993 1.892-4.615 0 0 1.456.515 1.908.379.51-.154 1.125-1.245 1.125-1.245zM10.885 64.08c-.773.324 12.16 7.885 18.955 11.949 6.542 3.913 20.55 12.169 20.963 11.516.412-.653-13.664-8.43-20.18-12.342-6.595-3.959-18.965-11.446-19.738-11.123" color="#000" style="text-indent:0;text-decoration-line:none;text-decoration-style:solid;text-decoration-color:#000;text-transform:none;white-space:normal;isolation:auto;mix-blend-mode:normal" transform="translate(-3.909 -5.47)"/><path fill="#0a0" stroke="red" stroke-width=".291" d="m4.527 39.018 3.27-.884 34.825-.265 38.802 23.688-1.59.884-1.592 4.684c.457 1.267.42 3.523 1.503 3.536L31.308 82.593 2.317 48.475c.429-3.255-.758-7.05 2.21-9.458z"/><path fill="url(#c)" d="M7.433 46.606c10.372 10.268 17.573 22.103 26.308 32.966-.15 2.573-.441 4.633 3.068 8.578-1.149-.491-2.298-.586-3.447-1.944L6.58 54.12Z" opacity=".294" transform="translate(-3.909 -5.47)"/><path fill="#f4eed7" stroke="#000" stroke-width=".291" d="M32.745 71.349c1.173.154 2.313.546 3.712-.884l42.515-6.718c-1.038 2.207-1.318 4.305-.707 6.276L33.717 80.188c-1.62-1.002-2.356-2.446-2.563-4.154-.19-1.292-.084-2.694 1.59-4.685z"/><path fill="#decd87" d="M84.953 68.221c-15.169 2.179-37.081 5.487-45.057 6.988-.32.44-.858.82-1.54.979-.257.06-.886-.06-1.597-.123-1.679 1.093-2.396 3.342-2.17 5.42.29 2.66 1.375 3.683 2.806 4.707 15.36-3.408 30.719-6.211 46.079-10.35-1.11-3.453-.068-5.495 1.479-7.621zm-3.258 1.904c-.58 1.127-.676 1.874-.512 3.139-.325.061-3.97.744-5.92 1.125-2.37.463-6.98 1.133-6.988 1.477-.007.343 4.797-.443 7.15-.93 1.738-.36 4.976-.75 5.805-1.373.044.295.085.575.15.937L37.864 84.742c-.56-.34-1.043-1.005-1.39-1.71.746-.146 7.739-1.504 11.43-2.079 4.248-.662 12.71-2.487 12.593-2.79-.117-.304-8.076 1.74-12.662 2.218-3.815.398-10.95 1.884-11.629 2.026-.133-.374-.231-.738-.252-1.047-.107-1.605-.148-2.69 1.258-4.108.304.247.975.409 1.512.293.78-.168 1.139-.369 1.623-.904zm-5.543 2.514c-.766-.139-11.032 1.805-16.334 2.645-7.29 1.154-21.942 3.072-21.773 3.497.168.426 14.79-1.858 22.14-3.074 5.58-.923 16.734-2.93 15.968-3.068z" color="#000" style="text-indent:0;text-decoration-line:none;text-decoration-style:solid;text-decoration-color:#000;text-transform:none;white-space:normal;isolation:auto;mix-blend-mode:normal" transform="translate(-3.909 -5.47)"/><path fill="#050" d="m46.818 42.407-35.639.346c-.232.33-.785.816-1.055.877-.284.063-1.053-.561-1.525-.38-2.14.825-2.36 3.337-2.727 4.73-.66 2.503-.071 6.31.682 7.44 1.125 1.313 26.792 31.699 27.77 32.665 1.132 1.116 2.169 1.268 4.056.775 8.425-2.2 32.944-7.542 48.434-11.758.913-.478.538-1.268-.131-1.902l-3.715-2.256a10 10 0 0 0 .46 2.894c-14.393 3.32-31.537 7.055-46.136 10.34-1.27-.446-2.556-2.44-2.703-3.478-.406-2.874.135-4.238.687-5.037.55-.797.973-1.279 1.477-1.592.556.057 1.38.295 1.869.111.519-.194.882-.573 1.264-.927l46.328-7.231c.72-.544.257-1.306-.102-1.63zm-.418 2.082 36.238 22.145-43.861 6.744c-.483.247-.652.808-.867.889s-.906-.083-1.488-.139c-1.21.356-2.777 2.55-3.159 4.108-.872 3.562-.2 5.398 1.383 7.933L8.287 54.5c-.636-.97-.997-2.594-.574-5.236.21-1.311.654-2.579 1.328-3.658.426.032.806.334 1.518.105.916-.295.9-.993 1.119-1.076zm-35.207 2.354c-.492.448 8.236 8.81 12.541 13.29 4.356 4.534 12.492 13.936 13.139 13.438.647-.499-7.994-9.648-12.332-14.16-4.192-4.36-12.856-13.016-13.347-12.568z" color="#000" style="text-indent:0;text-decoration-line:none;text-decoration-style:solid;text-decoration-color:#000;text-transform:none;white-space:normal;isolation:auto;mix-blend-mode:normal" transform="translate(-3.909 -5.47)"/><path fill="#0055d4" stroke="#f60" stroke-width=".291" d="M41.473 23.815 3.466 29.206c-1.285 3.317-3.32 6.221-.088 12.022l39.775 30.228 44.9-13.346-3.358-1.857c.08-3.483.961-6.53 2.828-10.253z"/><path fill="url(#d)" d="M5.696 39.714c12.296 11.411 25.8 20.053 38.537 29.257.25 2.719.523 5.432 2.386 7.69L7.021 46.344c-1.374-2.055-1.327-4.346-1.325-6.63Z" opacity=".296" transform="translate(-3.909 -5.47)"/><path fill="#f4eed7" stroke="#000" stroke-width=".291" d="M43.882 59.417c-.9 1.538-1.19 3.383-1.149 5.391l1.237 3.448 41.101-10.783-.353-4.243 1.237-3.359z"/><path fill="#decd87" d="m91.928 54.026-2.018.453-42.12 9.356c-.773.833-2.068 2.488-1.665 6.086.207 1.843.675 3.499 1.803 4.972l41.635-11.375c.17-1.069.017-3.212.15-4.76.134-1.547.639-2.106 1.15-2.959zm-3.283 2.227c-.215.768-.536 1.485-.686 2.285-.505-.018-1.253-.033-1.691.058-2.575.537-7.71 1.964-7.56 2.26s4.803-1.394 7.747-1.578c.426-.026.984.003 1.409.031-.04.482-.061.875-.079 1.26-4.574 1.152-9.663 2.39-14.225 3.512-5.872 1.445-14.612 3.342-14.5 3.83s8.845-1.891 14.674-3.326c4.558-1.122 9.459-2.187 14.033-3.33a4.2 4.2 0 0 0 .075.816L49.004 72.628c-1.222-.49-1.23-1.8-1.364-2.805-.2-1.518-.203-3.27.803-4.082zm-22.281 6.793c-6.407 1.581-18.136 4.685-18.031 4.996.105.31 11.793-2.848 18.123-4.567 3.347-.908 10.21-2.592 9.599-2.754-.611-.163-6.558 1.551-9.691 2.325z" color="#000" style="text-indent:0;text-decoration-line:none;text-decoration-style:solid;text-decoration-color:#000;text-transform:none;white-space:normal;isolation:auto;mix-blend-mode:normal" transform="translate(-3.909 -5.47)"/><path fill="#025" d="M45.416 28.68 7.701 33.688c-1.937.554-3.043 4.788-2.959 7.348.065 2.002 1.169 5.172 2.422 6.558l40.16 30.543 46.559-13.525c.586-.762.299-1.175.078-1.615l-4.383-2.66s.104 1.912-.021 3.162c-11.97 3.141-30.898 8.33-42.09 11.482-.69-.693-1.63-3.366-1.682-5.08-.09-2.926.355-4.779 1.49-5.805l46.787-10.535c.543-.352.607-1.219-.185-1.984zm-.127 1.613L89.746 52.02l-44.49 9.899c-1.568 1.914-1.962 4.013-1.926 6.115.03 1.756.508 4.345 1.348 5.717L8.446 45.808c-.899-.81-1.552-3.377-1.555-4.524-.004-1.767.6-3.508 1.633-5.726ZM10.51 36.836c-.926.404 14.931 11.706 14.931 11.706s18.415 13.41 18.639 12.787c.224-.624-17.334-14.025-17.334-14.025S11.436 36.432 10.51 36.837z" color="#000" style="text-indent:0;text-decoration-line:none;text-decoration-style:solid;text-decoration-color:#000;text-transform:none;white-space:normal;isolation:auto;mix-blend-mode:normal" transform="translate(-3.909 -5.47)"/><path fill="#fc0" stroke="#f60" stroke-width=".291" d="m47.395 12.678-36.681 10.43s-.442 1.414-.972 1.326c-.53-.089-2.74-.089-2.74-.089-1.967 2.508-2.01 4.888-.442 7.16l52.326 25.633 39.068-14.142-1.768-1.503 1.856-2.74.089-4.33z"/><path fill="url(#e)" d="M10.292 33.173c17.265 9.446 34.593 17.228 51.858 24.264l1.175 5.435-53.033-25.633z" opacity=".304" transform="translate(-3.909 -5.47)"/><path fill="#a80" d="M51.334 17.502c-12.332 3.432-26.273 7.12-37.496 10.08-.219.139-.299.679-.777 1.168-.209.213-1.083-.236-1.393-.201-.486.055-1.046.463-1.437.808-.535.471-.695.933-.932 1.588-.245.677-.238 1.43-.293 2.274-.11 1.688.204 3.665.91 4.594 17.318 8.566 35.86 18.102 52.436 26.17.349.27 1.128.31 1.57.236s.82-.223.96-.52c.087-.188.35-.548.638-.736.293-.191.57.295 1.229.283l36.213-13.855c.403-.154.669-.74.002-1.277l-2.309-1.485-1.156 1.733c-10.755 3.696-22.901 8.153-34.273 12.318-.869-.186-1.873-2.015-1.926-2.877-.06-.962.428-2.068.726-2.543 12.623-4.702 26.366-9.373 40.027-14.217.642-.362.456-.931-.1-1.592zm-.06 1.598 49.11 21.418-36.63 12.627c-.84.316-1.36.995-1.801 1.64-.575.84-.97 2.092-.877 3.592.085 1.387.43 2.321.898 3.072l-50.51-25.02c-.666-.981-.64-1.874-.574-3.05.051-.924.304-1.734.846-2.42.064-.08.784-.63 1.535-.204.31.176.612.182 1.14-.198.651-.467.424-.894.873-1.256l35.988-10.2zM14.961 30.498q-.189-.036-.222.015c-.343.544 14.42 7.564 21.736 11.133 8.086 3.945 24.197 11.813 24.484 11.36.287-.455-16.036-8.373-24.172-12.32-6.827-3.314-19.933-9.834-21.826-10.189z" color="#000" style="text-indent:0;text-decoration-line:none;text-decoration-style:solid;text-decoration-color:#000;text-transform:none;white-space:normal;isolation:auto;mix-blend-mode:normal" transform="translate(-3.909 -5.47)"/><path fill="#f4eed7" stroke="#000" stroke-width=".291" d="m98.241 36.613-37.944 13.6c-.374 1.6-.355 2.057.01 2.72l1.165 1.71 34.346-12.327c1.628-2.013 2.624-3.94 2.423-5.703z"/><path fill="#decd87" d="M102.79 41.512c-13.361 4.37-31.857 11.296-38.65 13.633-.769.845-.712 1.92-.457 2.91s1.07 2.369 1.662 2.608l34.46-12.35c.262-.363 1.365-1.385 2.103-2.52.368-.567.654-1.5.798-2.119.145-.618.383-1.716.084-2.162zm-1.285 1.272c.255.81-.308 1.445-.69 2.07-.608.994-1.416 1.989-1.95 2.701L65.797 59.412c-.533-.28-.96-.886-1.146-1.607-.191-.741-.128-1.533.086-1.871zm-17.527 7.05c-5.745 2.097-17.307 5.831-17.141 6.452s11.653-3.9 17.45-6.024c5.455-1.998 15.828-5.795 15.622-6.05s-10.767 3.737-15.931 5.622m14.895-3.402c-.126-.155-4.291 1.298-6.34 2.078-1.929.735-26.881 9.664-26.766 9.97.115.308 25.142-8.8 27.094-9.534 2.032-.765 6.137-2.36 6.012-2.514z" color="#000" style="text-indent:0;text-decoration-line:none;text-decoration-style:solid;text-decoration-color:#000;text-transform:none;white-space:normal;isolation:auto;mix-blend-mode:normal" transform="translate(-3.909 -5.47)"/><path fill="#d40000" stroke="#f60" stroke-width=".291" d="M50.4.569 9.388 8.7c-2.999 2.898-4.067 6.532-2.121 11.314l41.63 27.754L97.247 35.57l-4.243-3.006-.353-4.596 3.889-5.303z"/><path fill="url(#f)" d="M10.999 21.594c13.612 8.819 27.224 16.137 40.835 23.335l1.68 8.132-2.829-.884-39.863-26.958z" opacity=".283" transform="translate(-3.909 -5.47)"/><path fill="#f4eed7" stroke="#000" stroke-width=".291" d="m51.572 36.17 42.515-10.606c-1.828 4.033-1.04 5.778-1.149 8.308L50.512 45.186l-.795-3.977Z"/><path fill="#decd87" d="M100.3 29.817c-.139.016-.289.084-.367.104L55.322 40.778c-1.035 1.718-2.066 3.419-2.262 5.263-.184 1.733.681 4.012.992 5.545l44.016-11.562c-.334-1.71-.559-3.272-.578-4.658-.023-1.687.75-2.931 1.51-3.803.38-.436.67-.535.969-.75.25-.18.54-.324.64-.496.048-.08.03-.143-.002-.297-.037-.184-.167-.22-.306-.203zm-3.88 2.188c-.677.826-.855 1.437-.895 2.08-2.95.43-12.367 2.475-17.48 3.644-5.944 1.36-17.811 4.263-17.722 4.569.09.305 12.009-2.482 17.979-3.848 5.101-1.168 14.285-3.208 17.213-4.067-.002.384.017.786.02 1.272.007 2.12.31 2.856.394 3.236L54.872 49.16a7 7 0 0 1-.291-.978c.873.007 3.545-.5 4.97-.85 1.85-.454 8.006-2.194 7.979-2.445-.027-.252-6.318 1.404-8.223 1.87-1.4.344-3.967.848-4.77 1.182-.094-.569-.081-1.096-.029-1.923.127-1.995 1.039-3.199 1.19-3.426zM71.94 41.7c-5.183 1.138-15.463 3.217-15.439 3.664.024.446 10.47-1.788 15.65-2.926 5.754-1.264 17.264-3.98 16.446-4.122-.818-.143-11.266 2.199-16.659 3.384z" color="#000" style="text-indent:0;text-decoration-line:none;text-decoration-style:solid;text-decoration-color:#000;text-transform:none;white-space:normal;isolation:auto;mix-blend-mode:normal" transform="translate(-3.909 -5.47)"/><path fill="#a00" d="m54.484 5.47-42.176 8.204s-2.776 3.145-2.732 6.383c.042 3.148.413 5.018 1.314 5.92 1.314.916 41.91 28.377 41.91 28.377l48.922-12.873c.505-.62.133-1.093-.242-1.566l-3.744-1.682.326 1.71c-14.414 3.827-29.634 7.775-44.27 11.407-.199-.848-.892-3.22-.957-4.049-.249-3.166 1.856-6.06 2.133-6.428l46.244-10.955c.506-.68.361-1.582-.182-2.113zm-.12 1.47 44.003 21.39-44.33 11.089s-3.345 3.345-3.053 7.818c.107 1.64.973 3.94 1.133 4.565L12.568 25.427c-.808-.838-1.066-2.537-1.106-5.477-.025-1.902 1.472-4.461 1.698-4.66zm-40.462 8.603c-.232.471 12.56 8.063 18.969 11.88 6.783 4.04 19.998 12.2 20.605 11.688S40.284 30.673 33.56 26.668c-6.467-3.851-19.426-11.596-19.658-11.125" color="#000" style="text-indent:0;text-decoration-line:none;text-decoration-style:solid;text-decoration-color:#000;text-transform:none;white-space:normal;isolation:auto;mix-blend-mode:normal" transform="translate(-3.909 -5.47)"/></g></svg>