<?xml version="1.0" encoding="UTF-8"?>
<svg width="210mm" height="297mm" version="1.1" xmlns="http://www.w3.org/2000/svg">
 <defs>
  <radialGradient id="k" cx="123.04" cy="921.88" r="43.942" gradientTransform="matrix(2.1581 2.509 -8.0724 6.9435 7336.6 -6074.4)" gradientUnits="userSpaceOnUse">
   <stop stop-color="#ffb380" offset="0"/>
   <stop stop-color="#ffb380" stop-opacity="0" offset="1"/>
  </radialGradient>
  <radialGradient id="l" cx="100.01" cy="921.84" r="43.942" gradientTransform="matrix(.5846 -.82976 1.9116 1.3468 -1686.1 -486.66)" gradientUnits="userSpaceOnUse">
   <stop offset="0"/>
   <stop stop-opacity="0" offset="1"/>
  </radialGradient>
  <radialGradient id="j" cx="332.34" cy="814.47" r="64.65" gradientTransform="matrix(3.7428 -3.6402 .84899 .87291 -1419.6 997.57)" gradientUnits="userSpaceOnUse">
   <stop stop-color="#c8b7b7" offset="0"/>
   <stop stop-color="#c8b7b7" stop-opacity="0" offset="1"/>
  </radialGradient>
  <radialGradient id="i" cx="133.85" cy="834.67" r="63.135" gradientTransform="matrix(5.5783 -.13125 .017599 .74794 -571.19 -74.839)" gradientUnits="userSpaceOnUse">
   <stop stop-color="#c8b7b7" offset="0"/>
   <stop stop-color="#c8b7b7" stop-opacity="0" offset="1"/>
  </radialGradient>
  <radialGradient id="h" cx="336.38" cy="890.23" r="68.18" gradientTransform="matrix(3.6825 -3.1357 .92972 1.0918 -1544 705.84)" gradientUnits="userSpaceOnUse">
   <stop stop-color="#c8b7b7" offset="0"/>
   <stop stop-color="#c8b7b7" stop-opacity="0" offset="1"/>
  </radialGradient>
  <radialGradient id="g" cx="122.73" cy="924.58" r="72.226" gradientTransform="matrix(4.9909 1.3538 -.21927 .80833 -237.92 -234.15)" gradientUnits="userSpaceOnUse">
   <stop stop-color="#c8b7b7" offset="0"/>
   <stop stop-color="#c8b7b7" stop-opacity="0" offset="1"/>
  </radialGradient>
 </defs>
 <path d="m51.737 484.65-1.6573-23.203 331.47-227.05 318.21 116.01 3.3146 14.916-328.15 261.86-323.18-142.53" fill="#f00" stroke="#000" stroke-width="1.6407px"/>
 <path d="m48.422 482.99 8.2867 8.2866h4.972l303.29 135.9 18.231-4.972 319.86-255.23v-16.573l-323.18-114.36-344.72 237-14.916 43.091-3.3146 48.063 8.2866 59.664h13.259c25.705 15.363 51.675 30.282 77.894 44.748 66.432 36.652 134.47 70.394 203.85 101.1l44.748 8.2866 323.18-283.4 1.6573-18.231-38.119-9.944-3.3147-4.972v-23.203l16.573-38.119-291.69 227.05-324.84-144.19" fill="#f00" stroke="#000" stroke-width="1.6407px"/>
 <path d="m119.69 451.5 246.94-174.02 9.944 3.3147 41.433-6.6293 208.82 79.552 11.601 34.804-243.63 185.62-58.006 3.3146-222.08-99.44 4.972-26.517" fill="none" stroke="#ffb306" stroke-width="1.6407px"/>
 <path transform="matrix(2.3194 0 0 1.6407 -204.3 -837.55)" d="m244.73 676.81a13.132 8.5863 0 1 1 0.36126 0.8939" fill="#f00" fill-rule="evenodd" stroke="#ffd200" stroke-width="1px"/>
 <path transform="matrix(1.6407 0 0 1.6407 -29.472 -837.55)" d="m78.013 796.22a11.112 9.5964 0 1 1 0.30568 0.99907" fill="#f00" fill-rule="evenodd" stroke="#ffff16" stroke-width="1px"/>
 <path transform="matrix(1.6407 0 0 1.6407 -32.787 -850.81)" d="m226.65 875.02a18.183 12.122 0 1 1 0.5002 1.262" fill="#f00" fill-rule="evenodd" stroke="#ede611" stroke-width="1px"/>
 <path transform="matrix(1.6407 0 0 1.6407 -55.989 -839.2)" d="m406.43 738.04a16.668 11.617 0 1 1 0.45852 1.2094" fill="#f00" fill-rule="evenodd" stroke="#ffe50c" stroke-width="1px"/>
 <path d="m116.37 434.93 4.972 61.321-33.147-8.2866 3.3146-43.091 24.86-9.944" fill="#f00"/>
 <path d="m290.39 580.77 145.84-13.259-56.349 46.405-89.496-33.147" fill="#f00"/>
 <path d="m620.2 330.51 23.203 82.866 36.461-46.405-59.664-36.461" fill="#f00"/>
 <path d="m350.06 275.82 87.838-6.6293-56.349-24.86-31.489 31.489" fill="#f00"/>
 <path d="m659.98 469.73 6.6293 11.601l-306.61 258.54-306.61-137.56 3.3147-112.7 306.61 132.59 301.63-220.42-8.2866 38.119 3.3147 29.832" fill="#fca" stroke="#000" stroke-width="1.6407px"/>
 <path d="m363.31 622.2-11.601 34.804" fill="none" stroke="#000" stroke-width="1.6407px"/>
 <path d="m250.62 623.86 97.782 44.748 117.67-76.237-119.33 82.866-96.125-51.377" fill="#ffb380"/>
 <path d="m53.394 599-11.601 6.6293-4.972 16.573-8.2867-64.636 16.573-71.265 1.6573 14.916 6.6293-9.944v107.73" fill="#800000" stroke="#000" stroke-width="1.6407px"/>
 <path d="m646.72 429.95-280.09 212.14 1.6573-8.2866 278.43-203.85" fill="#ffb380"/>
 <path d="m298.68 685.18 49.72 26.517 81.209-62.978-79.552 71.265-51.377-34.804" fill="#ffb380"/>
 <path d="m58.366 494.59-1.6573 33.147 298.32 112.7 33.147-28.175-24.86 8.2866-304.95-125.96" fill="#ffb380"/>
 <path d="m650.03 466.41 6.6293 11.601-64.636 56.349 13.259-21.545-31.489 33.147 28.175-38.119 48.063-41.433" fill="#ffb380"/>
 <path d="m360 627.18-8.2866 36.461 24.86-31.489 56.349-34.804-62.978 28.175l-9.944 1.6573" fill="#f95"/>
 <path d="m119.69 562.54 53.034 16.573 41.433 16.573 48.063 24.86-51.377-16.573 1.6573-6.6293-41.433-16.573-9.944 1.6573-41.433-19.888" fill="#917c6f"/>
 <path d="m212.5 602.32-8.2866 61.321-9.944-26.517 18.231-34.804" fill="#d38d5f"/>
 <path d="m53.394 618.89 237 116.01-3.3146 4.972-233.68-120.98" fill="url(#g)"/>
 <path d="m633.46 526.08-222.08 193.91h11.601l210.48-193.91" fill="url(#h)"/>
 <path d="m293.71 577.46-207.17-92.81 195.56 94.468 11.601-1.6573" fill="url(#i)"/>
 <path d="m616.89 420.01-207.17 155.79 8.2866 1.6573 203.85-147.5-4.972-9.944" fill="url(#j)"/>
 <path d="m164.44 579.11-19.888 29.832 9.944 36.461-18.231 9.944-6.6293 28.175-59.664 61.321 46.405-16.573-6.6293 56.349 49.72-82.866 26.517-6.6293 16.573-33.147-9.944-23.203 21.545-39.776-49.72-19.888" fill="url(#k)" stroke="url(#l)" stroke-width="1.6407px"/>
 <path d="m287.08 587.4 18.231-3.3147 53.035 13.259 61.321-29.832 14.916 1.6573-69.608 48.063-77.894-29.832" fill="#e49c1d" stroke="#000" stroke-width="1.6407px"/>
 <path d="m659.98 330.51 1.6573 14.916 26.517 14.916-16.573 19.888 1.6573 9.944 29.832-23.203-1.6573-18.231-41.433-18.231" fill="#e49c1d" stroke="#000" stroke-width="1.6407px"/>
 <path d="m285.42 753.13 19.888-11.601 54.692 14.916l41.433-29.832 23.203-3.3147-58.006 53.035-41.433-4.972-39.776-18.231" fill="#e49c1d" stroke="#000" stroke-width="1.6407px"/>
 <path d="m651.69 526.08-1.6573-14.916 19.888-31.489-6.6293-1.6573 3.3147-8.2866 24.86 6.6293 1.6573 16.573-41.433 33.147" fill="#e49c1d" stroke="#000" stroke-width="1.6407px"/>
</svg>
