<?xml version="1.0" encoding="UTF-8"?>
<svg viewBox="0 0 744.09448819 1052.3622047" xmlns="http://www.w3.org/2000/svg">
 <g transform="matrix(4.1238 0 0 4.1238 -1183.1 -1931.5)">
  <path d="m360.82 558.58s-23.1 18.133-23.602 27.659 3.7658 10.757 3.7658 10.757 9.2906-9.8327 12.806-17.826 10.546-17.515 10.546-17.515-1.2556-5.8383-3.5151-3.0749z" fill="#26231f"/>
  <path d="m407.38 554.43s32.91 28.326 29.144 34.778c-3.7663 6.4562-5.1489 4.0932-5.1489 4.0932l-8.0347-7.0693s-17.114-26.25-17.617-28.707 1.6572-3.0947 1.6572-3.0947z" fill="#26231f"/>
  <path d="m360.76 560.36s-22.092 18.563-21.698 25.044 3.1563 7.3659 4.9975 6.3326 4.7852-9.0566 4.7852-9.0566 13.635-20.62 13.897-21.648-1.061-1.4089-1.9815-0.6723z" fill="#f4b891"/>
  <path d="m408.3 557.22c-0.4643 0.1088-0.4594 2.8524-0.4594 2.8524s16.175 26.661 19.594 27.106 9.0598 2.4223 8.1392 0.0642-24.775-30.61-27.274-30.022z" fill="#f4b891"/>
  <path d="m418.89 550.93s-0.3884 6.2042 2.8995 6.2042 5.78-1.1963 5.9115-3.8461-0.921-5.8927-0.921-5.8927-7.2319 0.1483-7.8899 3.5346z" fill="#26231f"/>
  <path d="m403.7566,519.8541c1.0044-2.7659 7.0298-9.5282 9.2898-7.3768s3.2644-3.9949 6.7791-.3065c3.5156,3.6874 2.7618,2.4574 3.5156,5.2243s3.0128.615 4.7711,3.3809 1.5058,1.8434 1.0031,6.4533c-.2216,2.0393-1.0066.9714.5569,1.9042 4.61,2.7496 2.0694,8.4031.9498,9.7724-2.0081,2.4619 7.0307,9.8377-1.2542,11.6817-2.7707.6179-6.8406,3.4209-9.5423,3.3814-2.1708-.0346-3.7516-2.0516-3.9754-3.9697-.5026-4.3058-.7282,1.0629-2.4851-2.012s-1.8248-4.1625-1.5742-6.6195-4.2684-15.06-6.2764-14.1385-5.2729-2.7654-5.2729-2.7654l3.5151-4.6099z" fill="#26231f"/>
  <path d="m362.83 530.92c-4.3338 0-3.7658-12.293-7.0302-8.2977-3.2636 3.9944-1.0044 1.536-4.7702 0s-8.0347-4.9178-8.0347-0.9215c0 3.9944 3.0133 4.9159-1.2556 4.6098s-11.801 3.0729-8.2858 7.3777 7.0312 6.4513 0.7533 7.9887-11.299 4.301-6.78 6.7629 4.0182 0.9195 3.7671 4.9139 0.2511 6.4563 4.268 7.6822 5.1374-2.7684 6.3926-5e-3c1.2547 2.7684 5.4088 7.3857 8.4216 1.8538 3.0134-5.5368 2.0081-6.7628 3.2641-7.9937s2.7622 3.3814 3.2644-0.3065 2.5106-11.677 4.2684-13.214 4.0169-10.451 1.7569-10.451z" fill="#26231f"/>
  <path d="m374.19 566.83c-0.1275 0.2076-3.7773 0.3807-5.7292 1.7747-2.779 1.9774-5.7169 2.9414-8.16 6.5552-6.822 10.09-11.921 27.615-8.0727 29.973 5.0218 3.0749 68.3 5.6703 69.304-3.2429 0.7573-6.7282-4.3333-18.143-10.854-27.13-2.1183-2.9167-4.9326-7.0396-6.7408-6.9506-4.08 0.1977-10.466-4.375-9.4005-3.9746 2.2013 0.8256-15.265 0.2323-19.032 2.9958h-1.3151z" fill="#26231f"/>
  <path d="m389.8 602.72s18.722-23.299 56.758-12.903l-5.103 17.327 4.4815 2.7535-0.6031 5.2303-48.516-2.4668s-0.3699 2.2641-2.9551 2.7139-7.9257-0.1878-7.9257-0.1878l-2.0461-4.3355-54.137 10.362 0.2207-4.4839 4.0624-2.709s-0.335-24.1-1.8465-28.48c0 0 21.787-20.343 57.61 17.179z" fill="#26231f"/>
  <path d="m360.3296,538.1053c0,0-5.2522-4.2317-6.4954.6773 0,0-1.5667,9.3087 4.4004,10.0898 .1562.0247.0627-1.2507.0627-1.2507s.9802-7.2225 2.0323-9.5163z" fill="#26231f"/>
  <path d="m359.68 539.72s-4.2941-3.9746-5.1458-0.0544c0 0-1.4992 4.5431 3.749 6.7282 0.1478 0.0643 0 0 0 0s-0.1973-4.3305 1.3968-6.6738z" fill="#f09b75"/>
  <path d="m404.51 529.39s4.0279-6.7687 6.4345-2.5647c0 0 3.727 9.0264-1.7569 12.027-0.1421 0.0741-0.3703-1.1667-0.3703-1.1667s-2.7335-6.5062-4.3073-8.2957z" fill="#26231f"/>
  <path d="m405.53 530.69s3.0959-5.4058 4.8836-1.9942c0 0 2.5579 3.7576-1.8924 7.8242-0.1245 0.1137 0 0 0 0s-0.8897-4.1981-2.9913-5.8299z" fill="#f09b75"/>
  <path d="m358.4 549.4c1.4334 11.222 11.372 18.894 23.252 18.771 1.6607-0.0149 3.4119 1.6413 5.1299 1.3052 1.9612-0.3807 3.7935-2.7733 5.5778-3.5149 10.961-4.5431 18.187-15.379 16.782-26.379-1.6338-12.796-14.317-20.969-28.328-18.259s-24.047 15.278-22.413 28.077z" fill="#26231f"/>
  <path d="m360.24 548.65c1.3487 10.559 10.579 17.797 21.595 17.713 1.5388-0.01 3.1083 0.9738 4.7014 0.6673 1.8191-0.3509 3.569-2.0268 5.2239-2.7189 10.156-4.2416 16.838-14.41 15.517-24.762-1.5376-12.037-13.312-19.755-26.301-17.242s-22.273 14.306-20.737 26.343z" fill="#f4b891"/>
  <path d="m371.05 538.54c0.8849 0.9838 2.8915 1.7599 3.975 1.2507l-3.975-1.2507z" fill="#26231f"/>
  <path d="m375.0217,539.7916c.1615.3312-.9824,1.0134-2.2304.5191-1.2485-.4153-1.9612-1.5375-1.7445-1.7698 .2057-.2373.974.2225 2.0186.5735 1.0451.3905 1.8213.3757 1.9564.6773z" fill="#26231f"/>
  <path d="m372.49 536.79c0.5618 1.315 2.0402 2.363 3.2265 2.4965l-3.2265-2.4965z" fill="#26231f"/>
  <path d="m375.7171,539.2815c.0133.3164-1.0486.4845-2.1077-.2719-1.0486-.8107-1.3694-2.1307-1.1196-2.2246 .2913-.1434.8297.5191 1.647,1.1617 .8434.5982 1.5821.9541 1.5804,1.3348z" fill="#26231f"/>
  <path d="m373.56 536.09c0.1417 1.3446 1.2472 2.5707 2.3094 2.7634l-2.3094-2.7634z" fill="#26231f"/>
  <path d="m375.8683,538.8573c.0159.3114-.9974.435-1.8469-.4993-.8169-.9986-.7198-2.2988-.4634-2.2592 .3213-.01.6099.6723 1.1593,1.3545 .59.6427 1.1647,1.0134 1.151,1.404z" fill="#26231f"/>
  <path d="m374.01 540.28c0.3222 1.0085 1.3142 1.4732 2.2159 1.0381s1.3738-1.6067 1.053-2.6151-1.3129-1.4732-2.2154-1.0381-1.3743 1.6066-1.0534 2.6151z" fill="#26231f"/>
  <path d="m392.06 533.08c-0.5975 1.269-2.3138 2.7669-3.4723 2.6928l3.4723-2.6928z" fill="#26231f"/>
  <path d="m388.5851,535.7715c.0631-.3856.7917-.6674 1.6925-1.3891 .8866-.7514 1.4992-1.4618 1.7794-1.3041 .2467.1152-.1496,1.4475-1.218,2.3423-1.0905.9047-2.3337.6822-2.2538.351z" fill="#26231f"/>
  <path d="m390.25 531.96c-0.2074 1.4623-1.3513 3.0195-2.4498 3.593l2.4498-3.593z" fill="#26231f"/>
  <path d="m387.7962,535.5498c-.0967-.3609.5185-.9788 1.1722-1.8637 .6178-.9225.9638-1.7564 1.2776-1.7293 .2599-.008.2847,1.3684-.5111,2.54-.8204,1.1222-1.8729,1.3595-1.9387,1.053z" fill="#26231f"/>
  <path d="m389.06 531.7c0.1999 1.3313-0.5485 2.9142-1.5106 3.5025l1.5106-3.5025z" fill="#26231f"/>
  <path d="m387.5477,535.2035c-.1095-.3658.3442-.9393.7463-1.7698 .3526-.8582.4559-1.6161.7635-1.7327 .2357-.1305.6518,1.0678.1249,2.3309-.5777,1.2062-1.5715,1.4781-1.6346,1.1716z" fill="#26231f"/>
  <path d="m389.67 535.86c-0.0547 1.0826-0.8831 1.8983-1.8496 1.8242s-1.707-1.0085-1.6532-2.0911 0.8826-1.8983 1.85-1.8242 1.7075 1.0085 1.6527 2.0911z" fill="#26231f"/>
  <path d="m361.43 544.26c-0.722 3.3666 2.6144 7.3709 7.4539 8.9428s9.3454 0.1137 10.068-3.2528-3.0376-7.0248-7.8745-8.5968-8.9261-0.4647-9.6473 2.9068z" fill="#f4b891"/>
  <path d="m361.4921,544.2651c-.7167,3.3418 2.5923,7.3164 7.3921,8.8736s9.269.1137 9.9871-3.233c.7171-3.3419-3.0108-6.9704-7.8083-8.5276s-8.8551-.4597-9.5709,2.887z" fill="#f4b791"/>
  <path d="m361.55 544.27c-0.7114 3.3171 2.5698 7.262 7.3299 8.8044 4.7592 1.5473 9.1941 0.1137 9.9063-3.2083s-2.9842-6.921-7.7416-8.4683-8.784-0.4499-9.4946 2.8722z" fill="#f4b791"/>
  <path d="m361.62 544.27c-0.7066 3.2924 2.5464 7.2077 7.2681 8.7402s9.1181 0.1088 9.8251-3.1886-2.9569-6.8715-7.675-8.404-8.7125-0.4449-9.4182 2.8524z" fill="#f4b690"/>
  <path d="m361.68 544.26c-0.7013 3.2677 2.5244 7.1533 7.2059 8.671s9.0427 0.1038 9.7448-3.1639-2.9299-6.8172-7.6088-8.3398-8.6419-0.44-9.3419 2.8327z" fill="#f4b590"/>
  <path d="m361.7409,544.2647c-.6951,3.243 2.5023,7.0989 7.1445,8.6017 4.6405,1.5077 8.9668.1038 9.6631-3.1441 .6964-3.243-2.9021-6.7628-7.5426-8.2755s-8.57-.4301-9.2651,2.8178z" fill="#f4b490"/>
  <path d="m361.8 544.26c-0.6911 3.2182 2.4793 7.0396 7.0823 8.5375 4.6003 1.4929 8.8904 0.0989 9.582-3.1243s-2.8761-6.7133-7.4765-8.2112-8.499-0.4251-9.1878 2.7981z" fill="#f3b490"/>
  <path d="m361.8659,544.2652c-.6854,3.1935 2.4573,6.9852 7.0205,8.4683s8.815.0939 9.5012-3.0996c.6858-3.1985-2.8487-6.6639-7.4097-8.147-4.5615-1.488-8.4279-.4202-9.1119,2.7783z" fill="#f3b38f"/>
  <path d="m361.93 544.27c-0.6805 3.1688 2.4348 6.9309 6.9587 8.3991s8.739 0.0939 9.42-3.0798-2.8214-6.6095-7.3432-8.0827-8.3564-0.4103-9.0356 2.7635z" fill="#f3b28e"/>
  <path d="m361.9899,544.2654c-.6748,3.1441 2.4118,6.8765 6.8965,8.3348 4.483,1.4534 8.6636.089 9.3396-3.0601 .6748-3.1441-2.7953-6.5601-7.2773-8.0184s-8.2849-.4054-8.9588,2.7437z" fill="#f2b18f"/>
  <path d="m362.05 544.26c-0.6695 3.1194 2.3893 6.8221 6.8347 8.2656 4.4432 1.4435 8.588 0.084 9.2585-3.0354s-2.7679-6.5107-7.2107-7.9542c-4.4436-1.4485-8.2139-0.4004-8.8825 2.7239z" fill="#f2b18d"/>
  <path d="m362.1144,544.2645c-.6646,3.0947 2.3672,6.7677 6.7725,8.1964 4.404,1.4336 8.5126.084 9.1776-3.0156 .6647-3.0947-2.741-6.4563-7.1445-7.8899s-8.1424-.3906-8.8057,2.7091z" fill="#f3b08e"/>
  <path d="m362.18 544.26c-0.6589 3.0699 2.3452 6.7133 6.7116 8.1322 4.3643 1.4138 8.4367 0.0791 9.0965-2.9958s-2.7146-6.4068-7.0784-7.8256-8.0709-0.3856-8.7298 2.6893z" fill="#f3af8e"/>
  <path d="m362.2388,544.265c-.6532,3.0452 2.3227,6.6589 6.6494,8.063 4.3245,1.4039 8.3612.0791 9.0153-2.9711s-2.6872-6.3574-7.0108-7.7614c-4.3254-1.4089-8.0002-.3806-8.6539,2.6695z" fill="#f3ae8e"/>
  <path d="m362.3 544.27c-0.6492 3.0205 2.2997 6.5996 6.5863 7.9937s8.2858 0.0741 8.935-2.9464c0.6488-3.0254-2.6603-6.3079-6.9455-7.702s-7.9288-0.3708-8.5757 2.6547z" fill="#f3ae8d"/>
  <path d="m362.36 544.27c-0.6434 2.9958 2.2768 6.5453 6.5245 7.9245s8.2103 0.0741 8.8542-2.9266-2.6334-6.2486-6.8789-7.6328-7.8577-0.3658-8.4998 2.6349z" fill="#f2ac8d"/>
  <path d="m362.43 544.27c-0.6382 2.9711 2.2543 6.4909 6.4623 7.8603 4.2071 1.3643 8.1344 0.0692 8.7734-2.9068s-2.6065-6.1992-6.8122-7.5686-7.7866-0.3609-8.4235 2.6151z" fill="#f2ac8c"/>
  <path d="m362.49 544.26c-0.6333 2.9463 2.2322 6.4365 6.4005 7.7911s8.0585 0.0642 8.6927-2.8821-2.5795-6.1498-6.7461-7.5092c-4.1674-1.3545-7.7152-0.351-8.3471 2.6003z" fill="#f1ab8c"/>
  <path d="m362.5504,544.2648c-.6276,2.9266 2.2097,6.3821 6.3387,7.7219s7.9826.0642 8.6115-2.8624c.628-2.9216-2.5527-6.0954-6.6799-7.4401s-7.6437-.346-8.2703,2.5805z" fill="#f1ab8c"/>
  <path d="m362.61 544.26c-0.6223 2.8969 2.1876 6.3277 6.2765 7.6576s7.9071 0.0593 8.5312-2.8426-2.5257-6.046-6.6141-7.3758-7.5722-0.3411-8.1936 2.5608z" fill="#f2a98a"/>
  <path d="m362.6745,544.265c-.617,2.8771 2.1656,6.2734 6.2151,7.5883s7.8321.0544 8.45-2.8178c.6169-2.8771-2.4988-5.9965-6.5475-7.3165-4.0487-1.315-7.5011-.3312-8.1176,2.5459z" fill="#f2a88b"/>
  <path d="m362.74 544.27c-0.6121 2.8524 2.1431 6.219 6.1529 7.5191 4.0098 1.3051 7.7562 0.0544 8.3692-2.7981s-2.4718-5.9421-6.4808-7.2472-7.4301-0.3263-8.0413 2.5261z" fill="#f2a88a"/>
  <path d="m362.799,544.2655c-.6068,2.8277 2.1192,6.1646 6.0902,7.4549s7.6803.0494 8.288-2.7783c.6072-2.8228-2.4445-5.8927-6.4142-7.183-3.9701-1.2952-7.3586-.3213-7.9641,2.5064z" fill="#f2a78a"/>
  <path d="m362.86 544.27c-0.6015 2.803 2.0972 6.1053 6.0293 7.3857s7.6044 0.0494 8.2063-2.7536-2.4175-5.8433-6.3479-7.1236-7.2871-0.3115-7.8877 2.4915z" fill="#f1a689"/>
  <path d="m362.9235,544.2645c-.5967,2.7783 2.0751,6.0509 5.9671,7.3165s7.5289.0445 8.1256-2.7289c.5967-2.7783-2.3911-5.7938-6.2813-7.0594s-7.2165-.3065-7.8114,2.4718z" fill="#f0a589"/>
  <path d="m362.99 544.26c-0.5905 2.7536 2.053 5.9965 5.9057 7.2522 3.8519 1.2507 7.4531 0.0395 8.0449-2.714s-2.3642-5.7395-6.2152-6.9902c-3.8518-1.2557-7.1454-0.3016-7.7355 2.452z" fill="#f0a48a"/>
  <path d="m363.05 544.27c-0.5856 2.7288 2.0301 5.9421 5.8431 7.183s7.3775 0.0396 7.964-2.6893-2.3368-5.6851-6.1493-6.9309c-3.8117-1.2408-7.0735-0.2917-7.6578 2.4372z" fill="#f0a488"/>
  <path d="m363.1102,544.265c-.5808,2.7041 2.008,5.8878 5.7813,7.1138s7.3017.0346 7.8834-2.6646-2.3108-5.6356-6.0837-6.8666-7.0011-.2867-7.581,2.4174z" fill="#f0a388"/>
  <path d="m363.1719,544.2653c-.5746,2.6794 1.9851,5.8334 5.7199,7.0446 3.7331,1.2161 7.2258.0346 7.8021-2.6448 .5755-2.6745-2.2834-5.5813-6.0169-6.7974s-6.93-.2818-7.5051,2.3976z" fill="#f0a288"/>
  <path d="m363.23 544.27c-0.5697 2.6547 1.9626 5.779 5.6577 6.9803 3.6938 1.2012 7.1503 0.0297 7.7214-2.625s-2.2561-5.5318-5.9503-6.7331c-3.6934-1.2062-6.859-0.2719-7.4288 2.3778z" fill="#f0a187"/>
  <path d="m363.3 544.26c-0.5662 2.63 1.9392 5.7246 5.5946 6.9111 3.655 1.1913 7.0752 0.0247 7.6406-2.6003 0.5649-2.63-2.23-5.4824-5.8841-6.6738s-6.788-0.262-7.3511 2.363z" fill="#f0a187"/>
  <path d="m363.3595,544.2646c-.5596,2.6053 1.9175,5.6653 5.5333,6.8419s6.9993.0247 7.5589-2.5805c.5605-2.6003-2.2017-5.428-5.8166-6.6046s-6.7165-.262-7.2756,2.3432z" fill="#f09f87"/>
  <path d="m363.42 544.26c-0.5543 2.5805 1.8955 5.6109 5.4715 6.7776 3.5756 1.1617 6.9234 0.0198 7.4782-2.5608s-2.1749-5.3786-5.7509-6.5453c-3.5747-1.1617-6.645-0.2472-7.1988 2.3284z" fill="#ef9e86"/>
  <path d="m363.4824,544.2651c-.549,2.5558 1.873,5.5565 5.4097,6.7084s6.8484.0148 7.3974-2.536c.5495-2.5558-2.1479-5.3291-5.6846-6.481s-6.5735-.2422-7.1225,2.3086z" fill="#ef9c86"/>
  <path d="m363.55 544.27c-0.5442 2.5311 1.8496 5.5022 5.3475 6.6392s6.7725 0.0148 7.3162-2.5113-2.121-5.2797-5.618-6.4167-6.5029-0.2373-7.0457 2.2889z" fill="#ef9c86"/>
  <path d="m363.6076,544.2653c-.5384,2.5064 1.8275,5.4478 5.2857,6.5749 3.4577,1.1222 6.6966.01 7.2354-2.4965 .5389-2.5014-2.094-5.2204-5.5518-6.3525-3.4564-1.1222-6.4318-.2274-6.9693,2.274z" fill="#ef9b85"/>
  <path d="m363.67 544.27c-0.5331 2.4817 1.8055 5.3934 5.2239 6.5057s6.6211 0.01 7.1547-2.4718-2.0667-5.171-5.4856-6.2882c-3.4167-1.1123-6.3599-0.2225-6.893 2.2542z" fill="#ef9b84"/>
  <path d="m363.73 544.26c-0.5278 2.457 1.7834 5.339 5.1621 6.4365s6.5452 5e-3 7.0735-2.447c0.5286-2.4569-2.0407-5.1215-5.419-6.2239s-6.2888-0.2175-6.8166 2.2345z" fill="#ef9b84"/>
  <path d="m363.79 544.27c-0.523 2.4273 1.7604 5.2797 5.0995 6.3673s6.4697 0 6.9932-2.4322-2.0137-5.0671-5.3528-6.1547-6.2178-0.2126-6.7398 2.2197z" fill="#ef9983"/>
  <path d="m363.86 544.27c-0.5177 2.4026 1.7375 5.2253 5.0377 6.2981s6.3938 0 6.9115-2.4075c0.5185-2.4026-1.9864-5.0177-5.2857-6.0954-3.2984-1.0728-6.1467-0.2027-6.6635 2.2048z" fill="#ef9883"/>
  <path d="m363.92 544.27c-0.5124 2.3778 1.715 5.166 4.9763 6.2289s6.318-5e-3 6.8303-2.3828-1.9594-4.9683-5.2195-6.0311-6.0757-0.1977-6.5872 2.185z" fill="#ee9783"/>
  <path d="m363.98 544.27c-0.5066 2.3531 1.6929 5.1116 4.9145 6.1597s6.2424-5e-3 6.7496-2.363c0.5076-2.3531-1.9325-4.9139-5.1537-5.9619s-6.0033-0.1928-6.5103 2.1653z" fill="#ee9783"/>
  <path d="m364.04 544.27c-0.5022 2.3284 1.67 5.0572 4.8523 6.0954s6.1666-0.01 6.6683-2.3432-1.9056-4.8644-5.087-5.9026-5.9322-0.1829-6.4336 2.1505z" fill="#ee9682"/>
  <path d="m364.11 544.27c-0.4969 2.3037 1.6479 5.0029 4.7901 6.0262s6.0915-0.01 6.588-2.3185-1.8787-4.815-5.0209-5.8383-5.8612-0.178-6.3572 2.1307z" fill="#ed9482"/>
  <path d="m364.17 544.27c-0.4912 2.279 1.6258 4.9485 4.7287 5.957s6.0156-0.0148 6.5069-2.2988-1.8518-4.7606-4.9543-5.7741-5.7901-0.1681-6.2813 2.1158z" fill="#ed9482"/>
  <path d="m364.23 544.27c-0.4859 2.2543 1.6033 4.8941 4.667 5.8927s5.9397-0.0198 6.4261-2.279c0.4864-2.2543-1.8253-4.7112-4.8885-5.7098s-5.7191-0.1631-6.2045 2.0961z" fill="#ee9482"/>
  <path d="m364.29 544.27c-0.481 2.2295 1.5799 4.8397 4.6043 5.8235s5.8643-0.0198 6.3453-2.2542-1.7979-4.6568-4.8219-5.6455-5.6476-0.1582-6.1277 2.0763z" fill="#ee9282"/>
  <path d="m364.3545,544.2701c-.4762,2.2048 1.5574,4.7854 4.5425,5.7543 2.9838.9739 5.7884-.0247 6.2641-2.2295 .4762-2.2098-1.7706-4.6074-4.7552-5.5813s-5.5765-.1533-6.0514,2.0565z" fill="#ed9182"/>
  <path d="m364.42 544.27c-0.4704 2.1801 1.5354 4.726 4.4803 5.69s5.7124-0.0297 6.1833-2.2147c0.4708-2.1801-1.7441-4.553-4.689-5.517s-5.505-0.1434-5.9746 2.0417z" fill="#ed9181"/>
  <path d="m364.48 544.27c-0.4647 2.1554 1.5133 4.6716 4.4189 5.6208s5.6366-0.0297 6.1022-2.19-1.7172-4.5036-4.6224-5.4527c-2.9039-0.9492-5.434-0.1384-5.8987 2.0219z" fill="#ed9081"/>
  <path d="m364.5412,544.2697c-.4603,2.1307 1.4908,4.6173 4.3563,5.5516s5.562-.0346 6.0218-2.1653c.4598-2.1356-1.6903-4.4541-4.5566-5.3885-2.8642-.9393-5.362-.1335-5.8214,2.0021z" fill="#ed8e81"/>
  <path d="m364.6 544.27c-0.455 2.106 1.4678 4.5629 4.2945 5.4873s5.4856-0.0396 5.9406-2.1505-1.6638-4.3998-4.49-5.3242c-2.8249-0.9195-5.291-0.1236-5.7451 1.9873z" fill="#ed8d80"/>
  <path d="m364.67 544.27c-0.4488 2.0812 1.4458 4.5085 4.2331 5.4181s5.4097-0.0396 5.8594-2.1257c0.4501-2.0812-1.6364-4.3503-4.4233-5.2599s-5.2199-0.1186-5.6692 1.9675z" fill="#ed8d80"/>
  <path d="m364.7274,544.2702c-.444,2.0565 1.4232,4.4541 4.1709,5.3489 2.7477.8997 5.3342-.0445 5.7791-2.101s-1.6095-4.3009-4.3571-5.1957c-2.7463-.8997-5.1489-.1137-5.5929,1.9478z" fill="#ed8c7f"/>
  <path d="m364.79 544.27c-0.4396 2.0318 1.4003 4.3998 4.1087 5.2846s5.2588-0.0494 5.6979-2.0862c0.4391-2.0318-1.5826-4.2465-4.2909-5.1314s-5.0774-0.1038-5.5156 1.9329z" fill="#ed8a7f"/>
  <path d="m364.85 544.27c-0.4338 2.012 1.3778 4.3454 4.0465 5.2154s5.1833-0.0494 5.6171-2.0615-1.5557-4.1971-4.2248-5.0671-5.0059-0.0989-5.4388 1.9132z" fill="#ed8a7e"/>
  <path d="m364.915,544.2695c-.429,1.9824 1.3557,4.291 3.9847,5.1462s5.1074-.0544 5.5364-2.0367c.4285-1.9873-1.5287-4.1476-4.1586-5.0029s-4.9349-.0939-5.3625,1.8934z" fill="#eb897d"/>
  <path d="m364.98 544.27c-0.4232 1.9626 1.3332 4.2317 3.9238 5.077s5.031-0.0544 5.4543-2.012-1.5014-4.0933-4.0915-4.9435-4.8638-0.084-5.2866 1.8785z" fill="#eb877c"/>
  <path d="m365.0393,544.27c-.4175,1.9379 1.3112,4.1773 3.8611,5.0128 2.5504.8305 4.9556-.0593 5.3739-1.9972 .4184-1.9329-1.4745-4.0389-4.0257-4.8743s-4.7923-.0791-5.2093,1.8588z" fill="#eb877c"/>
  <path d="m365.1 544.27c-0.4126 1.9131 1.2882 4.1229 3.7998 4.9436s4.8797-0.0593 5.2928-1.9725-1.4475-3.9894-3.9591-4.8101-4.7212-0.0742-5.1334 1.839z" fill="#eb867b"/>
  <path d="m365.16 544.27c-0.4078 1.8884 1.2657 4.0685 3.7375 4.8743s4.8051-0.0643 5.212-1.9478c0.4078-1.8884-1.4206-3.94-3.8925-4.7508s-4.6497-0.0643-5.0571 1.8242z" fill="#ea847b"/>
  <path d="m365.2256,544.2704c-.4012,1.8637 1.2436,4.0142 3.6758,4.8101 2.4326.791 4.7287-.0692 5.1312-1.9329s-1.3933-3.8856-3.8262-4.6815-4.5787-.0593-4.9807,1.8044z" fill="#ea837b"/>
  <path d="m365.2883,544.2695c-.3972,1.839 1.2207,3.9598 3.6135,4.7409s4.6528-.0692 5.05-1.9082c.3976-1.8341-1.3672-3.8362-3.7596-4.6173-2.3911-.786-4.5076-.0544-4.904,1.7846z" fill="#ea837b"/>
  <path d="m365.35 544.27c-0.3923 1.8143 1.1977 3.9054 3.5513 4.6716s4.5774-0.0742 4.9697-1.8835-1.3407-3.7868-3.6943-4.558-4.4357-0.0445-4.8267 1.7698z" fill="#ea8179"/>
  <path d="m365.412,544.2697c-.3862,1.7896 1.1757,3.851 3.4895,4.6074s4.5019-.0791 4.8885-1.8687c.387-1.7846-1.3134-3.7324-3.6277-4.4887s-4.3642-.0396-4.7504,1.75z" fill="#ea8078"/>
  <path d="m365.4746,544.27c-.3809,1.7648 1.1532,3.7917 3.4277,4.5382 2.2741.7415 4.4264-.0791 4.8073-1.8439s-1.2856-3.6829-3.5606-4.4245c-2.2724-.7465-4.2936-.0346-4.6745,1.7302z" fill="#ea8078"/>
  <path d="m365.54 544.27c-0.3765 1.7401 1.1307 3.7373 3.3655 4.469s4.3505-0.084 4.7265-1.8192-1.2595-3.6335-3.4944-4.3651-4.2226-0.0247-4.5977 1.7154z" fill="#ea7e77"/>
  <path d="m365.6 544.27c-0.3703 1.7154 1.1086 3.6829 3.3037 4.4047s4.2751-0.089 4.6458-1.8044c0.3711-1.7105-1.2322-3.5791-3.4282-4.296-2.1934-0.7168-4.1511-0.0148-4.5213 1.6956z" fill="#ea7d78"/>
  <path d="m365.66 544.27c-0.3654 1.6907 1.0861 3.6286 3.242 4.3355s4.1992-0.089 4.5646-1.7797-1.2048-3.5248-3.3615-4.2317c-2.1541-0.7069-4.08-0.01-4.445 1.6759z" fill="#e97c77"/>
  <path d="m365.72 544.27c-0.3606 1.666 1.0636 3.5742 3.1802 4.2663s4.1232-0.089 4.4838-1.755-1.1788-3.4753-3.2953-4.1723c-2.1148-0.6921-4.0085-5e-3 -4.3686 1.661z" fill="#e97c77"/>
  <path d="m365.7858,544.2698c-.3548,1.6413 1.0406,3.5198 3.1175,4.1971s4.0482-.0939 4.4031-1.7302c.3553-1.6413-1.1514-3.4259-3.2291-4.1081s-3.937.005-4.2914,1.6413z" fill="#e97a76"/>
  <path d="m365.8477,544.2697c-.35,1.6165 1.0181,3.4654 3.0557,4.1328s3.9723-.0989 4.3223-1.7154c.35-1.6116-1.1245-3.3715-3.1629-4.0389s-3.866.01-4.215,1.6215z" fill="#e97a76"/>
  <path d="m365.9103,544.27c-.3447,1.5918.9961,3.411 2.9939,4.0636 1.9983.6575 3.8969-.0989 4.2415-1.6907s-1.0971-3.3221-3.0968-3.9796c-1.9961-.6525-3.7945.0198-4.1387,1.6066z" fill="#e87975"/>
  <path d="m365.9724,544.2703c-.3389,1.5671.9736,3.3517 2.9321,3.9944s3.8209-.1038 4.1603-1.666c.3398-1.5671-1.0706-3.2726-3.0301-3.9153s-3.7234.0247-4.0624,1.5869z" fill="#e87975"/>
  <path d="m366.0344,544.2694c-.3341,1.5424.951,3.2973 2.8704,3.9301s3.745-.1088 4.0787-1.6511c.335-1.5374-1.0433-3.2183-2.9635-3.8461s-3.6515.0297-3.9856,1.5671z" fill="#e87875"/>
  <path d="m366.097,544.2705c-.3288,1.5177.9285,3.243 2.8086,3.8609s3.6696-.1088 3.9979-1.6264c.3292-1.5127-1.0164-3.1688-2.8968-3.7868-1.8778-.613-3.5809.0395-3.9097,1.5523z" fill="#e87775"/>
  <path d="m366.1584,544.2696c-.3235,1.493.906,3.1886 2.7468,3.7917s3.5937-.1137 3.9176-1.6017-.9908-3.1194-2.8315-3.7225-3.5094.0445-3.8329,1.5325z" fill="#e87673"/>
  <path d="m366.2215,544.2698c-.3186,1.4682.8831,3.1342 2.6841,3.7274s3.5182-.1186 3.8364-1.5819c.3186-1.4682-.963-3.0699-2.7649-3.6582s-3.4379.0494-3.7556,1.5127z" fill="#e87673"/>
  <path d="m366.2841,544.2701c-.3133,1.4435.8606,3.0798 2.6228,3.6582s3.4419-.1187 3.7548-1.5622-.9356-3.0156-2.6982-3.594-3.3668.0593-3.6793,1.4979z" fill="#e87573"/>
  <path d="m366.3455,544.27c-.308,1.4188.8385,3.0255 2.5605,3.589 1.7216.5685 3.3664-.1236 3.6744-1.5375 .308-1.4188-.9091-2.9612-2.632-3.5297-1.7203-.5636-3.2953.0643-3.6029,1.4781z" fill="#e87473"/>
  <path d="m366.4081,544.2703c-.3028,1.3941.8164,2.9711 2.4988,3.5248s3.2914-.1285 3.5937-1.5177-.8822-2.9118-2.5654-3.4654-3.2243.0692-3.527,1.4583z" fill="#e87472"/>
  <path d="m366.4696,544.2694c-.2974,1.3694.7935,2.9118 2.4365,3.4555s3.2155-.1285 3.5129-1.4979c.2979-1.3644-.8548-2.8574-2.4992-3.4011s-3.1528.0791-3.4502,1.4435z" fill="#e87472"/>
  <path d="m366.5327,544.2697c-.2926,1.3446.771,2.8574 2.3739,3.3863s3.14-.1285 3.4326-1.4732-.8284-2.8079-2.433-3.3369-3.0817.084-3.3734,1.4237z" fill="#e87272"/>
  <path d="m366.5948,544.2745c-.2869,1.315.7489,2.798 2.3125,3.3122 1.564.5191 3.0641-.1335 3.3509-1.4485 .2873-1.3199-.801-2.7585-2.3659-3.2726s-3.0107.089-3.2976,1.4089z" fill="#e87171"/>
  <path d="m366.6563,544.2748c-.2816,1.2903.7264,2.7437 2.2507,3.2479 1.5252.4993 2.9882-.1384 3.2702-1.4336 .2816-1.2903-.7741-2.7041-2.2997-3.2084-1.523-.4993-2.9392.0989-3.2212,1.3941z" fill="#e86f70"/>
  <path d="m366.7178,544.2751c-.2763,1.2655.7043,2.6893 2.1889,3.1787 1.4855.4894 2.9132-.1384 3.1894-1.4089s-.7471-2.6547-2.234-3.1441c-1.4828-.4894-2.8677.1038-3.1444,1.3743z" fill="#e86f70"/>
  <path d="m366.7812,544.2753c-.2718,1.2408.681,2.6349 2.1263,3.1095 1.4458.4795 2.8373-.1434 3.1082-1.3842 .2718-1.2458-.7194-2.6052-2.1673-3.0798-1.4436-.4795-2.7967.1088-3.0672,1.3545z" fill="#e86e70"/>
  <path d="m366.8434,544.2752c-.2661,1.2161.6584,2.5805 2.064,3.0452s2.7618-.1483 3.0279-1.3694-.6938-2.5509-2.1011-3.0156c-1.4047-.4597-2.7256.1187-2.9908,1.3397z" fill="#e76d6f"/>
  <path d="m366.9049,544.2744c-.2608,1.1914.6364,2.5262 2.0027,2.976s2.6859-.1483 2.9467-1.3446c.2608-1.1914-.6668-2.4965-2.0345-2.9513s-2.6541.1236-2.9149,1.3199z" fill="#e76c6f"/>
  <path d="m366.9675,544.2746c-.2555,1.1667.6139,2.4718 1.9405,2.9068s2.6104-.1483 2.8668-1.3199-.6403-2.4471-1.9687-2.887-2.5831.1285-2.8386,1.3001z" fill="#e76c6f"/>
  <path d="m367.0303,544.2749c-.2516,1.142.5905,2.4125 1.8778,2.8426s2.5354-.1582 2.7852-1.3002c.2502-1.1469-.613-2.3976-1.9021-2.8277s-2.5116.1384-2.7609,1.2853z" fill="#e76a6f"/>
  <path d="m367.0915,544.2748c-.2449,1.1172.5689,2.3581 1.8174,2.7733s2.4586-.1582 2.7031-1.2804c.2458-1.1172-.5856-2.3432-1.835-2.7585-1.2463-.4103-2.4405.1434-2.6854,1.2656z" fill="#e7696d"/>
  <path d="m367.1542,544.2751c-.2396,1.0925.5468,2.3037 1.7551,2.7041s2.3831-.1582 2.6228-1.2557-.5587-2.2938-1.7693-2.6942-2.369.1483-2.6086,1.2458z" fill="#e6676d"/>
  <path d="m367.2156,544.2753c-.2343,1.0728.5243,2.2493 1.6938,2.6399s2.3072-.1681 2.5416-1.2359-.5313-2.2444-1.7026-2.6349-2.2975.1582-2.5327,1.2309z" fill="#e7666d"/>
  <path d="m367.2791,544.2744c-.2299,1.048.5009,2.195 1.6307,2.5707s2.2318-.1681 2.4608-1.2161c.2295-1.0431-.5049-2.19-1.6364-2.5657s-2.2256.1631-2.4551,1.2112z" fill="#e7666d"/>
  <path d="m367.3417,544.2744c-.2246,1.0233.4788,2.1406 1.5689,2.5014s2.1563-.1681 2.38-1.1914-.478-2.1406-1.5702-2.5014-2.1554.1681-2.3787,1.1914z" fill="#e6656c"/>
  <path d="m404.91 534.09c1.527 2.9365-0.6518 8.0085-4.866 11.331s-8.8652 3.6385-10.394 0.7069c-1.5265-2.9364 1.1395-7.8355 5.3523-11.158s8.3793-3.8135 9.9072-0.88z" fill="#f4b891"/>
  <path d="m404.85 534.11c1.5159 2.9118-0.6443 7.9443-4.8236 11.242-4.1784 3.2924-8.7942 3.6088-10.311 0.697s1.1262-7.7762 5.3047-11.074c4.1806-3.2934 8.3131-3.7779 9.83-0.8651z" fill="#f4b791"/>
  <path d="m404.79 534.14c1.5044 2.892-0.6364 7.885-4.7817 11.153-4.1435 3.2677-8.7231 3.5742-10.229 0.6871-1.5036-2.892 1.1143-7.7169 5.2583-10.985 4.1458-3.2692 8.247-3.7477 9.7528-0.8552z" fill="#f4b791"/>
  <path d="m404.73 534.16c1.4938 2.8722-0.6284 7.8256-4.7389 11.069s-8.6516 3.5446-10.147 0.6773c-1.493-2.8722 1.1015-7.6576 5.2107-10.901s8.1808-3.7126 9.6751-0.8453z" fill="#f4b690"/>
  <path d="m404.67 534.18c1.4832 2.8524-0.6209 7.7663-4.6974 10.98s-8.5802 3.5149-10.064 0.6674 1.0887-7.5983 5.1635-10.812c4.0774-3.2158 8.115-3.6824 9.5978-0.8355z" fill="#f4b590"/>
  <path d="m404.62 534.2c1.4713 2.8277-0.6139 7.702-4.6564 10.891-4.0403 3.1836-8.5091 3.4802-9.9805 0.6574-1.4714-2.8277 1.0751-7.5389 5.1154-10.728s8.0492-3.6469 9.5215-0.8206z" fill="#f4b490"/>
  <path d="m404.56 534.23c1.4599 2.8079-0.606 7.6378-4.6136 10.802s-8.4376 3.4507-9.8993 0.6427c-1.4594-2.803 1.0627-7.4746 5.069-10.638s7.9826-3.6117 9.4439-0.8058z" fill="#f3b490"/>
  <path d="m404.5 534.25c1.4488 2.7832-0.598 7.5785-4.5713 10.713s-8.3666 3.416-9.8172 0.6378 1.0503-7.4202 5.0226-10.554 7.9164-3.5806 9.3658-0.7959z" fill="#f3b38f"/>
  <path d="m404.44 534.27c1.4379 2.7634-0.5904 7.5191-4.5288 10.629-3.9375 3.1045-8.2951 3.3863-9.7347 0.6277s1.0371-7.3609 4.975-10.47 7.8497-3.546 9.2884-0.786z" fill="#f3b28e"/>
  <path d="m404.38 534.3c1.4273 2.7437-0.5825 7.4598-4.4869 10.54s-8.2236 3.3566-9.6517 0.613 1.0243-7.2967 4.9273-10.376c3.9052-3.0813 7.784-3.5154 9.2112-0.7761z" fill="#f2b18f"/>
  <path d="m404.32 534.32c1.4153 2.719-0.5746 7.3956-4.4454 10.451-3.8686 3.0501-8.1521 3.322-9.5691 0.6031-1.4149-2.714 1.0115-7.2423 4.8801-10.292s7.7183-3.4803 9.1344-0.7613z" fill="#f2b18d"/>
  <path d="m404.26 534.35c1.4047 2.6992-0.5666 7.3362-4.4026 10.362-3.8342 3.0255-8.0815 3.2924-9.4875 0.5932-1.4034-2.6942 0.9991-7.178 4.8338-10.208 3.8364-3.023 7.6516-3.4447 9.0563-0.7465z" fill="#f3b08e"/>
  <path d="m404.2 534.37c1.3932 2.6794-0.5596 7.2769-4.3616 10.278s-8.01 3.2627-9.4041 0.5833c-1.3933-2.6744 0.9859-7.1236 4.7861-10.119s7.5854-3.4145 8.9796-0.7415z" fill="#f3af8e"/>
  <path d="m404.14 534.39c1.3822 2.6547-0.5516 7.2176-4.3192 10.184-3.7649 2.976-7.938 3.233-9.3216 0.5784s0.9727-7.0643 4.7389-10.035 7.5192-3.3789 8.9019-0.7267z" fill="#f3ae8e"/>
  <path d="m404.08 534.42c1.3707 2.6349-0.5446 7.1533-4.2773 10.095-3.7309 2.9463-7.8674 3.2033-9.2395 0.5685s0.9599-7.005 4.6912-9.9464c3.7336-2.9454 7.4539-3.3493 8.8256-0.7168z" fill="#f3ae8d"/>
  <path d="m404.024,534.4423c1.3597,2.6102-.5367,7.094-4.2349,10.0057-3.697,2.9217-7.7959,3.1688-9.157.5587s.9475-6.9457 4.644-9.8624 7.3882-3.3137 8.7479-.702z" fill="#f2ac8d"/>
  <path d="m403.9645,534.467c1.3486,2.5904-.5287,7.0297-4.1926,9.9168s-7.7253,3.1391-9.0753.5487 .9347-6.8863 4.5977-9.7783 7.3206-3.2786 8.6702-.6872z" fill="#f2ac8c"/>
  <path d="m403.9 534.49c1.338 2.5707-0.5203 6.9704-4.1502 9.8327-3.6281 2.8672-7.6543 3.1095-8.9923 0.5389s0.9219-6.827 4.55-9.6893 7.2549-3.2479 8.5925-0.6822z" fill="#f1ab8c"/>
  <path d="m403.8461,534.5119c1.3267,2.5459-.5132,6.9111-4.1082,9.7437-3.5941,2.8375-7.5823,3.0749-8.9103.529s.9096-6.7677 4.5032-9.6053c3.5954-2.8346 7.1896-3.2128 8.5152-.6674z" fill="#f1ab8c"/>
  <path d="m403.7866,534.5365c1.3157,2.5262-.5053,6.8468-4.0659,9.6548s-7.5117,3.0452-8.8277.5191c-1.3151-2.5212.8963-6.7084 4.4556-9.5164s7.1225-3.1827 8.438-.6575z" fill="#f2a98a"/>
  <path d="m403.7276,534.5611c1.3041,2.5015-.4983,6.7875-4.0248,9.5708-3.5248,2.7782-7.4398,3.0105-8.7452.5042-1.3037-2.5015.8835-6.6491 4.4092-9.4323s7.0562-3.1476 8.3608-.6427z" fill="#f2a88b"/>
  <path d="m403.6687,534.581c1.2926,2.4866-.4903,6.7282-3.9829,9.4817-3.4908,2.7585-7.3687,2.981-8.6627.4993s.8707-6.5898 4.3624-9.3483c3.4917-2.7526 6.9896-3.1115 8.2831-.6328z" fill="#f2a88a"/>
  <path d="m403.6095,534.6051c1.282,2.4619-.4824,6.6688-3.9401,9.3927-3.456,2.7289-7.2977,2.9513-8.5806.4894s.8584-6.5304 4.3152-9.2592 6.9239-3.0808 8.2055-.6229z" fill="#f2a78a"/>
  <path d="m403.55,534.6297c1.271,2.4421-.4753,6.6046-3.8986,9.3038s-7.2257,2.9167-8.4972.4795 .8447-6.4711 4.2671-9.1752 6.8577-3.0457 8.1287-.608z" fill="#f1a689"/>
  <path d="m403.4912,534.6548c1.2595,2.4174-.4669,6.5453-3.8563,9.2148s-7.1547,2.887-8.4151.4696 .8319-6.4117 4.2203-9.0862c3.3885-2.6754 6.7911-3.016 8.051-.5982z" fill="#f0a589"/>
  <path d="m403.4313,534.6789c1.2486,2.3927-.4593,6.481-3.8143,9.1257-3.3527,2.6498-7.0832,2.8575-8.3326.4598-1.2485-2.3927.8191-6.3525 4.1731-9.0022s6.7253-2.9805 7.9737-.5833z" fill="#f0a48a"/>
  <path d="m403.37 534.7c1.2374 2.3778-0.4515 6.4217-3.772 9.0418s-7.0121 2.8228-8.2505 0.4499 0.8067-6.2931 4.1259-8.9182c3.3205-2.6171 6.6591-2.9454 7.8966-0.5735z" fill="#f0a488"/>
  <path d="m403.3125,534.7239c1.2265,2.3531-.4435,6.3624-3.7296,8.9528-3.2847,2.5953-6.9411,2.7932-8.1684.4399s.7935-6.2338 4.0787-8.8291c3.2856-2.5934 6.5934-2.9147 7.8193-.5636z" fill="#f0a388"/>
  <path d="m403.2546,534.7485c1.2149,2.3334-.4369,6.2981-3.6885,8.8638s-6.8692,2.7635-8.085.4301 .7803-6.1794 4.031-8.7451c3.2516-2.5642 6.5276-2.8796 7.7425-.5487z" fill="#f0a288"/>
  <path d="m403.1947,534.7731c1.2035,2.3086-.4294,6.2388-3.6462,8.7748s-6.7981,2.7289-8.0038.4202c-1.2026-2.3087.7692-6.1201 3.9851-8.6562s6.4605-2.8495 7.6648-.5389z" fill="#f0a187"/>
  <path d="m403.1354,534.7978c1.193,2.2889-.421,6.1745-3.6038,8.6858-3.1815,2.5163-6.7271,2.6992-7.9208.4103-1.1916-2.2839.7551-6.0608 3.9375-8.5721s6.3948-2.8144 7.5871-.524z" fill="#f0a187"/>
  <path d="m403.0764,534.8181c1.1819,2.2691-.4135,6.1201-3.5619,8.6018-3.1466,2.4866-6.656,2.6695-7.8383.4004-1.181-2.2641.7427-6.0015 3.8898-8.4881 3.1484-2.4817 6.329-2.7788 7.5104-.5141z" fill="#f09f87"/>
  <path d="m403.0164,534.8427c1.1709,2.2444-.4047,6.0559-3.5191,8.5128s-6.5849,2.6349-7.7558.3905 .7295-5.9421 3.8421-8.3991 6.2628-2.7486 7.4327-.5042z" fill="#ef9e86"/>
  <path d="m402.9585,534.8668c1.1594,2.2246-.3981,5.9965-3.4776,8.4238s-6.5134,2.6052-7.6741.3806 .7176-5.8828 3.7962-8.315 6.1961-2.713 7.3555-.4894z" fill="#ef9c86"/>
  <path d="m402.9 534.89c1.1478 2.1999-0.3902 5.9323-3.4348 8.3348-3.0447 2.4075-6.4424 2.5706-7.5916 0.3708s0.7039-5.8235 3.7486-8.2261 6.1299-2.6829 7.2778-0.4795z" fill="#ef9c86"/>
  <path d="m402.8397,534.9118c1.1373,2.185-.3822,5.8779-3.3929,8.2508-3.0102,2.3779-6.3713,2.541-7.5091.3609s.6911-5.7642 3.7014-8.142 6.0642-2.6473 7.2006-.4696z" fill="#ef9b85"/>
  <path d="m402.7802,534.9364c1.1262,2.1603-.3748,5.8136-3.3514,8.1618-2.9749,2.3531-6.2998,2.5113-7.4261.351s.6787-5.7049 3.6541-8.053 5.998-2.6171 7.1234-.4597z" fill="#ef9b84"/>
  <path d="m402.7211,534.9617c1.1144,2.1356-.3671,5.7493-3.309,8.0728s-6.2292,2.4767-7.3445.3411c-1.1143-2.1356.6655-5.6455 3.6069-7.969s5.9318-2.5815 7.0465-.4449z" fill="#ef9b84"/>
  <path d="m402.6618,534.9863c1.1038,2.1158-.3596,5.69-3.2675,7.9838-2.9057,2.2988-6.1569,2.447-7.2615.3312s.6532-5.5862 3.5601-7.885c2.9079-2.2938 5.866-2.5464 6.9688-.4301z" fill="#ef9983"/>
  <path d="m402.6035,535.006c1.0927,2.0961-.3517,5.6307-3.2256,7.8998s-6.0854,2.4174-7.1785.3213c-1.0918-2.0911.6399-5.5269 3.5125-7.796s5.7989-2.5163 6.8917-.4251z" fill="#ef9883"/>
  <path d="m402.5435,535.0306c1.0813,2.0763-.3438,5.5714-3.1828,7.8108s-6.0148,2.3828-7.0969.3114 .6276-5.4676 3.4657-7.7119 5.7332-2.4812 6.814-.4103z" fill="#ee9783"/>
  <path d="m402.484,535.0547c1.0706,2.0516-.3358,5.5071-3.1409,7.7218-2.8033,2.2147-5.9433,2.3531-7.0139.3016s.6139-5.4082 3.418-7.623c2.8041-2.2167 5.6674-2.4505 6.7367-.4004z" fill="#ee9783"/>
  <path d="m402.4252,535.0793c1.0596,2.0269-.3279,5.4478-3.0985,7.6328-2.7689,2.19-5.8718,2.3185-6.9323.2917s.6015-5.3489 3.3717-7.5389 5.6008-2.4154 6.6591-.3856z" fill="#ee9682"/>
  <path d="m402.37 535.1c1.0482 2.0071-0.3213 5.3835-3.0566 7.5439-2.7349 2.1603-5.8007 2.2889-6.8493 0.2818s0.5887-5.2896 3.3236-7.4549c2.7353-2.1603 5.535-2.3798 6.5823-0.3708z" fill="#ed9482"/>
  <path d="m402.3066,535.1243c1.0371,1.9873-.3133,5.3291-3.0151,7.4598-2.7,2.1356-5.7288,2.2592-6.7668.2719s.5768-5.2303 3.2768-7.3659 5.4688-2.3497 6.505-.3658z" fill="#ed9482"/>
  <path d="m402.2478,535.1489c1.0257,1.9675-.3058,5.2649-2.9727,7.3708s-5.6582,2.2246-6.6847.262c-1.0248-1.9626.5636-5.1759 3.2296-7.2819s5.4031-2.3146 6.4278-.351z" fill="#ee9482"/>
  <path d="m402.1894,535.1735c1.0137,1.9428-.2988,5.2056-2.9312,7.2819s-5.5867,2.1949-6.6017.2521 .5503-5.1166 3.1824-7.1978 5.336-2.2795 6.3506-.3362z" fill="#ee9282"/>
  <path d="m402.13 535.2c1.0036 1.923-0.2895 5.1413-2.8884 7.1929-2.5976 2.0565-5.516 2.1653-6.5201 0.2422s0.538-5.0572 3.1356-7.1088 5.2698-2.2488 6.2729-0.3263z" fill="#ed9182"/>
  <path d="m402.0694,535.2233c.9925,1.8983-.2824,5.077-2.8461,7.1039s-5.4441,2.1307-6.4375.2324 .5247-4.9979 3.0879-7.0248c2.5636-2.0219 5.2045-2.2147 6.1957-.3114z" fill="#ed9181"/>
  <path d="m402.0111,535.2431c.9815,1.8785-.2745,5.0226-2.8041,7.0198s-5.3731,2.101-6.355.2225 .5119-4.9386 3.0407-6.9358 5.1383-2.1801 6.1185-.3065z" fill="#ed9081"/>
  <path d="m401.9511,535.2682c.9709,1.8588-.2666,4.9584-2.7613,6.9309s-5.3025,2.0664-6.2725.2126 .4991-4.8793 2.9935-6.8518 5.0717-2.1455 6.0404-.2917z" fill="#ed8e81"/>
  <path d="m401.892,535.2921c.9585,1.8341-.2595,4.8991-2.7199,6.8419-2.4604,1.9478-5.231,2.0368-6.1904.2027s.4868-4.82 2.9467-6.7677c2.4604-1.9428 5.0059-2.1109 5.9636-.2768z" fill="#ed8d80"/>
  <path d="m401.8337,535.3173c.9475,1.8093-.2511,4.8348-2.6784,6.7529s-5.1595,2.0071-6.1074.1928 .4735-4.7606 2.8995-6.6787 4.9397-2.0812 5.8863-.267z" fill="#ed8d80"/>
  <path d="m401.7737,535.3374c.936,1.7945-.2445,4.7804-2.6365,6.6688s-5.0875,1.9725-6.0249.1829 .4607-4.7013 2.8523-6.5947 4.8735-2.0466 5.8091-.2571z" fill="#ed8c7f"/>
  <path d="m401.71 535.36c0.9259 1.7698-0.2361 4.7161-2.5941 6.5799s-5.0165 1.9428-5.9415 0.173 0.4471-4.642 2.8041-6.5057 4.8073-2.017 5.7314-0.2472z" fill="#ed8a7f"/>
  <path d="m401.6554,535.3865c.9144,1.75-.2286,4.6568-2.5522,6.4909-2.3222,1.839-4.9459,1.9082-5.8598.1631s.4343-4.5827 2.7574-6.4217c2.3231-1.8341 4.7411-1.9824 5.6546-.2323z" fill="#ed8a7e"/>
  <path d="m401.5965,535.4116c.9034,1.7253-.2207,4.5925-2.5098,6.4019s-4.8744,1.8785-5.7782.1533 .4223-4.5233 2.711-6.3376c2.2887-1.8044 4.6749-1.9478 5.577-.2175z" fill="#eb897d"/>
  <path d="m401.5374,535.4352c.8919,1.7055-.2132,4.5332-2.4678,6.3129s-4.8033,1.8489-5.6952.1434 .4095-4.464 2.6634-6.2486 4.6087-1.9132 5.4997-.2076z" fill="#eb877c"/>
  <path d="m401.4771,535.4554c.8813,1.6858-.2052,4.4739-2.4251,6.2289s-4.7318,1.8143-5.6132.1335c-.88-1.6858.3972-4.4047 2.6162-6.1646 2.2198-1.755 4.543-1.8785 5.4221-.1978z" fill="#eb877c"/>
  <path d="m401.4187,535.4805c.8698,1.661-.1977,4.4097-2.3831,6.1399s-4.6608,1.7846-5.5306.1236 .384-4.3454 2.5694-6.0756c2.1845-1.7303 4.4768-1.8489 5.3444-.1879z" fill="#eb867b"/>
  <path d="m401.3601,535.5045c.8584,1.6413-.1911,4.3503-2.3421,6.0509-2.1506,1.7055-4.5888,1.755-5.4485.1137s.3716-4.2861 2.5221-5.9916c2.151-1.7006 4.4106-1.8143 5.2685-.173z" fill="#ea847b"/>
  <path d="m401.3008,535.5296c.8478,1.6165-.1823,4.2861-2.2997,5.9619s-4.5178,1.7204-5.3656.1038 .3584-4.2317 2.4745-5.9026c2.117-1.6759 4.3448-1.7846 5.1908-.1631z" fill="#ea837b"/>
  <path d="m401.2415,535.5498c.8363,1.6017-.1748,4.2317-2.2578,5.8779s-4.4467,1.6907-5.283.0939c-.8345-1.5968.3451-4.1724 2.4272-5.8186s4.2782-1.75 5.1136-.1533z" fill="#ea837b"/>
  <path d="m401.1813,535.5737c.8253,1.577-.1668,4.1674-2.215,5.7889s-4.3753,1.661-5.2009.084c-.8244-1.577.3323-4.113 2.3805-5.7345s4.2115-1.7154 5.0355-.1384z" fill="#ea8179"/>
  <path d="m401.1229,535.5985c.8138,1.5572-.1593,4.1081-2.1731,5.6999-2.0137,1.5968-4.3042,1.6264-5.1189.0742-.8129-1.5572.3204-4.0537 2.3337-5.6455s4.1458-1.6808 4.9582-.1285z" fill="#ea8078"/>
  <path d="m401.0634,535.6236c.8027,1.5325-.1518,4.0438-2.1307,5.6109s-4.2332,1.5968-5.0368.0643 .3076-3.9944 2.286-5.5615 4.08-1.6462 4.8815-.1137z" fill="#ea8078"/>
  <path d="m401 535.65c0.7922 1.5078-0.1439 3.9845-2.0883 5.5219-1.9453 1.5424-4.1625 1.5622-4.9543 0.0544s0.2939-3.9351 2.2384-5.4725 4.0142-1.6165 4.8042-0.1038z" fill="#ea7e77"/>
  <path d="m400.9446,535.6677c.7811,1.493-.1359,3.9252-2.0469,5.4379s-4.0906,1.5325-4.8713.0445 .2816-3.8757 2.192-5.3885 3.9476-1.5819 4.7261-.0939z" fill="#ea7d78"/>
  <path d="m400.8867,535.6929c.7697,1.4682-.1293,3.8609-2.0054,5.3489s-4.0187,1.5028-4.7883.0346 .2683-3.8164 2.1444-5.3044c1.8761-1.4831 3.8814-1.5473 4.6493-.0791z" fill="#e97c77"/>
  <path d="m400.8272,535.718c.7582,1.4485-.1209,3.8016-1.9634,5.2599s-3.9476,1.4682-4.7062.0247c-.7573-1.4485.2555-3.7571 2.0976-5.2154s3.8157-1.5177 4.5721-.0692z" fill="#e97c77"/>
  <path d="m400.7684,535.7419c.7467,1.4237-.1134,3.7373-1.9215,5.1709s-3.8761,1.4386-4.6233.0148c-.7463-1.4287.2427-3.6978 2.0499-5.1314s3.7486-1.4831 4.4948-.0544z" fill="#e97a76"/>
  <path d="m400.7084,535.7621c.7361,1.404-.1055,3.6829-1.8787,5.0869s-3.8055,1.4089-4.5416.005c-.7348-1.404.2304-3.6385 2.0027-5.0474 1.7732-1.399 3.6833-1.4485 4.4176-.0445z" fill="#e97a76"/>
  <path d="m400.65 535.79c0.7251 1.3842-0.0975 3.6187-1.8368 4.9979s-3.734 1.3743-4.4587-5e-3 0.2176-3.5791 1.9555-4.9584c1.7384-1.3743 3.6171-1.4139 4.3399-0.0346z" fill="#e87975"/>
  <path d="m400.5901,535.812c.7145,1.3595-.09,3.5593-1.794,4.9089s-3.663,1.3446-4.377-.0148 .2048-3.5198 1.9087-4.8743 3.5504-1.3793 4.2623-.0198z" fill="#e87975"/>
  <path d="m400.5306,535.836c.7026,1.3397-.083,3.4951-1.7525,4.82s-3.5919,1.31-4.2941-.0247c-.7017-1.3397.1915-3.4605 1.861-4.7854s3.4847-1.3496 4.1855-.01z" fill="#e87875"/>
  <path d="m400.4717,535.8611c.6916,1.315-.0746,3.4358-1.7101,4.731s-3.5204,1.2804-4.212-.0346c-.6902-1.3199.1792-3.4012 1.8143-4.7013s3.4185-1.315 4.1078.005z" fill="#e87775"/>
  <path d="m400.4131,535.8812c.6801,1.3001-.0671,3.3764-1.6686,4.6469s-3.4493,1.2507-4.1294-.0445 .1659-3.3419 1.7675-4.6123 3.3523-1.2853 4.0306.01z" fill="#e87673"/>
  <path d="m400.3527,535.9052c.6695,1.2754-.0587,3.3171-1.6263,4.5579s-3.3779,1.2161-4.0465-.0544c-.6686-1.2754.1536-3.2825 1.7194-4.5283 1.5667-1.2408 3.2861-1.2507 3.9534.0247z" fill="#e87673"/>
  <path d="m400.2943,535.9303c.658,1.2507-.0521,3.2529-1.5843,4.469s-3.3064,1.1865-3.9653-.0643c-.6562-1.2557.1412-3.2281 1.673-4.4442 1.5318-1.2112 3.2199-1.2161 3.8766.0395z" fill="#e87573"/>
  <path d="m400.2344,535.9554c.6474,1.2309-.0441,3.1886-1.542,4.38s-3.2349,1.1568-3.8823-.0791c-.6456-1.2309.128-3.1639 1.6254-4.3503s3.1541-1.1815 3.7989.0494z" fill="#e87473"/>
  <path d="m400.176,535.9797c.6359,1.2062-.0362,3.1293-1.5001,4.291s-3.1638,1.1222-3.7998-.084c-.6346-1.2112.1147-3.1095 1.5786-4.2712s3.087-1.1469 3.7212.0643z" fill="#e87472"/>
  <path d="m400.12 536c0.6249 1.1914-0.0282 3.0699-1.4577 4.207s-3.0928 1.0925-3.7168-0.0939 0.1015-3.0502 1.5309-4.1822c1.4286-1.137 3.0213-1.1173 3.6435 0.0692z" fill="#e87472"/>
  <path d="m400.0565,536.0237c.6139,1.1667-.0207,3.0106-1.4158,4.118s-3.0213,1.0579-3.6351-.1088 .0896-2.9859 1.4842-4.0933c1.395-1.1074 2.956-1.0826 3.5667.0841z" fill="#e87272"/>
  <path d="m399.9981,536.0492c.6024,1.142-.0128,2.9464-1.3734,4.029s-2.9502,1.0283-3.5526-.1186c-.6015-1.142.0759-2.9266 1.4365-4.0092s2.8898-1.048 3.4895.0989z" fill="#e87171"/>
  <path d="m399.939,536.0735c.5914,1.1222-.006,2.887-1.3323,3.94s-2.8783.9986-3.4697-.1285c-.5905-1.1222.0635-2.8673 1.3893-3.9202s2.8236-1.0184 3.4127.1088z" fill="#e86f70"/>
  <path d="m399.8798,536.0928c.5812,1.1024.002,2.8277-1.29,3.856s-2.8072.964-3.3871-.1384 .0507-2.8079 1.3425-3.8362c1.2909-1.0233 2.7574-.9838 3.3346.1187z" fill="#e86f70"/>
  <path d="m399.8198,536.1183c.5689,1.0826.0102,2.7684-1.2476,3.767s-2.7366.9343-3.3055-.1483 .0388-2.7486 1.2957-3.7472 2.6907-.9492 3.2574.1285z" fill="#e86e70"/>
  <path d="m399.7619,536.1426c.5574,1.0579.0172,2.7041-1.2061,3.678s-2.6651.9047-3.223-.1582 .0256-2.6893 1.2485-3.6632 2.6245-.9146 3.1806.1434z" fill="#e76d6f"/>
  <path d="m399.7024,536.1672c.5468,1.0332.0247,2.6448-1.1638,3.589s-2.5936.8701-3.14-.1681c-.5459-1.0332.0124-2.63 1.2008-3.5791 1.188-.9442 2.5583-.88 3.1029.1582z" fill="#e76c6f"/>
  <path d="m399.6424,536.1927c.5358,1.0134.0331,2.5805-1.121,3.5s-2.5226.8404-3.0579-.178c-.5349-1.0134-.0004-2.5707 1.1536-3.4901s2.4926-.8503 3.0253.1681z" fill="#e76c6f"/>
  <path d="m399.5836,536.212c.5252.9937.0406,2.5212-1.079,3.416s-2.4515.8107-2.9754-.1878c-.5234-.9937-.0137-2.5113 1.1068-3.4061s2.4259-.8157 2.9476.178z" fill="#e76a6f"/>
  <path d="m399.5236,536.2364c.5137.9739.0494,2.4619-1.0362,3.327s-2.3805.7761-2.8937-.1978-.0256-2.452 1.0605-3.3171c1.0848-.8651 2.3593-.786 2.8695.1879z" fill="#e7696d"/>
  <path d="m399.4661,536.2618c.5018.9492.056,2.3976-.9956,3.238s-2.309.7465-2.8103-.2076-.0388-2.3927 1.0128-3.2331 2.2935-.7514 2.7931.2027z" fill="#e6676d"/>
  <path d="m399.4057,536.2861c.4912.9244.0635,2.3383-.9533,3.149s-2.2375.7119-2.7278-.2175-.0516-2.3334.966-3.149c1.015-.8058 2.2264-.7119 2.715.2175z" fill="#e7666d"/>
  <path d="m399.3469,536.3055c.4797.9096.0715,2.279-.9109,3.065-.9824.7811-2.1665.6822-2.6462-.2274-.4779-.9047-.0644-2.279.9184-3.0601s2.1612-.6822 2.6387.2225z" fill="#e7666d"/>
  <path d="m399.2874,536.3301c.4691.8849.0794,2.2197-.8685,2.976s-2.0954.6526-2.5636-.2373c-.4674-.8849-.0772-2.2197.8712-2.976s2.0954-.6476 2.561.2373z" fill="#e6656c"/>
  <path d="m384.65 543.59s-3.7375-7.3165-4.0429 1.0826c0 0 2.5989 1.0283 4.0429-1.0826z" fill="#f4b891"/>
  <path d="m384.55 543.6s-3.5795-7.005-3.8721 1.0381c0 0 2.4891 0.9838 3.8721-1.0381z" fill="#f4b38b"/>
  <path d="m384.44 543.61s-3.4211-6.6936-3.7009 0.9887c0 0 2.3787 0.9442 3.7009-0.9887z" fill="#f2af85"/>
  <path d="m384.34 543.62s-3.2627-6.3821-3.5297 0.9442c0 0 2.2688 0.8997 3.5297-0.9442z" fill="#f2a97f"/>
  <path d="m384.24 543.64s-3.1051-6.0756-3.3584 0.8997c0 0 2.1585 0.8503 3.3584-0.8997z" fill="#f2a579"/>
  <path d="m384.13 543.65s-2.9463-5.7642-3.1868 0.8552c0 0 2.0477 0.8107 3.1868-0.8552z" fill="#f09e74"/>
  <path d="m384.03 543.66s-2.7883-5.4577-3.0155 0.8058c0 0 1.9383 0.7662 3.0155-0.8058z" fill="#ef9a6e"/>
  <path d="m383.92 543.67s-2.6298-5.1462-2.8443 0.7613c0 0 1.828 0.7267 2.8443-0.7613z" fill="#ef9469"/>
  <path d="m383.82 543.69s-2.4723-4.8397-2.6735 0.7119c0 0 1.7185 0.6822 2.6735-0.7119z" fill="#ee8f62"/>
  <path d="m383.71 543.7s-2.3138-4.5283-2.5018 0.6723c0 0 1.6082 0.6328 2.5018-0.6723z" fill="#ec875a"/>
  <path d="m384.1665,542.4009c-.2974.2818-1.0958-.9492-2.0186-1.1914-.9925-.089-1.1938.9442-1.4087,1.1865-.06.1236-.545-.2719-.3738-1.0826 .1028-.7712.9131-1.6907 1.9228-1.5325 1.922.6575 2.0764,2.5756 1.8783,2.6201z" fill="#26231f"/>
  <path d="m365.03 548.92c-0.0582 0.084 1.6386 2.0367 4.9445 4.1921 3.2371 2.1455 8.4389 4.8793 14.168 3.421 11.603-3.4408 16.658-15.488 16.393-15.231-0.1915-0.5982-5.4953 10.11-16.513 13.313-11.281 2.5212-18.934-6.5849-18.993-5.695z" fill="#26231f"/>
  <path d="m363.3408,550.5681c.004-.4103.3888-.8552.8976-1.8143 .5172-.9244.9325-1.6858 1.2525-1.6215 .3239.0494.3504,1.2952-.2908,2.4372-.5962,1.231-1.865,1.4781-1.8593.9986z" fill="#26231f"/>
  <path d="m399.5173,540.4733c.2635-.2867.82-.1533 1.5985.0593 .7851.1928 1.3399.3708 1.4789.7613 .1417.3658-.7458.9047-1.7234.6427-.9841-.2472-1.6046-1.2161-1.354-1.4633z" fill="#26231f"/>
  <path d="m374.3416,555.9609c-.038-.1928 1.5835-.346 3.6528,1.1024 1.0371.6575 2.1832,1.6165 3.4546,2.5163 1.3443.8602 2.6669,1.7352 3.5341-.2818 4.6012-6.7628 9.9888-9.8772 10.1221-9.4026 .1188.262-4.7852,3.7966-9.2218,10.3172-.3363.7366-1.5257,2.0664-2.58,1.7104-.9969-.173-1.7291-.7168-2.4003-1.2012-1.3169-1.0233-2.3792-2.0367-3.3249-2.7832-1.8593-1.5869-3.2362-1.7599-3.2366-1.9774z" fill="#26231f"/>
  <path d="m388.64 554.73s-5.3205 2.3828-9.6159 2.0862c-0.9563-0.0643 4.5443 5.5417 5.441 2.8524 1.0106-3.0254 2.5769-3.5248 4.1749-4.9386z" fill="#da013c"/>
  <path d="m367.0202,543.3851c.0843.2768.406.3806.7189.2324 .3116-.1434.4969-.4845.4118-.7613-.0843-.2719-.406-.3757-.718-.2324-.3129.1483-.4965.4894-.4126.7613z" fill="#9e2c14"/>
  <path d="m364.2374,542.7524c.0847.2719.4051.3757.718.2324 .312-.1483.4969-.4894.4135-.7613-.0856-.2768-.4069-.3806-.7189-.2323-.3129.1434-.4978.4845-.4126.7613z" fill="#9e2c14"/>
  <path d="m365.5594,545.5457c.0852.2768.4047.3806.7176.2324 .3129-.1434.4974-.4845.414-.7613-.0847-.2719-.4065-.3806-.7189-.2323s-.4974.4845-.4126.7613z" fill="#9e2c14"/>
  <path d="m370.6121,544.5571c.0838.2719.4056.3757.7185.2324 .3125-.1483.4965-.4894.4122-.7613-.0847-.2768-.4056-.3806-.7185-.2323-.3125.1434-.4969.4845-.4122.7613z" fill="#9e2c14"/>
  <path d="m397.1882,535.4657c.0852.2719.406.3757.7185.2324 .3125-.1483.4978-.4845.4126-.7613-.0843-.2768-.4047-.3806-.7176-.2323-.3129.1434-.4978.4845-.4135.7613z" fill="#9e2c14"/>
  <path d="m396.2686,539.0797c.0847.2719.406.3757.7189.2324 .3129-.1483.4965-.4845.4122-.7613s-.4064-.3806-.7185-.2323c-.312.1434-.4969.4845-.4126.7613z" fill="#9e2c14"/>
  <path d="m401.1726,535.1984c.0856.2768.4065.3806.7194.2373 .3129-.1483.4969-.4894.4122-.7662-.0847-.2719-.4065-.3757-.718-.2274-.3133.1434-.4987.4845-.4135.7564z" fill="#9e2c14"/>
  <path d="m400.1892,538.4072c.0861.2768.406.3806.7189.2373 .3129-.1483.4969-.4894.4126-.7613-.0852-.2768-.406-.3806-.7176-.2323-.3133.1434-.4987.4845-.414.7564z" fill="#b22415"/>
  <path d="m392.275,546.1381c.0852.2768.406.3806.7189.2373 .3129-.1483.4969-.4894.4122-.7613-.0843-.2768-.406-.3806-.718-.2323-.3129.1434-.4987.4845-.4131.7564z" fill="#b22415"/>
  <path d="m391.1701,539.7518c.0852.2719.406.3757.7189.2324 .3129-.1483.4969-.4894.4122-.7613-.0843-.2768-.406-.3806-.718-.2323-.3129.1434-.4987.4845-.4131.7613z" fill="#b22415"/>
  <path d="m402.1221,543.3551c.0856.2768.406.3806.7189.2373 .3129-.1483.4969-.4894.4126-.7613-.0847-.2768-.406-.3806-.7176-.2323-.3129.1434-.4991.4845-.414.7564z" fill="#b22415"/>
  <path d="m403.3191,538.3086c.0852.2719.4056.3757.7185.2324 .3129-.1483.4969-.4894.4126-.7613-.0843-.2768-.4056-.3806-.7176-.2323-.3129.1434-.4987.4845-.4135.7613z" fill="#b22415"/>
  <path d="m371.3211,548.6349c.0861.2719.4065.3757.7194.2324 .3129-.1483.4969-.4845.4126-.7613-.0852-.2719-.4065-.3806-.7176-.2323-.3138.1434-.4991.4845-.4144.7613z" fill="#b22415"/>
  <path d="m376.1074,547.7057c.0856.2768.406.3806.7189.2324 .3125-.1434.4969-.4845.4118-.7613-.0839-.2719-.4056-.3757-.7176-.2324-.3129.1483-.4974.4894-.4131.7613z" fill="#b22415"/>
  <path d="m362.2099,543.4794c.0852.2768.406.3806.7189.2324 .3129-.1434.4969-.4845.4122-.7613-.0843-.2719-.406-.3757-.7176-.2324-.3129.1483-.4991.4894-.4135.7613z" fill="#b22415"/>
  <path d="m366.9028,548.4274c.0869.2768.4069.3806.7198.2324 .3125-.1434.4969-.4845.4122-.7613-.0847-.2719-.4065-.3757-.7176-.2324-.3133.1483-.4983.4894-.4144.7613z" fill="#b22415"/>
  <path d="m373.2535,542.6531c.0856.2768.4065.3806.7194.2373 .3125-.1483.4965-.4894.4126-.7662-.0852-.2719-.4065-.3757-.7185-.2274-.3129.1434-.4983.4845-.4135.7564z" fill="#b22415"/>
  <path d="m393.3342,537.9422c.0852.2768.4056.3806.7185.2373 .3125-.1483.4974-.4894.4126-.7662-.0847-.2719-.4056-.3757-.718-.2324-.3129.1483-.4978.4894-.4131.7613z" fill="#9e2c14"/>
  <path d="m359.5654,529.689c-.5874,1.5819-3.2949,12.1047 1.5071,7.9917 5.0213-4.3059 7.2809-6.1473 7.2809-6.1473s-1.004,5.2229 3.2644,2.4594c4.2684-2.7669 2.2595-5.2258 2.2595-5.2258s.5896,6.6693 4.5195,4.6078c1.7582-.9204 2.2595-5.5299 2.2595-5.5299s2.0085-1.2304 1.5072.922 4.5186,5.2258 5.7747,1.5364 4.5196-3.9948 4.5196-3.9948 2.5111,8.6037 3.7658,4.3024c1.2551-4.3024-.7538-4.9178 0-3.9963s7.784,5.2258 6.7791-.6136-4.2679-11.9856-8.2849-9.5267-.5027-2.4589-4.5195-2.4589-5.2733,3.9949-7.533,1.8434-6.7791-3.9949-7.7835.922-2.5111,1.2295-2.5111,1.2295-5.524.9215-6.2768,4.6099-5.2725,3.6884-6.5285,7.0688z" fill="#26231f"/>
  <path d="m334.96 586.54 1.2119 20.812 48.394-1.7698s6.6966 1.7155 5.4415 1.0976c-0.2198-0.1038 0.3455-1.7203-0.9488-3.3419-6.0991-7.6278-26.554-27.694-54.099-16.798z" fill="#fefbde"/>
  <path d="m390.96 603.65s13.784-20.446 53.706-12.759l-5.697 16.403-46.551-0.4943-1.4586-3.149z" fill="#fefbde"/>
  <path d="m378.1892,541.8777c-.2547,1.2507-9.2753,2.4125-11.0595,2.101s-.6461-8.1717-.6461-8.1717c1.0181-2.803 8.9804-1.2359 10.7625-1.1667 1.3297.0494 1.1981,5.9916.9431,7.2374zm1.8821.8552c.2742-3.6829.3897-10.1931-1.5384-10.0359-2.3439.1923-12.6147-1.9586-13.6002,1.6615-.2414.8899-2.4034,10.2678.654,12.1364s14.1814.3213 14.4845-3.762z" fill="#161413"/>
  <path d="m385.28 531.34c1.7825-0.0712 9.7453-1.6348 10.764 1.1706 0 0 1.1359 7.8563-0.6471 8.1677s-10.805-0.8503-11.06-2.0961-0.3862-7.1904 0.9427-7.2423zm11.661 11.86c3.057-1.8736 0.895-11.252 0.6532-12.14-0.9854-3.6202-11.257-1.4712-13.6-1.662-1.929-0.1562-1.8134 6.352-1.5389 10.035 0.3032 4.0833 11.428 5.6356 14.486 3.7671z" fill="#161413"/>
  <path d="m360.76 531.49c-0.8822 0-2.4988-0.5893-2.3668-3.0937s-0.7886-6.1873-1.8412-3.5361-1.9723 3.9776-3.1559 2.2098-9.6001-8.3966-8.9424-5.5976 3.8135 6.1874 1.0516 6.1874-13.939 0.4415-11.441 3.2405 8.6794 5.1576 5.6551 8.6922-12.757 3.8313-11.31 6.041 5.7866 0.7317 4.9971 3.9747-1.3151 10.9 2.4992 9.8722 7.8899-5.3044 8.679-2.6547 1.0517 9.4273 3.5505 5.7444 3.4189-11.049 4.8655-10.016 2.6298 2.6547 2.7618 0.1482 0.7891-5.4526 1.7096-6.9258 5.5232-14.287 3.2875-14.287z" fill="#e52810"/>
  <path d="m427.5749,539.3416c.0732-.0247.1245-.0445.1245-.0445s-.1262-.0544-.1245.0445z" fill="#e52810"/>
  <path d="m428.7518,540.9188c-.9616-1.0778-1.1744-1.4534-1.1771-1.577-.3888.1137-1.455.3461.651-1.5176 2.4984-2.2098 1.5777-5.5966-.5264-7.8064s0-5.0082 0-7.8073-4.208-1.3254-5.1286-3.5351-2.4983-6.04-5.1285-6.04-1.9727,3.8303-4.603,1.179-4.3395,1.3254-6.4437,4.7137-2.2552,3.8802-3.4189,4.5659c-2.4979,1.4732 1.9727,7.2191 3.6819,9.1337s4.866,0 6.0492,2.0619 1.0517,5.1561.5261,9.4273 1.8412,1.7698 3.6824.445c0,0 1.3147,1.9131 1.1832,6.1844-.0517,1.6906.3296,2.4124.9551,2.6002 .1103.3659.3441.7168.7714,1.0233 1.9559,1.3843 4.8496,2.1209 5.6383.2076 .5138-1.2457.5808-3.2429.5654-4.4788 .5358-.2027 1.2741-.4202 2.3276-.6772 4.866-1.1766 2.1042-6.1894.395-8.1025z" fill="#e52810"/>
  <path d="m362.604,528.2492c-.0547.8568-1.5777,5.8913.5265,4.5664s6.1803-5.8917 6.4433-3.9771c.263,1.9152-.3941,5.1587 1.0525,3.3884s3.9445-7.366 4.2076-4.861 1.5777,6.038 3.0248,3.978 3.0244-7.5137 4.0769-6.0405 .7891,6.7762 3.0244,4.861 3.8139-5.4497 5.5232-5.4497 4.6024,5.4497 4.866,3.8298 1.3151-5.8932 2.2357-3.9776 3.8134,4.2716 3.9445,2.5039-.5252-8.5435-2.7609-8.9859-3.1564.5893-5.5232.8844c-2.3673.2941-1.7096-5.1561-4.3395-3.8303s-4.7349,4.4195-6.4445,2.0625-5.2601-4.5663-6.5748-.2946c-1.3152,4.2717-2.8937,6.7756-3.9454,5.0083s-1.8408-3.2405-3.6824-.8839-1.4467,4.5668-2.6298,4.8614-2.8933.2942-3.0248,2.3566z" fill="#e52810"/>
  <path d="m357.3439,531.7844c-2.4123-.0964-3.0244-6.1874-3.6816-3.8303s-.2635,2.3571-3.8139.7371-11.1777-1.0317-8.9424,1.7673 5.1282,4.2747 4.0769,5.7429-6.8383,6.7776-4.0769,6.1894 3.5509.8849-.3945,4.2712-6.0492,9.5757-3.2874,7.6626c2.7609-1.9182 8.8106-9.5757 7.3643-4.4195s.6571,8.9824 1.9722,5.156 .3946,2.5015.3946,2.5015 1.8412-9.8673 4.208-8.6907 2.4992,3.5346 3.2883,1.1814c.7886-2.3581-6.1811-8.2507-2.4987-6.7776s6.9694-.445 4.8655-2.9463c-2.1042-2.5064 4.2085-8.3971.5256-8.5449z" fill="#e9590a"/>
  <path d="m404.686,525.0087c2.1766-2.4382 1.0521-2.0625 3.6824-5.7454s3.8134-2.7985 4.2084-2.3566c.3941.4419.263-1.4737 3.5509-1.3259s3.6816,1.9146 3.5505,3.6824 5.3912.0005 5.3912,2.3581 .5264,2.2093-.6572,5.7444 2.3664,5.7454 2.6303,6.3347-8.6794,1.9131-4.7344,4.8594 9.2055,6.1894 4.7344,6.926-4.8651,1.6215-4.8651,3.238-2.1046,2.2098-2.6307-2.5014c-.5264-4.7161-1.1836-6.481-2.1042-5.0078s-3.287,3.5346-1.8412-1.1816c1.4466-4.7112 2.6298-8.3956.263-7.3644s-2.3664,3.2414-2.6303-1.4732 .2639-5.3029-3.0248-3.3883c-3.2874,1.9151-6.8383-1.3249-5.5231-2.7986z" fill="#e9590a"/>
  <path d="m370.8898,523.0937c.1686,2.4451-2.7613-1.7673-2.6303.2951s-1.0521,1.0312-2.7613,3.6824-2.3668,4.1255.6576,1.3264 3.4189-4.419 4.3395-1.9146 .7886,1.4726 2.4983-.5898 2.2361-1.1776 3.4193.5898 .1316,1.0313 3.1564-1.7678 3.5508-2.0629 4.8655-.2951c1.3155,1.7678.921,1.4732 2.1042-.442s8.0219,4.419 7.7589,1.3259 2.1038-3.3888 2.3673-2.9464 2.8928,2.0625 2.8928,1.6205 .9214-5.7454-2.3673-4.2717-6.0492,2.2093-6.7067,0-3.1559-2.3576-3.2873-1.4737-4.3391,3.6834-5.1286,1.9156-1.8407-6.3347-3.8139-2.3571-3.4194,5.7454-3.1558,4.7142-4.3391-1.3269-4.2085.5883z" fill="#e9590a"/>
  <path d="m372.86 569.5-3.8677-0.0989-4.6802 3.4852-4.9966 7.5142s22.356 11.197 25.512 15.76c3.1558 4.5678 4.8655 4.8644 4.8655 4.8644l2.2357-0.4448s3.8134-5.1562 5.3912-6.6294 16.044-9.5757 16.044-9.5757l-6.2332-10.802-3.9027-4.5679-7.0955-0.3955s-3.3762 3.678-8.3375 4.5678c-13.15 2.3581-14.935-3.678-14.935-3.678z" fill="#c00d20"/>
  <path d="m372.19 570s-5.0068 0.7514-4.6122 1.1914 9.5625 16.67 9.8256 16.081 7.7354-12.304 7.7354-12.304-8.5144 0.9937-12.949-4.9683z" fill="#fff"/>
  <path d="m386.02 574.76 8.8189 12.21 7.1453-17.574-4.7887-0.791s-1.3248 3.9944-4.6118 5.7592c-3.2878 1.7698-6.5638 0.3955-6.5638 0.3955z" fill="#fff"/>
  <path d="m376.27 568.61s0.8866 3.3765 4.6113 3.5742c3.7256 0.1977 10.466-0.3955 11.353-2.981 0.887-2.5805 0.9277-2.9315 0.177-2.185-1.5958 1.5918-4.9667 2.981-8.1596 2.981s-8.6914-2.5855-7.9817-1.3891z" fill="#f4b891"/>
  <path d="m409.0124,555.4324c-.1801-.4696 1.0102-5.1709 1.8765-6.1448s1.0106-5.6604-1.7322-8.5672-2.7428-.4894-2.166.8058-1.4431.9689-.8659,2.5904 1.5879,3.0699.5772,3.3913c-1.0102.3263-1.0102.8107-1.0102,1.7797s-3.3201,2.4273-2.5989,4.6915 2.3099,4.8495 3.0319,4.3651 3.3209-1.7797 2.8876-2.9118z" fill="#26231f"/>
  <path d="m408.58 541.65c0.1655 0.2472 2.4851 4.4344 1.933 5.7741s-2.4846 6.1844-2.2088 6.8023 1.5645 4.0241 1.5645 4.0241l-2.0239 1.8193s-1.5654-3.777-2.2097-4.0884-1.2882-2.7831-0.4603-3.6087 2.3933-2.8871 2.8531-4.0192c0.4603-1.137 0-7.529 0.5521-6.7035z" fill="#f4b891"/>
  <path d="m360.2354,560.3803c.1796-.4696-1.0106-5.1709-1.8769-6.1448s-1.0106-5.6604 1.7322-8.5672 2.7432-.4894 2.1656.8058 1.444.9689.8663,2.5904-1.5883,3.0699-.5777,3.3913c1.0111.3263 1.0111.8107 1.0111,1.7797s3.3205,2.4273 2.5981,4.6915-3.1475,5.2697-3.8686,4.7853-2.4833-2.1999-2.0499-3.332z" fill="#26231f"/>
  <path d="m360.67 546.6c-0.1655 0.2472-2.4846 4.4344-1.9321 5.7741s2.4842 6.1844 2.2084 6.8023-1.564 4.0241-1.564 4.0241l0.9709 1.6462s2.6179-3.6039 3.2622-3.9153 1.2882-2.7831 0.4599-3.6087-2.3928-2.8871-2.8531-4.0192c-0.4599-1.137 4e-4 -7.529-0.5521-6.7035z" fill="#f4b891"/>
  <path d="m370.29 576.91s6.3502 12.68 7.3625 12.784 6.3506-11.751 6.0739-11.647-5.6136 9.1752-6.1657 8.4535-7.4548-10.105-7.2707-9.5905z" fill="#26231f"/>
  <path d="m389.25 579.18s4.5915 10.268 5.614 10.001c2.1956-0.5734 6.5346-17.629 6.3502-17.322s-5.7977 15.364-6.2575 14.331-5.7067-7.7317-5.7067-7.0099z" fill="#26231f"/>
  <path d="m398.09 537.94s4.693-6.5952 6.2579-6.4924l-0.3685-1.2374s-5.1528 3.9183-5.9812 3.9183-0.6443 4.1229 0.0918 3.8115z" fill="#161413"/>
  <path d="m359.9841,540.2065c.6368-.1088 4.7857-2.1653 4.8779-1.1321s-.5525,2.887-.5525,2.887-3.5888-.8256-4.5094-.1038-1.0124-1.4435.184-1.6511z" fill="#161413"/>
  <path d="m379.22 537.63s2.9454-2.5805 3.8655-1.0332 0.0918 1.5473 0.0918 1.5473-2.3002-0.8256-3.5888 1.0332c0 0-1.2887-1.3397-0.3685-1.5473z" fill="#161413"/>
  <path d="m331.42 617.32s-1.2207 2.5805 0.5424 2.1258 48.688-10.94 51.536-10.026 3.6616-1.8242 3.2548-1.8242-48.959 5.6208-48.959 5.6208-6.2385 3.0353-6.374 4.1031z" fill="#e20415"/>
  <path d="m395.97 609.11c-0.2705 0.3411 4e-4 1.8242 1.3566 1.9774s46.246 1.9725 46.653 1.2161 0.8134-2.4322 0.4069-2.4322-47.332-2.1307-48.417-0.7613z" fill="#e20415"/>
  <path d="m385.6681,611.5463c0,0-.4069,2.1257 1.4912,2.4322 1.8994.3016 6.6454.4548 7.3237-.1532s1.4917-2.1257 1.4917-2.1257-.9497-3.3468-1.0852-2.7387 .6783,1.6759-.5424,2.7387-2.4409,1.5177-5.0174.9096-2.0349-2.1257-2.4414-2.279-1.7635-.3015-1.2203,1.2161z" fill="#e20415"/>
  <path d="m389.57 599.87s26.76-24.995 53.161-17.96l2.7807 5.6258s-7.9044-4.1477-19.384-1.2161-29.781 9.8426-30.746 11.326-5.8109 2.2247-5.8109 2.2247z" fill="#26231f"/>
  <path d="m392.72 598.57s26.372-22.132 49.452-15.869l0.3119 1.31s-16.054-6.8122-49.764 14.559z" fill="#fefbde"/>
  <path d="m393.34 603.56s24.457-15.018 47.464-9.5411c0 0-0.1806 1.0184-5.2531 2.0318s4.1669 3.0452 3.2609 3.0452-7.2468-0.6081-7.2468-0.6081l-0.181 2.4322s7.4279 0.2027 6.7028 1.4238c-0.7246 1.2161 1.4493 3.2429-2.3548 2.0268s-5.7968 1.0134-5.7968 1.0134-33.334-3.6532-36.595-1.8241z" fill="#ede5b0"/>
  <path d="m387.36 604.17s-17.935-22.726-49.276-15.829l-0.3619 5.6802s10.507-2.2296 12.319-0.4055c1.812 1.8292-8.5149 2.8426-8.5149 2.8426l0.5442 2.4371s9.9637-1.0134 10.506 0-11.412 1.8241-12.318 2.8376c-0.906 1.0185 0 2.8426 0 2.8426s41.847-3.856 47.101-0.4054z" fill="#ede5b0"/>
  <path d="m385.92 581.64s0.7247 13.6 1.6302 13.6 1.087 0.2027 1.087 0.2027-2.3553-15.829-2.7172-13.802z" fill="#26231f"/>
  <path d="m435.6693,593.196c.0005.1483-2.4542.2521-6.4129.3955-3.9525.1681-9.4301.346-15.3619,1.4435-2.9627.5537-5.7438,1.3199-8.2047,2.2444s-4.6003,2.0021-6.3329,3.0403c-3.4635,2.0911-5.3409,3.8906-5.4371,3.7521-.0375-.0494.3884-.5487 1.2445-1.3496s2.1545-1.8884 3.8796-3.0255c1.7233-1.137 3.8774-2.3136 6.3739-3.2973 2.4939-.9937 5.3214-1.8044 8.3269-2.363 6.0201-1.1123 11.5387-1.1766 15.5026-1.1617 3.971.0395 6.4213.1879 6.4217.3213z" fill="#26231f"/>
  <path d="m436.6407,597.5465c-.0288.1483-2.3598-.4004-6.1882-.4746-3.8219-.0989-9.1199.2571-14.8875,1.31-5.7684,1.0431-10.8935,2.5904-14.4819,4.0636-3.6021,1.4485-5.6361,2.8425-5.7058,2.714-.0711-.1038 1.8783-1.7352 5.4741-3.3814 3.5787-1.666 8.7421-3.3418 14.5685-4.3948 5.8254-1.0678 11.195-1.31 15.0595-1.0283 3.8748.262 6.1961,1.0678 6.1614,1.1914z" fill="#26231f"/>
  <path d="m433.7278,602.9848c-.0321.1434-1.7467-.2472-4.5477-.618s-6.6891-.7316-10.9823-.6427c-4.291.0791-8.156.6723-10.8349,1.5671-2.696.8602-4.1422,1.9972-4.2181,1.8687-.0812-.089 1.2869-1.4831 4.0213-2.5509 2.7097-1.0975 6.6604-1.8192 11.0149-1.8983 4.3585-.089 8.2885.3955 11.0931.9492 2.8081.5537 4.4864,1.1963 4.4537,1.3249z" fill="#26231f"/>
  <path d="m385.3526,601.3634c-.0954.1286-2.0733-1.9477-5.9543-4.0487-3.8527-2.1356-9.57-4.1575-16.0605-5.3687-6.4901-1.2359-12.4687-1.5621-16.7835-1.5869-4.3201-.0198-6.9887.2719-7.0038.1186-.0172-.1236 2.6422-.6674 6.9945-.8305 4.3444-.1631 10.3838.0494 16.9445,1.2952 6.5597,1.226 12.3495,3.3962 16.1991,5.7345 3.8836,2.3086 5.7443,4.6173 5.6639,4.6864z" fill="#26231f"/>
  <path d="m383.2405,600.8092c-.0274.1236-2.5032-.4251-6.3652-1.8736-1.9321-.7168-4.1898-1.7055-6.705-2.6893-2.5141-.9838-5.3342-1.8291-8.3788-2.1653-3.0407-.3559-5.9773-.2917-8.6385-.1335-2.6634.1681-5.0597.4449-7.0713.6872-4.0226.5092-6.5108.8849-6.532.7366-.0199-.1285 2.4308-.7564 6.449-1.4435 2.0098-.3411 4.4128-.6921 7.1013-.9096s5.6674-.3114 8.7862.0544c3.1218.3461 6.0346,1.2458 8.5616,2.2938 2.5323,1.0431 4.7491,2.0961 6.6428,2.892 3.7786,1.6116 6.1854,2.4026 6.1498,2.5509z" fill="#26231f"/>
  <path d="m374.3985,600.2706c-.0261.1434-1.7923-.1681-4.6379-.6476-2.8443-.4647-6.7805-1.1024-11.1429-1.1271-4.3642-.0396-8.2866.6427-11.0948,1.2903-2.8108.6427-4.5346,1.1716-4.5747,1.0233-.0344-.1186 1.6245-.8898 4.4304-1.7253 2.7975-.8305 6.7915-1.6413 11.2431-1.6017 4.4503.0247 8.4221.791 11.251,1.4386 2.8319.6624 4.5504,1.2211 4.5258,1.3496z" fill="#26231f"/>
  <path d="m353.7064,539.1882c.0358.0593-.0353.2126-.2313.4103-.199.1928-.5133.4696-1.0442.5784-.2626.0544-.5923.0396-.914-.1236s-.594-.4647-.7785-.8107c-.3672-.697-.4599-1.5375-.3831-2.368 .0812-.8355.3394-1.6017.7132-2.2048 .3716-.613.8738-1.0381 1.3416-1.2458s.8804-.2145 1.143-.172c.2675.0485.4003.1374.3963.2116-.0009.1681-.5786.1829-1.2282.6476-.3204.2373-.6439.5982-.8963,1.0975-.252.4944-.4369,1.1173-.5013,1.7797-.0658.6624.003,1.315.1986,1.7648s.4943.6476.8509.6575c.3531.0148.6858-.1088.9157-.178s.3778-.1088.4175-.0445z" fill="#f5b700"/>
  <path d="m346.6467,553.6434c.0587-.0395.2238.1928.5547.5339s.8641.786 1.6108.875c.3676.0395.7789-.0198 1.1607-.2225s.7242-.5537.9281-1.0184c.2065-.4647.2612-1.0381.162-1.6314-.0252-.1483-.0582-.2966-.1006-.4499-.0627-.2126-.1787-.5685-.3681-.9343-.3795-.7316-.974-1.7599-1.3783-2.4965l1.1068.8107c.3937.2818.8015.5982 1.1417.8157 .1774.1137.3482.2076.5155.2867l.222.0989 .1099.0396c.1452.0494.2882.084.425.0989 .2745.0297.5119-.0198.7013-.1483 .3875-.2571.6077-.8849.6713-1.4979 .1258-1.2408-.1801-2.4767-.6717-3.2083-.248-.3658-.5494-.5784-.8469-.6278s-.5865.0297-.8129.1335c-.4563.2126-.7008.4251-.7498.3609-.0384-.0445.1015-.3609.5693-.7366 .2335-.173.5777-.3757 1.0371-.3658 .4594,0 .9652.2867 1.3249.7366 .3689.4449.6395,1.0233.8217,1.666 .1787.6476.2776,1.3694.2207,2.1455-.0313.3905-.1011.7959-.2564,1.2013-.1545.4004-.4087.8206-.801,1.0975s-.8725.3708-1.2957.3213c-.2149-.0198-.4202-.0692-.6161-.1335l-.1765-.0643-.005-.005c-.002-.005-.005-.005-.006,0s-.008-.0247.0243.1038c.0485.1878.0874.3807.1161.5735 .1125.7761.0159,1.6017-.316,2.2592s-.8513,1.1321-1.3919,1.3644c-.5437.2422-1.0984.2571-1.5667.1533-.955-.2323-1.5071-.8898-1.7807-1.3397-.2767-.4647-.3328-.7663-.2829-.7959z" fill="#f5b700"/>
  <path d="m342.2646,553.9153c.0304.0544-.2176.3263-.7719.6427-.5468.3065-1.4493.6822-2.6206.5191-.5773-.089-1.2088-.3263-1.7825-.7861-.5697-.4499-1.098-1.1123-1.3628-2.0071-.1253-.4449-.1801-.959-.0618-1.4831 .1117-.529.4396-1.0233.8509-1.315 .842-.5932 1.7856-.5784 2.6444-.4746l4.1824.5092-4.178.5735-.1024.01c-.8465.1186-1.696.173-2.5473.01-.4232-.089-.8562-.2324-1.2525-.5388-.3994-.2917-.7074-.8454-.7441-1.3842-.0459-.5339.0843-.9986.2418-1.3891 .1628-.3955.3667-.7267.5817-1.0283 .4325-.5982.9109-1.053 1.3716-1.4188 .9272-.7317 1.7896-1.0925 2.3924-1.2606 .6073-.1681.9563-.1582.9678-.089 .015.0791-.3032.2076-.8425.4894-.5349.2818-1.2988.7267-2.0989,1.4732-.3963.3708-.8036.8206-1.1496,1.3545-.3363.524-.6404,1.2013-.5733,1.75 .0366.267.1527.4746.3813.6476s.5459.2768.8866.3411c.6907.1186 1.4722.0741 2.2626-.0346l.0958-.0148 .004,1.0826c-.7494-.1088-1.5159-.0643-2.0054.2867-.4912.3263-.6165.9739-.451,1.6116 .1624.6377.5477,1.1914.9868,1.577 .44.3955.9418.6328 1.4193.7514 .9683.2324 1.8107.0198 2.3659-.1533 .5618-.1829.8738-.3263.9091-.2521z" fill="#f5b700"/>
  <path d="m346.6467,545.4616c-.0141.1384-.2732.2719-.7123.2126-.4184-.0544-1.0958-.3461-1.4586-1.1469-.1743-.3905-.2132-.8355-.1421-1.2013s.2286-.6525.3915-.8404c.3332-.3757.6289-.4103.7039-.2966 .0874.1187-.0335.3757-.1267.7168-.0984.3411-.128.7514.0468,1.142s.5181.6872.8058.8948 .5089.3609.4916.5191z" fill="#f5b700"/>
  <path d="m344.6992,536.7355c-.006.1335-.4351.2966-1.162.1285-.3566-.089-.7948-.2867-1.1841-.697s-.7008-1.0678-.6721-1.8093c.019-.7415.3972-1.402.8526-1.7431 .4568-.3539.9405-.441 1.3112-.434 .7538.0321 1.1258.3342 1.098.4632-.026.1592-.4568.1473-1.0278.304-.2816.0806-.5927.22-.8359.4657-.2436.2373-.4122.5883-.425.9887s.1293.7761.3482,1.0678c.2185.2966.5049.5141.7666.6674 .5305.3114.9422.435.9303.5982z" fill="#f5b700"/>
  <path d="m379.0233,526.6455c.0913.1033.004.4217-.312.8201-.1633.1933-.3764.4167-.7317.5735-.1774.0727-.4069.133-.681.0677-.2758-.0598-.5419-.2961-.6704-.5522-.2564-.5196-.2185-.964-.1748-1.3278 .056-.3648.1624-.6619.2754-.8933 .2299-.4632.4744-.6629.5909-.5967s.1024.3871.064.834c-.0185.2235-.0388.4825-.0371.7475 0,.2576.0433.5497.1143.6728 .0362.0588.0397.0598.0649.0776s.1024.0262.1938.008c.1858-.0336.3994-.1389.5786-.2274 .3614-.1874.6298-.3134.7251-.2037z" fill="#f5b700"/>
  <path d="m414.5646,532.0979c.0578-.1503.5614.0242 1.312.0915 .3703.0267.8089.005 1.1867-.1918 .376-.1908.6739-.5739.7745-1.0955s-.01-1.0673-.2352-1.4727c-.2246-.4118-.5565-.6956-.8769-.8725-.6523-.3505-1.1863-.3821-1.1876-.5487-.0141-.1231.5049-.4049 1.4193-.1775 .4457.1206.9877.4355 1.3822,1.0258 .3941.5789.6156,1.4237.4488,2.279-.1505.8612-.756,1.5691-1.3946,1.797-.6395.2452-1.2163.1493-1.6408.0158-.8575-.2986-1.241-.7311-1.1885-.8503z" fill="#f5b700"/>
  <path d="m407.9913,530.4621c.0212-.1592.4519-.178 1.0499-.3203 .2948-.0761.6302-.1938.9175-.4128s.5194-.5399.6103-.9393 .0234-.8097-.1368-1.052c-.1536-.2487-.4047-.349-.6739-.3574-.5464.007-.9647.2264-1.0362.0821-.0362-.0603.0115-.1893.1567-.354s.3879-.3732.7833-.4919c.1977-.0534.4378-.0826.7013-.0163 .2621.0603.538.2259.7463.4785 .425.5062.5675,1.2784.402,1.9833-.1598.7163-.6249,1.2685-1.102,1.536-.4815.2768-.9493.3273-1.3151.3129-.7397-.0499-1.1245-.3149-1.1033-.4489z" fill="#f5b700"/>
  <path d="m424.5455,546.8257c.0344.0445-.1201.2917-.5044.6427-.3835.3411-1.0097.791-1.9091,1.0431-.448.1286-.9638.2027-1.5327.1385-.5565-.0693-1.2207-.2571-1.734-.8998-.2507-.3164-.4122-.7613-.4281-1.2062-.0203-.4499.0777-.875.226-1.2606 .2264-.5339.154-.346.1734-.4054 0-.01.0132-.0247-.006-.01l-.0287.0198-.007.005h-.0009l-.0366.005-.2321.0198c-.6174.0297-1.3173-.1582-1.8447-.6872-.3738-.3658-.6346-.88-.7096-1.4336-.0803-.5487.0353-1.1271.2864-1.577s.609-.786.9793-1.0085c.3729-.2274.7591-.351 1.1346-.435l1.7503-.3807-1.3632,1.2754c-.5186.4795-1.1267.8651-1.7891.9937-.6589.1434-1.3429-.0148-1.8566-.3757-1.0428-.7119-1.4215-2.1109-1.0428-3.0502 .1787-.4696.493-.7761.775-.9541 .2864-.1829.5516-.2571.7635-.3015 .4272-.0791.6563-.0297.6615.0247 .008.0643-.2136.1285-.5773.3016-.3469.1631-.9069.4795-1.0945,1.1518-.1977.6427.1355,1.6264.9038,2.0812 .3756.2274.8363.3065 1.3028.1878s.9347-.4202 1.3584-.8404l.387.8899c-.6033.1434-1.1973.4647-1.4727.9937-.2851.5092-.1898,1.2161.248,1.6413 .3001.3016.7273.44 1.1655.4202l.1651-.0148c.0106.005.1015-.0148.1611-.0247 .0662-.0148.1298-.0247.1973-.0445 .1403-.0494.2626-.0692.4228-.1483l.2282-.1038 .2776-.1532 2.5473-1.4435-1.925,2.2048c-.1553.1829-.3116.3559-.4418.524-.1165.1582-.241.3164-.3283.4696-.2339.3757-.2458.44-.3173.5932-.2458.5685-.2493,1.1074.0163,1.4781 .2643.3806.748.5932 1.2008.6822 .4607.084.914.0643 1.3187-.005 .8147-.1384 1.4365-.4548 1.8522-.6872 .4162-.2373.6417-.3905.6805-.3362z" fill="#f5b700"/>
  <path d="m418.4586,528.8257c-.0145-.0861.3385-.218.918-.5473 .2891-.1661.6355-.3806 1.0194-.6619 .3473-.2468.959-.749.9082-.7514l-.0812-.0687-.0406-.0356-.1456-.1528-.6068-.6407-1.3081-1.405-.6955-.7564c-.1245-.1241-.305-.3663-.3937-.5893-.0997-.2314-.1531-.4711-.1845-.6901-.0591-.4331-.0605-.831-.1381-1.0248-.038-.0944-.0658-.1325-.1386-.1839-.0357-.0237-.0834-.048-.1399-.0677l-.0909-.0282-.0256-.007-.0596-.0109c-.0406-.007-.0777-.0158-.1262-.0198-.3566-.048-.805.004-1.2767.042l-1.3279.1097 1.1717-.9047c.4091-.3124.7463-.5779.9749-.8607l.1324-.1661 .0711-.0984c.0459-.0662.0905-.133.1311-.2022 .0821-.1364.1531-.2793.2136-.4251 .2449-.5824.2935-1.2225.1977-1.8178-.053-.2027.0574-.1177-.1686-.1646-.2749-.0287-.5424-.0405-.8006-.0361-.5163.009-.993.0826-1.414.2002-.8473.2333-1.4475.6664-1.8152,1.0248s-.5424.6179-.6028.5784c-.049-.0292.0154-.3614.3403-.8523s.9528-1.0935 1.8862-1.4554c.4629-.1829.9921-.311 1.5667-.3634 .2877-.0262.5856-.0331.8928-.0198 .0569,0 .1928.0133.3235.0252s.2696.0331.4064.0489c.0706.1098.0958.2857.1421.4286 .0216.0756.0428.1513.06.2299l.0358.1612c.1545.7544.1196,1.6378-.1955,2.4387-.0772.1992-.1695.3935-.2754.5789l-.1681.2714-.0909.13-.0402.0534-.0009.002c-.001.006 0,.007.002.007l.005-.002 .0552.0138c.0556.0138.1121.0311.1686.0519 .1139.041.2317.0959.3473.1755 .2357.1498.4422.436.5322.7079 .1748.5487.1315.9487.184,1.267 .0203.1582.0516.2907.0953.3989 .0525.1187.0839.173.199.3021l.677.7791 2.6594,3.1204c-.9762.7885-1.2714.9476-1.7401,1.2201-.4338.2432-.8284.4103-1.158.5195-.6637.2156-1.057.1962-1.0676.1232z" fill="#f5b700"/>
  <path d="m409.4524,524.1906c-.0512.1182-.4996.1038-1.0976-.3945-.2869-.2521-.6148-.6773-.7295-1.2913-.1214-.608.0327-1.3323.4131-1.8716 .3756-.5468.9175-.8864 1.4546-.9684 .5415-.0929 1.0428.1083 1.3491.3718 .3129.265.4682.5596.5441.7668 .0728.2126.0684.3495.0132.3881-.1183.0949-.41-.2679-.9034-.4889-.2454-.1028-.534-.1449-.8385-.0504s-.6209.3154-.8478.6461-.3257.7099-.2988,1.046c.0221.3401.1659.6545.3314.9072 .3407.5067.6792.7969.6099.9393z" fill="#f5b700"/>
  <path d="m387.0556,525.0086c.117.0371.1832.4894-.0834,1.1919-.1395.3391-.3875.7682-.8694,1.0391-.4749.2813-1.1686.2368-1.6611-.1424-.5036-.3668-.7913-.9353-.8954-1.4638-.1064-.5349-.0335-1.0253.0927-1.3837 .2688-.7222.6448-.9581.7392-.877 .1192.0885-.0291.4899-.0711,1.0634-.019.2848-.0009.612.1042.9294 .1015.3154.2961.6263.5596.8162s.5344.2239.7767.1359c.2458-.0875.4687-.306.6399-.5245 .3425-.4474.5327-.8325.6682-.7845z" fill="#f5b700"/>
  <path d="m355.6529,539.7313c-.0212-.1533.3769-.3263.9171-.6872 .5274-.351 1.2476-.959 1.591-1.8192 .1668-.4251.1779-.8157.0565-1.1074-.1183-.3016-.3826-.5339-.6421-.6921-.53-.3164-.9647-.44-.9488-.5982 .007-.1335.4391-.3114 1.1916-.1236 .3628.1038.8544.3362 1.1836.9244s.3098,1.4089.0525,2.0318c-.5292,1.2804-1.5265,1.8687-2.2159,2.0961-.7136.2225-1.1704.1186-1.1854-.0247z" fill="#f5b700"/>
  <path d="m348.5937,540.0086c.0216.1434-.1086.3164-.3734.44-.1333.0593-.2997.1088-.5177.1137-.1161-.005-.2167-.005-.3998-.084-.1655-.0692-.3191-.1978-.4228-.3757-.1015-.173-.1417-.3856-.135-.5833s.0463-.3164.0856-.4301c.083-.2225.1867-.3757.286-.4944 .2012-.2274.3897-.3016.5036-.2225 .1174.0742.1368.2917.1139.5636l-.0388.4202c-.004.0643-.002.1384.004.1434h.01c.005-.005-.0454.01.098.0643 .1108.0396.2436.0742.3583.1137 .233.0791.4065.178.4281.3312z" fill="#f5b700"/>
  <path d="m350.7852,529.9171c-.0649.0311-.1633-.0707-.3103-.2408s-.3438-.4192-.6103-.5818-.5777-.1992-.9493-.0361-.7692.5052-1.1108.9442-.6011.9373-.7083,1.3699c-.0534.2155-.0627.4054-.0335.5329 .0247.129.0874.2239.1973.3095 .2277.1666.5415.2165.7423.264 .2087.046.3381.0875.3487.1656 .0106.0702-.0944.1716-.3182.2571-.2229.0737-.5649.1884-1.0579.0153-.241-.089-.5274-.3248-.6629-.6797s-.1456-.7267-.0944-1.0693c.1112-.6911.4228-1.3214.8526-1.881 .4334-.5537.9656-.9931 1.5729-1.1865 .3014-.0949.6258-.1162.918-.039 .2944.0702.5393.2368.7154.4153 .3522.3673.4744.748.5336,1.0011 .0556.2576.0344.4123-.0247.4395z" fill="#f5b700"/>
  <path d="m424.5452,539.46c-.0415-.1483.5269-.3263 1.0473-1.0035 .2476-.3263.4643-.8404.3826-1.2853-.0401-.2126-.1408-.3856-.3257-.5042l-.0388-.0297-.1033-.0445c-.075-.0297-.1187-.0692-.2392-.084l-.3169-.0544-.4484-.0148-1.9917-.0742 1.9802-.8997c.1377-.0643.2604-.1236.3667-.178 .1209-.0593.207-.1186.3005-.1829 .0958-.0593.1668-.1285.2516-.1978 .0684-.0593.0715-.0643.1077-.1038 .1139-.1186.2096-.2422.282-.3757 .1474-.267.2017-.5586.1721-.8256-.0569-.5576-.4537-.962-.8531-1.0747-.4069-.1275-.8023-.0297-1.0702.045-.2714.0786-.4369.1369-.4771.0722s.053-.2353.3098-.4523c.252-.2057.7039-.4879 1.3531-.4251 .3186.0346.6757.175.9802.4578s.5534.702.6417,1.2042 .008,1.0678-.2317,1.5325c-.1178.2373-.2696.4449-.4395.6328l-.1125.1137h.001-.011l-.005.01c.0172.0148-.0521-.0346.1046.084 .3817.2768.6329.786.662,1.2458 .0401.4597-.0768.8602-.2299,1.1766s-.3539.5636-.5534.7465c-.4029.3658-.7979.5042-1.0636.5537-.2697.0445-.4201,0-.4321-.0643z" fill="#f5b700"/>
  <path d="m424.3009,547.0971c.0388-.1582.5186-.0939 1.2216-.1631 .6854-.0593 1.662-.3411 2.2574-1.1766 .2904-.4054.4087-.875.3394-1.2359-.0591-.3708-.3094-.6624-.5825-.8602-.5645-.3856-1.0632-.4894-1.0446-.6575 .004-.0692.1253-.1384.3553-.173 .2268-.0247.5658-.0247.9833.1335 .4012.1582.9462.5487 1.154,1.2903s-.007,1.5819-.4431,2.1801c-.4378.6179-1.0252.9788-1.5707,1.1568s-1.0627.178-1.4705.1137c-.8222-.1384-1.2375-.4795-1.1995-.6081z" fill="#f5b700"/>
  <path d="m383.8922,522.5541c-.0538-.0257-.0472-.1745-.0198-.4232 .0238-.2437.0843-.61.0304-.9833-.0627-.3891-.2388-.5848-.6876-.5843-.218.002-.4718.0593-.7348.1562l-.1995.0791-.117.0524c-.0763.0321-.1465.0717-.2202.1083-.2926.1454-.6028.3297-.9078.4949l-.0657-.9645-.0516-.4746-.0389-.2205c-.0574-.2872-.1377-.5675-.2533-.8063-.1677-.347-.3888-.5591-.6382-.6184-.2507-.0657-.5539.0173-.8142.1893-.5322.351-.8628.9679-.9722,1.5043-.1192.5463-.0477,1.0307.0212,1.3644 .0706.3362.1289.5374.0697.5809-.0516.0396-.2193-.0801-.4162-.4098-.1911-.3228-.4113-.8968-.3557-1.6506 .0521-.7406.399-1.6388 1.1704-2.236 .3804-.2877.9021-.5092 1.4828-.3906 .5883.1103 1.0667.6199 1.3094,1.1469 .1761.3698.2749.745.3398,1.1054l.0415.2665c.003.0217-.0009.009-.0009.0158l-.006.0237c.003.003.008.005.0185.006l.006.001 .1086-.0396c.0834-.0282.1664-.0554.2502-.0776 .335-.0934.6761-.1424 1.0212-.1058 .3376.0331.7101.1849.9502.4954s.2904.6812.2811.9526c-.0287.5581-.203.9066-.3226,1.1385-.1267.2284-.2308.3263-.2785.3025z" fill="#f5b700"/>
  <path d="m369.2856,527.7365c-.0199.0801-.2449.0984-.6465.0677-.2012-.0193-.4541-.0435-.763-.173-.1553-.0717-.301-.1424-.5159-.3648-.1902-.2007-.3588-.4499-.5296-.7158l.4974-.4429 .2524-.2165 .1664-.1384c.2295-.1834.4921-.3673.7979-.5121 .0755-.0371.1562-.0672.2352-.1003l.1015-.0346 .008-.006 .011-.0129c.001-.007-.007-.009-.0141-.0124l-.0115-.003 .002-.001c-.004-.006.0106.0148 0,0l-.0357-.0465c-.0243-.0307-.0468-.0662-.0689-.1003-.0454-.0672-.0869-.1444-.124-.2264-.0741-.1626-.128-.3579-.1342-.5646-.0163-.4251.1805-.7934.3844-1.0085 .2083-.2249.4343-.3574.654-.4553 .8879-.3619 1.7132-.1854 2.3059.1157 .5993.3114.9612.7618 1.1488,1.0886s.226.5527.1734.5917c-.0591.044-.2034-.0934-.4528-.3055s-.6161-.4934-1.1157-.654c-.4872-.1616-1.1488-.1948-1.7141.091-.2824.133-.4713.4-.4307.4904 .003.0302.0119.0672.0362.1167 .0115.0247.026.0519.0468.0801 .0102.0138.0181.0282.0309.0425l.0177.0222 .0587.0648c.158.1671.3786.3105.6567.4637 .3244.1552.7176.3253 1.1849.5304l3.0054,1.3239-3.8788-.6224c-1.1399-.2235-1.613.0138-1.7591.0633-.2335.0905-.4563.216-.6704.3559l-.1584.1063c-.0574.0405-.0358.0183-.0591.0321l-.0883.0425c.009.0742.004.1488.2449.3278 .1955.1384.4175.2314.5993.3164 .3672.1661.5706.304.5508.3841z" fill="#f5b700"/>
  <path d="m394.1166,521.7362c.1236-.0282.3575.4271.4934,1.2621 .0618.4168.0975.9304.0309,1.5103-.0177.1444-.0393.2927-.0724.4439-.0146.0756-.0326.1518-.0538.2274l-.0304.1152-.0596.1706c-.0433.1206-.0843.2398-.1421.3742-.0635.1127-.0741.3253-.2374.262-.1306-.002-.2617-.007-.3936-.0153-.0666-.001-.1324-.009-.1986-.0178l-.1271-.0198c-.6408-.1167-1.1947-.4805-1.5804-.8908s-.6412-.8582-.8076-1.2438c-.3261-.7776-.3482-1.3091-.2299-1.3605 .1298-.0593.3835.3634.812.9472s1.0781,1.3145 1.9661,1.4717l.0741.0119 .002.001 .0009.002c.002-.001 0,.0148.015-.0188 .004-.0104.004-.002.0119-.0282l.0287-.087c.0199-.0573.0384-.1157.053-.1745 .0344-.1157.0605-.2329.0865-.348 .0993-.4632.1373-.9096.1646-1.2903 .0468-.7648.0552-1.2739.1942-1.3046z" fill="#f5b700"/>
  <path d="m399.4717,522.2826c-.2776.006-.4268-.9398-.9815-1.3876-.5481-.4805-1.4171-.4835-1.4524-.7939-.0225-.1439.1611-.3342.5331-.437 .3584-.0979.9687-.0949 1.5111.3648 .5446.4652.7008,1.1657.6792,1.5829-.019.4375-.1598.6718-.2895.6708z" fill="#f5b700"/>
  <path d="m358.82 525.28s-3.862 13.931-1.1841 13.931 5.3228-4.6617 5.3228-4.6617 0.2432-9.5425-0.4868-10.36-2.6784-0.2729-3.6519 1.0905z" fill="#26231f"/>
  <path d="m399.83 518.74s0.6183 7.9038 1.8355 9.2672 5.7411 4.5456 5.7411 4.5456-0.1478-10.818-3.565-13.48c-1.2631-0.9852-3.5244-3.6053-4.0116-0.3327z" fill="#26231f"/>
  <path d="m359.57 525.73s-3.2684 12.315-1.4859 11.648c1.7829-0.6624 3.4171-1.661 3.5659-3.9944s0.7432-7.3209-0.1487-7.4875-1.9312-0.1661-1.9312-0.1661z" fill="#239828"/>
  <path d="m401.3121,519.4059c0,.8325-.1487,7.6561 1.0402,8.4876s4.159,4.1605 3.8633,2.33-.4462-6.1567-1.6355-7.6546-1.9308-5.1596-2.8222-3.4951-.4457-.4998-.4457.3322z" fill="#239828"/>
  <path d="m360.16 527.23-1.1885 7.6536s1.0398 0.6674 1.4855-1.3298 1.6342-8.9864-0.297-6.3238z" fill="#acc700"/>
  <path d="m402.5 521.24 0.8915 6.6565 1.7825 0.4993s-2.2287-10.317-2.674-7.1558z" fill="#acc700"/>
  <path d="m388.54 577.49c0 1.5622-1.1315 2.8327-2.5261 2.8327s-2.5257-1.2705-2.5257-2.8327 1.1311-2.8277 2.5257-2.8277 2.5261 1.2656 2.5261 2.8277z" fill="#26231f"/>
  <path d="m387.8675,577.4857c0,1.0579-.7652,1.9131-1.7088,1.9131s-1.7084-.8552-1.7084-1.9131 .7648-1.9132 1.7084-1.9132 1.7088.8552 1.7088,1.9132z" fill="#f0e31f"/>
 </g>
</svg>
