<svg xmlns="http://www.w3.org/2000/svg" width="498.437" height="454.648"><path fill="#26231f" d="M144.871 196.359s-95.26 74.777-97.33 114.06 15.53 44.36 15.53 44.36 38.312-40.548 52.81-73.51c14.496-32.962 43.488-72.23 43.488-72.23s-5.178-24.075-14.496-12.68zm192.004-17.114S472.59 296.057 457.06 322.663c-15.532 26.624-21.233 16.88-21.233 16.88l-33.134-29.153s-70.575-108.25-72.649-118.382 6.834-12.762 6.834-12.762z"/><path fill="#f4b891" d="M144.623 203.7S53.52 280.25 55.145 306.976s13.016 30.376 20.61 26.114c7.592-4.262 19.732-37.347 19.732-37.347s56.228-85.033 57.308-89.272-4.375-5.81-8.17-2.773zm196.046-12.95c-1.915.45-1.895 11.764-1.895 11.764s66.703 109.944 80.802 111.78 37.36 9.988 33.564.264-102.167-126.23-112.472-123.805z"/><path fill="#26231f" d="M384.34 164.812s-1.602 25.585 11.957 25.585 23.835-4.933 24.377-15.86-3.798-24.3-3.798-24.3-29.823.61-32.536 14.575"/><path fill="#26231f" d="M321.932 36.66c4.142-11.405 28.99-39.291 38.31-30.42 9.32 8.873 13.461-16.473 27.955-1.263 14.498 15.206 11.39 10.134 14.498 21.544s12.424 2.536 19.675 13.942 6.21 7.602 4.137 26.612c-.914 8.41-4.15 4.006 2.296 7.853 19.01 11.339 8.534 34.652 3.917 40.3-8.28 10.152 28.993 40.568-5.172 48.172-11.426 2.548-28.21 14.107-39.35 13.944-8.953-.142-15.47-8.46-16.394-16.37-2.073-17.756-3.003 4.383-10.248-8.297s-7.526-17.165-6.492-27.297-17.602-62.105-25.883-58.305-21.744-11.404-21.744-11.404zM153.16 82.296c-17.87 0-15.53-50.694-28.99-34.218-13.46 16.472-4.143 6.334-19.672 0s-33.134-20.28-33.134-3.8c0 16.472 12.427 20.272-5.177 19.01S17.521 75.959 32.016 93.71s28.996 26.604 3.107 32.944-46.595 17.736-27.96 27.888 16.57 3.792 15.535 20.264 1.036 26.625 17.6 31.68 21.186-11.416 26.363-.02c5.174 11.416 22.304 30.457 34.73 7.644 12.425-22.832 8.28-27.888 13.46-32.964s11.39 13.944 13.461-1.264c2.072-15.208 10.353-48.154 17.602-54.492s16.565-43.098 7.245-43.098zm46.847 148.086c-.526.856-15.577 1.57-23.626 7.318-11.46 8.154-23.576 12.13-33.65 27.032-28.133 41.61-49.16 113.88-33.29 123.603 20.708 12.68 281.655 23.383 285.795-13.373 3.123-27.746-17.87-74.818-44.76-111.88-8.735-12.027-20.34-29.03-27.797-28.662-16.825.816-43.16-18.041-38.766-16.39 9.078 3.405-62.95.958-78.484 12.354h-5.424z"/><path fill="#26231f" d="M264.378 378.384s77.206-96.08 234.06-53.21l-21.045 71.453 18.48 11.355-2.486 21.569-200.07-10.173s-1.526 9.337-12.187 11.192-32.684-.774-32.684-.774l-8.437-17.88-223.25 42.732.91-18.491 16.752-11.171s-1.38-99.384-7.614-117.446c0 0 89.845-83.89 237.572 70.842zm-121.53-266.458s-21.659-17.451-26.786 2.793c0 0-6.46 38.387 18.147 41.608.644.102.258-5.158.258-5.158s4.043-29.784 8.381-39.243"/><path fill="#f09b75" d="M140.17 118.584s-17.709-16.39-21.22-.224c0 0-6.183 18.735 15.46 27.746.61.265 0 0 0 0s-.814-17.858 5.76-27.522"/><path fill="#26231f" d="M325.04 75.985s16.61-27.912 26.534-10.576c0 0 15.37 37.223-7.245 49.597-.586.306-1.527-4.811-1.527-4.811s-11.273-26.83-17.763-34.21"/><path fill="#f09b75" d="M329.246 81.347s12.766-22.293 20.14-8.224c0 0 10.547 15.495-7.805 32.265-.514.47 0 0 0 0s-3.67-17.312-12.336-24.041z"/><path fill="#26231f" d="M134.891 158.503c5.911 46.277 46.896 77.915 95.887 77.408 6.848-.062 14.07 6.768 21.154 5.382 8.088-1.57 15.644-11.437 23.002-14.495 45.2-18.735 75-63.42 69.206-108.782-6.738-52.768-59.04-86.471-116.82-75.296s-99.164 63.003-92.426 115.784z"/><path fill="#f4b891" d="M142.48 155.41c5.56 43.543 43.624 73.39 89.052 73.045 6.346-.041 12.818 4.015 19.388 2.752 7.501-1.447 14.718-8.36 21.542-11.213 41.881-17.491 69.437-59.424 63.99-102.113-6.342-49.638-54.897-81.466-108.46-71.103s-91.85 58.995-85.516 108.634z"/><path fill="#26231f" d="M187.057 113.718c3.65 4.057 11.924 7.258 16.392 5.158z"/><path fill="#26231f" d="M203.435 118.88c.666 1.365-4.05 4.179-9.197 2.14-5.149-1.712-8.088-6.34-7.194-7.298.848-.98 4.016.918 8.324 2.365 4.31 1.61 7.51 1.55 8.068 2.793zm-10.44-12.378c2.317 5.422 8.414 9.744 13.306 10.295z"/><path fill="#26231f" d="M206.303 116.776c.055 1.305-4.324 1.998-8.692-1.121-4.324-3.343-5.647-8.787-4.617-9.174 1.202-.591 3.422 2.14 6.792 4.79 3.478 2.467 6.525 3.935 6.518 5.505z"/><path fill="#26231f" d="M197.408 103.615c.584 5.545 5.143 10.6 9.523 11.396z"/><path fill="#26231f" d="M206.927 115.027c.065 1.284-4.113 1.794-7.617-2.06-3.368-4.117-2.968-9.48-1.91-9.316 1.324-.041 2.515 2.773 4.78 5.586 2.433 2.65 4.803 4.179 4.747 5.79"/><path fill="#26231f" d="M199.263 120.894c1.33 4.159 5.42 6.075 9.138 4.28s5.666-6.625 4.343-10.784-5.414-6.075-9.136-4.28-5.667 6.625-4.344 10.784zm74.435-29.692c-2.464 5.233-9.542 11.41-14.319 11.105z"/><path fill="#26231f" d="M259.368 102.302c.26-1.59 3.265-2.753 6.98-5.73 3.656-3.097 6.182-6.027 7.338-5.377 1.017.475-.617 5.97-5.023 9.66-4.497 3.73-9.624 2.813-9.294 1.447zm6.866-15.718c-.855 6.03-5.573 12.45-10.103 14.816z"/><path fill="#26231f" d="M256.115 101.387c-.399-1.488 2.138-4.036 4.834-7.685 2.548-3.804 3.974-7.243 5.268-7.132 1.072-.033 1.175 5.643-2.107 10.475-3.383 4.628-7.724 5.606-7.995 4.342"/><path fill="#26231f" d="M261.327 85.51c.824 5.49-2.262 12.019-6.23 14.445z"/><path fill="#26231f" d="M255.091 99.959c-.452-1.508 1.42-3.873 3.077-7.298 1.454-3.54 1.88-6.665 3.148-7.145.972-.54 2.688 4.403.515 9.612-2.382 4.974-6.48 6.095-6.74 4.83"/><path fill="#26231f" d="M263.842 102.667c-.225 4.464-3.642 7.828-7.627 7.522s-7.04-4.16-6.818-8.623c.222-4.464 3.64-7.828 7.63-7.523s7.04 4.159 6.815 8.623z"/><path fill="#f4b891" d="M147.386 137.307c-2.977 13.883 10.781 30.396 30.738 36.878s38.54.469 41.52-13.414-12.528-28.97-32.474-35.452-36.81-1.916-39.784 11.987z"/><path fill="#f4b791" d="M147.642 137.327c-2.955 13.78 10.69 30.172 30.484 36.593 19.794 6.42 38.223.47 41.184-13.332 2.958-13.781-12.415-28.744-32.2-35.166s-36.516-1.896-39.468 11.905"/><path fill="#f4b791" d="M147.881 137.347c-2.934 13.68 10.597 29.948 30.227 36.308 19.626 6.38 37.915.47 40.852-13.23s-12.307-28.541-31.925-34.922-36.224-1.855-39.154 11.845"/><path fill="#f4b690" d="M148.17 137.347c-2.914 13.578 10.5 29.724 29.972 36.043s37.601.45 40.516-13.15c2.915-13.598-12.193-28.335-31.65-34.655s-35.928-1.835-38.838 11.763"/><path fill="#f4b590" d="M148.417 137.307c-2.892 13.475 10.41 29.498 29.716 35.757s37.29.428 40.185-13.047-12.082-28.113-31.377-34.392-35.637-1.815-38.524 11.68"/><path fill="#f4b490" d="M148.668 137.326c-2.866 13.373 10.32 29.274 29.463 35.47 19.136 6.219 36.977.43 39.848-12.964 2.872-13.374-11.967-27.89-31.104-34.127s-35.34-1.773-38.207 11.62z"/><path fill="#f3b490" d="M148.911 137.307c-2.85 13.27 10.225 29.03 29.207 35.206 18.97 6.157 36.662.408 39.514-12.884s-11.86-27.684-30.832-33.861-35.048-1.753-37.888 11.539z"/><path fill="#f3b38f" d="M149.184 137.327c-2.827 13.17 10.133 28.806 28.95 34.922s36.352.388 39.182-12.782c2.828-13.19-11.748-27.48-30.556-33.596-18.81-6.137-34.755-1.733-37.576 11.457z"/><path fill="#f3b28e" d="M149.448 137.347c-2.806 13.068 10.04 28.582 28.696 34.637s36.038.387 38.846-12.7-11.634-27.257-30.28-33.332c-18.648-6.075-34.46-1.692-37.262 11.396z"/><path fill="#f2b18f" d="M149.695 137.329c-2.783 12.965 9.946 28.357 28.44 34.37 18.487 5.994 35.727.368 38.514-12.62 2.783-12.964-11.527-27.051-30.01-33.065s-34.165-1.672-36.944 11.315"/><path fill="#f2b18d" d="M149.943 137.307c-2.76 12.863 9.853 28.132 28.185 34.085 18.323 5.953 35.415.346 38.18-12.517s-11.414-26.85-29.736-32.802c-18.324-5.973-33.872-1.651-36.63 11.233z"/><path fill="#f3b08e" d="M150.208 137.325c-2.74 12.762 9.762 27.909 27.93 33.8 18.16 5.912 35.103.347 37.845-12.435 2.741-12.762-11.303-26.625-29.462-32.537s-33.578-1.61-36.313 11.172"/><path fill="#f3af8e" d="M150.48 137.307c-2.718 12.659 9.67 27.684 27.676 33.535 17.998 5.83 34.791.326 37.512-12.354s-11.194-26.42-29.19-32.271-33.282-1.59-36 11.09z"/><path fill="#f3ae8e" d="M150.721 137.327c-2.693 12.558 9.58 27.46 27.421 33.25 17.834 5.79 34.48.326 37.177-12.252s-11.08-26.217-28.91-32.006c-17.838-5.81-32.992-1.57-35.688 11.008"/><path fill="#f3ae8d" d="M150.974 137.347c-2.677 12.457 9.483 27.216 27.16 32.965s34.17.306 36.846-12.15c2.676-12.476-10.97-26.013-28.64-31.762-17.672-5.75-32.698-1.53-35.366 10.948z"/><path fill="#f2ac8d" d="M151.221 137.347c-2.653 12.355 9.39 26.992 26.906 32.68s33.858.305 36.513-12.07c2.655-12.373-10.86-25.767-28.367-31.475s-32.404-1.51-35.052 10.866"/><path fill="#f2ac8c" d="M151.51 137.347c-2.632 12.253 9.296 26.768 26.65 32.415 17.348 5.626 33.544.285 36.18-11.987 2.634-12.272-10.75-25.564-28.093-31.212s-32.11-1.488-34.737 10.785"/><path fill="#f1ab8c" d="M151.757 137.307c-2.61 12.15 9.205 26.542 26.395 32.128s33.231.265 35.847-11.885-10.638-25.36-27.82-30.966c-17.185-5.586-31.816-1.448-34.422 10.723"/><path fill="#f1ab8c" d="M152.006 137.327c-2.588 12.068 9.113 26.318 26.14 31.843s32.92.265 35.512-11.804c2.59-12.048-10.527-25.136-27.547-30.682s-31.52-1.427-34.105 10.642z"/><path fill="#f2a98a" d="M152.252 137.307c-2.566 11.946 9.021 26.094 25.883 31.578s32.607.244 35.181-11.723-10.415-24.932-27.275-30.416-31.226-1.406-33.789 10.56"/><path fill="#f2a88b" d="M152.518 137.327c-2.544 11.865 8.93 25.87 25.63 31.293s32.298.224 34.846-11.62c2.544-11.865-10.305-24.73-27-30.172-16.697-5.423-30.934-1.366-33.476 10.499"/><path fill="#f2a88a" d="M152.788 137.347c-2.524 11.763 8.838 25.647 25.374 31.008 16.535 5.382 31.985.224 34.512-11.54 2.527-11.762-10.193-24.503-26.725-29.885s-30.64-1.346-33.16 10.417z"/><path fill="#f2a78a" d="M153.031 137.329c-2.502 11.66 8.74 25.422 25.115 30.743s31.672.203 34.178-11.458c2.504-11.64-10.08-24.3-26.45-29.62-16.372-5.342-30.346-1.326-32.843 10.335"/><path fill="#f1a689" d="M153.283 137.347c-2.48 11.56 8.65 25.178 24.864 30.458 16.215 5.28 31.36.203 33.84-11.356 2.481-11.56-9.968-24.096-26.177-29.376s-30.05-1.284-32.527 10.275"/><path fill="#f0a589" d="M153.545 137.325c-2.46 11.457 8.557 24.953 24.607 30.172s31.048.183 33.508-11.254c2.461-11.457-9.86-23.892-25.902-29.111s-29.76-1.264-32.213 10.193"/><path fill="#f0a48a" d="M153.82 137.307c-2.436 11.355 8.465 24.728 24.353 29.906 15.885 5.158 30.735.163 33.176-11.192s-9.75-23.67-25.63-28.826c-15.885-5.178-29.467-1.244-31.9 10.11z"/><path fill="#f0a488" d="M154.067 137.347c-2.415 11.254 8.371 24.505 24.095 29.622s30.424.163 32.842-11.09-9.636-23.444-25.358-28.582c-15.719-5.117-29.17-1.203-31.58 10.05"/><path fill="#f0a388" d="M154.315 137.327c-2.395 11.15 8.28 24.28 23.84 29.336s30.112.143 32.51-10.988-9.529-23.24-25.088-28.317-28.87-1.182-31.262 9.969"/><path fill="#f0a288" d="M154.57 137.328c-2.37 11.05 8.185 24.056 23.587 29.05 15.395 5.016 29.798.143 32.174-10.906 2.374-11.03-9.416-23.016-24.812-28.031s-28.578-1.162-30.95 9.887"/><path fill="#f0a187" d="M154.81 137.347c-2.35 10.948 8.092 23.832 23.33 28.786 15.233 4.953 29.487.122 31.842-10.825s-9.304-22.812-24.538-27.766c-15.23-4.974-28.285-1.121-30.635 9.806"/><path fill="#f0a187" d="M155.098 137.307c-2.335 10.845 7.996 23.606 23.07 28.5 15.073 4.912 29.177.1 31.51-10.724 2.33-10.845-9.197-22.608-24.266-27.521s-27.992-1.08-30.314 9.744"/><path fill="#f09f87" d="M155.343 137.325c-2.308 10.744 7.907 23.363 22.818 28.215s28.864.102 31.172-10.641c2.31-10.724-9.08-22.384-23.987-27.237s-27.697-1.08-30.003 9.663"/><path fill="#ef9e86" d="M155.592 137.307c-2.285 10.64 7.817 23.138 22.564 27.949 14.745 4.79 28.55.082 30.838-10.56s-8.968-22.18-23.715-26.992c-14.742-4.79-27.403-1.02-29.687 9.602z"/><path fill="#ef9c86" d="M155.85 137.327c-2.264 10.54 7.724 22.914 22.308 27.665s28.242.06 30.506-10.458c2.266-10.54-8.858-21.977-23.443-26.727s-27.107-1-29.37 9.52"/><path fill="#ef9c86" d="M156.128 137.347c-2.244 10.438 7.628 22.69 22.053 27.38s27.928.06 30.17-10.357-8.747-21.772-23.167-26.46-26.817-.98-29.056 9.438z"/><path fill="#ef9b85" d="M156.366 137.328c-2.22 10.336 7.536 22.466 21.797 27.114 14.26 4.628 27.616.04 29.838-10.295 2.222-10.316-8.636-21.528-22.895-26.197-14.253-4.627-26.523-.937-28.74 9.378"/><path fill="#ef9b84" d="M156.623 137.347c-2.198 10.235 7.446 22.242 21.543 26.829s27.304.04 29.504-10.193c2.2-10.234-8.522-21.325-22.62-25.932-14.09-4.587-26.228-.917-28.427 9.296"/><path fill="#ef9b84" d="M156.871 137.307c-2.177 10.132 7.354 22.016 21.287 26.542s26.991.02 29.17-10.09c2.18-10.132-8.415-21.12-22.347-25.667s-25.934-.897-28.11 9.215"/><path fill="#ef9983" d="M157.118 137.347c-2.157 10.01 7.26 21.773 21.03 26.258s26.68 0 28.838-10.03-8.304-20.896-22.074-25.38-25.64-.877-27.793 9.153z"/><path fill="#ef9883" d="M157.407 137.347c-2.135 9.908 7.165 21.549 20.774 25.973s26.367 0 28.502-9.928c2.138-9.908-8.192-20.692-21.797-25.137-13.602-4.424-25.348-.835-27.48 9.093"/><path fill="#ee9783" d="M157.654 137.347c-2.113 9.806 7.073 21.304 20.522 25.687 13.45 4.383 26.054-.02 28.166-9.826s-8.08-20.488-21.524-24.87-25.055-.816-27.164 9.01z"/><path fill="#ee9783" d="M157.901 137.347c-2.088 9.704 6.982 21.08 20.267 25.402s25.743-.02 27.834-9.745c2.093-9.703-7.97-20.263-21.253-24.585s-24.756-.795-26.847 8.929z"/><path fill="#ee9682" d="M158.15 137.347c-2.07 9.602 6.886 20.856 20.01 25.137 13.122 4.28 25.43-.041 27.498-9.663 2.07-9.622-7.859-20.06-20.978-24.341s-24.463-.754-26.53 8.868z"/><path fill="#ed9482" d="M158.438 137.347c-2.05 9.5 6.795 20.632 19.753 24.85 12.958 4.22 25.12-.04 27.168-9.56s-7.748-19.856-20.705-24.076-24.17-.734-26.216 8.787z"/><path fill="#ed9482" d="M158.685 137.347c-2.025 9.399 6.705 20.407 19.5 24.566s24.808-.06 26.834-9.48-7.637-19.631-20.43-23.81c-12.793-4.18-23.878-.694-25.904 8.724"/><path fill="#ee9482" d="M158.933 137.347c-2.004 9.297 6.611 20.183 19.245 24.3s24.495-.08 26.5-9.397c2.006-9.296-7.527-19.428-20.159-23.546s-23.584-.673-25.586 8.644z"/><path fill="#ee9282" d="M159.181 137.347c-1.984 9.195 6.514 19.959 18.986 24.016s24.184-.082 26.167-9.296-7.414-19.204-19.884-23.281-23.29-.653-25.27 8.562z"/><path fill="#ed9182" d="M159.446 137.348c-1.964 9.092 6.422 19.734 18.732 23.73 12.305 4.016 23.87-.102 25.832-9.194 1.964-9.113-7.3-19-19.61-23.017s-22.996-.632-24.954 8.48"/><path fill="#ed9181" d="M159.716 137.347c-1.94 8.99 6.332 19.49 18.476 23.465s23.557-.122 25.5-9.133c1.94-8.99-7.194-18.776-19.338-22.75s-22.7-.592-24.638 8.419"/><path fill="#ed9081" d="M159.964 137.347c-1.917 8.89 6.24 19.265 18.222 23.18s23.244-.123 25.165-9.031-7.082-18.572-19.062-22.486c-11.975-3.915-22.409-.571-24.325 8.338"/><path fill="#ed8e81" d="M160.216 137.347c-1.898 8.786 6.148 19.04 17.965 22.893s22.936-.143 24.832-8.93c1.896-8.806-6.97-18.367-18.79-22.22-11.812-3.874-22.112-.55-24.007 8.256z"/><path fill="#ed8d80" d="M160.458 137.347c-1.876 8.685 6.053 18.817 17.71 22.63s22.622-.164 24.498-8.87-6.86-18.143-18.516-21.955c-11.65-3.792-21.819-.51-23.692 8.195"/><path fill="#ed8d80" d="M160.747 137.347c-1.85 8.583 5.962 18.593 17.457 22.344 11.495 3.75 22.308-.164 24.163-8.766 1.856-8.583-6.749-17.94-18.24-21.691-11.493-3.751-21.527-.49-23.38 8.114"/><path fill="#ed8c7f" d="M160.984 137.348c-1.83 8.48 5.87 18.368 17.2 22.058 11.33 3.71 21.997-.183 23.832-8.664s-6.638-17.736-17.968-21.426c-11.325-3.71-21.233-.47-23.064 8.032"/><path fill="#ed8a7f" d="M161.242 137.347c-1.813 8.38 5.775 18.145 16.943 21.793s21.687-.203 23.497-8.603c1.811-8.38-6.526-17.512-17.694-21.16s-20.939-.43-22.746 7.97"/><path fill="#ed8a7e" d="M161.49 137.347c-1.789 8.298 5.681 17.92 16.686 21.508s21.375-.204 23.164-8.501-6.415-17.308-17.422-20.896-20.643-.408-22.429 7.89"/><path fill="#eb897d" d="M161.757 137.346c-1.769 8.175 5.591 17.695 16.433 21.22 10.842 3.527 21.061-.223 22.83-8.397 1.768-8.196-6.303-17.104-17.149-20.631s-20.35-.388-22.114 7.808"/><path fill="#eb877c" d="M162.026 137.347c-1.746 8.094 5.497 17.45 16.18 20.937 10.683 3.486 20.747-.224 22.493-8.297s-6.192-16.88-16.873-20.386c-10.68-3.506-20.057-.346-21.8 7.747"/><path fill="#eb877c" d="M162.271 137.347c-1.723 7.992 5.406 17.227 15.921 20.672 10.518 3.425 20.436-.244 22.161-8.236 1.726-7.97-6.08-16.655-16.6-20.1s-19.763-.326-21.483 7.665z"/><path fill="#eb867b" d="M162.521 137.347c-1.702 7.89 5.312 17.003 15.67 20.387 10.356 3.384 20.122-.244 21.825-8.134s-5.969-16.452-16.326-19.836-19.47-.306-21.17 7.584z"/><path fill="#ea847b" d="M162.768 137.347c-1.682 7.788 5.22 16.778 15.413 20.1 10.193 3.324 19.815-.264 21.493-8.031 1.681-7.787-5.859-16.248-16.052-19.591s-19.175-.266-20.855 7.522z"/><path fill="#ea837b" d="M163.038 137.349c-1.654 7.686 5.13 16.554 15.16 19.836 10.03 3.262 19.5-.285 21.16-7.97s-5.747-16.024-15.78-19.306-18.88-.245-20.54 7.44"/><path fill="#ea837b" d="M163.297 137.346c-1.638 7.583 5.034 16.329 14.901 19.55s19.187-.285 20.825-7.87c1.64-7.562-5.638-15.82-15.503-19.04-9.86-3.241-18.589-.224-20.224 7.36z"/><path fill="#ea8179" d="M163.551 137.347c-1.617 7.482 4.94 16.106 14.645 19.265s18.876-.306 20.494-7.767-5.529-15.616-15.234-18.796-18.292-.184-19.905 7.298"/><path fill="#ea8078" d="M163.807 137.347c-1.593 7.38 4.848 15.88 14.39 19s18.565-.327 20.16-7.707c1.595-7.36-5.417-15.391-14.96-18.51s-17.998-.164-19.59 7.216z"/><path fill="#ea8078" d="M164.065 137.347c-1.57 7.278 4.756 15.637 14.135 18.715 9.378 3.058 18.254-.326 19.825-7.604s-5.302-15.187-14.684-18.245c-9.37-3.08-17.706-.143-19.276 7.135z"/><path fill="#ea7e77" d="M164.335 137.347c-1.553 7.176 4.663 15.413 13.88 18.43 9.215 3.017 17.94-.347 19.49-7.502s-5.194-14.984-14.41-18c-9.218-3.016-17.414-.103-18.96 7.073z"/><path fill="#ea7d78" d="M164.582 137.347c-1.527 7.075 4.572 15.188 13.624 18.165s17.63-.367 19.158-7.441c1.53-7.054-5.08-14.76-14.137-17.716-9.045-2.956-17.118-.061-18.645 6.992"/><path fill="#e97c77" d="M164.83 137.347c-1.507 6.973 4.48 14.964 13.37 17.88 8.891 2.916 17.316-.368 18.823-7.34s-4.969-14.535-13.863-17.45c-8.883-2.916-16.825-.042-18.33 6.91"/><path fill="#e97c77" d="M165.077 137.347c-1.487 6.87 4.386 14.74 13.115 17.594 8.73 2.854 17.003-.367 18.49-7.237s-4.86-14.332-13.59-17.206c-8.72-2.854-16.53-.02-18.014 6.85z"/><path fill="#e97a76" d="M165.348 137.347c-1.463 6.768 4.292 14.515 12.856 17.308s16.694-.387 18.158-7.135c1.465-6.77-4.748-14.128-13.316-16.941s-16.236.02-17.697 6.768z"/><path fill="#e97a76" d="M165.604 137.347c-1.444 6.666 4.198 14.29 12.6 17.042s16.382-.408 17.825-7.074c1.443-6.646-4.637-13.903-13.043-16.655s-15.943.04-17.382 6.686z"/><path fill="#e87975" d="M165.861 137.347c-1.42 6.565 4.11 14.067 12.347 16.758 8.24 2.71 16.07-.408 17.491-6.972s-4.524-13.7-12.77-16.411c-8.232-2.69-15.648.082-17.068 6.625"/><path fill="#e87975" d="M166.118 137.349c-1.398 6.462 4.015 13.822 12.091 16.472s15.757-.428 17.157-6.87c1.4-6.463-4.415-13.496-12.496-16.146s-15.354.102-16.752 6.544"/><path fill="#e87875" d="M166.374 137.345c-1.378 6.36 3.921 13.598 11.837 16.207s15.443-.45 16.82-6.81c1.38-6.34-4.303-13.27-12.222-15.86-7.919-2.588-15.058.123-16.435 6.463"/><path fill="#e87775" d="M166.631 137.35c-1.355 6.258 3.83 13.373 11.583 15.92 7.753 2.549 15.133-.447 16.486-6.706 1.358-6.238-4.19-13.067-11.945-15.616-7.744-2.528-14.767.163-16.123 6.402"/><path fill="#e87673" d="M166.885 137.346c-1.334 6.157 3.736 13.15 11.327 15.636s14.82-.47 16.156-6.605-4.086-12.864-11.677-15.35-14.472.183-15.806 6.319"/><path fill="#e87673" d="M167.145 137.347c-1.314 6.054 3.642 12.925 11.07 15.37 7.426 2.445 14.507-.488 15.82-6.523 1.313-6.054-3.97-12.66-11.402-15.085-7.43-2.425-14.178.203-15.488 6.238"/><path fill="#e87573" d="M167.403 137.348c-1.292 5.953 3.55 12.7 10.816 15.086s14.194-.49 15.484-6.442-3.858-12.436-11.127-14.821-13.884.244-15.172 6.177z"/><path fill="#e87473" d="M167.657 137.347c-1.27 5.85 3.457 12.477 10.56 14.8 7.1 2.345 13.881-.51 15.151-6.34 1.27-5.85-3.749-12.21-10.854-14.555-7.094-2.324-13.589.265-14.857 6.095"/><path fill="#e87472" d="M167.915 137.349c-1.249 5.749 3.366 12.252 10.304 14.535s13.573-.53 14.82-6.258-3.638-12.008-10.58-14.29-13.296.284-14.544 6.013"/><path fill="#e87472" d="M168.168 137.345c-1.226 5.647 3.273 12.008 10.048 14.25s13.26-.53 14.486-6.177c1.23-5.627-3.525-11.783-10.306-14.026s-13 .327-14.228 5.953"/><path fill="#e87272" d="M168.43 137.347c-1.208 5.544 3.178 11.783 9.788 13.964 6.61 2.18 12.95-.53 14.155-6.075s-3.416-11.58-10.033-13.761-12.708.346-13.91 5.87z"/><path fill="#e87171" d="M168.685 137.367c-1.183 5.422 3.088 11.538 9.536 13.658 6.45 2.14 12.636-.55 13.818-5.973 1.185-5.443-3.303-11.376-9.756-13.496s-12.416.367-13.599 5.81z"/><path fill="#e86f70" d="M168.938 137.367c-1.16 5.32 2.996 11.315 9.282 13.394 6.29 2.06 12.322-.57 13.485-5.912 1.162-5.32-3.192-11.15-9.483-13.23-6.28-2.06-12.12.407-13.284 5.748"/><path fill="#e86f70" d="M169.191 137.369c-1.139 5.218 2.905 11.09 9.027 13.108 6.126 2.018 12.014-.57 13.153-5.81s-3.08-10.947-9.213-12.966c-6.114-2.018-11.825.428-12.967 5.668"/><path fill="#e86e70" d="M169.453 137.369c-1.12 5.117 2.81 10.866 8.77 12.823 5.961 1.978 11.7-.59 12.816-5.708 1.121-5.137-2.966-10.743-8.937-12.7-5.953-1.978-11.533.448-12.649 5.585"/><path fill="#e76d6f" d="M169.71 137.369c-1.098 5.015 2.715 10.642 8.511 12.558s11.39-.612 12.487-5.647-2.86-10.52-8.665-12.436c-5.792-1.896-11.24.49-12.333 5.525"/><path fill="#e76c6f" d="M169.963 137.366c-1.075 4.913 2.625 10.417 8.26 12.272s11.075-.611 12.15-5.545c1.076-4.913-2.749-10.295-8.39-12.17-5.64-1.875-10.944.51-12.02 5.443"/><path fill="#e76c6f" d="M170.221 137.367c-1.053 4.81 2.532 10.193 8.003 11.987s10.765-.612 11.822-5.443-2.64-10.092-8.119-11.906-10.652.53-11.705 5.362"/><path fill="#e76a6f" d="M170.481 137.367c-1.038 4.71 2.435 9.95 7.743 11.723s10.456-.652 11.486-5.362c1.032-4.73-2.528-9.887-7.844-11.66s-10.357.57-11.385 5.3"/><path fill="#e7696d" d="M170.733 137.367c-1.01 4.608 2.346 9.725 7.495 11.437 5.15 1.712 10.138-.652 11.147-5.28 1.013-4.607-2.415-9.663-7.568-11.376-5.14-1.692-10.064.592-11.074 5.22z"/><path fill="#e6676d" d="M170.991 137.369c-.988 4.505 2.255 9.5 7.238 11.15s9.828-.652 10.816-5.177-2.304-9.46-7.296-11.11-9.77.61-10.758 5.137"/><path fill="#e7666d" d="M171.245 137.369c-.967 4.424 2.162 9.276 6.985 10.887 4.823 1.61 9.514-.693 10.48-5.097s-2.19-9.255-7.02-10.866-9.475.653-10.445 5.076"/><path fill="#e7666d" d="M171.507 137.366c-.949 4.322 2.065 9.052 6.724 10.6s9.204-.692 10.148-5.014c.946-4.302-2.082-9.031-6.748-10.58-4.666-1.55-9.178.672-10.124 4.994"/><path fill="#e6656c" d="M171.765 137.366c-.927 4.22 1.974 8.827 6.47 10.315s8.892-.693 9.814-4.913-1.97-8.827-6.475-10.315c-4.504-1.488-8.888.693-9.81 4.913"/><path fill="#f4b891" d="M326.69 95.367c6.296 12.11-2.689 33.026-20.068 46.727s-36.558 15.005-42.862 2.915c-6.295-12.11 4.7-32.312 22.071-46.013s34.555-15.726 40.856-3.63z"/><path fill="#f4b791" d="M326.441 95.45c6.252 12.007-2.657 32.76-19.89 46.36-17.232 13.577-36.267 14.882-42.52 2.874-6.255-12.008 4.643-32.068 21.874-45.667 17.24-13.581 34.281-15.58 40.537-3.568z"/><path fill="#f4b791" d="M326.194 95.574c6.204 11.926-2.624 32.516-19.719 45.992-17.087 13.476-35.972 14.74-42.182 2.834-6.2-11.926 4.595-31.823 21.684-45.3 17.097-13.482 34.01-15.455 40.22-3.527z"/><path fill="#f4b690" d="M325.947 95.656c6.16 11.844-2.592 32.27-19.543 45.646-16.95 13.375-35.677 14.618-41.844 2.793-6.157-11.844 4.542-31.578 21.488-44.953s33.736-15.31 39.898-3.486z"/><path fill="#f4b590" d="M325.7 95.738c6.116 11.763-2.56 32.027-19.372 45.28-16.81 13.253-35.383 14.495-41.502 2.752s4.49-31.334 21.293-44.586c16.815-13.262 33.465-15.186 39.58-3.446"/><path fill="#f4b490" d="M325.493 95.82c6.067 11.66-2.532 31.762-19.202 44.913-16.66 13.129-35.09 14.352-41.158 2.71-6.067-11.66 4.434-31.088 21.095-44.24 16.661-13.15 33.193-15.038 39.265-3.383z"/><path fill="#f3b490" d="M325.246 95.945c6.02 11.579-2.5 31.496-19.026 44.545s-34.795 14.23-40.823 2.65c-6.018-11.56 4.383-30.823 20.904-43.87 16.521-13.045 32.918-14.893 38.945-3.322z"/><path fill="#f3b38f" d="M324.998 96.027c5.975 11.478-2.466 31.252-18.85 44.178-16.386 12.926-34.503 14.087-40.485 2.63s4.331-30.6 20.712-43.522c16.381-12.923 32.646-14.766 38.623-3.282z"/><path fill="#f3b28e" d="M324.751 96.11c5.93 11.395-2.435 31.007-18.676 43.83-16.238 12.804-34.208 13.966-40.144 2.59s4.277-30.355 20.516-43.176c16.24-12.821 32.37-14.623 38.303-3.241z"/><path fill="#f2b18f" d="M324.503 96.233c5.886 11.315-2.402 30.763-18.503 43.465s-33.912 13.842-39.802 2.528 4.224-30.09 20.32-42.788c16.104-12.707 32.1-14.497 37.985-3.2z"/><path fill="#f2b18d" d="M324.256 96.316c5.836 11.212-2.37 30.498-18.332 43.098-15.953 12.578-33.618 13.699-39.46 2.487-5.836-11.192 4.17-29.866 20.123-42.442s31.83-14.352 37.67-3.14z"/><path fill="#f3b08e" d="M324.008 96.44c5.793 11.13-2.336 30.253-18.155 42.73-15.812 12.477-33.327 13.578-39.125 2.447-5.787-11.11 4.12-29.601 19.934-42.096 15.82-12.466 31.554-14.205 37.346-3.08z"/><path fill="#f3af8e" d="M323.761 96.522c5.745 11.05-2.308 30.008-17.986 42.384s-33.032 13.455-38.78 2.406c-5.747-11.03 4.065-29.376 19.736-41.73 15.671-12.352 31.28-14.08 37.03-3.057z"/><path fill="#f3ae8e" d="M323.514 96.604c5.7 10.948-2.275 29.764-17.812 41.997-15.526 12.273-32.735 13.333-38.44 2.385s4.01-29.131 19.542-41.382 31.008-13.934 36.71-2.997z"/><path fill="#f3ae8d" d="M323.266 96.728c5.653 10.866-2.246 29.499-17.639 41.63-15.385 12.15-32.443 13.21-38.1 2.344-5.659-10.866 3.957-28.887 19.344-41.017 15.397-12.146 30.738-13.811 36.395-2.956z"/><path fill="#f2ac8d" d="M323.035 96.82c5.607 10.764-2.213 29.254-17.464 41.262-15.245 12.048-32.148 13.067-37.76 2.304-5.614-10.763 3.906-28.643 19.15-40.67 15.242-12.027 30.467-13.666 36.074-2.896"/><path fill="#f2ac8c" d="M322.79 96.922c5.561 10.682-2.18 28.99-17.29 40.895s-31.857 12.945-37.424 2.263 3.854-28.398 18.96-40.324 30.188-13.52 35.754-2.834"/><path fill="#f1ab8c" d="M322.524 97.017c5.517 10.6-2.146 28.744-17.115 40.548-14.96 11.824-31.565 12.823-37.082 2.222s3.802-28.153 18.763-39.956 29.918-13.394 35.434-2.814"/><path fill="#f1ab8c" d="M322.301 97.107c5.472 10.499-2.116 28.5-16.94 40.18-14.822 11.703-31.269 12.68-36.745 2.183s3.75-27.91 18.57-39.61c14.827-11.69 29.65-13.25 35.115-2.753"/><path fill="#f2a98a" d="M322.056 97.209c5.426 10.417-2.084 28.234-16.767 39.814s-30.977 12.558-36.403 2.14c-5.424-10.396 3.696-27.663 18.374-39.243s29.371-13.125 34.796-2.711"/><path fill="#f2a88b" d="M321.813 97.31c5.378 10.316-2.055 27.99-16.598 39.468-14.535 11.457-30.68 12.415-36.063 2.08-5.376-10.316 3.643-27.42 18.183-38.898s29.098-12.98 34.478-2.65"/><path fill="#f2a88a" d="M321.57 97.392c5.33 10.254-2.022 27.746-16.425 39.1-14.395 11.376-30.387 12.294-35.723 2.06s3.59-27.175 17.99-38.55c14.4-11.352 28.823-12.832 34.158-2.61"/><path fill="#f2a78a" d="M321.326 97.492c5.287 10.152-1.99 27.5-16.248 38.733-14.252 11.254-30.095 12.17-35.385 2.018s3.54-26.93 17.795-38.183 28.553-12.704 33.838-2.568"/><path fill="#f1a689" d="M321.081 97.593c5.24 10.07-1.96 27.236-16.078 38.367s-29.797 12.028-35.04 1.977 3.483-26.685 17.596-37.836 28.28-12.56 33.521-2.508z"/><path fill="#f0a589" d="M320.838 97.697c5.194 9.968-1.925 26.99-15.903 38-13.978 11.009-29.504 11.905-34.702 1.936-5.198-9.97 3.43-26.44 17.404-37.47 13.973-11.032 28.005-12.437 33.2-2.467z"/><path fill="#f0a48a" d="M320.591 97.796c5.15 9.867-1.894 26.726-15.73 37.632-13.825 10.928-29.21 11.784-34.36 1.897-5.15-9.867 3.376-26.197 17.208-37.124s27.733-12.29 32.882-2.405"/><path fill="#f0a488" d="M320.338 97.883c5.103 9.805-1.862 26.482-15.555 37.286s-28.916 11.64-34.023 1.856 3.326-25.952 17.014-36.777c13.693-10.793 27.461-12.146 32.564-2.365"/><path fill="#f0a388" d="M320.101 97.98c5.058 9.705-1.829 26.239-15.38 36.92-13.545 10.703-28.624 11.52-33.685 1.815-5.06-9.705 3.272-25.707 16.82-36.41 13.55-10.694 27.19-12.02 32.245-2.324"/><path fill="#f0a288" d="M319.862 98.083c5.01 9.622-1.8 25.972-15.21 36.552s-28.328 11.397-33.34 1.774c-5.014-9.623 3.217-25.483 16.622-36.063 13.41-10.574 26.918-11.875 31.928-2.263"/><path fill="#f0a187" d="M319.615 98.184c4.963 9.52-1.77 25.728-15.036 36.186s-28.034 11.253-33.006 1.733c-4.96-9.521 3.172-25.238 16.434-35.697s26.642-11.75 31.608-2.222"/><path fill="#f0a187" d="M319.371 98.287c4.92 9.438-1.736 25.462-14.862 35.818-13.12 10.376-27.74 11.13-32.663 1.692-4.914-9.42 3.113-24.994 16.237-35.35s26.371-11.606 31.288-2.16"/><path fill="#f09f87" d="M319.127 98.37c4.874 9.357-1.705 25.238-14.688 35.472-12.976 10.254-27.448 11.008-32.324 1.65-4.87-9.336 3.063-24.748 16.041-35.002 12.983-10.234 26.1-11.46 30.971-2.12"/><path fill="#ef9e86" d="M318.88 98.47c4.83 9.257-1.669 24.975-14.512 35.106s-27.155 10.866-31.983 1.61 3.008-24.503 15.844-34.635 25.826-11.335 30.65-2.08z"/><path fill="#ef9c86" d="M318.641 98.57c4.781 9.175-1.64 24.729-14.34 34.739s-26.86 10.743-31.647 1.57 2.96-24.26 15.655-34.29S313.86 89.4 318.641 98.57"/><path fill="#ef9c86" d="M318.4 98.667c4.733 9.07-1.61 24.463-14.164 34.37-12.556 9.928-26.568 10.6-31.307 1.53s2.903-24.015 15.46-33.923c12.555-9.908 25.277-11.064 30.011-1.978"/><path fill="#ef9b85" d="M318.151 98.757c4.69 9.01-1.576 24.239-13.99 34.024-12.415 9.806-26.275 10.479-30.967 1.488s2.85-23.77 15.264-33.576 25.007-10.917 29.693-1.936"/><path fill="#ef9b84" d="M317.906 98.857c4.644 8.91-1.546 23.975-13.82 33.658-12.268 9.704-25.98 10.356-30.624 1.448s2.8-23.526 15.07-33.21 24.733-10.792 29.374-1.895z"/><path fill="#ef9b84" d="M317.662 98.962c4.596 8.807-1.514 23.709-13.645 33.29s-25.688 10.214-30.288 1.407c-4.595-8.806 2.745-23.28 14.875-32.862s24.461-10.646 29.058-1.835"/><path fill="#ef9983" d="M317.418 99.064c4.552 8.725-1.483 23.464-13.475 32.923-11.982 9.48-25.39 10.09-29.945 1.366s2.694-23.036 14.681-32.516c11.992-9.46 24.19-10.501 28.738-1.774z"/><path fill="#ef9883" d="M317.177 99.145c4.506 8.644-1.45 23.22-13.3 32.577-11.852 9.357-25.096 9.969-29.604 1.325-4.502-8.623 2.64-22.792 14.485-32.15 11.846-9.358 23.913-10.376 28.42-1.752z"/><path fill="#ee9783" d="M316.93 99.247c4.46 8.56-1.418 22.975-13.125 32.21s-24.804 9.826-29.267 1.284 2.59-22.548 14.292-31.803 23.643-10.232 28.1-1.692"/><path fill="#ee9783" d="M316.685 99.346c4.414 8.46-1.385 22.71-12.953 31.843-11.56 9.133-24.509 9.703-28.924 1.243s2.532-22.302 14.095-31.435c11.564-9.141 23.372-10.106 27.781-1.651z"/><path fill="#ee9682" d="M316.442 99.447c4.37 8.359-1.352 22.466-12.778 31.476-11.418 9.03-24.214 9.56-28.587 1.203s2.48-22.058 13.904-31.09c11.424-9.03 23.097-9.96 27.461-1.59"/><path fill="#ed9482" d="M316.214 99.532c4.323 8.277-1.325 22.2-12.604 31.11s-23.92 9.439-28.246 1.162 2.428-21.813 13.706-30.743c11.28-8.908 22.826-9.813 27.144-1.53"/><path fill="#ed9482" d="M315.953 99.633c4.277 8.195-1.292 21.976-12.434 30.762-11.134 8.807-23.624 9.317-27.905 1.122-4.28-8.195 2.38-21.57 13.513-30.376 11.134-8.806 22.552-9.69 26.826-1.508"/><path fill="#ee9482" d="M315.711 99.734c4.23 8.114-1.262 21.71-12.26 30.396s-23.333 9.174-27.566 1.08c-4.226-8.093 2.324-21.344 13.32-30.03 10.994-8.684 22.28-9.544 26.505-1.446z"/><path fill="#ee9282" d="M315.47 99.835c4.18 8.012-1.233 21.467-12.088 30.03s-23.038 9.05-27.224 1.04 2.27-21.1 13.123-29.683 22.005-9.4 26.19-1.387z"/><path fill="#ed9182" d="M315.225 99.945c4.138 7.93-1.194 21.2-11.91 29.662-10.713 8.48-22.748 8.93-26.889.999s2.22-20.855 12.93-29.316c10.711-8.461 21.732-9.273 25.87-1.345"/><path fill="#ed9181" d="M314.975 100.04c4.093 7.829-1.165 20.937-11.737 29.296s-22.45 8.786-26.547.958 2.164-20.61 12.734-28.97c10.572-8.337 21.462-9.132 25.55-1.283"/><path fill="#ed9081" d="M314.734 100.122c4.048 7.747-1.132 20.713-11.563 28.949-10.43 8.236-22.158 8.664-26.207.917s2.111-20.366 12.54-28.602c10.43-8.236 21.19-8.99 25.23-1.264"/><path fill="#ed8e81" d="M314.487 100.226c4.004 7.665-1.1 20.447-11.387 28.582s-21.867 8.52-25.867.876c-4-7.645 2.06-20.12 12.345-28.255s20.915-8.848 24.91-1.203z"/><path fill="#ed8d80" d="M314.243 100.325c3.953 7.563-1.07 20.202-11.216 28.214-10.146 8.033-21.572 8.4-25.528.836s2.007-19.877 12.152-27.91c10.146-8.01 20.643-8.703 24.592-1.14"/><path fill="#ed8d80" d="M314.003 100.428c3.907 7.462-1.036 19.938-11.045 27.848s-21.277 8.277-25.186.795 1.953-19.632 11.957-27.541c10.004-7.91 20.37-8.583 24.274-1.102"/><path fill="#ed8c7f" d="M313.755 100.51c3.86 7.4-1.008 19.715-10.872 27.502s-20.98 8.134-24.845.754 1.9-19.387 11.762-27.195 20.097-8.44 23.955-1.06"/><path fill="#ed8a7f" d="M313.493 100.605c3.818 7.298-.974 19.448-10.698 27.134s-20.687 8.01-24.5.713c-3.815-7.298 1.842-19.143 11.562-26.828s19.824-8.318 23.635-1.02z"/><path fill="#ed8a7e" d="M313.268 100.714c3.77 7.216-.943 19.204-10.525 26.767-9.577 7.584-20.396 7.87-24.165.673s1.791-18.9 11.371-26.482c9.58-7.564 19.551-8.175 23.32-.958"/><path fill="#eb897d" d="M313.025 100.817c3.725 7.115-.91 18.939-10.35 26.4s-20.1 7.747-23.828.633 1.741-18.653 11.18-26.135c9.437-7.441 19.278-8.033 22.998-.897z"/><path fill="#eb877c" d="M312.781 100.915c3.678 7.033-.88 18.694-10.177 26.033s-19.808 7.624-23.486.59c-3.678-7.032 1.69-18.407 10.984-25.767s19.005-7.89 22.68-.856z"/><path fill="#eb877c" d="M312.532 100.998c3.635 6.952-.846 18.45-10 25.687s-19.513 7.482-23.148.55c-3.629-6.952 1.638-18.164 10.79-25.421 9.153-7.238 18.733-7.747 22.36-.816"/><path fill="#eb867b" d="M312.291 101.1c3.587 6.85-.815 18.186-9.827 25.32-9.012 7.136-19.22 7.36-22.807.51s1.583-17.92 10.596-25.054c9.008-7.135 18.461-7.624 22.04-.775z"/><path fill="#ea847b" d="M312.05 101.2c3.54 6.769-.788 17.94-9.659 24.953-8.868 7.033-18.923 7.237-22.468.469s1.532-17.675 10.4-24.708c8.87-7.013 18.19-7.482 21.727-.714"/><path fill="#ea837b" d="M311.805 101.304c3.496 6.666-.752 17.675-9.483 24.586s-18.63 7.094-22.127.428 1.478-17.451 10.204-24.341c8.73-6.912 17.918-7.36 21.406-.673"/><path fill="#ea837b" d="M311.561 101.387c3.448 6.605-.72 17.45-9.31 24.24s-18.338 6.972-21.787.387c-3.44-6.585 1.423-17.206 10.01-23.995s17.642-7.217 21.087-.632"/><path fill="#ea8179" d="M311.312 101.486c3.404 6.503-.687 17.185-9.134 23.872s-18.043 6.85-21.447.346c-3.4-6.503 1.37-16.96 9.816-23.647s17.368-7.074 20.766-.571z"/><path fill="#ea8078" d="M311.071 101.588c3.357 6.422-.656 16.94-8.96 23.505-8.305 6.585-17.75 6.707-21.11.306-3.352-6.421 1.321-16.716 9.624-23.28s17.096-6.932 20.446-.53z"/><path fill="#ea8078" d="M310.826 101.692c3.31 6.32-.626 16.675-8.786 23.138s-17.457 6.585-20.77.265c-3.315-6.32 1.267-16.472 9.426-22.935s16.825-6.788 20.13-.468"/><path fill="#ea7e77" d="M310.565 101.8c3.267 6.218-.594 16.432-8.612 22.772-8.022 6.36-17.165 6.442-20.43.224s1.212-16.228 9.23-22.567c8.018-6.34 16.554-6.667 19.812-.43"/><path fill="#ea7d78" d="M310.336 101.873c3.221 6.157-.56 16.187-8.44 22.425s-16.87 6.32-20.089.184 1.161-15.983 9.04-22.221c7.88-6.238 16.28-6.524 19.49-.388"/><path fill="#e97c77" d="M310.098 101.977c3.174 6.055-.534 15.922-8.27 22.058s-16.573 6.197-19.746.143 1.106-15.738 8.843-21.874c7.736-6.116 16.006-6.381 19.173-.327"/><path fill="#e97c77" d="M309.852 102.08c3.127 5.974-.498 15.678-8.096 21.69-7.598 6.014-16.28 6.056-19.408.104-3.123-5.974 1.054-15.494 8.65-21.508s15.735-6.258 18.855-.285z"/><path fill="#e97a76" d="M309.61 102.179c3.08 5.872-.468 15.412-7.924 21.324s-15.984 5.933-19.066.06c-3.077-5.89 1.001-15.248 8.454-21.16 7.453-5.91 15.458-6.116 18.535-.224z"/><path fill="#e97a76" d="M309.362 102.263c3.036 5.79-.435 15.187-7.747 20.977s-15.693 5.81-18.729.02c-3.03-5.79.95-15.004 8.26-20.814 7.311-5.77 15.19-5.973 18.216-.183"/><path fill="#e87975" d="M309.121 102.377c2.99 5.709-.402 14.924-7.574 20.61-7.172 5.688-15.398 5.668-18.387-.02-2.989-5.686.897-14.76 8.064-20.447 7.17-5.667 14.916-5.83 17.897-.143"/><path fill="#e87975" d="M308.874 102.469c2.947 5.606-.37 14.677-7.398 20.243s-15.105 5.545-18.05-.061.845-14.515 7.872-20.1 14.64-5.69 17.576-.082"/><path fill="#e87875" d="M308.63 102.567c2.896 5.525-.343 14.414-7.228 19.877s-14.812 5.402-17.708-.102c-2.894-5.524.79-14.27 7.675-19.734s14.37-5.565 17.26-.04z"/><path fill="#e87775" d="M308.386 102.67c2.852 5.424-.307 14.17-7.052 19.51-6.745 5.342-14.517 5.28-17.37-.142-2.846-5.443.74-14.026 7.482-19.387s14.098-5.423 16.94.02"/><path fill="#e87673" d="M308.145 102.754c2.804 5.36-.277 13.923-6.88 19.163-6.605 5.24-14.226 5.157-17.03-.184-2.806-5.341.684-13.781 7.29-19.02 6.604-5.24 13.823-5.3 16.62.04"/><path fill="#e87673" d="M307.895 102.853c2.761 5.26-.242 13.679-6.706 18.796s-13.93 5.015-16.687-.225c-2.757-5.26.633-13.536 7.09-18.673 6.461-5.117 13.552-5.158 16.303.1z"/><path fill="#e87573" d="M307.655 102.957c2.713 5.157-.215 13.414-6.534 18.429s-13.635 4.893-16.352-.266c-2.706-5.178.582-13.312 6.9-18.327 6.316-4.994 13.278-5.014 15.986.163"/><path fill="#e87473" d="M307.408 103.06c2.67 5.076-.182 13.149-6.36 18.062s-13.34 4.77-16.01-.326c-2.66-5.076.53-13.047 6.704-17.94 6.175-4.893 13.007-4.872 15.666.204"/><path fill="#e87472" d="M307.167 103.16c2.622 4.974-.15 12.905-6.186 17.695s-13.047 4.628-15.67-.346c-2.617-4.995.473-12.823 6.51-17.614s12.73-4.73 15.345.265z"/><path fill="#e87472" d="M306.936 103.244c2.577 4.913-.116 12.66-6.01 17.349-5.896 4.689-12.755 4.505-15.329-.388s.42-12.578 6.313-17.246c5.892-4.69 12.46-4.608 15.025.285z"/><path fill="#e87272" d="M306.674 103.342c2.532 4.81-.085 12.415-5.838 16.98-5.753 4.567-12.46 4.364-14.99-.447s.37-12.314 6.12-16.88c5.752-4.567 12.19-4.465 14.708.347"/><path fill="#e87171" d="M306.433 103.447c2.484 4.71-.053 12.15-5.663 16.614s-12.166 4.24-14.65-.49c-2.48-4.708.312-12.067 5.923-16.532s11.917-4.321 14.39.408"/><path fill="#e86f70" d="M306.19 103.547c2.44 4.628-.025 11.905-5.495 16.248s-11.87 4.118-14.308-.53c-2.435-4.628.262-11.824 5.73-16.166s11.643-4.2 14.072.448"/><path fill="#e86f70" d="M305.945 103.627c2.397 4.546.01 11.66-5.32 15.9-5.329 4.24-11.576 3.976-13.967-.57s.21-11.58 5.536-15.82c5.324-4.22 11.371-4.057 13.751.49"/><path fill="#e86e70" d="M305.698 103.732c2.346 4.464.042 11.416-5.145 15.534s-11.285 3.853-13.63-.612c-2.347-4.465.16-11.334 5.342-15.452 5.183-4.118 11.096-3.915 13.433.53"/><path fill="#e76d6f" d="M305.46 103.832c2.298 4.362.07 11.15-4.975 15.167s-10.99 3.73-13.29-.652c-2.3-4.383.105-11.09 5.148-15.106s10.823-3.772 13.116.59"/><path fill="#e76c6f" d="M305.214 103.933c2.255 4.26.102 10.907-4.8 14.8s-10.695 3.589-12.948-.693c-2.25-4.26.05-10.845 4.952-14.76 4.9-3.893 10.55-3.628 12.795.653z"/><path fill="#e76c6f" d="M304.966 104.038c2.21 4.18.137 10.642-4.622 14.434s-10.403 3.465-12.61-.734c-2.206-4.18-.002-10.601 4.757-14.393 4.76-3.792 10.28-3.506 12.475.693"/><path fill="#e76a6f" d="M304.724 104.118c2.166 4.098.167 10.397-4.45 14.087s-10.11 3.343-12.27-.775c-2.158-4.097-.056-10.356 4.565-14.046s10.003-3.363 12.155.734"/><path fill="#e7696d" d="M304.476 104.219c2.12 4.016.204 10.152-4.273 13.72s-9.816 3.2-11.933-.816-.105-10.112 4.374-13.68c4.473-3.567 9.73-3.24 11.833.776z"/><path fill="#e6676d" d="M304.24 104.323c2.07 3.915.23 9.888-4.106 13.353s-9.522 3.079-11.59-.856-.16-9.867 4.177-13.332 9.458-3.1 11.518.835"/><path fill="#e7666d" d="M303.991 104.424c2.025 3.812.261 9.642-3.932 12.985s-9.227 2.936-11.249-.896-.213-9.623 3.984-12.986c4.185-3.323 9.18-2.936 11.196.897z"/><path fill="#e7666d" d="M303.748 104.504c1.978 3.75.295 9.398-3.757 12.64-4.05 3.22-8.934 2.812-10.912-.94-1.97-3.73-.266-9.397 3.787-12.618s8.913-2.813 10.882.918"/><path fill="#e6656c" d="M303.502 104.605c1.935 3.65.328 9.154-3.58 12.272-3.91 3.118-8.642 2.692-10.573-.978-1.927-3.65-.318-9.154 3.593-12.273 3.911-3.12 8.64-2.67 10.56.98z"/><path fill="#f4b891" d="M243.141 134.543s-15.413-30.171-16.672 4.465c0 0 10.717 4.24 16.672-4.465"/><path fill="#f4b38b" d="M242.728 134.585s-14.76-28.888-15.967 4.28c0 0 10.264 4.058 15.967-4.28"/><path fill="#f2af85" d="M242.275 134.626s-14.108-27.603-15.262 4.077c0 0 9.81 3.894 15.262-4.077"/><path fill="#f2a97f" d="M241.862 134.667s-13.454-26.318-14.555 3.894c0 0 9.356 3.71 14.555-3.894"/><path fill="#f2a579" d="M241.45 134.75s-12.805-25.055-13.85 3.71c0 0 8.902 3.506 13.85-3.71"/><path fill="#f09e74" d="M240.996 134.79s-12.15-23.77-13.14 3.528c0 0 8.443 3.343 13.14-3.527"/><path fill="#ef9a6e" d="M240.584 134.832s-11.498-22.506-12.435 3.323c0 0 7.993 3.16 12.435-3.323"/><path fill="#ef9469" d="M240.131 134.873s-10.845-21.222-11.73 3.14c0 0 7.538 2.997 11.73-3.14"/><path fill="#ee8f62" d="M239.718 134.956s-10.195-19.958-11.025 2.936c0 0 7.087 2.813 11.025-2.936"/><path fill="#ec875a" d="M239.264 134.997s-9.54-18.674-10.317 2.772c0 0 6.632 2.61 10.317-2.772"/><path fill="#26231f" d="M241.147 129.64c-1.227 1.162-4.519-3.914-8.324-4.913-4.093-.367-4.923 3.893-5.81 4.893-.247.51-2.247-1.122-1.54-4.465.423-3.18 3.764-6.972 7.93-6.32 7.924 2.712 8.561 10.622 7.744 10.805m-78.916 26.883c-.24.347 6.758 8.4 20.39 17.288 13.35 8.847 34.801 20.12 58.427 14.107 47.848-14.19 68.694-63.87 67.601-62.81-.79-2.466-22.66 41.692-68.096 54.9-46.52 10.398-78.08-27.154-78.323-23.484z"/><path fill="#26231f" d="M155.266 163.32c.016-1.692 1.603-3.527 3.701-7.482 2.133-3.812 3.846-6.952 5.165-6.687 1.336.204 1.445 5.34-1.199 10.05-2.458 5.077-7.69 6.096-7.667 4.119m149.185-41.63c1.086-1.181 3.381-.631 6.591.245 3.238.795 5.526 1.53 6.1 3.14.583 1.508-3.077 3.73-7.108 2.65-4.058-1.02-6.617-5.015-5.584-6.034m-103.819 63.868c-.157-.796 6.53-1.427 15.063 4.546 4.277 2.71 9.003 6.666 14.246 10.376 5.544 3.548 10.998 7.156 14.574-1.162 18.975-27.888 41.192-40.731 41.742-38.774.49 1.08-19.733 15.656-38.029 42.546-1.387 3.037-6.292 8.52-10.64 7.053-4.11-.713-7.13-2.956-9.898-4.953-5.43-4.22-9.81-8.4-13.71-11.478-7.668-6.544-13.346-7.257-13.348-8.154"/><path fill="#da013c" d="M259.595 180.483s-21.94 9.826-39.654 8.603c-3.944-.266 18.74 22.853 22.437 11.762 4.168-12.476 10.627-14.535 17.217-20.365"/><path fill="#9e2c14" d="M170.44 133.698c.347 1.142 1.673 1.57 2.964.959 1.284-.592 2.05-1.998 1.698-3.14-.348-1.12-1.675-1.55-2.96-.958-1.29.612-2.049 2.018-1.703 3.14zm-11.477-2.61c.35 1.123 1.67 1.55 2.961.96 1.287-.612 2.05-2.018 1.705-3.14-.353-1.141-1.678-1.57-2.964-.958-1.29.592-2.053 1.998-1.702 3.14zm5.452 11.52c.351 1.142 1.67 1.57 2.96.959 1.29-.592 2.05-1.998 1.706-3.14-.349-1.121-1.676-1.57-2.964-.958s-2.05 1.998-1.702 3.14zm20.836-4.076c.346 1.12 1.673 1.549 2.963.958 1.29-.612 2.048-2.018 1.7-3.14-.35-1.141-1.673-1.57-2.963-.957-1.289.59-2.05 1.998-1.7 3.139m109.595-37.492c.351 1.122 1.674 1.55 2.963.959 1.288-.612 2.052-1.998 1.701-3.14-.348-1.141-1.669-1.57-2.96-.958-1.29.592-2.052 1.998-1.704 3.14zm-3.793 14.904c.35 1.12 1.675 1.55 2.965.958 1.29-.611 2.048-1.998 1.7-3.14s-1.676-1.57-2.963-.957c-1.287.59-2.05 1.998-1.702 3.14zm20.224-16.006c.353 1.142 1.676 1.57 2.966.979 1.29-.612 2.05-2.018 1.7-3.16-.35-1.121-1.676-1.55-2.96-.938-1.293.592-2.057 1.998-1.706 3.12z"/><path fill="#b22415" d="M307.221 113.17c.355 1.142 1.674 1.57 2.965.979 1.29-.611 2.05-2.018 1.701-3.14-.35-1.14-1.674-1.57-2.959-.957-1.292.59-2.056 1.998-1.707 3.119m-32.636 31.88c.351 1.143 1.674 1.57 2.964.98 1.29-.612 2.05-2.018 1.7-3.14-.348-1.141-1.674-1.57-2.96-.958-1.29.592-2.057 1.998-1.704 3.12zm-4.557-26.335c.352 1.122 1.675 1.55 2.965.959 1.29-.612 2.05-2.018 1.7-3.14-.348-1.141-1.675-1.57-2.96-.958-1.29.592-2.058 1.998-1.705 3.14zm45.164 14.86c.353 1.14 1.674 1.57 2.965.978 1.29-.611 2.05-2.018 1.701-3.14-.35-1.14-1.674-1.57-2.959-.957-1.29.59-2.058 1.998-1.707 3.12zm4.936-20.811c.352 1.12 1.673 1.55 2.963.958 1.29-.611 2.05-2.018 1.702-3.14-.348-1.14-1.673-1.57-2.96-.957-1.29.59-2.056 1.998-1.705 3.14zm-131.953 42.583c.355 1.122 1.676 1.55 2.967.959 1.29-.612 2.05-1.998 1.701-3.14-.35-1.12-1.676-1.57-2.96-.957-1.293.59-2.057 1.998-1.708 3.139zm19.738-3.831c.353 1.14 1.674 1.57 2.964.958 1.29-.591 2.05-1.998 1.698-3.14-.346-1.12-1.672-1.55-2.959-.958-1.29.612-2.05 2.019-1.703 3.14m-57.31-17.43c.351 1.143 1.673 1.57 2.964.96 1.29-.592 2.05-1.998 1.7-3.14-.348-1.121-1.675-1.55-2.96-.958-1.29.61-2.058 2.018-1.705 3.14m19.353 20.404c.358 1.14 1.678 1.57 2.968.958 1.29-.591 2.05-1.998 1.7-3.14-.35-1.12-1.676-1.548-2.96-.958-1.29.612-2.054 2.019-1.708 3.14m26.19-23.812c.352 1.14 1.675 1.57 2.965.978 1.29-.611 2.048-2.018 1.702-3.16-.35-1.12-1.676-1.55-2.963-.937-1.29.59-2.055 1.998-1.705 3.12z"/><path fill="#9e2c14" d="M278.953 111.253c.35 1.142 1.672 1.57 2.963.979 1.288-.612 2.05-2.02 1.701-3.16-.35-1.121-1.673-1.55-2.96-.958-1.29.61-2.054 2.018-1.704 3.139"/><path fill="#26231f" d="M139.697 77.218c-2.423 6.524-13.588 49.918 6.215 32.957 20.707-17.757 30.025-25.35 30.025-25.35s-4.14 21.538 13.461 10.142c17.603-11.41 9.318-21.55 9.318-21.55s2.432 27.502 18.638 19c7.25-3.795 9.317-22.803 9.317-22.803s8.283-5.074 6.216 3.802 18.634 21.55 23.814 6.336 18.637-16.474 18.637-16.474 10.356 35.48 15.53 17.742c5.176-17.742-3.109-20.28 0-16.48s32.1 21.55 27.956-2.53-17.6-49.426-34.166-39.286-2.073-10.14-18.637-10.14-21.746 16.474-31.065 7.602-27.955-16.475-32.097 3.802-10.356 5.07-10.356 5.07-22.78 3.8-25.884 19.01-21.743 15.21-26.922 29.15"/><path fill="#fefbde" d="m38.23 311.66 4.997 85.825 199.567-7.298s27.615 7.074 22.44 4.526c-.907-.428 1.424-7.094-3.913-13.781-25.152-31.456-109.504-114.205-223.094-69.272ZM269.16 382.22s56.843-84.315 221.474-52.616l-23.494 67.644-191.967-2.038-6.015-12.986z"/><path fill="#161413" d="M216.498 127.482c-1.05 5.158-38.25 9.949-45.608 8.664s-2.664-33.698-2.664-33.698c4.2-11.56 37.033-5.097 44.382-4.811 5.484.203 4.941 24.708 3.89 29.845m7.761 3.527c1.13-15.188 1.607-42.034-6.344-41.386-9.666.793-52.02-8.077-56.085 6.852-.995 3.67-9.91 42.342 2.697 50.048s58.482 1.325 59.732-15.514m21.48-46.982c7.35-.294 40.187-6.742 44.388 4.827 0 0 4.684 32.398-2.668 33.682s-44.558-3.506-45.61-8.644-1.592-29.651 3.888-29.866zm48.087 48.908c12.607-7.726 3.691-46.4 2.694-50.063-4.064-14.93-46.422-6.067-56.084-6.854-7.955-.644-7.478 26.195-6.346 41.383 1.25 16.839 47.127 23.24 59.738 15.535z"/><path fill="#e52810" d="M144.623 84.645c-3.638 0-10.304-2.43-9.76-12.757s-3.252-25.516-7.593-14.583c-4.34 10.933-8.133 16.403-13.014 9.113-4.88-7.29-39.59-34.626-36.877-23.083S93.105 68.85 81.716 68.85s-57.482 1.82-47.18 13.364c10.302 11.543 35.791 21.269 23.32 35.845s-52.607 15.8-46.64 24.91c5.967 9.112 23.862 3.019 20.607 16.392S26.4 204.31 42.13 200.07c15.73-4.238 32.536-21.873 35.79-10.946S82.256 228 92.561 212.814s14.1-45.564 20.064-41.304 10.845 10.947 11.39.61 3.253-22.485 7.05-28.56 22.776-58.917 13.556-58.917zm275.531 32.379c.302-.102.514-.184.514-.184s-.52-.224-.514.184"/><path fill="#e52810" d="M425.008 123.527c-3.966-4.444-4.843-5.993-4.854-6.502-1.604.469-6 1.427 2.684-6.26 10.303-9.111 6.506-23.078-2.17-32.191s0-20.652 0-32.195-17.354-5.466-21.15-14.578S389.216 6.893 378.37 6.893s-8.135 15.795-18.982 4.862-17.895 5.466-26.572 19.438-9.3 16-14.1 18.829c-10.3 6.075 8.136 29.77 15.184 37.666s20.067 0 24.946 8.502 4.337 21.263 2.17 38.877 7.592 7.298 15.185 1.835c0 0 5.422 7.89 4.88 25.503-.214 6.972 1.36 9.948 3.938 10.723.455 1.509 1.42 2.956 3.181 4.22 8.066 5.708 20 8.746 23.251.856 2.12-5.137 2.395-13.373 2.332-18.47 2.21-.836 5.254-1.733 9.598-2.793 20.067-4.852 8.678-25.523 1.63-33.413zM152.228 71.28c-.226 3.533-6.507 24.295 2.171 18.83 8.678-5.463 25.486-24.295 26.57-16.4 1.085 7.898-1.625 21.274 4.34 13.973s16.267-30.376 17.352-20.046 6.506 24.9 12.474 16.405 12.472-30.985 16.812-24.91 3.254 27.944 12.472 20.046 15.728-22.474 22.777-22.474 18.98 22.474 20.066 15.794c1.087-6.68 5.423-24.303 9.22-16.403s15.725 17.615 16.266 10.326c.541-7.29-2.166-35.232-11.385-37.056s-13.017 2.43-22.777 3.647c-9.762 1.212-7.05-21.263-17.895-15.796s-19.526 18.225-26.576 8.506-21.692-18.831-27.113-1.215c-5.424 17.615-11.933 27.94-16.27 20.653s-7.59-13.363-15.186-3.645c-7.595 9.718-5.966 18.832-10.845 20.047s-11.93 1.214-12.473 9.718z"/><path fill="#e9590a" d="M130.536 85.86c-9.948-.398-12.472-25.516-15.182-15.796s-1.087 9.72-15.728 3.04-46.095-4.255-36.877 7.288 21.148 17.628 16.812 23.682-28.2 27.95-16.812 25.524 14.643 3.65-1.627 17.614S36.177 186.7 47.566 178.81c11.385-7.91 36.333-39.488 30.37-18.225-5.965 21.263 2.71 37.04 8.132 21.262 5.423-15.78 1.627 10.316 1.627 10.316s7.593-40.691 17.353-35.84 10.306 14.577 13.56 4.873c3.252-9.725-25.49-34.024-10.304-27.95s28.74-1.835 20.064-12.15c-8.677-10.336 17.355-34.628 2.168-35.237m195.23-27.943c8.975-10.054 4.338-8.504 15.185-23.692s15.725-11.54 17.354-9.718c1.625 1.822 1.085-6.077 14.643-5.468s15.183 7.896 14.642 15.186c-.54 7.29 22.232.002 22.232 9.724s2.171 9.11-2.71 23.689c-4.88 14.579 9.76 23.693 10.847 26.123 1.088 2.43-35.792 7.889-19.524 20.039s37.962 25.524 19.524 28.56c-18.438 3.038-20.063 6.688-20.063 13.354s-8.679 9.113-10.848-10.315c-2.17-19.448-4.88-26.726-8.678-20.651-3.797 6.075-13.555 14.576-7.592-4.873 5.965-19.428 10.844-34.622 1.084-30.37s-9.758 13.368-10.847-6.074 1.09-21.87-12.473-13.973c-13.557 7.897-28.2-5.464-22.776-11.54zm-139.37-7.896c.696 10.083-11.387-7.288-10.846 1.217s-4.34 4.252-11.388 15.185-9.76 17.013 2.712 5.47 14.1-18.223 17.896-7.895 3.252 6.072 10.302-2.433 9.221-4.856 14.1 2.433c4.88 7.289.543 4.252 13.017-7.29s14.643-8.507 20.064-1.217c5.425 7.29 3.798 6.075 8.678-1.823s33.08 18.223 31.996 5.468 8.675-13.975 9.762-12.15 11.93 8.505 11.93 6.682 3.8-23.693-9.763-17.616-24.946 9.11-27.657 0c-2.71-9.111-13.014-9.722-13.556-6.077s-17.894 15.19-21.15 7.9-7.59-26.123-15.727-9.72-14.1 23.692-13.014 19.44-17.894-5.472-17.355 2.426z"/><path fill="#c00d20" d="m194.521 241.39-15.95-.407-19.3 14.373-20.605 30.987s92.192 46.174 105.207 64.99c13.014 18.837 20.064 20.06 20.064 20.06l9.22-1.834s15.725-21.263 22.232-27.338 66.162-39.488 66.162-39.488l-25.704-44.546-16.094-18.837-29.26-1.63s-13.924 15.167-34.383 18.836c-54.228 9.724-61.589-15.167-61.589-15.167z"/><path fill="#fff" d="M191.758 243.453s-20.647 3.099-19.02 4.913 39.434 68.744 40.52 66.315 31.898-50.74 31.898-50.74-35.11 4.099-53.399-20.488zm57.033 19.629 36.367 50.352 29.465-72.472-19.747-3.262s-5.463 16.472-19.018 23.75c-13.559 7.298-27.068 1.63-27.068 1.63z"/><path fill="#f4b891" d="M208.583 237.72s3.656 13.925 19.016 14.74c15.364.815 43.16-1.631 46.818-12.293 3.658-10.641 3.825-12.09.73-9.01-6.58 6.564-20.482 12.293-33.649 12.293s-35.84-10.662-32.915-5.73"/><path fill="#26231f" d="M343.606 183.379c-.742-1.936 4.166-21.324 7.74-25.34 3.572-4.016 4.166-23.342-7.145-35.33s-11.31-2.017-8.932 3.324-5.95 3.995-3.57 10.682 6.548 12.66 2.38 13.985c-4.166 1.346-4.166 3.343-4.166 7.34s-13.692 10.009-10.717 19.346 9.525 19.998 12.502 18 13.695-7.338 11.908-12.007"/><path fill="#f4b891" d="M341.823 126.543c.683 1.02 10.248 18.287 7.972 23.812s-10.246 25.503-9.11 28.05S347.138 195 347.138 195l-8.347 7.503s-6.455-15.576-9.112-16.86-5.312-11.477-1.898-14.881 9.87-11.906 11.765-16.575c1.9-4.69 0-31.048 2.277-27.644"/><path fill="#26231f" d="M142.46 203.783c.74-1.936-4.168-21.323-7.74-25.34s-4.168-23.342 7.143-35.33 11.312-2.017 8.93 3.324 5.955 3.995 3.573 10.682-6.55 12.66-2.382 13.985c4.17 1.346 4.17 3.343 4.17 7.34s13.692 10.01 10.713 19.346-12.98 21.73-15.953 19.734c-2.973-1.997-10.24-9.072-8.453-13.74z"/><path fill="#f4b891" d="M144.251 146.957c-.682 1.018-10.245 18.286-7.967 23.81s10.245 25.504 9.107 28.052-6.45 16.594-6.45 16.594l4.005 6.789s10.795-14.862 13.452-16.146 5.312-11.477 1.897-14.882-9.868-11.905-11.766-16.574c-1.896-4.69.002-31.048-2.277-27.644z"/><path fill="#26231f" d="M183.923 271.948s26.187 52.29 30.361 52.72 26.19-48.46 25.048-48.03c-1.14.43-23.15 37.836-25.426 34.86s-30.742-41.671-29.983-39.55m78.188 9.36s18.934 42.345 23.15 41.244c9.054-2.365 26.948-72.7 26.187-71.433s-23.908 63.358-25.805 59.098-23.533-31.884-23.533-28.907z"/><path fill="#161413" d="M298.565 111.244s19.353-27.197 25.806-26.773l-1.52-5.103s-21.249 16.158-24.665 16.158-2.657 17.002.38 15.718m-157.143 9.347c2.626-.45 19.736-8.93 20.116-4.67.38 4.262-2.278 11.906-2.278 11.906s-14.8-3.404-18.596-.428-4.175-5.952.758-6.808m79.325-10.625s12.147-10.642 15.941-4.261.38 6.38.38 6.38-9.487-3.404-14.8 4.26c0 0-5.315-5.523-1.52-6.38"/><path fill="#e20415" d="M23.631 438.59s-5.034 10.643 2.237 8.768 200.78-45.115 212.524-41.346 15.1-7.522 13.422-7.522-201.897 23.179-201.897 23.179-25.727 12.517-26.285 16.92zm266.191-33.855c-1.115 1.406.002 7.522 5.594 8.154s190.71 8.134 192.388 5.015 3.354-10.03 1.678-10.03-195.188-8.786-199.662-3.14zm-42.483 10.047s-1.678 8.766 6.15 10.03c7.832 1.243 27.404 1.875 30.201-.632s6.151-8.766 6.151-8.766-3.916-13.802-4.475-11.294 2.797 6.91-2.236 11.294c-5.033 4.383-10.066 6.259-20.69 3.75-10.626-2.51-8.393-8.765-10.069-9.397s-7.272-1.244-5.032 5.015"/><path fill="#26231f" d="M263.43 366.63s110.353-103.073 219.225-74.063l11.467 23.2s-32.596-17.104-79.936-5.015-122.81 40.59-126.79 46.706-23.963 9.175-23.963 9.175z"/><path fill="#fefbde" d="M276.42 361.27s108.753-91.268 203.93-65.44l1.286 5.402s-66.203-28.093-205.217 60.038z"/><path fill="#ede5b0" d="M278.976 381.847s100.856-61.93 195.733-39.345c0 0-.745 4.2-21.663 8.379s17.183 12.558 13.447 12.558-29.884-2.508-29.884-2.508l-.747 10.03s30.632.836 27.641 5.87c-2.988 5.016 5.977 13.374-9.71 8.359s-23.905 4.18-23.905 4.18-137.463-15.066-150.91-7.523zm-24.66 2.516s-73.96-93.717-203.204-65.275l-1.493 23.424s43.33-9.195 50.801-1.673c7.473 7.544-35.113 11.723-35.113 11.723l2.244 10.05s41.088-4.18 43.325 0-47.06 7.522-50.797 11.702c-3.737 4.2 0 11.722 0 11.722s172.568-15.902 194.235-1.672z"/><path fill="#26231f" d="M248.378 291.454s2.988 56.084 6.723 56.084 4.482.836 4.482.836-9.713-65.276-11.205-56.917zm205.156 47.655c.002.61-10.12 1.04-26.445 1.63-16.3.694-38.888 1.427-63.35 5.953-12.217 2.284-23.686 5.443-33.834 9.256s-18.97 8.256-26.116 12.537c-14.283 8.624-22.025 16.044-22.422 15.473-.154-.203 1.602-2.262 5.133-5.565s8.884-7.788 15.998-12.477c7.107-4.69 15.99-9.54 26.285-13.597 10.284-4.098 21.944-7.441 34.338-9.745 24.826-4.587 47.584-4.852 63.93-4.79 16.376.163 26.48.775 26.482 1.325z"/><path fill="#26231f" d="M457.54 357.049c-.119.612-9.73-1.65-25.519-1.957-15.76-.408-37.609 1.06-61.393 5.402-23.788 4.302-44.923 10.683-59.72 16.758-14.855 5.973-23.243 11.722-23.53 11.192-.293-.428 7.746-7.156 22.574-13.944 14.758-6.87 36.05-13.781 60.078-18.124 24.022-4.403 46.166-5.402 62.102-4.24 15.98 1.08 25.551 4.403 25.408 4.913"/><path fill="#26231f" d="M445.528 379.476c-.133.59-7.203-1.02-18.754-2.55-11.55-1.528-27.585-3.016-45.289-2.65-17.695.327-33.634 2.773-44.68 6.463-11.119 3.548-17.082 8.236-17.395 7.706-.335-.367 5.306-6.116 16.583-10.52 11.174-4.525 27.466-7.501 45.423-7.827 17.973-.367 34.18 1.63 45.746 3.914 11.58 2.283 18.5 4.933 18.366 5.464m-199.49-6.687c-.393.53-8.55-8.032-24.554-16.696-15.888-8.806-39.465-17.144-66.23-22.14-26.764-5.096-51.419-6.44-69.212-6.543-17.816-.082-28.82 1.12-28.883.489-.07-.51 10.896-2.752 28.844-3.425 17.916-.672 42.821.204 69.876 5.34 27.05 5.057 50.927 14.007 66.802 23.649 16.015 9.52 23.688 19.04 23.357 19.326"/><path fill="#26231f" d="M237.328 370.504c-.113.51-10.323-1.753-26.249-7.726-7.967-2.956-17.278-7.034-27.65-11.09-10.367-4.058-21.997-7.543-34.552-8.93-12.54-1.467-24.65-1.203-35.624-.55-10.983.693-20.865 1.834-29.16 2.834-16.589 2.1-26.85 3.649-26.937 3.037-.082-.53 10.024-3.12 26.594-5.953 8.288-1.406 18.198-2.854 29.285-3.75s23.371-1.285 36.232.224c12.874 1.427 24.886 5.137 35.307 9.459 10.442 4.3 19.584 8.644 27.393 11.926 15.582 6.646 25.508 9.908 25.36 10.52z"/><path fill="#26231f" d="M200.866 368.283c-.108.59-7.392-.693-19.126-2.67-11.73-1.917-27.962-4.547-45.95-4.65-17.998-.162-34.174 2.65-45.754 5.322-11.59 2.65-18.7 4.832-18.865 4.22-.142-.49 6.7-3.67 18.27-7.115 11.536-3.424 28.007-6.768 46.364-6.605 18.352.102 34.731 3.262 46.397 5.933 11.678 2.73 18.765 5.035 18.664 5.565"/><path fill="#f5b700" d="M115.535 116.39c.148.246-.145.878-.953 1.693-.82.795-2.117 1.937-4.306 2.386a5.77 5.77 0 0 1-3.77-.51c-1.327-.673-2.45-1.917-3.21-3.343-1.514-2.875-1.897-6.34-1.58-9.766.335-3.445 1.4-6.605 2.941-9.092 1.533-2.528 3.604-4.28 5.533-5.137s3.63-.885 4.713-.71c1.103.2 1.651.567 1.635.873-.004.693-2.386.754-5.065 2.67-1.322.98-2.656 2.468-3.696 4.527-1.04 2.038-1.802 4.607-2.068 7.339-.27 2.73.013 5.423.82 7.277s2.038 2.67 3.508 2.712c1.456.06 2.828-.45 3.776-.734.948-.285 1.558-.45 1.722-.184m-29.112 59.612c.242-.163.923.795 2.287 2.2 1.364 1.407 3.564 3.243 6.643 3.61a8.33 8.33 0 0 0 4.786-.918c1.574-.836 2.987-2.283 3.828-4.2.851-1.916 1.077-4.28.668-6.727a19 19 0 0 0-.415-1.855c-.259-.877-.737-2.345-1.518-3.853-1.565-3.017-4.017-7.258-5.684-10.295l4.564 3.343c1.624 1.162 3.305 2.467 4.708 3.364.732.468 1.436.856 2.126 1.182l.916.408.453.163a8.3 8.3 0 0 0 1.752.408c1.132.122 2.111-.082 2.892-.612 1.598-1.06 2.506-3.65 2.77-6.177.518-5.117-.744-10.213-2.77-13.23-1.024-1.51-2.267-2.385-3.494-2.59-1.227-.203-2.418.123-3.352.55-1.882.878-2.89 1.755-3.092 1.49-.158-.184.42-1.488 2.348-3.038.963-.713 2.382-1.55 4.277-1.508 1.894 0 3.98 1.182 5.463 3.037 1.521 1.835 2.637 4.22 3.39 6.87.736 2.67 1.143 5.648.91 8.848-.13 1.61-.418 3.282-1.059 4.954-.637 1.65-1.685 3.384-3.303 4.526s-3.598 1.53-5.343 1.325a11.5 11.5 0 0 1-2.54-.55l-.728-.266-.02-.02q-.015-.031-.026 0c-.005.02-.033-.102.1.428.2.774.36 1.57.48 2.365.463 3.2.065 6.605-1.304 9.316-1.369 2.71-3.51 4.669-5.74 5.627a10.35 10.35 0 0 1-6.46.632c-3.939-.958-6.216-3.67-7.344-5.525-1.14-1.916-1.372-3.16-1.166-3.282zm-18.072 1.12c.126.225-.897 1.347-3.182 2.65-2.255 1.265-5.977 2.815-10.807 2.14a15.5 15.5 0 0 1-7.35-3.24c-2.35-1.855-4.529-4.587-5.62-8.277-.518-1.834-.744-3.954-.256-6.116.461-2.181 1.813-4.22 3.51-5.422 3.472-2.447 7.363-2.386 10.904-1.958l17.248 2.1-17.23 2.365-.422.04c-3.49.49-6.994.715-10.504.043-1.746-.367-3.53-.96-5.166-2.222-1.647-1.203-2.917-3.486-3.068-5.708-.19-2.202.348-4.118.997-5.73.671-1.63 1.512-2.996 2.4-4.24 1.782-2.466 3.755-4.342 5.655-5.85 3.824-3.017 7.38-4.505 9.866-5.2 2.504-.692 3.944-.651 3.99-.366.063.327-1.25.857-3.473 2.019-2.206 1.162-5.356 2.996-8.656 6.075-1.634 1.529-3.314 3.384-4.74 5.585-1.387 2.16-2.64 4.954-2.365 7.217.151 1.1.63 1.957 1.573 2.67s2.25 1.142 3.656 1.407c2.848.49 6.07.306 9.33-.142l.395-.061.017 4.464c-3.09-.45-6.25-.265-8.27 1.182-2.026 1.346-2.542 4.017-1.86 6.646.67 2.63 2.26 4.913 4.07 6.503a13.7 13.7 0 0 0 5.852 3.1c3.994.957 7.467.08 9.757-.633 2.317-.754 3.603-1.346 3.75-1.04m18.072-34.86c-.058.57-1.127 1.12-2.938.876-1.725-.224-4.519-1.427-6.015-4.73-.718-1.61-.879-3.445-.586-4.953s.943-2.691 1.615-3.466c1.374-1.55 2.593-1.692 2.903-1.223.36.49-.139 1.55-.523 2.956-.406 1.407-.528 3.099.193 4.71s2.137 2.833 3.323 3.69 2.1 1.488 2.027 2.14zm-8.032-35.985c-.024.55-1.794 1.223-4.79.53a10.07 10.07 0 0 1-4.884-2.875c-1.605-1.692-2.89-4.403-2.772-7.46.078-3.06 1.638-5.782 3.516-7.19a8.47 8.47 0 0 1 5.407-1.79c3.11.134 4.643 1.38 4.528 1.91-.107.658-1.884.609-4.238 1.255-1.162.333-2.444.907-3.447 1.92-1.005.98-1.7 2.427-1.753 4.078-.053 1.65.533 3.2 1.436 4.403.9 1.223 2.082 2.12 3.161 2.752 2.188 1.285 3.886 1.794 3.837 2.467zm141.546-41.61c.377.427.017 1.74-1.286 3.383-.674.797-1.553 1.718-3.018 2.365-.73.3-1.678.548-2.808.279-1.137-.247-2.235-1.221-2.765-2.277-1.057-2.143-.9-3.976-.72-5.476.23-1.504.67-2.73 1.135-3.684.948-1.91 1.957-2.733 2.437-2.46s.422 1.596.264 3.439c-.076.922-.16 1.99-.153 3.082 0 1.063.178 2.267.471 2.775.15.242.164.247.268.32s.422.108.8.033c.765-.14 1.646-.573 2.385-.938 1.49-.773 2.597-1.292 2.99-.84zm146.565 22.485c.24-.62 2.316.1 5.41.378 1.528.11 3.337.02 4.895-.791 1.55-.787 2.78-2.367 3.194-4.518s-.042-4.401-.97-6.073c-.927-1.698-2.295-2.87-3.617-3.598-2.69-1.445-4.892-1.576-4.897-2.263-.058-.507 2.082-1.67 5.853-.732 1.838.498 4.073 1.796 5.7 4.23 1.625 2.388 2.538 5.87 1.85 9.399-.62 3.55-3.117 6.47-5.75 7.41-2.638 1.01-5.016.616-6.767.065-3.536-1.231-5.117-3.015-4.9-3.506zm-27.106-6.745c.087-.657 1.863-.734 4.33-1.321 1.215-.314 2.598-.8 3.783-1.703s2.142-2.226 2.516-3.873.097-3.34-.564-4.338c-.633-1.026-1.669-1.44-2.779-1.474-2.253.029-3.978.934-4.273.338-.15-.248.048-.78.646-1.46s1.6-1.538 3.23-2.028c.816-.22 1.806-.34 2.893-.067 1.08.249 2.218.93 3.077 1.973 1.753 2.088 2.34 5.272 1.658 8.179-.659 2.954-2.577 5.23-4.544 6.334-1.986 1.142-3.915 1.35-5.424 1.29-3.05-.205-4.637-1.298-4.55-1.85zm68.265 67.48c.143.183-.495 1.203-2.08 2.65a19.85 19.85 0 0 1-7.872 4.302c-1.848.53-3.975.836-6.32.57-2.296-.285-5.035-1.06-7.15-3.71-1.035-1.304-1.7-3.14-1.767-4.974-.083-1.855.32-3.608.932-5.198.934-2.202.635-1.427.715-1.672 0-.041.055-.102-.024-.041l-.119.08-.029.02h-.003l-.15.023-.958.08c-2.546.124-5.433-.651-7.608-2.833-1.54-1.508-2.617-3.63-2.926-5.912-.33-2.262.146-4.647 1.181-6.503a11.3 11.3 0 0 1 4.04-4.16c1.536-.936 3.13-1.446 4.678-1.792l7.217-1.57-5.62 5.26c-2.14 1.976-4.647 3.567-7.379 4.097-2.717.59-5.538-.061-7.656-1.55-4.3-2.935-5.862-8.704-4.3-12.578a8 8 0 0 1 3.195-3.934c1.181-.755 2.275-1.06 3.15-1.244 1.761-.326 2.705-.122 2.727.102.033.265-.88.53-2.38 1.244-1.43.673-3.74 1.977-4.514 4.75-.816 2.65.558 6.707 3.727 8.582 1.55.938 3.448 1.264 5.372.775 1.924-.49 3.855-1.733 5.602-3.466l1.596 3.67c-2.488.59-4.938 1.916-6.073 4.098-1.176 2.1-.783 5.015 1.022 6.768 1.238 1.244 3 1.814 4.807 1.733l.68-.061c.044.02.42-.061.665-.102.273-.061.535-.102.814-.184.578-.203 1.082-.285 1.743-.611l.941-.428 1.145-.632 10.504-5.953-7.938 9.092c-.64.755-1.285 1.468-1.822 2.16-.48.654-.994 1.306-1.354 1.938-.964 1.55-1.013 1.814-1.308 2.446-1.014 2.344-1.028 4.567.067 6.095 1.09 1.57 3.085 2.447 4.952 2.814 1.9.346 3.77.265 5.438-.02 3.36-.572 5.924-1.876 7.638-2.835 1.717-.978 2.646-1.61 2.806-1.386zm-25.1-74.23c-.06-.354 1.395-.898 3.785-2.256a45 45 0 0 0 4.204-2.73c1.432-1.017 3.955-3.088 3.745-3.098l-.335-.283-.167-.147-.6-.63-2.503-2.642-5.394-5.794-2.868-3.12c-.514-.511-1.258-1.51-1.624-2.43-.41-.954-.63-1.942-.76-2.845-.244-1.786-.25-3.427-.57-4.226-.157-.39-.27-.547-.572-.76a2.6 2.6 0 0 0-.577-.278l-.374-.116-.106-.03-.246-.044c-.167-.03-.32-.065-.52-.082-1.47-.198-3.32.017-5.265.174l-5.476.452 4.832-3.73c1.687-1.29 3.077-2.384 4.02-3.55l.546-.685.293-.406c.19-.273.374-.548.54-.834.34-.562.632-1.152.882-1.753 1.01-2.401 1.21-5.041.815-7.496-.219-.836.237-.485-.695-.68a27 27 0 0 0-3.302-.148 23.2 23.2 0 0 0-5.83.826c-3.495.962-5.97 2.748-7.486 4.226s-2.237 2.548-2.486 2.385c-.202-.12.063-1.49 1.403-3.515s3.93-4.51 7.78-6.001c1.907-.755 4.09-1.283 6.46-1.5a27.5 27.5 0 0 1 3.681-.081c.235 0 .795.055 1.334.104.54.049 1.112.137 1.676.202.291.453.395 1.178.586 1.767.09.312.176.624.247.949l.148.664c.637 3.11.493 6.754-.806 10.057a18 18 0 0 1-1.136 2.387l-.693 1.12-.375.536-.166.22-.003.008c-.005.025 0 .029.008.029l.02-.008.228.057q.345.084.695.214c.47.169.956.395 1.433.723.971.618 1.823 1.798 2.194 2.92.721 2.262.542 3.912.76 5.224q.123.978.392 1.645c.216.49.346.714.82 1.246l2.792 3.213 10.967 12.868c-4.025 3.252-5.243 3.908-7.176 5.03-1.788 1.004-3.416 1.693-4.775 2.144-2.737.889-4.359.809-4.402.508zm-37.14-19.113c-.21.488-2.06.428-4.526-1.627a9.36 9.36 0 0 1-3.009-5.325c-.5-2.507.135-5.494 1.704-7.718 1.55-2.255 3.783-3.655 5.998-3.993 2.233-.383 4.3.446 5.564 1.533 1.29 1.093 1.93 2.308 2.243 3.162.3.877.282 1.44.055 1.6-.488.392-1.69-1.104-3.726-2.016-1.012-.424-2.202-.597-3.457-.207s-2.56 1.3-3.497 2.664-1.343 2.927-1.232 4.313c.091 1.403.684 2.7 1.367 3.742 1.405 2.09 2.8 3.286 2.515 3.873zm-92.36 3.373c.482.153.755 2.019-.344 4.916-.575 1.398-1.598 3.168-3.585 4.285-1.959 1.16-4.82.976-6.85-.588-2.077-1.512-3.263-3.857-3.693-6.036a10.95 10.95 0 0 1 .383-5.706c1.108-2.978 2.66-3.951 3.048-3.617.491.365-.12 2.02-.293 4.386-.079 1.174-.004 2.523.43 3.832.418 1.3 1.22 2.583 2.307 3.366s2.204.923 3.203.56c1.014-.36 1.933-1.261 2.64-2.162 1.411-1.845 2.196-3.433 2.754-3.236M123.562 118.63c-.087-.632 1.555-1.346 3.782-2.834 2.175-1.447 5.145-3.955 6.561-7.502.688-1.753.734-3.364.233-4.567-.488-1.243-1.577-2.201-2.648-2.854-2.185-1.305-3.978-1.814-3.912-2.467.03-.55 1.81-1.284 4.914-.51 1.496.429 3.523 1.387 4.88 3.813s1.278 5.81.217 8.378c-2.182 5.28-6.295 7.707-9.138 8.644-2.943.918-4.826.49-4.888-.101zm-29.11 1.143c.09.592-.448 1.305-1.54 1.815a5.4 5.4 0 0 1-2.135.469c-.479-.02-.894-.02-1.649-.347a3.7 3.7 0 0 1-1.743-1.55c-.419-.712-.585-1.59-.557-2.404.028-.815.191-1.305.353-1.774a6.8 6.8 0 0 1 1.18-2.04c.83-.937 1.606-1.243 2.076-.916.484.306.564 1.203.47 2.324l-.16 1.733c-.017.265-.008.57.016.59h.042c.02-.02-.188.042.404.266.457.164 1.004.306 1.477.47.961.325 1.677.733 1.766 1.365zm9.037-41.615c-.268.128-.673-.291-1.28-.993s-1.417-1.73-2.516-2.4c-1.099-.671-2.383-.82-3.915-.148s-3.172 2.083-4.58 3.894-2.48 3.865-2.922 5.649c-.22.889-.258 1.672-.138 2.197.102.532.36.924.814 1.277.94.687 2.233.893 3.06 1.088.862.19 1.395.36 1.44.683.043.29-.39.708-1.313 1.06-.92.305-2.33.778-4.363.064-.994-.367-2.175-1.34-2.734-2.803s-.6-2.997-.389-4.41c.46-2.85 1.744-5.45 3.516-7.757 1.787-2.283 3.982-4.095 6.486-4.893 1.243-.39 2.581-.48 3.786-.16 1.214.29 2.224.976 2.95 1.712 1.453 1.515 1.957 3.085 2.2 4.129.23 1.062.143 1.7-.1 1.812zm304.172 39.353c-.172-.611 2.172-1.345 4.318-4.138 1.021-1.346 1.915-3.466 1.578-5.3-.165-.877-.58-1.59-1.343-2.08l-.16-.122-.426-.184c-.31-.122-.49-.285-.986-.346l-1.307-.224-1.85-.061-8.213-.306 8.166-3.71a47 47 0 0 0 1.512-.735c.5-.244.854-.49 1.24-.754.395-.244.687-.53 1.037-.816.282-.244.295-.265.444-.428.47-.49.865-.998 1.163-1.55.608-1.1.832-2.302.71-3.403-.235-2.3-1.87-3.968-3.518-4.432-1.678-.526-3.309-.123-4.413.185-1.12.324-1.802.565-1.968.298s.22-.97 1.278-1.865c1.04-.848 2.902-2.012 5.58-1.753 1.313.142 2.786.72 4.042 1.888s2.282 2.895 2.646 4.966c.364 2.07.033 4.403-.955 6.32-.486.978-1.112 1.834-1.813 2.609l-.464.469h.004-.045l-.02.04c.07.062-.216-.142.43.347 1.575 1.142 2.61 3.242 2.73 5.138.166 1.895-.316 3.547-.947 4.852a10.2 10.2 0 0 1-2.283 3.078c-1.66 1.509-3.29 2.08-4.386 2.284-1.112.183-1.732 0-1.782-.266z"/><path fill="#f5b700" d="M406.653 149.006c.16-.652 2.14-.387 5.038-.673 2.826-.244 6.853-1.406 9.31-4.852 1.196-1.671 1.684-3.608 1.4-5.096-.245-1.53-1.278-2.732-2.404-3.548-2.328-1.59-4.384-2.018-4.307-2.71.016-.286.516-.572 1.465-.714.935-.102 2.333-.102 4.055.55a8.02 8.02 0 0 1 4.76 5.32c.856 3.059-.03 6.525-1.829 8.99a12.77 12.77 0 0 1-6.477 4.77c-2.25.734-4.382.736-6.064.47-3.39-.57-5.103-1.977-4.947-2.507M240.016 47.796c-.222-.106-.195-.72-.082-1.746.098-1.005.348-2.515.125-4.055-.258-1.604-.984-2.411-2.835-2.41-.9.01-1.946.245-3.03.645l-.823.326-.483.216c-.314.133-.604.296-.908.447-1.206.6-2.485 1.36-3.743 2.04l-.27-3.977-.214-1.957-.16-.91c-.237-1.183-.568-2.34-1.045-3.324-.69-1.431-1.603-2.306-2.632-2.55-1.033-.271-2.284.07-3.357.78-2.195 1.448-3.558 3.992-4.01 6.204-.49 2.253-.196 4.25.088 5.626.291 1.387.532 2.217.287 2.396-.212.163-.904-.33-1.716-1.69-.788-1.331-1.696-3.698-1.467-6.807.215-3.054 1.646-6.758 4.827-9.22 1.568-1.187 3.72-2.1 6.115-1.611 2.426.454 4.398 2.556 5.4 4.73.725 1.524 1.133 3.07 1.4 4.558l.172 1.099c.012.09-.004.037-.004.065l-.025.098c.013.012.033.02.076.024l.025.004.448-.163a16 16 0 0 1 1.032-.32c1.381-.385 2.788-.587 4.211-.436 1.392.136 2.928.762 3.92 2.043.99 1.28 1.196 2.809 1.158 3.928-.119 2.302-.837 3.739-1.33 4.695-.523.942-.952 1.346-1.15 1.247zm-60.235 21.37c-.082.33-1.01.407-2.666.28-.83-.08-1.873-.18-3.147-.713-.64-.296-1.24-.588-2.127-1.505-.784-.827-1.48-1.855-2.184-2.952l2.051-1.826 1.041-.893.686-.57c.947-.757 2.03-1.515 3.29-2.112.312-.153.645-.278.97-.414l.42-.143.032-.024.045-.054c.005-.03-.028-.037-.058-.05l-.047-.013.008-.004c-.016-.025.044.06 0 0l-.147-.192c-.1-.127-.193-.273-.284-.414a6.4 6.4 0 0 1-.512-.933 6.1 6.1 0 0 1-.553-2.33c-.067-1.752.744-3.27 1.585-4.157.86-.928 1.791-1.474 2.697-1.878 3.662-1.492 7.065-.765 9.51.477 2.47 1.284 3.963 3.142 4.737 4.49s.932 2.279.715 2.44c-.244.18-.839-.386-1.868-1.26s-2.54-2.035-4.6-2.697c-2.01-.667-4.738-.804-7.069.375-1.165.548-1.944 1.65-1.776 2.022.012.125.05.277.15.48.047.103.106.215.192.33.042.059.075.118.128.177l.073.092.242.267c.651.689 1.56 1.28 2.708 1.912 1.337.64 2.96 1.34 4.886 2.187l12.394 5.46-15.996-2.567c-4.7-.922-6.65.057-7.254.26-.963.374-1.882.89-2.765 1.469l-.653.438c-.236.167-.147.076-.243.132l-.365.176c.038.306.017.613 1.01 1.352.807.57 1.722.954 2.472 1.304 1.514.685 2.353 1.254 2.271 1.584zM282.18 44.424c.51-.117 1.474 1.76 2.035 5.204.255 1.72.402 3.837.127 6.229a20 20 0 0 1-.298 1.83q-.09.469-.222.938l-.126.475-.245.703c-.179.498-.348.99-.586 1.544-.262.464-.306 1.34-.98 1.08a34 34 0 0 1-1.623-.063 7 7 0 0 1-.819-.073l-.524-.082c-2.642-.481-4.926-1.982-6.517-3.674-1.59-1.692-2.644-3.54-3.33-5.13-1.345-3.205-1.436-5.397-.948-5.61.535-.244 1.581 1.499 3.348 3.907s4.446 5.42 8.108 6.069l.306.049.008.004.004.008c.008-.004 0 .06.061-.077.017-.043.017-.008.05-.117l.118-.358a8 8 0 0 0 .218-.72c.142-.477.25-.96.357-1.435.41-1.91.566-3.751.68-5.32.192-3.155.226-5.254.8-5.38zm22.083 2.253c-1.144.025-1.76-3.876-4.047-5.722-2.26-1.982-5.844-1.994-5.99-3.274-.092-.593.665-1.378 2.2-1.802 1.477-.404 3.994-.392 6.23 1.504 2.246 1.919 2.89 4.807 2.801 6.528-.078 1.804-.659 2.77-1.194 2.766"/><path fill="#26231f" d="M136.623 59.037s-15.926 57.448-4.883 57.448 21.95-19.224 21.95-19.224 1.003-39.351-2.007-42.722-11.046-1.126-15.06 4.497zm169.117-26.97s2.55 32.594 7.57 38.216 23.674 18.745 23.674 18.745-.61-44.611-14.7-55.59c-5.21-4.061-14.535-14.866-16.544-1.371"/><path fill="#239828" d="M139.716 60.892s-13.478 50.785-6.128 48.034c7.353-2.731 14.092-6.85 14.705-16.472s3.065-30.19-.613-30.877-7.964-.685-7.964-.685m172.135-26.08c0 3.434-.612 31.573 4.29 35.002s17.151 17.157 15.932 9.609-1.84-25.39-6.745-31.566-7.962-21.278-11.638-14.413-1.838-2.062-1.838 1.37z"/><path fill="#acc700" d="m142.15 67.078-4.902 31.562s4.288 2.752 6.126-5.484 6.74-37.058-1.225-26.078m174.602-24.701 3.676 27.45 7.35 2.059s-9.19-42.546-11.026-29.51"/><path fill="#26231f" d="M259.182 274.34c0 6.442-4.666 11.682-10.417 11.682s-10.415-5.24-10.415-11.682 4.664-11.66 10.415-11.66 10.417 5.218 10.417 11.66"/><path fill="#f0e31f" d="M256.41 274.323c0 4.362-3.157 7.889-7.048 7.889s-7.045-3.527-7.045-7.89 3.154-7.89 7.045-7.89 7.047 3.528 7.047 7.89"/></svg>
