<?xml version="1.0" encoding="UTF-8" standalone="no"?>
<svg
   viewBox="0 0 474.0018 446.76001"
   version="1.1"
   id="svg35"
   sodipodi:docname="literature-297187.svg"
   width="474.0018"
   height="446.76001"
   xmlns:inkscape="http://www.inkscape.org/namespaces/inkscape"
   xmlns:sodipodi="http://sodipodi.sourceforge.net/DTD/sodipodi-0.dtd"
   xmlns:xlink="http://www.w3.org/1999/xlink"
   xmlns="http://www.w3.org/2000/svg"
   xmlns:svg="http://www.w3.org/2000/svg">
  <sodipodi:namedview
     id="namedview35"
     pagecolor="#ffffff"
     bordercolor="#000000"
     borderopacity="0.25"
     inkscape:showpageshadow="2"
     inkscape:pageopacity="0.0"
     inkscape:pagecheckerboard="0"
     inkscape:deskcolor="#d1d1d1" />
  <defs
     id="defs2">
    <linearGradient
       id="c"
       x1="238.98"
       x2="238.98"
       y1="354.01999"
       y2="362.28"
       gradientUnits="userSpaceOnUse"
       xlink:href="#a" />
    <linearGradient
       id="d"
       x1="229.44"
       x2="229.44"
       y1="354.01999"
       y2="362.28"
       gradientUnits="userSpaceOnUse"
       xlink:href="#a" />
    <linearGradient
       id="e"
       x1="176.39"
       x2="176.39"
       y1="354.01999"
       y2="362.28"
       gradientUnits="userSpaceOnUse"
       xlink:href="#a" />
    <linearGradient
       id="f"
       x1="195.75"
       x2="195.75"
       y1="354.01999"
       y2="362.28"
       gradientUnits="userSpaceOnUse"
       xlink:href="#a" />
    <linearGradient
       id="b"
       x1="219.61"
       x2="219.61"
       y1="354.01999"
       y2="362.28"
       gradientUnits="userSpaceOnUse"
       xlink:href="#a" />
    <linearGradient
       id="a">
      <stop
         stop-color="#ffb142"
         offset="0"
         id="stop1" />
      <stop
         stop-color="#c87600"
         offset="1"
         id="stop2" />
    </linearGradient>
    <linearGradient
       id="h"
       x1="346.23999"
       x2="359.47"
       y1="537.40997"
       y2="537.40997"
       gradientTransform="matrix(0.64148,0,0,0.77805,125.37,117.53)"
       gradientUnits="userSpaceOnUse"
       xlink:href="#a" />
    <linearGradient
       id="g"
       x1="186.21001"
       x2="186.21001"
       y1="354.01999"
       y2="362.28"
       gradientUnits="userSpaceOnUse"
       xlink:href="#a" />
    <pattern
       id="i"
       width="2"
       height="1"
       patternTransform="matrix(0 4.4721 -4.4721 0 -50.004 -3.0322e-6)"
       patternUnits="userSpaceOnUse">
      <rect
         y="-.5"
         width="1"
         height="2"
         id="rect2" />
    </pattern>
  </defs>
  <g
     fill-rule="evenodd"
     stroke-width="4"
     id="g8"
     transform="translate(-87.002056,-26.92)">
    <g
       stroke-linejoin="round"
       id="g4">
      <g
         fill="#3f007f"
         stroke="#000000"
         id="g3">
        <path
           d="m 97.8,471.63 9.8995,-18.385 c -19.799,-57.983 0,-95.459 0,-95.459 L 97.8,376.171 c 0,0 -19.799,37.477 0,95.459 z"
           stroke-linecap="round"
           id="path2" />
        <path
           d="m 98.004,471.68 h 461 L 427.164,243.32 h -197.16 z"
           id="path3" />
      </g>
      <path
         d="M 230,243.31 101.47,465.69 H 543 L 414.62,243.31 Z"
         fill-opacity="0.314"
         id="path4" />
    </g>
    <g
       stroke="#000000"
       id="g7">
      <g
         stroke-linecap="round"
         id="g6">
        <path
           d="m 107.7,453.95 c -19.799,-57.983 0,-95.459 0,-95.459 l 421.79,0.3536 v 95.106 H 107.7 Z"
           fill="#ffffff"
           id="path5" />
        <path
           d="m 107.7,453.95 c -19.799,-57.983 0,-95.459 0,-95.459 l 421.79,0.3536 v 95.106 H 107.7 Z"
           fill="url(#i)"
           opacity="0.193"
           id="path6" />
      </g>
      <path
         d="m 98.004,375.63 h 461 L 427.164,147.27 h -197.16 z"
         fill="#3f007f"
         stroke-linejoin="round"
         id="path7" />
    </g>
  </g>
  <g
     stroke-linecap="round"
     id="g18"
     transform="translate(-87.002056,-26.92)">
    <path
       d="m 516.66,321.06 c 0.0447,25.726 -74.094,46.587 -165.56,46.587 -91.47,0 -165.61,-20.861 -165.56,-46.587 -0.0447,-25.726 74.094,-46.587 165.56,-46.587 91.47,0 165.61,20.861 165.56,46.587 v -3e-5 z"
       fill-opacity="0.314"
       stroke-width="7.77"
       id="path8" />
    <g
       stroke="#000000"
       stroke-linejoin="round"
       stroke-width="2.869"
       id="g14">
      <path
         d="m 321,371.15 c 0,12.716 -6.3799,23.024 -14.25,23.024 -7.8701,0 -14.25,-10.308 -14.25,-23.024 0,-12.716 6.3799,-23.024 14.25,-23.024 7.8701,0 14.25,10.308 14.25,23.024 z"
         fill="url(#b)"
         id="path9"
         style="fill:url(#b)" />
      <path
         d="m 286.5,371.15 c 0,12.716 -6.3799,23.024 -14.25,23.024 -7.8701,0 -14.25,-10.308 -14.25,-23.024 0,-12.716 6.3799,-23.024 14.25,-23.024 7.8701,0 14.25,10.308 14.25,23.024 z"
         fill="url(#c)"
         id="path10"
         style="fill:url(#c)" />
      <path
         d="m 303.5,371.15 c 0,12.716 -6.3799,23.024 -14.25,23.024 -7.8701,0 -14.25,-10.308 -14.25,-23.024 0,-12.716 6.3799,-23.024 14.25,-23.024 7.8701,0 14.25,10.308 14.25,23.024 z"
         fill="url(#d)"
         id="path11"
         style="fill:url(#d)" />
      <path
         d="m 398,371.15 c 0,12.716 -6.38,23.024 -14.25,23.024 -7.8701,0 -14.25,-10.308 -14.25,-23.024 0,-12.716 6.3799,-23.024 14.25,-23.024 7.87,0 14.25,10.308 14.25,23.024 z"
         fill="url(#e)"
         id="path12"
         style="fill:url(#e)" />
      <path
         d="m 363.5,371.15 c 0,12.716 -6.38,23.024 -14.25,23.024 -7.8701,0 -14.25,-10.308 -14.25,-23.024 0,-12.716 6.3799,-23.024 14.25,-23.024 7.87,0 14.25,10.308 14.25,23.024 z"
         fill="url(#f)"
         id="path13"
         style="fill:url(#f)" />
      <path
         d="m 380.5,371.15 c 0,12.716 -6.38,23.024 -14.25,23.024 -7.8701,0 -14.25,-10.308 -14.25,-23.024 0,-12.716 6.3799,-23.024 14.25,-23.024 7.87,0 14.25,10.308 14.25,23.024 z"
         fill="url(#g)"
         id="path14"
         style="fill:url(#g)" />
    </g>
    <path
       d="m 272.25,348.12 c -5.8064,0 -10.78,5.6303 -13,13.688 18.971,5.0743 39.814,8.0342 61.719,8.4375 -0.29837,-12.285 -6.5429,-22.125 -14.219,-22.125 -3.3009,0 -6.3333,1.8275 -8.75,4.875 -2.4167,-3.0475 -5.4491,-4.875 -8.75,-4.875 -3.1858,0 -6.1261,1.7048 -8.5,4.5625 -2.374,-2.8577 -5.3142,-4.5625 -8.5,-4.5625 z m 77,0 c -7.6562,0 -13.891,9.7905 -14.219,22.031 21.881,-0.70435 42.616,-3.9836 61.438,-9.3438 -2.3472,-7.5156 -7.1571,-12.688 -12.719,-12.688 -3.3009,0 -6.3333,1.8275 -8.75,4.875 -2.4167,-3.0475 -5.4491,-4.875 -8.75,-4.875 -3.1858,0 -6.1261,1.7048 -8.5,4.5625 -2.374,-2.8577 -5.3142,-4.5625 -8.5,-4.5625 z"
       fill-opacity="0.314"
       stroke-width="6.429"
       id="path15" />
    <g
       stroke="#000000"
       id="g17">
      <path
         d="M 491.66,195.06 C 491.7047,286.53 417.566,360.7 326.1,360.7 234.63,360.7 160.49,286.525 160.54,195.06 160.4953,103.59 234.634,29.42 326.1,29.42 c 91.47,0 165.61,74.175 165.56,165.64 v -6e-5 z"
         fill="#784421"
         stroke-width="5"
         id="path16" />
      <path
         d="m 407.94,277.85 c -26.5,-4.9236 -2.2474,21.631 -6.3107,31.233 -16.063,-7.8984 -9.9427,18.25 -17.207,25.514 -13.764,-0.73608 -15.912,13.143 -25.514,17.207 -11.602,-6.4366 -20.156,6.3107 -31.233,6.3107 -11.076,0 -17.631,-12.247 -31.233,-6.3107 -9.6016,-4.0634 -11.75,-17.443 -25.514,-17.207 -7.2639,-7.2639 -6.1432,-34.912 -17.207,-25.514 -4.0634,-9.6016 14.689,-38.156 -6.3107,-31.233 0,-11.076 22.247,-31.631 6.3107,-31.233 4.0634,-9.6016 24.443,-16.75 17.207,-25.514 14.528,-14.528 34.594,-23.517 56.747,-23.517 22.153,0 42.219,8.9896 56.747,23.517 -10.736,5.2639 13.143,15.912 17.207,25.514 -17.937,-0.89842 6.3107,20.156 6.3107,31.233 z"
         fill="#ffffff"
         stroke-linejoin="round"
         stroke-width="4.412"
         id="path17" />
    </g>
  </g>
  <g
     stroke-width="5"
     id="g23"
     transform="translate(-87.002056,-26.92)">
    <path
       d="m 472.38,117.5 c 1.9806,10.232 3.0312,20.785 3.0312,31.594 0,3.7299 -0.13174,7.4251 -0.37497,11.094 -3.6726,-0.18282 -7.5783,0.019 -11.75,0.625 -35.215,7.4987 -20.173,51.664 -29.344,97.875 -30.342,34.329 -74.709,55.969 -124.09,55.969 -30.373,0 -58.832,-8.2072 -83.312,-22.5 -23.679,-55.443 8.0762,-115.66 -33.656,-126.06 -46.11,-8.3254 -63.97,34.456 -34.156,98.562 16.461,35.394 43.723,52.78 63.781,59.531 28.363,22.8 64.392,36.438 103.59,36.438 45.95,0 87.557,-18.739 117.56,-49 17.454,-8.7175 36.862,-24.595 50.344,-51.156 25.212,-49.671 20.385,-87.078 -5.4688,-97.438 -3.1699,-16.136 -8.666,-31.442 -16.156,-45.531 z"
       fill-opacity="0.314"
       fill-rule="evenodd"
       id="path18" />
    <g
       stroke="#000000"
       id="g22">
      <g
         fill="#784421"
         fill-rule="evenodd"
         id="g21">
        <path
           d="m 192.74,158.04 c 48.111,17.3 -14.163,94.143 37.819,161.19 9.6084,12.393 -57.868,2.0908 -81.723,-66.585 -23.198,-66.786 -1.1324,-107.54 43.904,-94.607 z"
           id="path19" />
        <path
           d="m 459.18,158.04 c -48.111,17.3 14.163,94.143 -37.819,161.19 -9.6084,12.393 57.868,2.0908 81.723,-66.585 23.198,-66.786 1.1323,-107.54 -43.904,-94.607 z"
           id="path20" />
        <path
           d="m 441.51,149 c 13.389,-4.609 27.221,7.5839 29.865,14.18 -13.512,-3.4523 -19.72,-4.4258 -23.218,-1.3807 1.5067,3.3714 17.408,6.7419 22.337,28.871 -12.429,-8.6166 -22.304,-18.576 -26.272,-14.483 2.8816,5.0339 6.1995,14.497 3.9636,23.881 -7.1415,-9.4244 -14.439,-19.378 -21.142,-19.648"
           stroke-linecap="round"
           stroke-linejoin="round"
           id="path21" />
      </g>
      <path
         d="m 280.15,67.264 c -31.234,0 -56.603,29.331 -56.603,65.472 0,36.14 25.369,65.472 56.603,65.472 18.356,0 34.644,-10.141 44.985,-25.829 10.34,15.7 26.664,25.829 45.027,25.829 31.234,0 56.603,-29.331 56.603,-65.472 0,-36.14 -25.369,-65.472 -56.603,-65.472 -18.361,0 -34.688,10.133 -45.027,25.83 -10.341,-15.685 -26.631,-25.83 -44.985,-25.83 z"
         fill="#ffffff"
         stroke-linecap="round"
         id="path22" />
    </g>
    <path
       d="m 326.85,178.17 c -9.288,0 -19.384,10.327 -18.98,16.85 0.40381,6.5225 16.557,33.699 20.191,33.699 3.6344,0 17.768,-26.633 17.364,-34.243 -0.40387,-7.6096 -12.519,-16.85 -18.576,-16.306 z"
       fill-opacity="0.314"
       fill-rule="evenodd"
       id="path23" />
  </g>
  <g
     stroke="#000000"
     id="g30"
     transform="translate(-87.002056,-26.92)">
    <path
       d="m 324.73,167.56 c -9.288,0 -19.384,9.3062 -18.98,15.184 0.40381,5.8776 16.557,30.368 20.191,30.368 3.6344,0 17.768,-24 17.364,-30.857 -0.40378,-6.8572 -12.519,-15.184 -18.576,-14.694 z"
       fill="url(#h)"
       fill-rule="evenodd"
       stroke-width="5"
       id="path24"
       style="fill:url(#h)" />
    <path
       d="m 321.56,137.16 c 6e-5,9.0504 -7.3367,16.387 -16.387,16.387 -9.0504,0 -16.387,-7.3368 -16.387,-16.387 0,-9.0504 7.3367,-16.387 16.387,-16.387 9.0503,0 16.387,7.3367 16.387,16.387 h -6e-5 z"
       stroke-linecap="round"
       stroke-width="3.169"
       id="path25" />
    <g
       fill-rule="evenodd"
       stroke-linejoin="round"
       stroke-width="5"
       id="g29">
      <path
         d="m 210.15,149 c -13.389,-4.609 -27.221,7.5839 -29.865,14.18 13.512,-3.4523 19.72,-4.4258 23.218,-1.3807 -1.5067,3.3714 -17.408,6.7419 -22.337,28.871 12.429,-8.6166 22.304,-18.576 26.272,-14.483 -2.8816,5.0339 -6.1995,14.497 -3.9636,23.881 7.1415,-9.4244 14.439,-19.378 21.142,-19.648"
         fill="#784421"
         stroke-linecap="round"
         id="path26" />
      <g
         fill="#ffffff"
         id="g28">
        <path
           d="m 338.97,78.283 c 13.276,-32.16 35.666,-36.513 35.666,-36.513 0,0 -12.453,16.775 -1.174,12.109 17.465,-7.2259 72.997,15.418 72.997,15.418 0,0 -73.574,-17.126 -107.49,8.9861 z"
           id="path27" />
        <path
           d="M 308.53,75.283 C 295.254,43.123 272.864,38.77 272.864,38.77 c 0,0 12.453,16.775 1.174,12.109 -17.465,-7.2259 -72.997,15.418 -72.997,15.418 0,0 73.574,-17.126 107.49,8.9862 z"
           id="path28" />
      </g>
    </g>
    <path
       d="m 363.06,137.16 c 6e-5,9.0504 -7.3367,16.387 -16.387,16.387 -9.0504,0 -16.387,-7.3368 -16.387,-16.387 0,-9.0504 7.3368,-16.387 16.387,-16.387 9.0504,0 16.387,7.3367 16.387,16.387 h -6e-5 z"
       stroke-linecap="round"
       stroke-width="3.169"
       id="path29" />
  </g>
  <g
     fill="#ffffff"
     stroke-linejoin="round"
     stroke-width="5"
     id="g31"
     transform="translate(-87.002056,-26.92)">
    <path
       d="m 303.5,131.43 c 0,2.3472 -1.9028,4.25 -4.25,4.25 -2.3472,0 -4.25,-1.9028 -4.25,-4.25 0,-2.3472 1.9028,-4.25 4.25,-4.25 2.3472,0 4.25,1.9028 4.25,4.25 z"
       id="path30" />
    <path
       d="m 345,131.43 c 0,2.3472 -1.9028,4.25 -4.25,4.25 -2.3472,0 -4.25,-1.9028 -4.25,-4.25 0,-2.3472 1.9028,-4.25 4.25,-4.25 2.3472,0 4.25,1.9028 4.25,4.25 z"
       id="path31" />
  </g>
  <g
     fill-rule="evenodd"
     id="g35"
     transform="translate(-87.002056,-26.92)">
    <g
       fill-opacity="0.314"
       id="g34">
      <g
         stroke-width="5"
         id="g33">
        <path
           d="m 474.94,155.66 c -0.41263,-6e-4 -0.83166,0.0205 -1.25,0.0312 16.212,13.064 23.073,43.297 14.781,85.344 -11.023,55.895 -53.577,80.008 -67.719,81.281 4.5921,6.5264 60.971,-8.1258 82.344,-69.656 20.299,-58.438 5.9208,-96.95 -28.156,-97 z"
           id="path32" />
        <path
           d="m 141.07,187.84 c -3.4518,16.506 -1.2985,38.673 7.7812,64.812 23.855,68.676 91.327,78.987 81.719,66.594 -4.1089,-5.2998 -7.5204,-10.674 -10.312,-16.062 -18.952,-4.5414 -54.048,-24.376 -69.906,-70.031 -5.8796,-16.927 -8.8539,-32.18 -9.2812,-45.312 z m 71.281,6.3438 c -0.88286,8.5361 -1.8562,17.612 -2.2812,27.125 0.9933,-9.7906 2.0794,-18.941 2.2812,-27.125 z"
           id="path33" />
      </g>
      <path
         d="m 207.94,417.18 h -56.5 c 0,0 -12.828,5.5333 10.578,34.583 -0.10393,-19.367 14.853,-20.75 14.853,-20.75 0,0 19.604,19.367 40.863,27.667 -25.535,-33.2 -7.7294,-39.425 -9.7941,-41.5 z"
         stroke-linejoin="round"
         stroke-width="4"
         id="path34" />
    </g>
    <path
       d="m 206.59,417.68 h -56.5 c 0,0 -17,4 -15.5,25 14.5,-14 30.5,-15 30.5,-15 0,0 5,14 20,20 -0.5,-24 22,-28.5 21.5,-30 z"
       fill="#007f00"
       stroke="#000000"
       stroke-linejoin="round"
       stroke-width="4"
       id="path35" />
  </g>
</svg>
